<?xml version="1.0" encoding="UTF-8"?>
<svg width="185px" height="24px" viewBox="0 0 185 24" version="1.1" xmlns="http://www.w3.org/2000/svg" xmlns:xlink="http://www.w3.org/1999/xlink">
    <!-- Generator: Sketch 60.1 (88133) - https://sketch.com -->
    <title>Jira Software-blue (1)</title>
    <desc>Created with Sketch.</desc>
    <defs>
        <linearGradient x1="67.6800148%" y1="40.3276956%" x2="40.820818%" y2="81.6596195%" id="linearGradient-1">
            <stop stop-color="#0052CC" offset="18%"></stop>
            <stop stop-color="#2684FF" offset="100%"></stop>
        </linearGradient>
        <linearGradient x1="32.6559851%" y1="59.1664468%" x2="59.3430302%" y2="17.9899763%" id="linearGradient-2">
            <stop stop-color="#0052CC" offset="18%"></stop>
            <stop stop-color="#2684FF" offset="100%"></stop>
        </linearGradient>
    </defs>
    <g id="Page-1" stroke="none" stroke-width="1" fill="none" fill-rule="evenodd">
        <g id="Desktop-HD-Copy-2" transform="translate(-555.000000, -733.000000)" fill-rule="nonzero">
            <g id="Jira-Software-blue-(1)" transform="translate(555.000000, 733.000000)">
                <path d="M34.5094737,2.84210526 L37.0105263,2.84210526 L37.0105263,15.5368421 C37.0105263,18.9 35.5389474,21.2210526 32.0905263,21.2210526 C31.0707532,21.2364841 30.0559343,21.0762495 29.0905263,20.7473684 L29.0905263,18.3157895 C29.9140318,18.6350683 30.7904739,18.795785 31.6736842,18.7894737 C33.7863158,18.7894737 34.5157895,17.5263158 34.5157895,15.7042105 L34.5094737,2.84210526 Z" id="Path" fill="#253858"></path>
                <path d="M41.5673684,1.86631579 C42.018711,1.83401818 42.4618388,1.99928689 42.7818023,2.31925035 C43.1017657,2.63921381 43.2670345,3.08234167 43.2347368,3.53368421 C43.2347368,4.45454636 42.4882306,5.20105263 41.5673684,5.20105263 C40.6465063,5.20105263 39.9,4.45454636 39.9,3.53368421 C39.8677024,3.08234167 40.0329711,2.63921381 40.3529346,2.31925035 C40.672898,1.99928689 41.1160259,1.83401818 41.5673684,1.86631579 L41.5673684,1.86631579 Z M40.3452632,7.20315789 L42.7357895,7.20315789 L42.7357895,21.0978947 L40.3452632,21.0978947 L40.3452632,7.20315789 Z" id="Shape" fill="#253858"></path>
                <path d="M46.3452632,7.2 L48.6789474,7.2 L48.6789474,9.64421053 C49.4842105,8.00526316 50.8894737,6.83684211 53.5989474,7.00421053 L53.5989474,9.33789474 C50.5421053,9.02210526 48.6789474,9.95052632 48.6789474,12.8936842 L48.6789474,21.1042105 L46.3452632,21.1042105 L46.3452632,7.2 Z" id="Path" fill="#253858"></path>
                <path d="M64.7968421,18.5936842 C63.9063158,20.4284211 62.2389474,21.3726316 60.1010526,21.3726316 C56.4063158,21.3726316 54.5431579,18.2336842 54.5431579,14.1473684 C54.5431579,10.2284211 56.4884211,6.92210526 60.3789474,6.92210526 C62.4063158,6.92210526 63.9631579,7.83789474 64.8,9.64421053 L64.8,7.2 L67.1905263,7.2 L67.1905263,21.0947368 L64.8,21.0947368 L64.7968421,18.5936842 Z M60.7389474,19.1494737 C62.88,19.1494737 64.7968421,17.7884211 64.7968421,14.7031579 L64.7968421,13.5789474 C64.7968421,10.4936842 63.0473684,9.13263158 61.0073684,9.13263158 C58.3105263,9.13263158 56.9210526,10.9105263 56.9210526,14.1347368 C56.9336842,17.4821053 58.2663158,19.1494737 60.7421053,19.1494737 L60.7389474,19.1494737 Z" id="Shape" fill="#253858"></path>
                <path d="M81.3315789,21.3726316 C77.8010526,21.3726316 76.1621053,20.6778947 74.7442105,19.9547368 L74.7442105,17.4 C76.44,18.2905263 79.0515789,18.9284211 81.4673684,18.9284211 C84.2178947,18.9284211 85.2568421,17.8452632 85.2568421,16.2315789 C85.2568421,14.6178947 84.2557895,13.7589474 80.7821053,12.9252632 C76.6768421,11.9242105 74.8357895,10.5063158 74.8357895,7.50631579 C74.8357895,4.66421053 77.0021053,2.56105263 81.2557895,2.56105263 C83.8957895,2.56105263 85.5915789,3.19263158 86.8421053,3.89368421 L86.8421053,6.39473684 C85.103679,5.43681127 83.1421957,4.95733757 81.1578947,5.00526316 C78.7673684,5.00526316 77.3494737,5.83894737 77.3494737,7.50631579 C77.3494737,9.00631579 78.5178947,9.75789474 81.7389474,10.5631579 C85.6010526,11.5357895 87.7705263,12.7736842 87.7705263,16.0642105 C87.7515789,19.2315789 85.8631579,21.3726316 81.3315789,21.3726316 Z" id="Path" fill="#253858"></path>
                <path d="M89.8642105,14.1189474 C89.8642105,9.95052632 92.3084211,6.92210526 96.4768421,6.92210526 C100.645263,6.92210526 103.035789,9.95052632 103.035789,14.1189474 C103.035789,18.2873684 100.616842,21.3821053 96.4768421,21.3821053 C92.3368421,21.3821053 89.8642105,18.2873684 89.8642105,14.1189474 Z M92.1978947,14.1189474 C92.1978947,16.7589474 93.5052632,19.1494737 96.4768421,19.1494737 C99.4484211,19.1494737 100.702105,16.7589474 100.702105,14.1189474 C100.702105,11.4789474 99.4231579,9.15789474 96.4768421,9.15789474 C93.5305263,9.15789474 92.2105263,11.4789474 92.2105263,14.1189474 L92.1978947,14.1189474 Z" id="Shape" fill="#253858"></path>
                <path d="M109.121053,7.2 L112.705263,7.2 L112.705263,9.41052632 L109.121053,9.41052632 L109.121053,21.0947368 L106.787368,21.0947368 L106.787368,9.41052632 L104.526316,9.41052632 L104.526316,7.2 L106.777895,7.2 L106.777895,5.68421053 C106.777895,3.10105263 108.224211,1.34833178 111.198947,1.34833178 C111.743554,1.34538476 112.285825,1.41981412 112.809474,1.56947368 L112.809474,3.78 C112.315046,3.68597768 111.81276,3.63945014 111.309474,3.64105263 C109.837895,3.64105263 109.098947,4.50315789 109.098947,5.75368421 L109.121053,7.2 Z" id="Path" fill="#253858"></path>
                <path d="M120.792632,18.7610526 C121.29791,18.7459765 121.800412,18.6803867 122.292632,18.5652632 L122.292632,20.8705263 C121.769019,21.0203542 121.226723,21.0947869 120.682105,21.0916784 C117.707368,21.0916784 116.261053,19.3421053 116.261053,16.7557895 L116.261053,9.42315789 L114,9.42315789 L114,7.21263158 L116.251579,7.21263158 L116.251579,4.25368421 L118.585263,4.25368421 L118.585263,7.2 L122.28,7.2 L122.28,9.41052632 L118.585263,9.41052632 L118.585263,16.7052632 C118.597895,17.9273684 119.321053,18.7610526 120.792632,18.7610526 Z" id="Path" fill="#253858"></path>
                <polygon id="Path" fill="#253858" points="122.962105 7.2 125.602105 7.2 129.603158 18.9821053 133.657895 7.2 135.937895 7.2 139.995789 18.9821053 144 7.2 146.64 7.2 141.527368 21.0947368 138.470526 21.0947368 136.08 14.3715789 134.816842 10.0926316 133.553684 14.3715789 131.131579 21.0947368 128.074737 21.0947368"></polygon>
                <path d="M157.556842,18.5936842 C156.666316,20.4284211 154.998947,21.3726316 152.861053,21.3726316 C149.166316,21.3726316 147.303158,18.2336842 147.303158,14.1473684 C147.303158,10.2284211 149.248421,6.92210526 153.138947,6.92210526 C155.166316,6.92210526 156.723158,7.83789474 157.56,9.64421053 L157.56,7.2 L159.950526,7.2 L159.950526,21.0947368 L157.56,21.0947368 L157.556842,18.5936842 Z M153.498947,19.1494737 C155.64,19.1494737 157.556842,17.7884211 157.556842,14.7031579 L157.556842,13.5789474 C157.556842,10.4936842 155.807368,9.13263158 153.767368,9.13263158 C151.083158,9.15789474 149.684211,10.9231579 149.684211,14.1473684 C149.684211,17.4821053 151.026316,19.1494737 153.502105,19.1494737 L153.498947,19.1494737 Z" id="Shape" fill="#253858"></path>
                <path d="M163.56,7.2 L165.893684,7.2 L165.893684,9.64421053 C166.698947,8.00526316 168.104211,6.83684211 170.813684,7.00421053 L170.813684,9.33789474 C167.756842,9.02210526 165.893684,9.95052632 165.893684,12.8936842 L165.893684,21.1042105 L163.56,21.1042105 L163.56,7.2 Z" id="Path" fill="#253858"></path>
                <path d="M179.232632,21.3726316 C174.034737,21.3726316 171.757895,18.3726316 171.757895,14.1094737 C171.757895,9.91263158 174.091579,6.91263158 178.316842,6.91263158 C182.595789,6.91263158 184.316842,9.88736842 184.316842,14.1094737 L184.316842,15.1926316 L174.176842,15.1926316 C174.511579,17.5547368 176.04,19.0831579 179.317895,19.0831579 C180.759448,19.0818441 182.189577,18.8274564 183.543158,18.3315789 L183.543158,20.5421053 C182.403158,21.1578947 180.650526,21.3726316 179.232632,21.3726316 Z M174.148421,13.1621053 L181.894737,13.1621053 C181.755789,10.5789474 180.587368,9.10421053 178.2,9.10421053 C175.676842,9.09157895 174.397895,10.7368421 174.148421,13.1463158 L174.148421,13.1621053 Z" id="Shape" fill="#253858"></path>
                <path d="M22.8631579,11.2926316 L12.5684211,0.997894737 L11.5705263,0 L11.5705263,0 L3.82105263,7.74947368 L3.82105263,7.74947368 L0.277894737,11.2926316 C-0.0915200565,11.6625064 -0.0915200565,12.2617042 0.277894737,12.6315789 L7.35789474,19.7115789 L11.5705263,23.9242105 L19.32,16.1747368 L19.44,16.0547368 L22.8631579,12.6315789 C23.2325727,12.2617042 23.2325727,11.6625064 22.8631579,11.2926316 Z M11.5705263,15.4989474 L8.03368421,11.9621053 L11.5705263,8.42526316 L15.1073684,11.9621053 L11.5705263,15.4989474 Z" id="Shape" fill="#2684FF"></path>
                <path d="M11.5705263,8.42526316 C9.25486682,6.10933009 9.24358112,2.35824608 11.5452632,0.0284210526 L3.80526316,7.76526316 L8.01789474,11.9778947 L11.5705263,8.42526316 Z" id="Path" fill="url(#linearGradient-1)"></path>
                <path d="M15.1168421,11.9526316 L11.5705263,15.4989474 C12.6882199,16.6159762 13.3161895,18.1313915 13.3161895,19.7115789 C13.3161895,21.2917664 12.6882199,22.8071817 11.5705263,23.9242105 L11.5705263,23.9242105 L19.3294737,16.1652632 L15.1168421,11.9526316 Z" id="Path" fill="url(#linearGradient-2)"></path>
            </g>
        </g>
    </g>
</svg>