<?xml version="1.0" encoding="UTF-8"?>
<svg width="87px" height="24px" viewBox="0 0 87 24" version="1.1" xmlns="http://www.w3.org/2000/svg" xmlns:xlink="http://www.w3.org/1999/xlink">
    <!-- Generator: Sketch 60.1 (88133) - https://sketch.com -->
    <title>GitHub_logo_2013_padded</title>
    <desc>Created with Sketch.</desc>
    <g id="Page-1" stroke="none" stroke-width="1" fill="none" fill-rule="evenodd">
        <g id="Desktop-HD-Copy-2" transform="translate(-779.000000, -733.000000)" fill="#161312" fill-rule="nonzero">
            <g id="GitHub_logo_2013_padded" transform="translate(779.000000, 733.000000)">
                <g id="g3018" transform="translate(0.479400, 0.479400)">
                    <path d="M16.6425803,10.0015834 L9.38140052,10.0015834 C9.19409857,10.0015834 9.04215116,10.1535999 9.04215116,10.3410487 L9.04215116,13.8910588 C9.04215116,14.0783607 9.19409857,14.2308825 9.38140052,14.2308825 L12.2140308,14.2308825 L12.2140308,18.6414913 C12.2140308,18.6414913 11.5778893,18.8583211 9.81962449,18.8583211 C7.74507161,18.8583211 4.84708966,18.1002437 4.84708966,11.7276733 C4.84708966,5.35366787 7.86468433,4.51503586 10.6978011,4.51503586 C13.1501246,4.51503586 14.2066977,4.94685737 14.8789523,5.15485071 C15.0901483,5.21962372 15.2855469,5.00929136 15.2855469,4.82180947 L16.0955506,1.39171868 C16.0955506,1.30409519 16.065899,1.19847919 15.9658794,1.12668911 C15.6928439,0.932011662 14.0272591,-1.43940025e-06 9.81962161,-1.43940025e-06 C4.97218937,-1.43940025e-06 -4.31820075e-06,2.06229927 -4.31820075e-06,11.9761872 C-4.31820075e-06,21.8904105 5.69273587,23.3677649 10.4899863,23.3677649 C14.461958,23.3677649 16.8716206,21.670355 16.8716206,21.670355 C16.9709377,21.6154635 16.9816094,21.4767139 16.9816094,21.4130435 L16.9816094,10.3410501 C16.9816094,10.1536042 16.8298794,10.0015848 16.642576,10.0015848" id="path3024"></path>
                    <path d="M54.0629738,1.18786506 C54.0629738,0.998943773 53.9132747,0.846547272 53.7259742,0.846547272 L49.6375377,0.846547272 C49.4507726,0.846547272 49.2989173,0.998943773 49.2989173,1.18786506 C49.2989173,1.18876612 49.2999983,9.08882371 49.2999983,9.08882371 L42.9272351,9.08882371 L42.9272351,1.18786506 C42.9272351,0.998943773 42.7768163,0.846547272 42.5898757,0.846547272 L38.5016191,0.846547272 C38.3155752,0.846547272 38.1638998,0.998943773 38.1638998,1.18786506 L38.1638998,22.5815026 C38.1638998,22.7702151 38.3155752,22.9238495 38.5016191,22.9238495 L42.5898757,22.9238495 C42.7768163,22.9238495 42.9272351,22.7702123 42.9272351,22.5815026 L42.9272351,13.4307026 L49.2999983,13.4307026 C49.2999983,13.4307026 49.2888415,22.5808001 49.2888415,22.5815026 C49.2888415,22.7702151 49.4405212,22.9238495 49.6274619,22.9238495 L53.7256143,22.9238495 C53.9129148,22.9238495 54.0626139,22.7702123 54.0629738,22.5815026 L54.0629738,1.18786506" id="path3026"></path>
                    <path d="M24.357531,3.99523532 C24.357531,2.52309015 23.1772228,1.33342585 21.7210895,1.33342585 C20.2663957,1.33342585 19.0851878,2.52309015 19.0851878,3.99523532 C19.0851878,5.46585184 20.2663957,6.65870154 21.7210895,6.65870154 C23.1772243,6.65870154 24.357531,5.46585328 24.357531,3.99523532" id="path3028"></path>
                    <path d="M24.0651529,18.0686114 C24.0651529,17.5204878 24.0651529,8.19326198 24.0651529,8.19326198 C24.0651529,8.00574411 23.9138359,7.85246814 23.7268924,7.85246814 L19.6514105,7.85246814 C19.4644698,7.85246814 19.2971366,8.04531179 19.2971366,8.23275768 C19.2971366,8.23275768 19.2971366,20.1159783 19.2971366,22.3811999 C19.2971366,22.7970614 19.5562273,22.9206195 19.8916075,22.9206195 C19.8916075,22.9206195 21.6311213,22.9206195 23.5635161,22.9206195 C23.9663683,22.9206195 24.0651529,22.722915 24.0651529,22.3745917 C24.0651529,21.616163 24.0651529,18.6452913 24.0651529,18.0686114" id="path3030"></path>
                    <path d="M69.6007611,7.88465169 L65.5436316,7.88465169 C65.3575877,7.88465169 65.2060922,8.03800683 65.2060922,8.22671076 L65.2060922,18.7167014 C65.2060922,18.7167014 64.1754817,19.4707672 62.7125098,19.4707672 C61.2497222,19.4707672 60.8614425,18.8070237 60.8614425,17.3746377 C60.8614425,15.9405085 60.8614425,8.22670789 60.8614425,8.22670789 C60.8614425,8.03800251 60.7103026,7.88465169 60.5240831,7.88465169 L56.4064973,7.88465169 C56.2206376,7.88465169 56.0684182,8.03800251 56.0684182,8.22670789 C56.0684182,8.22670789 56.0684182,13.8130375 56.0684182,18.0673462 C56.0684182,22.3218765 58.4396501,23.3626982 61.7016924,23.3626982 C64.3777174,23.3626982 66.5353769,21.8842887 66.5353769,21.8842887 C66.5353769,21.8842887 66.6381184,22.66338 66.6845348,22.7558024 C66.7311368,22.8479442 66.8522263,22.9409985 66.9830318,22.9409985 L69.6025618,22.9294704 C69.7884215,22.9294704 69.9406366,22.7758331 69.9406366,22.587964 L69.93938,8.22670645 C69.93938,8.03800107 69.7877004,7.88465169 69.6007597,7.88465169" id="path3032"></path>
                    <path d="M79.0891048,19.4578284 C77.6819111,19.4149717 76.7274131,18.776435 76.7274131,18.776435 L76.7274131,12.0014847 C76.7274131,12.0014847 77.6691379,11.4243211 78.8244365,11.3211536 C80.2854306,11.1902747 81.6931597,11.6315962 81.6931597,15.1167973 C81.6931597,18.7919086 81.057843,19.5171504 79.0891048,19.4578299 L79.0891048,19.4578284 Z M80.6893566,7.40405754 C78.3850596,7.40405754 76.8177269,8.43214773 76.8177269,8.43214773 L76.8177269,1.18786218 C76.8177269,0.998940895 76.6667755,0.846544393 76.4803674,0.846544393 L72.3804229,0.846544393 C72.1940192,0.846544393 72.0425237,0.998940895 72.0425237,1.18786218 L72.0425237,22.5815011 C72.0425237,22.7702137 72.1940192,22.9238481 72.3809598,22.9238481 C72.3813197,22.9238481 75.2246807,22.9238481 75.225576,22.9238481 C75.3536841,22.9238481 75.4506579,22.8578545 75.5222767,22.7421684 C75.5929815,22.6271848 75.6949975,21.7558136 75.6949975,21.7558136 C75.6949975,21.7558136 77.3715419,23.3445675 80.5452424,23.3445675 C84.2711313,23.3445675 86.4079167,21.4545817 86.4079167,14.8602573 C86.4079167,8.2657876 82.9952801,7.4040561 80.689358,7.4040561" id="path3034"></path>
                    <path d="M35.815514,7.85055949 L32.7486947,7.85055949 C32.7486947,7.85055949 32.7440167,3.7998353 32.7440167,3.79893711 C32.7440167,3.64564098 32.6650296,3.56899292 32.4878034,3.56899292 L28.3085048,3.56899292 C28.1460325,3.56899292 28.0587688,3.64042316 28.0587688,3.79659808 L28.0587688,7.98339886 C28.0587688,7.98339886 25.9644415,8.48902419 25.8228419,8.5298499 C25.6817793,8.57076485 25.577964,8.70077868 25.577964,8.85596473 L25.577964,11.4869552 C25.577964,11.6761471 25.729101,11.8287408 25.9160431,11.8287408 L28.0587674,11.8287408 C28.0587674,11.8287408 28.0587674,14.5805315 28.0587674,18.1582328 C28.0587674,22.8594767 31.3564319,23.3213788 33.5817476,23.3213788 C34.5985025,23.3213788 35.8147972,22.9947702 36.0155921,22.9206224 C36.1370415,22.8759967 36.207575,22.7502578 36.207575,22.6139107 L36.2109921,19.719569 C36.2109921,19.530865 36.0515771,19.3781461 35.8720119,19.3781461 C35.6933478,19.3781461 35.2361568,19.4508171 34.7654729,19.4508171 C33.2591406,19.4508171 32.7486933,18.7503718 32.7486933,17.84378 C32.7486933,16.9378387 32.7485133,11.8287422 32.7485133,11.8287422 L35.8155169,11.8287422 C36.0024619,11.8287422 36.1537774,11.6761471 36.1537774,11.4869566 L36.1537774,8.19144978 C36.1537774,8.00258175 36.0024619,7.85056381 35.8155169,7.85056381" id="path3036"></path>
                </g>
            </g>
        </g>
    </g>
</svg>