<?xml version="1.0" standalone="no"?>
<!DOCTYPE svg PUBLIC "-//W3C//DTD SVG 1.1//EN" "http://www.w3.org/Graphics/SVG/1.1/DTD/svg11.dtd" >
<svg xmlns="http://www.w3.org/2000/svg">
<metadata></metadata>
<defs>
<font id="elenarregular" horiz-adv-x="0" >
<font-face units-per-em="2048" ascent="1638" descent="-410" />
<missing-glyph horiz-adv-x="643" />
<glyph unicode="fi" horiz-adv-x="1222" d="M90 874v150h158v160q0 191 120 306.5t314 115.5q176 0 340 -88v-177q-176 105 -320 105q-118 0 -189 -73t-71 -199v-150h578v-1024h-195v874h-383v-874h-194v874h-158z" />
<glyph unicode="fl" horiz-adv-x="1251" d="M90 874v150h158v160q0 191 120 306.5t312 115.5q108 0 206 -29.5t163 -75.5v-1501h-193v1419q-86 27 -158 27q-113 0 -184.5 -73.5t-71.5 -198.5v-150h242v-150h-242v-874h-194v874h-158z" />
<glyph unicode="ffi" horiz-adv-x="1857" d="M90 874v150h158v160q0 190 122 306t316 116q91 0 179.5 -21t152.5 -57q115 78 268 78q108 0 206 -29.5t163 -75.5v-182q-73 57 -165 92t-185 35q-113 0 -184.5 -73.5t-71.5 -198.5v-150h606v-1024h-195v874h-411v-874h-195v874h-412v-874h-194v874h-158zM442 1024h412 v160q0 129 53 221q-103 41 -198 41q-118 0 -192.5 -73.5t-74.5 -198.5v-150z" />
<glyph unicode="ffl" horiz-adv-x="1857" d="M90 874v150h158v160q0 190 122 306t316 116q91 0 179.5 -21t152.5 -57q115 78 268 78q108 0 206 -29.5t163 -75.5v-1501h-193v1419q-86 27 -157 27q-113 0 -184.5 -73.5t-71.5 -198.5v-150h241v-150h-241v-874h-195v874h-412v-874h-194v874h-158zM442 1024h412v160 q0 129 53 221q-103 41 -198 41q-118 0 -192.5 -73.5t-74.5 -198.5v-150z" />
<glyph unicode=" "  horiz-adv-x="643" />
<glyph unicode="&#x09;" horiz-adv-x="643" />
<glyph unicode="&#xa0;" horiz-adv-x="643" />
<glyph unicode="!" horiz-adv-x="722" d="M238 104q0 52 36.5 88.5t87.5 36.5t88 -36.5t37 -88.5q0 -51 -37 -87.5t-88 -36.5t-87.5 36.5t-36.5 87.5zM264 1536h193l-21 -1081h-149z" />
<glyph unicode="&#x22;" horiz-adv-x="1015" d="M238 1536h182l-23 -584h-139zM596 1536h182l-22 -584h-140z" />
<glyph unicode="#" horiz-adv-x="1722" d="M188 354l19 144h289l69 460h-291l23 142h285l51 356h139l-47 -356h379l49 356h141l-51 -356h291l-23 -142h-286l-66 -460h287l-19 -144h-286l-54 -354h-139l49 354h-381l-49 -354h-141l51 354h-289zM639 498h379l65 460h-378z" />
<glyph unicode="$" horiz-adv-x="1243" d="M172 291l139 86q38 -99 122.5 -163t191.5 -64q112 0 187 71.5t75 192.5q0 59 -23 106t-61.5 78.5t-88.5 58t-105 50t-110 49t-105 60t-88.5 77.5t-61.5 107.5t-23 144.5q0 165 89.5 267.5t221.5 127.5v176h168v-180q81 -20 152 -66t121 -110l-113 -96q-44 59 -107 96 t-132 37q-95 0 -162.5 -65t-67.5 -177q0 -74 37 -129.5t96 -90t130 -65.5t142 -67t130 -81.5t96 -122t37 -177.5q0 -92 -30.5 -168.5t-82 -128t-114 -84t-132.5 -45.5v-172h-168v174q-120 24 -216.5 104.5t-143.5 188.5z" />
<glyph unicode="%" horiz-adv-x="1622" d="M166 1225q0 138 81.5 234.5t198.5 96.5q116 0 197.5 -96.5t81.5 -234.5q0 -135 -82 -232.5t-197 -97.5q-116 0 -198 97t-82 233zM207 0l1003 1536h203l-1005 -1536h-201zM317 1225q0 -75 37.5 -128t91.5 -53q52 0 90.5 53.5t38.5 127.5q0 75 -38.5 128.5t-90.5 53.5 q-54 0 -91.5 -53t-37.5 -129zM897 311q0 136 82 233t199 97q115 0 196.5 -97.5t81.5 -232.5q0 -138 -81 -234.5t-197 -96.5q-117 0 -199 96.5t-82 234.5zM1047 311q0 -76 37.5 -129t91.5 -53q53 0 91 53t38 129q0 75 -38 128t-91 53q-54 0 -91.5 -53t-37.5 -128z" />
<glyph unicode="&#x26;" horiz-adv-x="1538" d="M242 442q0 91 34.5 177.5t100.5 152.5l84 84l-51 51q-53 53 -82 124.5t-29 146.5q0 156 112 265t269 109t269 -109t112 -265h-174q0 84 -61 144t-146 60q-86 0 -147.5 -61t-61.5 -147q0 -84 61 -148l590 -586l211 207l121 -121l-209 -207l211 -206l-125 -125l-209 209 l-84 -84q-66 -66 -152 -101t-177 -35q-92 0 -179 35t-153 101t-100.5 152t-34.5 177zM412 442q0 -118 88 -206q89 -86 209 -86q117 0 206 86l84 83l-415 416l-84 -86q-88 -88 -88 -207z" />
<glyph unicode="'" horiz-adv-x="657" d="M238 1536h182l-23 -584h-139z" />
<glyph unicode="(" horiz-adv-x="935" d="M197 508q0 271 43 493t118.5 369.5t176.5 229.5t219 90v-140q-82 -9 -152 -84t-122.5 -205t-82.5 -324t-30 -429q0 -233 30 -425.5t82.5 -321.5t122.5 -203.5t152 -83.5v-140q-94 6 -178 58t-153.5 151.5t-119.5 237.5t-78 324t-28 403z" />
<glyph unicode=")" horiz-adv-x="935" d="M182 -526q82 9 152 83.5t122.5 203.5t82.5 321.5t30 425.5q0 235 -30 429t-82.5 324t-122.5 205t-152 84v140q94 -6 177.5 -59t153 -153t120 -239t78.5 -326t28 -405q0 -217 -28 -403.5t-78.5 -324t-120 -237t-153 -151.5t-177.5 -58v140z" />
<glyph unicode="*" horiz-adv-x="813" d="M156 1229v106l190 -18l-110 156l90 53l82 -172l79 172l93 -53l-113 -156l190 18v-106l-190 18l113 -155l-93 -54l-79 172l-82 -172l-90 54l110 155z" />
<glyph unicode="+" horiz-adv-x="1687" d="M236 559v152h534v559h150v-559h532v-152h-532v-559h-150v559h-534z" />
<glyph unicode="," horiz-adv-x="778" d="M250 104q0 52 36 88.5t89 36.5q74 0 113.5 -64t39.5 -161q0 -90 -30.5 -176.5t-92 -146.5t-139.5 -60v94q61 0 102.5 69t41.5 136q0 62 -37 62q-51 0 -87 35.5t-36 86.5z" />
<glyph unicode="-" horiz-adv-x="1191" d="M238 465v135h716v-135h-716z" />
<glyph unicode="." horiz-adv-x="749" d="M250 104q0 51 37 88t88 37t88 -37t37 -88t-37 -87.5t-88 -36.5t-88 36.5t-37 87.5z" />
<glyph unicode="/" horiz-adv-x="1327" d="M16 -512l1082 2048h184l-1081 -2048h-185z" />
<glyph unicode="0" horiz-adv-x="1339" d="M143 768q0 227 61.5 404.5t182.5 280.5t283 103t282.5 -103t182 -280t61.5 -405t-61.5 -405t-182 -280t-282.5 -103t-283 103t-182.5 280.5t-61.5 404.5zM338 768q0 -179 37 -316.5t113.5 -219.5t183.5 -82q106 0 182 82t113 220t37 316t-37 316t-113 220t-182 82 q-107 0 -183.5 -82t-113.5 -219.5t-37 -316.5z" />
<glyph unicode="1" horiz-adv-x="800" d="M121 1366v170h409v-1536h-192v1366h-217z" />
<glyph unicode="2" horiz-adv-x="1132" d="M131 0v133q452 560 550.5 705.5t98.5 269.5q0 131 -62.5 203t-152.5 75q-97 2 -159.5 -76t-61.5 -208l-184 2q-7 200 113.5 327.5t299.5 127.5q166 -2 278 -118t116 -306q1 -61 -7 -111.5t-30.5 -106.5t-59 -115.5t-95 -140t-135.5 -178.5t-184 -232q-43 -53 -65 -81h613 v-170h-873z" />
<glyph unicode="3" horiz-adv-x="1200" d="M143 426l191 2q0 -112 77.5 -190t188.5 -78q112 0 190 87t78 212q0 126 -77.5 211.5t-190.5 85.5h-115v157h103q92 0 154.5 69t62.5 169q0 97 -62.5 162t-154.5 65q-84 0 -144.5 -62t-60.5 -151l-184 4q0 161 113 274t276 113q164 0 277.5 -112.5t113.5 -274.5 q0 -97 -47.5 -177t-130.5 -128q118 -57 188 -164.5t70 -242.5q0 -130 -61.5 -240t-167 -173.5t-230.5 -63.5q-189 0 -323 130t-134 316z" />
<glyph unicode="4" horiz-adv-x="1263" d="M66 324v125l649 1087h241v-1042h144v-170h-144v-324h-194v324h-696zM287 494h475v841z" />
<glyph unicode="5" horiz-adv-x="1282" d="M199 195l120 131q54 -78 138.5 -123t175.5 -45q135 0 225 98t90 246q0 149 -90.5 248.5t-224.5 99.5q-73 0 -142 -31t-120 -88l-162 74l78 727h766v-170h-613l-55 -447q54 51 132 79t163 28q198 0 329.5 -146.5t131.5 -367.5q0 -231 -141 -379.5t-357 -148.5 q-131 0 -251 58t-193 157z" />
<glyph unicode="6" horiz-adv-x="1318" d="M143 487q-9 195 125 365l498 684h225l-387 -510q27 4 88 4q197 -6 337.5 -152.5t146.5 -351.5q4 -144 -62.5 -267t-182.5 -197t-255 -80q-214 -7 -369 140t-164 365zM334 487q5 -149 103 -248t237 -92q139 9 229 118t84 259q-8 151 -106.5 248.5t-237.5 91.5t-227 -116 t-82 -261z" />
<glyph unicode="7" horiz-adv-x="1167" d="M141 1366v170h975v-131l-733 -1405h-215l729 1366h-756z" />
<glyph unicode="8" horiz-adv-x="1216" d="M133 449q0 132 67 239.5t181 165.5q-76 52 -119 133.5t-43 181.5q0 164 111.5 275.5t277.5 111.5q165 0 278 -112t113 -275q0 -99 -43.5 -181t-119.5 -134q114 -58 180.5 -165.5t66.5 -239.5q0 -199 -137 -334t-340 -135q-200 0 -336.5 135.5t-136.5 333.5zM328 461 q0 -129 81.5 -220t196.5 -91q120 0 202.5 91t82.5 220t-82.5 217t-202.5 88q-116 0 -197 -88.5t-81 -216.5zM381 1155q0 -101 66 -170.5t161 -69.5t161.5 69.5t66.5 170.5t-66.5 170.5t-161.5 69.5t-161 -69.5t-66 -170.5z" />
<glyph unicode="9" horiz-adv-x="1318" d="M143 1010q-7 218 140.5 376.5t359.5 167.5q141 5 262.5 -60.5t194.5 -183.5t76 -261q6 -189 -121 -367l-502 -682h-227l395 518q-29 -12 -94 -12q-197 6 -337.5 152.5t-146.5 351.5zM330 1012q8 -151 106.5 -248.5t237.5 -91.5t227 116t82 261q-8 149 -105 248t-235 92 q-139 -9 -229 -118t-84 -259z" />
<glyph unicode=":" horiz-adv-x="749" d="M250 104q0 51 37 88t88 37t88 -37t37 -88t-37 -87.5t-88 -36.5t-88 36.5t-37 87.5zM250 920q0 51 37 87.5t88 36.5t88 -36.5t37 -87.5t-37 -88t-88 -37t-88 37t-37 88z" />
<glyph unicode=";" horiz-adv-x="768" d="M250 104q0 52 36 88.5t89 36.5q115 0 139.5 -150.5t-49.5 -302.5t-199 -155v94q61 3 103 93q36 75 29 137q-3 37 -25 37q-51 0 -87 35.5t-36 86.5zM250 920q0 51 37 87.5t88 36.5t88 -36.5t37 -87.5t-37 -88t-88 -37t-88 37t-37 88z" />
<glyph unicode="&#x3c;" horiz-adv-x="1353" d="M203 625v174l950 567v-162l-823 -491l823 -494v-166z" />
<glyph unicode="=" horiz-adv-x="1331" d="M150 283v127h1032v-127h-1032zM150 676v127h1032v-127h-1032z" />
<glyph unicode="&#x3e;" horiz-adv-x="1353" d="M203 53v166l821 494l-821 491v162l950 -567v-174z" />
<glyph unicode="?" horiz-adv-x="1110" d="M154 1104q-6 190 108.5 316t290.5 126q173 0 288 -123t115 -309q0 -81 -17.5 -143t-45 -99t-60.5 -65t-66.5 -49.5t-61 -44.5t-45 -57.5t-17.5 -80.5v-141h-176v123q0 78 17.5 135t45.5 89t62 56t67.5 45t61.5 46.5t45.5 69.5t17.5 106q0 126 -64 200t-165 74 q-104 0 -168.5 -77.5t-62.5 -196.5h-170zM442 104q0 51 35.5 88t83.5 37q49 0 84 -37t35 -88q0 -52 -34.5 -88t-84.5 -36q-48 0 -83.5 36t-35.5 88z" />
<glyph unicode="@" horiz-adv-x="1277" d="M168 565q0 153 67 281.5t182.5 203t252.5 74.5q160 0 269.5 -108t109.5 -266v-445h-117v66q-33 -39 -84.5 -63.5t-97.5 -24.5q-102 0 -173 75t-71 183q0 107 71 181.5t171 74.5q51 0 102 -26.5t82 -68.5v48q0 106 -76 180t-186 74q-160 0 -271.5 -128t-111.5 -311 q0 -189 124 -317.5t304 -128.5h334v-119h-334q-113 0 -214.5 44t-174.5 119.5t-115.5 180t-42.5 221.5zM643 541q0 -67 42.5 -111.5t105.5 -44.5q49 0 87.5 28t53.5 74v107q-15 45 -53.5 72.5t-87.5 27.5q-63 0 -105.5 -43.5t-42.5 -109.5z" />
<glyph unicode="A" horiz-adv-x="1333" d="M33 0l522 1536h223l522 -1536h-215l-102 317h-633l-100 -317h-217zM403 485h527l-262 828z" />
<glyph unicode="B" horiz-adv-x="1349" d="M223 0v1536h545q170 0 286.5 -115.5t116.5 -296.5q0 -125 -59 -212t-162 -128q123 -40 196 -137t73 -237q0 -182 -115 -296t-287 -114h-594zM420 176h373q93 0 160 75.5t67 180.5q0 103 -67 178.5t-160 75.5h-373v-510zM420 850h323q95 0 162.5 75.5t67.5 180.5 q0 104 -67.5 179t-162.5 75h-323v-510z" />
<glyph unicode="C" horiz-adv-x="1644" d="M160 768q0 215 98 396t266.5 286.5t368.5 105.5q211 0 386 -116.5t269 -311.5l-172 -81q-67 147 -196 234t-287 87q-149 0 -274 -79.5t-197 -217.5t-72 -303t72 -303t197 -217.5t274 -79.5q157 0 286.5 88t196.5 233l172 -81q-94 -195 -269 -311.5t-386 -116.5 q-200 0 -368.5 105.5t-266.5 286.5t-98 396z" />
<glyph unicode="D" horiz-adv-x="1501" d="M203 0v1536h415q196 0 362.5 -103t263.5 -279.5t97 -385.5t-97 -385.5t-263.5 -279.5t-362.5 -103h-415zM399 176h219q144 0 265 78.5t190.5 215t69.5 298.5t-69.5 298.5t-190.5 215t-265 78.5h-219v-1184z" />
<glyph unicode="E" horiz-adv-x="1148" d="M201 0v1536h803v-176h-605v-504h525v-176h-525v-504h605v-176h-803z" />
<glyph unicode="F" horiz-adv-x="1044" d="M201 0v1536h803v-176h-605v-504h525v-176h-525v-680h-198z" />
<glyph unicode="G" horiz-adv-x="1708" d="M160 768q0 215 98 396t266.5 286.5t368.5 105.5q211 0 386 -116.5t269 -311.5l-172 -81q-67 147 -196 234t-287 87q-149 0 -274 -79.5t-197 -217.5t-72 -303t72 -303t197 -217.5t274 -79.5q153 0 278.5 82t194.5 221v164h-365v178h547v-405q-94 -195 -269 -311.5 t-386 -116.5q-200 0 -368.5 105.5t-266.5 286.5t-98 396z" />
<glyph unicode="H" horiz-adv-x="1439" d="M201 0v1536h198v-680h641v680h199v-1536h-199v680h-641v-680h-198z" />
<glyph unicode="I" horiz-adv-x="598" d="M201 0v1536h198v-1536h-198z" />
<glyph unicode="J" horiz-adv-x="737" d="M106 0v203q62 -25 125 -25q52 0 88.5 48.5t36.5 117.5v1192h199v-1192q0 -153 -91 -258.5t-224 -105.5q-86 0 -134 20z" />
<glyph unicode="K" horiz-adv-x="1302" d="M197 0v1536h198v-635l559 635h256l-630 -688l682 -848h-267l-600 770v-770h-198z" />
<glyph unicode="L" horiz-adv-x="993" d="M201 0v1536h198v-1360h463v-176h-661z" />
<glyph unicode="M" horiz-adv-x="1757" d="M203 0v1536h221l455 -815l458 815h219v-1536h-198v1231l-481 -862l-476 864v-1233h-198z" />
<glyph unicode="N" horiz-adv-x="1538" d="M203 0v1536h196l738 -1184v1184h198v-1536h-198l-736 1188v-1188h-198z" />
<glyph unicode="O" horiz-adv-x="1787" d="M160 768q0 215 98 396t266.5 286.5t368.5 105.5q201 0 370 -105.5t267 -286.5t98 -396t-98 -396t-267 -286.5t-370 -105.5q-200 0 -368.5 105.5t-266.5 286.5t-98 396zM350 768q0 -165 72 -303t197 -217.5t274 -79.5q151 0 276 79.5t196 217t71 303.5t-71 303.5t-196 217 t-276 79.5q-149 0 -274 -79.5t-197 -217.5t-72 -303z" />
<glyph unicode="P" horiz-adv-x="1210" d="M223 0v1536h539q169 0 288 -127t119 -307q0 -181 -119 -306.5t-288 -125.5h-340v-670h-199zM422 836h326q100 0 169.5 73.5t69.5 190.5q0 112 -70 186t-169 74h-326v-524z" />
<glyph unicode="Q" horiz-adv-x="1787" d="M184 768q0 161 58 307t156.5 251t234 167.5t285.5 62.5q201 0 370 -105.5t267 -286.5t98 -396q0 -286 -172 -508l186 -199l-104 -106l-185 197q-206 -172 -460 -172q-150 0 -285.5 62.5t-234 167.5t-156.5 251t-58 307zM375 768q0 -166 71.5 -303.5t196.5 -217t275 -79.5 q188 0 331 121l-254 272l105 103l250 -265q112 156 112 369q0 166 -71.5 303.5t-196.5 217t-276 79.5q-150 0 -275 -79.5t-196.5 -217t-71.5 -303.5z" />
<glyph unicode="R" horiz-adv-x="1368" d="M223 0v1536h539q169 0 288 -127t119 -309q0 -154 -90.5 -267.5t-228.5 -138.5l412 -694h-224l-387 682h-229v-682h-199zM422 846h334q97 0 164 75.5t67 182.5t-67.5 181.5t-163.5 74.5h-334v-514z" />
<glyph unicode="S" horiz-adv-x="1179" d="M119 297l164 98q36 -100 119 -163.5t190 -63.5t178.5 63.5t71.5 174.5q0 59 -23 105.5t-61.5 78t-89 57.5t-106 49t-111 48t-106 59.5t-89 78t-61.5 108.5t-23 147q0 103 35 185.5t93.5 132t128 75.5t144.5 26q111 0 216 -55t172 -141l-144 -123q-45 67 -111 108t-135 41 q-84 0 -142 -60t-58 -171q0 -57 23 -101.5t62 -74.5t89 -55.5t105.5 -49t111.5 -49.5t106 -62t89 -81.5t62 -114t23 -153.5q0 -100 -38.5 -183.5t-102.5 -137.5t-145 -83.5t-168 -29.5q-158 0 -286 91t-183 226z" />
<glyph unicode="T" horiz-adv-x="1110" d="M111 1360v176h890v-176h-346v-1360h-198v1360h-346z" />
<glyph unicode="U" horiz-adv-x="1384" d="M182 502v1034h199v-1001q0 -158 90.5 -268.5t220.5 -110.5t221 110.5t91 268.5v1001h198v-1034q0 -143 -67.5 -263t-185 -189.5t-257.5 -69.5t-257.5 69.5t-185 189.5t-67.5 263z" />
<glyph unicode="V" horiz-adv-x="1284" d="M12 1536h213l416 -1278l418 1278h213l-524 -1536h-213z" />
<glyph unicode="W" horiz-adv-x="2086" d="M12 1536h209l361 -1290l354 1290h190h23l360 -1294l361 1294h205l-459 -1536h-209l-365 1243l-358 -1243h-209z" />
<glyph unicode="X" horiz-adv-x="1269" d="M76 0l454 782l-438 754h230l311 -567l311 567h232l-439 -754l455 -782h-231l-326 598l-326 -598h-233z" />
<glyph unicode="Y" horiz-adv-x="1261" d="M76 1536h223l332 -616l334 616h221l-455 -795v-741h-199v735z" />
<glyph unicode="Z" horiz-adv-x="1247" d="M127 0v104l719 1256h-701v176h957v-104l-717 -1256h731v-176h-989z" />
<glyph unicode="[" horiz-adv-x="751" d="M162 -694v2412h432v-145h-264v-2122h264v-145h-432z" />
<glyph unicode="\" horiz-adv-x="1327" d="M16 1536h185l1081 -2048h-184z" />
<glyph unicode="]" horiz-adv-x="749" d="M156 -549h264v2122h-264v145h432v-2412h-432v145z" />
<glyph unicode="^" horiz-adv-x="1327" d="M98 406l477 1130h175l479 -1130h-164l-401 950l-404 -950h-162z" />
<glyph unicode="_" horiz-adv-x="1499" d="M238 0h1024v-133h-1024v133z" />
<glyph unicode="`" horiz-adv-x="182" d="M115 1536h196l183 -319h-152z" />
<glyph unicode="a" horiz-adv-x="1099" d="M135 295q0 90 38.5 167.5t110.5 121.5q54 32 115 32q21 0 43 -4l314 -51v111q0 100 -55.5 158.5t-147.5 58.5q-76 0 -132.5 -41t-66.5 -109l-194 2q11 131 121 217t274 86q174 0 283.5 -99t109.5 -259v-686h-155l-21 131q-139 -151 -315 -151q-142 0 -232 88.5t-90 226.5 zM326 307q0 -75 49 -120.5t125 -45.5q67 0 135.5 33.5t120.5 89.5v150l-267 49q-15 3 -29 3q-49 0 -86 -36q-48 -46 -48 -123z" />
<glyph unicode="b" horiz-adv-x="1265" d="M203 0v1585h192v-688q118 147 299 147q134 0 235 -71.5t153.5 -191.5t52.5 -269t-52.5 -269t-153.5 -191.5t-235 -71.5q-181 0 -299 147v-127h-192zM381 512q0 -151 81 -256.5t197 -105.5q132 0 208.5 103t76.5 259t-76.5 259t-208.5 103q-116 0 -197 -105.5t-81 -256.5z " />
<glyph unicode="c" horiz-adv-x="1175" d="M131 512q0 148 61.5 269t175.5 192t259 71q163 0 283.5 -86.5t174.5 -232.5l-178 -61q-35 97 -107 153.5t-173 56.5q-139 0 -221 -103.5t-82 -258.5t82 -258.5t221 -103.5q101 0 173 56.5t107 153.5l178 -61q-54 -146 -174.5 -232.5t-283.5 -86.5q-145 0 -259 71 t-175.5 192t-61.5 269z" />
<glyph unicode="d" horiz-adv-x="1265" d="M131 512q0 149 52 269t153 191.5t235 71.5q180 0 301 -147v688h191v-1585h-191v127q-121 -147 -301 -147q-134 0 -235 71.5t-153 191.5t-52 269zM324 512q0 -157 74.5 -259.5t205.5 -102.5q117 0 199 105.5t82 256.5t-82 256.5t-199 105.5q-131 0 -205.5 -102.5 t-74.5 -259.5z" />
<glyph unicode="e" horiz-adv-x="1187" d="M131 504q0 236 135.5 388t354.5 152q213 0 334.5 -147.5t121.5 -386.5q0 -41 -2 -59h-751q13 -141 90 -222.5t217 -81.5q87 0 150.5 38.5t117.5 129.5l137 -94q-60 -115 -165 -178t-250 -63q-152 0 -264.5 70t-169 187.5t-56.5 266.5zM330 602h567q-14 130 -84 203.5 t-188 73.5q-119 0 -196 -73.5t-99 -203.5z" />
<glyph unicode="f" horiz-adv-x="722" d="M90 874v150h146v272q0 129 85 219.5t205 90.5q33 0 67 -9.5t52 -23.5v-166q-42 39 -96 39q-51 0 -86 -47t-35 -115v-260h221v-150h-221v-874h-192v874h-146z" />
<glyph unicode="g" horiz-adv-x="1019" d="M131 -133l109 123q-109 59 -109 207q0 131 94 237q-73 98 -73 228q0 159 110 270.5t268 111.5q97 0 179 -45l145 121l102 -125l-122 -104q75 -101 75 -229q0 -158 -110.5 -269.5t-268.5 -111.5q-100 0 -190 51q-45 -58 -45 -109q0 -104 174 -104h190q147 0 230.5 -78.5 t83.5 -222.5q0 -155 -111.5 -241.5t-296.5 -86.5q-213 0 -324 89.5t-110 287.5zM299 -158q0 -99 67.5 -140.5t211.5 -41.5q94 0 156.5 40t62.5 110q0 61 -43 96t-111 35h-176q-51 0 -98 6zM322 664q0 -86 61 -146.5t147 -60.5t147.5 60.5t61.5 146.5q0 88 -61.5 149 t-147.5 61t-147 -61t-61 -149z" />
<glyph unicode="h" horiz-adv-x="1243" d="M203 0v1585h192v-690q55 70 134 109.5t173 39.5q162 0 262.5 -109.5t100.5 -283.5v-651h-195v629q0 108 -61.5 176.5t-161.5 68.5q-104 0 -178 -75.5t-74 -182.5v-616h-192z" />
<glyph unicode="i" horiz-adv-x="593" d="M180 1335q0 52 34.5 88.5t84.5 36.5q48 0 82.5 -36.5t34.5 -88.5q0 -51 -34.5 -87t-82.5 -36q-49 0 -84 36t-35 87zM201 0v1024h192v-1024h-192z" />
<glyph unicode="j" horiz-adv-x="610" d="M2 -334q42 -39 96 -39q51 0 86 47t35 115v1235h193v-1247q0 -129 -85 -219t-208 -90q-31 0 -65.5 9.5t-51.5 22.5v166zM197 1335q0 52 34 88.5t84 36.5q48 0 82.5 -36.5t34.5 -88.5q0 -51 -34.5 -87t-82.5 -36q-49 0 -83.5 36t-34.5 87z" />
<glyph unicode="k" horiz-adv-x="1099" d="M203 0v1585h192v-958l391 397h232l-463 -451l502 -573h-256l-406 510v-510h-192z" />
<glyph unicode="l" horiz-adv-x="595" d="M203 0v1585h192v-1585h-192z" />
<glyph unicode="m" horiz-adv-x="1837" d="M203 0v1024h192v-115q109 135 297 135q103 0 179 -42t116 -121q55 77 141 120t191 43q157 0 247.5 -91.5t90.5 -258.5v-694h-193v674q0 92 -49 146t-147 54q-113 0 -176.5 -71.5t-63.5 -173.5v-629h-194v674q0 90 -50 145t-147 55q-114 0 -178 -74.5t-64 -174.5v-625 h-192z" />
<glyph unicode="n" horiz-adv-x="1243" d="M203 0v1024h192v-127q55 69 138.5 108t185.5 39q160 0 253 -92t93 -264v-688h-195v666q0 94 -52 151t-156 57q-123 0 -195 -77.5t-72 -180.5v-616h-192z" />
<glyph unicode="o" horiz-adv-x="1255" d="M131 512q0 148 61.5 269t175.5 192t259 71q146 0 260.5 -71t175.5 -192t61 -269t-61 -269t-175.5 -192t-260.5 -71q-145 0 -259 71t-175.5 192t-61.5 269zM324 512q0 -155 82 -258.5t221 -103.5t221 103.5t82 258.5t-82 258.5t-221 103.5t-221 -103.5t-82 -258.5z" />
<glyph unicode="p" horiz-adv-x="1249" d="M203 -512v1536h176v-125q119 145 299 145q134 0 235.5 -71.5t154 -191.5t52.5 -269t-52.5 -269t-154 -191.5t-235.5 -71.5q-180 0 -299 145v-637h-176zM445 256q82 -106 198 -106q132 0 207.5 102.5t75.5 259.5t-75.5 259.5t-207.5 102.5q-116 0 -199 -106 q-82 -105 -82 -252q0 -154 83 -260z" />
<glyph unicode="q" horiz-adv-x="1265" d="M131 512q0 149 52 269t153 191.5t235 71.5q180 0 301 -147v127h191v-1536h-191v639q-121 -147 -301 -147q-134 0 -235 71.5t-153 191.5t-52 269zM324 512q0 -157 74.5 -259.5t205.5 -102.5q117 0 199 105.5t82 256.5t-82 256.5t-199 105.5q-131 0 -205.5 -102.5 t-74.5 -259.5z" />
<glyph unicode="r" horiz-adv-x="821" d="M203 0v1024h192v-141q48 75 117 118t145 43q52 0 93 -18l-13 -166q-40 14 -86 14q-110 0 -183 -86.5t-73 -220.5v-567h-192z" />
<glyph unicode="s" horiz-adv-x="892" d="M109 135l92 131q36 -53 104.5 -89.5t132.5 -39.5h10q60 1 101 35q45 38 45 100q0 45 -25 78t-64.5 54t-87 40.5t-95.5 43t-87.5 53.5t-64.5 81.5t-25 118.5q0 134 92.5 218.5t229.5 84.5q71 0 155 -32t146 -82l-98 -131q-33 37 -81 61.5t-95 30.5q-9 1 -18 1 q-51 0 -90 -28q-46 -34 -46 -98q0 -43 24.5 -74.5t63.5 -51.5t86 -38.5t94 -42.5t86 -55.5t63.5 -86t24.5 -126.5q0 -136 -92 -223.5t-241 -87.5q-91 0 -188 44t-152 111z" />
<glyph unicode="t" horiz-adv-x="704" d="M80 874v150h176v328h193v-328h176v-150h-176v-874h-193v874h-176z" />
<glyph unicode="u" horiz-adv-x="1247" d="M182 350v674h193v-653q0 -107 55 -164t158 -57q102 0 183 76.5t81 181.5v616h192v-1024h-192v139q-58 -74 -141 -116.5t-174 -42.5q-164 0 -259.5 100.5t-95.5 269.5z" />
<glyph unicode="v" horiz-adv-x="985" d="M53 1024h205l234 -774l233 774h207l-348 -1024h-185z" />
<glyph unicode="w" horiz-adv-x="1521" d="M53 1024h217l197 -778l213 778h162l217 -784l196 784h213l-297 -1024h-206l-203 723l-205 -723h-207z" />
<glyph unicode="x" horiz-adv-x="1044" d="M39 0l373 512l-373 512h221l262 -360l262 360h222l-373 -512l373 -512h-222l-262 358l-262 -358h-221z" />
<glyph unicode="y" horiz-adv-x="1048" d="M74 1024h209l241 -799l244 799h209l-520 -1536h-203l172 502z" />
<glyph unicode="z" horiz-adv-x="958" d="M109 0v135l495 729h-487v160h737v-131l-498 -731h506v-162h-753z" />
<glyph unicode="{" horiz-adv-x="788" d="M156 446v127q98 49 125.5 115.5t27.5 218.5v490q0 121 62 201.5t157 80.5h101v-135q-99 0 -133.5 -31t-34.5 -129v-507q0 -131 -28 -217.5t-109 -149.5q81 -63 109 -149.5t28 -217.5v-516q0 -82 35.5 -116.5t132.5 -34.5v-144h-101q-95 0 -157 81t-62 202v498 q0 154 -28 221t-125 112z" />
<glyph unicode="|" horiz-adv-x="608" d="M242 -307v1843h123v-1843h-123z" />
<glyph unicode="}" horiz-adv-x="788" d="M162 -524q97 0 132.5 34.5t35.5 116.5v516q0 130 27.5 217t107.5 150q-80 63 -107.5 150t-27.5 217v507q0 97 -35 128.5t-133 31.5v144h102q92 0 154.5 -81.5t62.5 -201.5v-498q0 -151 28 -218t126 -116v-127q-97 -45 -125.5 -111.5t-28.5 -221.5v-498 q0 -120 -62.5 -201.5t-154.5 -81.5h-102v144z" />
<glyph unicode="~" horiz-adv-x="1075" d="M125 387q-12 148 56.5 242t183.5 94q120 0 215 -150q33 -52 63 -79t70 -27q65 0 104.5 64t30.5 165h102q15 -141 -52 -236t-177 -95q-41 0 -76.5 13.5t-64.5 39.5t-46.5 46.5t-39.5 51.5q-38 52 -67 77t-65 25q-65 0 -104 -66.5t-33 -164.5h-100z" />
<glyph unicode="&#xa1;" horiz-adv-x="722" d="M238 899q0 51 36.5 88t87.5 37t88 -37t37 -88q0 -52 -37 -88.5t-88 -36.5t-87.5 36.5t-36.5 88.5zM264 -512l23 1081h149l21 -1081h-193z" />
<glyph unicode="&#xa2;" horiz-adv-x="1009" d="M160 717q0 192 106.5 338.5t268.5 183.5v197h114v-187q103 -6 195 -73v-191q-82 94 -215 94q-115 0 -196 -105.5t-81 -256.5t81 -257t196 -106q132 0 215 95v-191q-90 -68 -195 -74v-186h-114v197q-162 37 -268.5 183.5t-106.5 338.5z" />
<glyph unicode="&#xa3;" horiz-adv-x="1169" d="M109 686v131h137v264q0 210 111 342.5t288 132.5q130 0 239.5 -93.5t141.5 -235.5l-141 -62q-10 103 -80.5 171.5t-159.5 68.5q-114 0 -183 -89t-69 -235v-264h320v-131h-320v-547h654v-139h-801v686h-137z" />
<glyph unicode="&#xa4;" horiz-adv-x="1370" d="M211 377l106 102q-87 117 -87 264.5t87 264.5l-104 100l104 111l105 -107q117 88 263 88.5t263 -88.5l107 105l104 -105l-102 -102q86 -118 86 -266t-86 -267l100 -100l-100 -111l-109 107q-117 -88 -264 -88t-264 88l-105 -107zM379 741.5q-1 -127.5 88 -215.5 q91 -93 218 -93t220 93q89 89 89 217.5t-89 217.5q-91 91 -218 90t-218 -93q-89 -89 -90 -216.5z" />
<glyph unicode="&#xa5;" horiz-adv-x="1280" d="M115 1536h182l342 -639l344 639h180l-438 -778v-31h330v-119h-330v-198h330v-119h-330v-291h-170v291h-328v119h328v198h-328v119h328v31z" />
<glyph unicode="&#xa6;" horiz-adv-x="608" d="M242 -307v737h123v-737h-123zM242 799v737h123v-737h-123z" />
<glyph unicode="&#xa7;" horiz-adv-x="1187" d="M164 240l121 73q34 -77 120.5 -125.5t206.5 -48.5q117 0 197 50.5t80 140.5q0 43 -23 76.5t-61.5 56t-89 42t-106 37t-111 36.5t-106 46t-89 61t-61.5 85t-23 115q0 104 72 182q-70 73 -70 180q0 97 56 169t140.5 106t182.5 34q104 0 201 -40.5t157 -106.5l-100 -84 q-40 48 -107 76.5t-143 28.5q-101 0 -172 -47.5t-71 -129.5q0 -43 23 -76.5t61.5 -56t89 -42t106 -37t110.5 -37t105.5 -47t89 -62t61.5 -86t23 -115.5q0 -100 -69 -182q69 -76 69 -184q0 -143 -127 -233.5t-303 -90.5q-146 0 -266.5 67t-173.5 169zM365 889q0 -43 23 -77 t58.5 -56t88 -43.5t102 -37t110 -37.5t103.5 -44q39 42 39 102q0 50 -30 87.5t-85 63t-112.5 44.5t-133 45t-125.5 51q-38 -41 -38 -98z" />
<glyph unicode="&#xa8;" horiz-adv-x="182" d="M180 1335q0 52 37 88.5t88 36.5t88 -36.5t37 -88.5q0 -51 -37 -87t-88 -36t-88 36t-37 87zM569 1335q0 52 37 88.5t88 36.5t87 -36.5t36 -88.5q0 -51 -36 -87t-87 -36t-88 36t-37 87z" />
<glyph unicode="&#xa9;" horiz-adv-x="1912" d="M160 768q0 128 40 248t114 217t172 170t220 113t252 40q161 0 308 -62.5t254.5 -168t171 -251.5t63.5 -306t-63.5 -306t-171 -251.5t-254.5 -168t-308 -62.5q-130 0 -252 40t-220 113t-172 170t-114 217t-40 248zM270 768q0 -186 91 -341.5t249.5 -246t347.5 -90.5 q140 0 267.5 53.5t219.5 144t146 216t54 264.5t-54 264.5t-146 216t-219.5 144t-267.5 53.5q-189 0 -347.5 -90.5t-249.5 -246t-91 -341.5zM563 760q0 168 124 285.5t298 117.5q120 0 215 -59v-127l-10 -2q-82 72 -203 72t-206 -80.5t-85 -206.5q0 -124 85 -204.5t206 -80.5 q118 0 203 68h10v-123q-100 -62 -215 -62q-173 0 -297.5 118t-124.5 284z" />
<glyph unicode="&#xaa;" horiz-adv-x="956" d="M125 1229q0 132 91 225.5t220 93.5q78 0 143.5 -38t106.5 -103v129h100v-614h-100v129q-41 -66 -106.5 -104t-143.5 -38q-129 0 -220 93.5t-91 226.5zM225 1229q0 -95 67.5 -163.5t162.5 -68.5t163 68.5t68 163.5q0 94 -68 161.5t-163 67.5t-162.5 -67.5t-67.5 -161.5z " />
<glyph unicode="&#xab;" horiz-adv-x="1427" d="M281 571l311 377h162l-312 -377l312 -376h-162zM676 571l311 377h162l-311 -377l311 -376h-162z" />
<glyph unicode="&#xac;" horiz-adv-x="1464" d="M203 760v127h1059v-651h-123v524h-936z" />
<glyph unicode="&#xad;" horiz-adv-x="1347" d="M238 465v135h716v-135h-716z" />
<glyph unicode="&#xae;" horiz-adv-x="1912" d="M160 768q0 128 40 248t114 217t172 170t220 113t252 40q161 0 308 -62.5t254.5 -168t171 -251.5t63.5 -306t-63.5 -306t-171 -251.5t-254.5 -168t-308 -62.5q-130 0 -252 40t-220 113t-172 170t-114 217t-40 248zM270 768q0 -186 91 -341.5t249.5 -246t347.5 -90.5 q140 0 267.5 53.5t219.5 144t146 216t54 264.5t-54 264.5t-146 216t-219.5 144t-267.5 53.5q-189 0 -347.5 -90.5t-249.5 -246t-91 -341.5zM743 369v798h269q97 0 164 -67t67 -162q0 -75 -43.5 -134.5t-112.5 -84.5l195 -350h-117l-190 338h-127v-338h-105zM848 809h164 q54 0 91.5 37.5t37.5 91.5q0 53 -37.5 90t-91.5 37h-164v-256z" />
<glyph unicode="&#xaf;" horiz-adv-x="229" d="M115 1227v127h635v-127h-635z" />
<glyph unicode="&#xb0;" horiz-adv-x="935" d="M238 1282q0 114 67 194t162 80q97 0 164 -80t67 -194t-67 -194t-164 -80q-95 0 -162 80t-67 194zM334 1282q0 -73 38.5 -123.5t94.5 -50.5q57 0 96 50.5t39 123.5t-39 123.5t-96 50.5q-56 0 -94.5 -50.5t-38.5 -123.5z" />
<glyph unicode="&#xb1;" horiz-adv-x="1458" d="M133 0v117h1192v-117h-1192zM133 756v129h535v368h123v-368h534v-129h-534v-369h-123v369h-535z" />
<glyph unicode="&#xb2;" horiz-adv-x="778" d="M131 778v70q279 285 337 354.5t58 128.5q0 65 -39.5 101t-97.5 36q-62 0 -101.5 -37.5t-39.5 -101.5h-98q-1 101 69 164t174 63q97 0 163 -57.5t67 -150.5q3 -88 -53.5 -162.5t-276.5 -294.5l-25 -25h381v-88h-518z" />
<glyph unicode="&#xb3;" horiz-adv-x="772" d="M143 991l99 2q0 -55 42.5 -93t102.5 -38t101.5 43t41.5 105q0 61 -41.5 102t-101.5 41h-61v82h55q49 0 82 34t33 85q0 46 -33 77t-82 31q-46 0 -78.5 -29.5t-32.5 -72.5l-98 2q0 81 61 137.5t148 56.5q86 0 146.5 -56t60.5 -138q0 -47 -24.5 -87t-67.5 -65 q62 -28 98.5 -81t36.5 -119q0 -101 -70.5 -171.5t-173.5 -70.5q-102 0 -173 65t-71 158z" />
<glyph unicode="&#xb4;" horiz-adv-x="182" d="M115 1217l182 319h197l-226 -319h-153z" />
<glyph unicode="&#xb5;" horiz-adv-x="1126" d="M184 -512v1536h193v-616q0 -108 57.5 -183t140.5 -75q86 0 147.5 75.5t61.5 182.5v616h193v-1024h-193v131q-48 -71 -116.5 -111t-145.5 -40q-109 0 -194 73v-565h-144z" />
<glyph unicode="&#xb6;" horiz-adv-x="1185" d="M219 1194q0 165 81 253.5t224 88.5h146v-1843h-101v1157h-45q-143 0 -224 89.5t-81 254.5zM831 -307v1843h103v-1843h-103z" />
<glyph unicode="&#xb7;" horiz-adv-x="698" d="M250 737q0 40 29 69.5t69 29.5t70.5 -29.5t30.5 -69.5q0 -42 -30 -70t-71 -28q-40 0 -69 28t-29 70z" />
<glyph unicode="&#xb8;" horiz-adv-x="206" d="M115 -399l88 34q24 -30 66 -50.5t81 -20.5q49 0 82 33t33 81q0 71 -59 97.5t-144 -6.5l-78 51l92 180h99l-68 -135q106 20 180 -34.5t74 -152.5q0 -88 -61 -149t-150 -61q-70 0 -138 38t-97 95z" />
<glyph unicode="&#xb9;" horiz-adv-x="608" d="M121 1448v88h217v-768h-102v680h-115z" />
<glyph unicode="&#xba;" horiz-adv-x="909" d="M125 1229q0 132 96.5 225.5t233.5 93.5q138 0 234.5 -93.5t96.5 -225.5q0 -133 -96.5 -226.5t-234.5 -93.5q-137 0 -233.5 93.5t-96.5 226.5zM225 1229q0 -95 67.5 -163.5t162.5 -68.5t163 68.5t68 163.5q0 94 -68 161.5t-163 67.5t-162.5 -67.5t-67.5 -161.5z" />
<glyph unicode="&#xbb;" horiz-adv-x="1427" d="M279 195l311 376l-311 377h161l312 -377l-312 -376h-161zM674 195l311 376l-311 377h162l311 -377l-311 -376h-162z" />
<glyph unicode="&#xbc;" horiz-adv-x="1744" d="M137 1397v133h336v-907h-151v774h-185zM319 -23l789 1561h117l-787 -1561h-119zM879 231v84l417 603h152v-582h133v-105h-133v-229h-141v229h-428zM1001 336h306v291l2 141l-78 -111z" />
<glyph unicode="&#xbd;" horiz-adv-x="1832" d="M137 1397v133h336v-907h-151v774h-185zM319 -23l789 1561h117l-787 -1561h-119zM1042 2v98l154 144q155 150 216 232.5t61 158.5q0 26 -8.5 52t-26 52t-52.5 42t-81 16q-53 0 -110 -23t-93 -53l-41 102q51 41 125.5 69t156.5 28q134 0 209.5 -75.5t75.5 -185.5 q0 -61 -18.5 -114.5t-59.5 -107t-83 -97t-112 -109.5q-20 -18 -30 -28l-78 -72v-12h395v-117h-600z" />
<glyph unicode="&#xbe;" horiz-adv-x="1914" d="M129 674l33 108q31 -22 93 -40.5t124 -18.5q100 0 159.5 47.5t59.5 118.5q0 77 -71 121.5t-189 44.5h-68v98h70q96 0 161.5 42.5t65.5 107.5q0 52 -41.5 89.5t-128.5 37.5q-53 0 -106 -20t-86 -44l-35 104q45 30 115.5 51t150.5 21q140 0 213.5 -63.5t73.5 -157.5 q0 -70 -48.5 -126t-127.5 -83v-12q91 -11 151 -72.5t60 -146.5q0 -112 -96.5 -190.5t-262.5 -78.5q-80 0 -154 18.5t-116 43.5zM489 -25l787 1565h121l-789 -1565h-119zM1040 231v84l418 603h150v-582h135v-105h-135v-229h-142v229h-426zM1163 336h303v291l2 139l-75 -109z " />
<glyph unicode="&#xbf;" horiz-adv-x="1157" d="M150 -78q0 81 17 142.5t44 98.5t60 65.5t65.5 50t59.5 44.5t44 57.5t17 80.5v137h172v-119q0 -78 -17 -135t-44.5 -89t-60.5 -56.5t-66 -45.5t-60.5 -46.5t-44.5 -70t-17 -106.5q0 -126 63.5 -200t160.5 -74q102 0 165 78t58 196h174q4 -190 -108.5 -316t-286.5 -126 q-171 0 -283 122.5t-112 311.5zM420 932q0 52 34.5 87.5t84.5 35.5q48 0 81 -35.5t33 -87.5t-33.5 -88.5t-80.5 -36.5q-50 0 -84.5 36.5t-34.5 88.5z" />
<glyph unicode="&#xc0;" horiz-adv-x="1333" d="M33 0l522 1536h223l522 -1536h-215l-102 317h-633l-100 -317h-217zM356 2048h197l182 -319h-151zM403 485h527l-262 828z" />
<glyph unicode="&#xc1;" horiz-adv-x="1333" d="M33 0l522 1536h223l522 -1536h-215l-102 317h-633l-100 -317h-217zM403 485h527l-262 828zM594 1729l182 319h197l-225 -319h-154z" />
<glyph unicode="&#xc2;" horiz-adv-x="1333" d="M33 0l522 1536h223l522 -1536h-215l-102 317h-633l-100 -317h-217zM356 1698l209 350h203l211 -350h-156l-155 258l-158 -258h-154zM403 485h527l-262 828z" />
<glyph unicode="&#xc3;" horiz-adv-x="1333" d="M33 0l522 1536h223l522 -1536h-215l-102 317h-633l-100 -317h-217zM330 1726q-17 117 39.5 193t154.5 76q118 0 193 -113q34 -57 88 -57q46 0 68 42t10 109h118q19 -115 -36 -191.5t-156 -76.5q-119 0 -193 113q-37 57 -88 57q-46 0 -68 -43t-9 -109h-121zM403 485h527 l-262 828z" />
<glyph unicode="&#xc4;" horiz-adv-x="1333" d="M33 0l522 1536h223l522 -1536h-215l-102 317h-633l-100 -317h-217zM348 1847q0 52 37 88.5t88 36.5t88 -36.5t37 -88.5q0 -51 -37 -87t-88 -36t-88 36t-37 87zM403 485h527l-262 828zM737 1847q0 52 37 88.5t88 36.5t87 -36.5t36 -88.5q0 -51 -36 -87t-87 -36t-88 36 t-37 87z" />
<glyph unicode="&#xc5;" horiz-adv-x="1333" d="M33 0l514 1513q-44 30 -69 76.5t-25 100.5q0 87 63 149t152 62q87 0 149 -62t62 -149q0 -54 -25 -100.5t-68 -76.5l514 -1513h-215l-102 317h-633l-100 -317h-217zM403 485h527l-262 828zM545 1690q0 -55 35 -90t88 -35t88 35t35 90q0 52 -35.5 89.5t-87.5 37.5 t-87.5 -37.5t-35.5 -89.5z" />
<glyph unicode="&#xc6;" horiz-adv-x="1665" d="M33 0l524 1536h963v-170h-547v-520h473v-156h-473v-520h547v-170h-742v334h-422l-100 -334h-223zM422 489h358v877h-86z" />
<glyph unicode="&#xc7;" horiz-adv-x="1644" d="M160 768q0 215 98 396t266.5 286.5t368.5 105.5q211 0 386 -116.5t269 -311.5l-172 -81q-67 147 -196 234t-287 87q-149 0 -274 -79.5t-197 -217.5t-72 -303t72 -303t197 -217.5t274 -79.5q157 0 286.5 88t196.5 233l172 -81q-89 -185 -253 -300.5t-363 -125.5l-58 -117 q106 20 180 -34.5t74 -152.5q0 -88 -60.5 -149t-149.5 -61q-70 0 -138.5 38.5t-97.5 94.5l88 34q24 -30 66.5 -50.5t81.5 -20.5q49 0 81.5 33t32.5 81q0 71 -59 97.5t-144 -6.5l-77 51l82 162q-187 16 -341.5 124t-243.5 282.5t-89 379.5z" />
<glyph unicode="&#xc8;" horiz-adv-x="1148" d="M201 0v1536h803v-176h-605v-504h525v-176h-525v-504h605v-176h-803zM289 2048h196l183 -319h-152z" />
<glyph unicode="&#xc9;" horiz-adv-x="1148" d="M201 0v1536h803v-176h-605v-504h525v-176h-525v-504h605v-176h-803zM526 1729l183 319h196l-225 -319h-154z" />
<glyph unicode="&#xca;" horiz-adv-x="1148" d="M201 0v1536h803v-176h-605v-504h525v-176h-525v-504h605v-176h-803zM289 1698l209 350h202l211 -350h-155l-156 258l-158 -258h-153z" />
<glyph unicode="&#xcb;" horiz-adv-x="1148" d="M201 0v1536h803v-176h-605v-504h525v-176h-525v-504h605v-176h-803zM281 1847q0 52 37 88.5t88 36.5t87.5 -36.5t36.5 -88.5q0 -51 -36.5 -87t-87.5 -36t-88 36t-37 87zM670 1847q0 52 37 88.5t88 36.5t87 -36.5t36 -88.5q0 -51 -36 -87t-87 -36t-88 36t-37 87z" />
<glyph unicode="&#xcc;" horiz-adv-x="598" d="M-10 2048h196l183 -319h-152zM201 0v1536h198v-1536h-198z" />
<glyph unicode="&#xcd;" horiz-adv-x="598" d="M201 0v1536h198v-1536h-198zM227 1729l183 319h196l-225 -319h-154z" />
<glyph unicode="&#xce;" horiz-adv-x="598" d="M-10 1698l209 350h202l211 -350h-155l-156 258l-158 -258h-153zM201 0v1536h198v-1536h-198z" />
<glyph unicode="&#xcf;" horiz-adv-x="598" d="M-18 1847q0 52 36.5 88.5t87.5 36.5t88 -36.5t37 -88.5q0 -51 -37 -87t-88 -36t-87.5 36t-36.5 87zM201 0v1536h198v-1536h-198zM371 1847q0 52 37 88.5t88 36.5t86.5 -36.5t35.5 -88.5q0 -51 -35.5 -87t-86.5 -36t-88 36t-37 87z" />
<glyph unicode="&#xd0;" horiz-adv-x="1501" d="M43 717v104h160v715h415q196 0 362.5 -103t263.5 -279.5t97 -385.5t-97 -385.5t-263.5 -279.5t-362.5 -103h-415v717h-160zM399 176h219q144 0 265 78.5t190.5 215t69.5 298.5t-69.5 298.5t-190.5 215t-265 78.5h-219v-539h265v-104h-265v-541z" />
<glyph unicode="&#xd1;" horiz-adv-x="1538" d="M203 0v1536h196l738 -1184v1184h198v-1536h-198l-736 1188v-1188h-198zM430 1726q-17 117 40 193t155 76q117 0 192 -113q34 -57 88 -57q46 0 68 42t10 109h119q19 -115 -36.5 -191.5t-156.5 -76.5q-118 0 -192 113q-37 57 -88 57q-46 0 -68.5 -43.5t-9.5 -108.5h-121z " />
<glyph unicode="&#xd2;" horiz-adv-x="1787" d="M160 768q0 215 98 396t266.5 286.5t368.5 105.5q201 0 370 -105.5t267 -286.5t98 -396t-98 -396t-267 -286.5t-370 -105.5q-200 0 -368.5 105.5t-266.5 286.5t-98 396zM350 768q0 -165 72 -303t197 -217.5t274 -79.5q151 0 276 79.5t196 217t71 303.5t-71 303.5t-196 217 t-276 79.5q-149 0 -274 -79.5t-197 -217.5t-72 -303zM582 2048h196l183 -319h-152z" />
<glyph unicode="&#xd3;" horiz-adv-x="1787" d="M160 768q0 215 98 396t266.5 286.5t368.5 105.5q201 0 370 -105.5t267 -286.5t98 -396t-98 -396t-267 -286.5t-370 -105.5q-200 0 -368.5 105.5t-266.5 286.5t-98 396zM350 768q0 -165 72 -303t197 -217.5t274 -79.5q151 0 276 79.5t196 217t71 303.5t-71 303.5t-196 217 t-276 79.5q-149 0 -274 -79.5t-197 -217.5t-72 -303zM819 1729l182 319h197l-225 -319h-154z" />
<glyph unicode="&#xd4;" horiz-adv-x="1787" d="M160 768q0 215 98 396t266.5 286.5t368.5 105.5q201 0 370 -105.5t267 -286.5t98 -396t-98 -396t-267 -286.5t-370 -105.5q-200 0 -368.5 105.5t-266.5 286.5t-98 396zM350 768q0 -165 72 -303t197 -217.5t274 -79.5q151 0 276 79.5t196 217t71 303.5t-71 303.5t-196 217 t-276 79.5q-149 0 -274 -79.5t-197 -217.5t-72 -303zM582 1698l209 350h202l211 -350h-155l-156 258l-158 -258h-153z" />
<glyph unicode="&#xd5;" horiz-adv-x="1787" d="M160 768q0 215 98 396t266.5 286.5t368.5 105.5q201 0 370 -105.5t267 -286.5t98 -396t-98 -396t-267 -286.5t-370 -105.5q-200 0 -368.5 105.5t-266.5 286.5t-98 396zM350 768q0 -165 72 -303t197 -217.5t274 -79.5q151 0 276 79.5t196 217t71 303.5t-71 303.5t-196 217 t-276 79.5q-149 0 -274 -79.5t-197 -217.5t-72 -303zM555 1726q-17 117 40 193t155 76q117 0 192 -113q34 -57 88 -57q46 0 68 42t10 109h119q19 -115 -36.5 -191.5t-156.5 -76.5q-118 0 -192 113q-37 57 -88 57q-46 0 -68.5 -43.5t-9.5 -108.5h-121z" />
<glyph unicode="&#xd6;" horiz-adv-x="1787" d="M160 768q0 215 98 396t266.5 286.5t368.5 105.5q201 0 370 -105.5t267 -286.5t98 -396t-98 -396t-267 -286.5t-370 -105.5q-200 0 -368.5 105.5t-266.5 286.5t-98 396zM350 768q0 -165 72 -303t197 -217.5t274 -79.5q151 0 276 79.5t196 217t71 303.5t-71 303.5t-196 217 t-276 79.5q-149 0 -274 -79.5t-197 -217.5t-72 -303zM573 1847q0 52 37 88.5t88 36.5t88 -36.5t37 -88.5q0 -51 -37 -87t-88 -36t-88 36t-37 87zM963 1847q0 52 36.5 88.5t87.5 36.5t87 -36.5t36 -88.5q0 -51 -36 -87t-87 -36t-87.5 36t-36.5 87z" />
<glyph unicode="&#xd7;" horiz-adv-x="1576" d="M334 240l379 395l-379 395l104 107l379 -396l377 396l106 -107l-380 -395l380 -395l-106 -107l-377 395l-379 -395z" />
<glyph unicode="&#xd8;" horiz-adv-x="1787" d="M160 768q0 215 98 396t266.5 286.5t368.5 105.5q201 0 371 -106l79 121h156l-131 -201q122 -109 191 -266t69 -336q0 -215 -98 -396t-267 -286.5t-370 -105.5q-203 0 -371 108l-80 -121h-153l131 199q-122 109 -191 266t-69 336zM350 768q0 -131 45.5 -245t128.5 -197 l637 966q-129 76 -268 76q-149 0 -274 -79.5t-197 -217.5t-72 -303zM625 244q129 -76 268 -76q151 0 276 79.5t196 217t71 303.5q0 132 -45.5 245.5t-128.5 198.5z" />
<glyph unicode="&#xd9;" horiz-adv-x="1384" d="M182 502v1034h199v-1001q0 -158 90.5 -268.5t220.5 -110.5t221 110.5t91 268.5v1001h198v-1034q0 -143 -67.5 -263t-185 -189.5t-257.5 -69.5t-257.5 69.5t-185 189.5t-67.5 263zM381 2048h197l182 -319h-152z" />
<glyph unicode="&#xda;" horiz-adv-x="1384" d="M182 502v1034h199v-1001q0 -158 90.5 -268.5t220.5 -110.5t221 110.5t91 268.5v1001h198v-1034q0 -143 -67.5 -263t-185 -189.5t-257.5 -69.5t-257.5 69.5t-185 189.5t-67.5 263zM618 1729l183 319h196l-225 -319h-154z" />
<glyph unicode="&#xdb;" horiz-adv-x="1384" d="M182 502v1034h199v-1001q0 -158 90.5 -268.5t220.5 -110.5t221 110.5t91 268.5v1001h198v-1034q0 -143 -67.5 -263t-185 -189.5t-257.5 -69.5t-257.5 69.5t-185 189.5t-67.5 263zM381 1698l209 350h203l211 -350h-156l-156 258l-157 -258h-154z" />
<glyph unicode="&#xdc;" horiz-adv-x="1384" d="M182 502v1034h199v-1001q0 -158 90.5 -268.5t220.5 -110.5t221 110.5t91 268.5v1001h198v-1034q0 -143 -67.5 -263t-185 -189.5t-257.5 -69.5t-257.5 69.5t-185 189.5t-67.5 263zM373 1847q0 52 37 88.5t88 36.5t88 -36.5t37 -88.5q0 -51 -37 -87t-88 -36t-88 36t-37 87z M762 1847q0 52 37 88.5t88 36.5t87 -36.5t36 -88.5q0 -51 -36 -87t-87 -36t-88 36t-37 87z" />
<glyph unicode="&#xdd;" horiz-adv-x="1261" d="M76 1536h223l332 -616l334 616h221l-455 -795v-741h-199v735zM559 1729l182 319h197l-225 -319h-154z" />
<glyph unicode="&#xde;" horiz-adv-x="1107" d="M203 0v1321v209h192v-209h301q155 0 263 -126.5t108 -309.5q0 -179 -108 -303.5t-263 -124.5h-301v-457h-192zM395 629h295q84 0 142.5 76t58.5 184q0 109 -59 184.5t-142 75.5h-295v-520z" />
<glyph unicode="&#xdf;" horiz-adv-x="1302" d="M207 0v1090q0 193 124.5 319.5t311.5 126.5q179 0 295.5 -120t116.5 -302q0 -199 -133 -326q97 -58 154 -159.5t57 -225.5q0 -178 -103 -300.5t-250 -122.5q-72 0 -157 34t-134 88l80 146q31 -37 80.5 -63.5t95.5 -26.5q76 0 134.5 75t58.5 181q0 112 -65.5 191 t-159.5 79h-88v160h37q89 0 150.5 77.5t61.5 190.5q0 110 -64 182t-165 72q-106 0 -176 -78t-70 -198v-1090h-192z" />
<glyph unicode="&#xe0;" horiz-adv-x="1099" d="M135 295q0 90 38.5 167.5t110.5 121t158 28.5l314 -51v111q0 100 -55.5 158.5t-147.5 58.5q-76 0 -132.5 -41t-66.5 -109l-194 2q11 131 121 217t274 86q174 0 283.5 -99t109.5 -259v-686h-155l-21 131q-139 -151 -315 -151q-142 0 -232 88.5t-90 226.5zM252 1536h197 l182 -319h-152zM326 307q0 -75 49 -120.5t125 -45.5q67 0 135.5 33.5t120.5 89.5v150l-267 49q-67 13 -115 -33t-48 -123z" />
<glyph unicode="&#xe1;" horiz-adv-x="1099" d="M135 295q0 90 38.5 167.5t110.5 121t158 28.5l314 -51v111q0 100 -55.5 158.5t-147.5 58.5q-76 0 -132.5 -41t-66.5 -109l-194 2q11 131 121 217t274 86q174 0 283.5 -99t109.5 -259v-686h-155l-21 131q-139 -151 -315 -151q-142 0 -232 88.5t-90 226.5zM326 307 q0 -75 49 -120.5t125 -45.5q67 0 135.5 33.5t120.5 89.5v150l-267 49q-67 13 -115 -33t-48 -123zM492 1217l182 319h196l-225 -319h-153z" />
<glyph unicode="&#xe2;" horiz-adv-x="1099" d="M135 295q0 90 38.5 167.5t110.5 121t158 28.5l314 -51v111q0 100 -55.5 158.5t-147.5 58.5q-76 0 -132.5 -41t-66.5 -109l-194 2q11 131 121 217t274 86q174 0 283.5 -99t109.5 -259v-686h-155l-21 131q-139 -151 -315 -151q-142 0 -232 88.5t-90 226.5zM252 1186 l209 350h203l210 -350h-155l-156 258l-157 -258h-154zM326 307q0 -75 49 -120.5t125 -45.5q67 0 135.5 33.5t120.5 89.5v150l-267 49q-67 13 -115 -33t-48 -123z" />
<glyph unicode="&#xe3;" horiz-adv-x="1099" d="M135 295q0 90 38.5 167.5t110.5 121t158 28.5l314 -51v111q0 100 -55.5 158.5t-147.5 58.5q-76 0 -132.5 -41t-66.5 -109l-194 2q11 131 121 217t274 86q174 0 283.5 -99t109.5 -259v-686h-155l-21 131q-139 -151 -315 -151q-142 0 -232 88.5t-90 226.5zM227 1214 q-17 117 40 193t155 76q117 0 192 -113q34 -57 88 -57q46 0 68 42t10 109h119q19 -115 -36 -191.5t-156 -76.5q-119 0 -193 113q-37 57 -88 57q-46 0 -68.5 -43.5t-9.5 -108.5h-121zM326 307q0 -75 49 -120.5t125 -45.5q67 0 135.5 33.5t120.5 89.5v150l-267 49 q-67 13 -115 -33t-48 -123z" />
<glyph unicode="&#xe4;" horiz-adv-x="1099" d="M135 295q0 90 38.5 167.5t110.5 121t158 28.5l314 -51v111q0 100 -55.5 158.5t-147.5 58.5q-76 0 -132.5 -41t-66.5 -109l-194 2q11 131 121 217t274 86q174 0 283.5 -99t109.5 -259v-686h-155l-21 131q-139 -151 -315 -151q-142 0 -232 88.5t-90 226.5zM244 1335 q0 52 37 88.5t88 36.5t88 -36.5t37 -88.5q0 -51 -37 -87t-88 -36t-88 36t-37 87zM326 307q0 -75 49 -120.5t125 -45.5q67 0 135.5 33.5t120.5 89.5v150l-267 49q-67 13 -115 -33t-48 -123zM633 1335q0 52 37 88.5t88 36.5t87 -36.5t36 -88.5q0 -51 -36 -87t-87 -36t-88 36 t-37 87z" />
<glyph unicode="&#xe5;" horiz-adv-x="1099" d="M135 295q0 90 38.5 167.5t110.5 121t158 28.5l314 -51v111q0 100 -55.5 158.5t-147.5 58.5q-76 0 -132.5 -41t-66.5 -109l-194 2q11 131 121 217t274 86q174 0 283.5 -99t109.5 -259v-686h-155l-21 131q-139 -151 -315 -151q-142 0 -232 88.5t-90 226.5zM326 307 q0 -75 49 -120.5t125 -45.5q67 0 135.5 33.5t120.5 89.5v150l-267 49q-67 13 -115 -33t-48 -123zM350 1337q0 88 62.5 150.5t150.5 62.5t149.5 -62.5t61.5 -150.5q0 -87 -62 -149t-149 -62q-88 0 -150.5 62.5t-62.5 148.5zM440 1337q0 -53 36 -89t87 -36q53 0 88 35.5 t35 89.5q0 53 -35.5 90t-87.5 37q-51 0 -87 -37t-36 -90z" />
<glyph unicode="&#xe6;" horiz-adv-x="1810" d="M135 293q0 68 23 130.5t62 108t96 68.5t120 12l320 -49v107q0 98 -56.5 158.5t-146.5 60.5q-80 0 -135 -41t-64 -109l-194 2q12 133 122.5 218t272.5 85q107 0 193.5 -41t138.5 -114q136 155 358 155q213 0 334 -147t121 -387v-59h-754q13 -141 90 -222.5t217 -81.5 q88 0 151.5 38t117.5 130l137 -94q-58 -115 -164.5 -178t-251.5 -63q-138 0 -242.5 57.5t-166.5 159.5q-82 -109 -182.5 -163t-205.5 -54q-140 0 -225.5 87.5t-85.5 225.5zM336 303q0 -69 43.5 -111t114.5 -42q73 0 151.5 48t130.5 130q-12 60 -16 88l-275 47 q-62 12 -105.5 -38.5t-43.5 -121.5zM952 602h570q-14 130 -84.5 203.5t-188.5 73.5q-119 0 -197 -73.5t-100 -203.5z" />
<glyph unicode="&#xe7;" horiz-adv-x="1175" d="M131 512q0 148 61.5 269t175.5 192t259 71q163 0 283.5 -86.5t174.5 -232.5l-178 -61q-35 97 -107 153.5t-173 56.5q-139 0 -221 -103.5t-82 -258.5t82 -258.5t221 -103.5q101 0 173 56.5t107 153.5l178 -61q-51 -136 -160.5 -221.5t-258.5 -95.5l-58 -117 q106 20 180 -34.5t74 -152.5q0 -88 -61 -149t-150 -61q-70 0 -138 38t-97 95l88 34q24 -30 66 -50.5t81 -20.5q49 0 82 33t33 81q0 71 -59 97.5t-144 -6.5l-78 51l84 164q-197 20 -317.5 169t-120.5 359z" />
<glyph unicode="&#xe8;" horiz-adv-x="1187" d="M131 504q0 236 135.5 388t354.5 152q213 0 334.5 -147.5t121.5 -386.5q0 -41 -2 -59h-751q13 -141 90 -222.5t217 -81.5q87 0 150.5 38.5t117.5 129.5l137 -94q-60 -115 -165 -178t-250 -63q-152 0 -264.5 70t-169 187.5t-56.5 266.5zM311 1542h197l182 -319h-151z M330 602h567q-14 130 -84 203.5t-188 73.5q-119 0 -196 -73.5t-99 -203.5z" />
<glyph unicode="&#xe9;" horiz-adv-x="1187" d="M131 504q0 236 135.5 388t354.5 152q213 0 334.5 -147.5t121.5 -386.5q0 -41 -2 -59h-751q13 -141 90 -222.5t217 -81.5q87 0 150.5 38.5t117.5 129.5l137 -94q-60 -115 -165 -178t-250 -63q-152 0 -264.5 70t-169 187.5t-56.5 266.5zM330 602h567q-14 130 -84 203.5 t-188 73.5q-119 0 -196 -73.5t-99 -203.5zM549 1223l182 319h197l-226 -319h-153z" />
<glyph unicode="&#xea;" horiz-adv-x="1187" d="M131 504q0 236 135.5 388t354.5 152q213 0 334.5 -147.5t121.5 -386.5q0 -41 -2 -59h-751q13 -141 90 -222.5t217 -81.5q87 0 150.5 38.5t117.5 129.5l137 -94q-60 -115 -165 -178t-250 -63q-152 0 -264.5 70t-169 187.5t-56.5 266.5zM311 1192l209 350h203l211 -350 h-156l-155 258l-158 -258h-154zM330 602h567q-14 130 -84 203.5t-188 73.5q-119 0 -196 -73.5t-99 -203.5z" />
<glyph unicode="&#xeb;" horiz-adv-x="1187" d="M131 504q0 236 135.5 388t354.5 152q213 0 334.5 -147.5t121.5 -386.5q0 -41 -2 -59h-751q13 -141 90 -222.5t217 -81.5q87 0 150.5 38.5t117.5 129.5l137 -94q-60 -115 -165 -178t-250 -63q-152 0 -264.5 70t-169 187.5t-56.5 266.5zM303 1341q0 52 37 88.5t88 36.5 t88 -36.5t37 -88.5q0 -51 -37 -86.5t-88 -35.5t-88 35.5t-37 86.5zM330 602h567q-14 130 -84 203.5t-188 73.5q-119 0 -196 -73.5t-99 -203.5zM692 1341q0 52 37 88.5t88 36.5t87 -36.5t36 -88.5q0 -51 -36 -86.5t-87 -35.5t-88 35.5t-37 86.5z" />
<glyph unicode="&#xec;" horiz-adv-x="661" d="M20 1536h197l182 -319h-151zM236 0v1024h192v-1024h-192z" />
<glyph unicode="&#xed;" horiz-adv-x="661" d="M236 0v1024h192v-1024h-192zM258 1217l182 319h197l-225 -319h-154z" />
<glyph unicode="&#xee;" horiz-adv-x="661" d="M20 1186l209 350h203l211 -350h-156l-155 258l-158 -258h-154zM236 0v1024h192v-1024h-192z" />
<glyph unicode="&#xef;" horiz-adv-x="661" d="M12 1335q0 52 37 88.5t88 36.5t88 -36.5t37 -88.5q0 -51 -37 -87t-88 -36t-88 36t-37 87zM236 0v1024h192v-1024h-192zM401 1335q0 52 37 88.5t88 36.5t87 -36.5t36 -88.5q0 -51 -36 -87t-87 -36t-88 36t-37 87z" />
<glyph unicode="&#xf0;" horiz-adv-x="1185" d="M131 512q0 222 137 377t332 155q114 0 209 -53q-59 172 -162 275l-86 -127l-61 51l88 127q-115 85 -250 88l39 156q161 0 305 -103l74 107l61 -49l-74 -109q151 -139 239.5 -375.5t88.5 -519.5q0 -146 -62.5 -268.5t-171 -193t-237.5 -70.5q-195 0 -332 155t-137 377z M324 512q0 -151 80.5 -256.5t195.5 -105.5t196 105.5t81 256.5t-81 256.5t-196 105.5t-195.5 -105.5t-80.5 -256.5z" />
<glyph unicode="&#xf1;" horiz-adv-x="1243" d="M203 0v1024h192v-127q55 69 138.5 108t185.5 39q160 0 253 -92t93 -264v-688h-195v666q0 94 -52 151t-156 57q-123 0 -195 -77.5t-72 -180.5v-616h-192zM297 1214q-17 117 40 193t155 76q117 0 192 -113q34 -57 88 -57q46 0 68 42t10 109h119q19 -115 -36.5 -191.5 t-156.5 -76.5q-118 0 -192 113q-37 57 -88 57q-46 0 -68.5 -43.5t-9.5 -108.5h-121z" />
<glyph unicode="&#xf2;" horiz-adv-x="1255" d="M131 512q0 148 61.5 269t175.5 192t259 71q146 0 260.5 -71t175.5 -192t61 -269t-61 -269t-175.5 -192t-260.5 -71q-145 0 -259 71t-175.5 192t-61.5 269zM315 1536h197l182 -319h-151zM324 512q0 -155 82 -258.5t221 -103.5t221 103.5t82 258.5t-82 258.5t-221 103.5 t-221 -103.5t-82 -258.5z" />
<glyph unicode="&#xf3;" horiz-adv-x="1255" d="M131 512q0 148 61.5 269t175.5 192t259 71q146 0 260.5 -71t175.5 -192t61 -269t-61 -269t-175.5 -192t-260.5 -71q-145 0 -259 71t-175.5 192t-61.5 269zM324 512q0 -155 82 -258.5t221 -103.5t221 103.5t82 258.5t-82 258.5t-221 103.5t-221 -103.5t-82 -258.5z M553 1217l182 319h197l-225 -319h-154z" />
<glyph unicode="&#xf4;" horiz-adv-x="1255" d="M131 512q0 148 61.5 269t175.5 192t259 71q146 0 260.5 -71t175.5 -192t61 -269t-61 -269t-175.5 -192t-260.5 -71q-145 0 -259 71t-175.5 192t-61.5 269zM315 1186l209 350h203l211 -350h-156l-155 258l-158 -258h-154zM324 512q0 -155 82 -258.5t221 -103.5t221 103.5 t82 258.5t-82 258.5t-221 103.5t-221 -103.5t-82 -258.5z" />
<glyph unicode="&#xf5;" horiz-adv-x="1255" d="M131 512q0 148 61.5 269t175.5 192t259 71q146 0 260.5 -71t175.5 -192t61 -269t-61 -269t-175.5 -192t-260.5 -71q-145 0 -259 71t-175.5 192t-61.5 269zM289 1214q-17 117 39.5 193t154.5 76q118 0 193 -113q34 -57 88 -57q46 0 68 42t10 109h119q19 -115 -36.5 -191.5 t-156.5 -76.5q-119 0 -193 113q-37 57 -88 57q-46 0 -68 -43t-9 -109h-121zM324 512q0 -155 82 -258.5t221 -103.5t221 103.5t82 258.5t-82 258.5t-221 103.5t-221 -103.5t-82 -258.5z" />
<glyph unicode="&#xf6;" horiz-adv-x="1255" d="M131 512q0 148 61.5 269t175.5 192t259 71q146 0 260.5 -71t175.5 -192t61 -269t-61 -269t-175.5 -192t-260.5 -71q-145 0 -259 71t-175.5 192t-61.5 269zM307 1335q0 52 37 88.5t88 36.5t88 -36.5t37 -88.5q0 -51 -37 -87t-88 -36t-88 36t-37 87zM324 512 q0 -155 82 -258.5t221 -103.5t221 103.5t82 258.5t-82 258.5t-221 103.5t-221 -103.5t-82 -258.5zM696 1335q0 52 37 88.5t88 36.5t87 -36.5t36 -88.5q0 -51 -36 -87t-87 -36t-88 36t-37 87z" />
<glyph unicode="&#xf7;" horiz-adv-x="1331" d="M150 512v102h1032v-102h-1032zM559 215q0 45 32.5 79t74.5 34q43 0 74.5 -33.5t31.5 -79.5q0 -49 -31 -81t-75 -32q-43 0 -75 32.5t-32 80.5zM559 911q0 45 32.5 79t74.5 34q43 0 74.5 -33.5t31.5 -79.5q0 -49 -31 -80.5t-75 -31.5q-43 0 -75 32t-32 80z" />
<glyph unicode="&#xf8;" horiz-adv-x="1255" d="M131 512q0 148 61.5 269t175.5 192t259 71q138 0 252 -65l71 108h111l-109 -163q82 -72 127 -180t45 -232q0 -148 -61 -269t-175.5 -192t-260.5 -71q-140 0 -252 67l-74 -110h-111l109 165q-80 72 -124 179t-44 231zM324 512q0 -159 77 -254l379 573q-68 43 -153 43 q-139 0 -221 -103.5t-82 -258.5zM471 195q67 -45 156 -45q139 0 221 103.5t82 258.5q0 152 -80 256z" />
<glyph unicode="&#xf9;" horiz-adv-x="1247" d="M182 350v674h193v-653q0 -107 55 -164t158 -57q102 0 183 76.5t81 181.5v616h192v-1024h-192v139q-58 -74 -141 -116.5t-174 -42.5q-164 0 -259.5 100.5t-95.5 269.5zM303 1536h197l182 -319h-152z" />
<glyph unicode="&#xfa;" horiz-adv-x="1247" d="M182 350v674h193v-653q0 -107 55 -164t158 -57q102 0 183 76.5t81 181.5v616h192v-1024h-192v139q-58 -74 -141 -116.5t-174 -42.5q-164 0 -259.5 100.5t-95.5 269.5zM541 1217l182 319h197l-226 -319h-153z" />
<glyph unicode="&#xfb;" horiz-adv-x="1247" d="M182 350v674h193v-653q0 -107 55 -164t158 -57q102 0 183 76.5t81 181.5v616h192v-1024h-192v139q-58 -74 -141 -116.5t-174 -42.5q-164 0 -259.5 100.5t-95.5 269.5zM303 1186l209 350h203l211 -350h-156l-156 258l-157 -258h-154z" />
<glyph unicode="&#xfc;" horiz-adv-x="1247" d="M182 350v674h193v-653q0 -107 55 -164t158 -57q102 0 183 76.5t81 181.5v616h192v-1024h-192v139q-58 -74 -141 -116.5t-174 -42.5q-164 0 -259.5 100.5t-95.5 269.5zM295 1335q0 52 37 88.5t88 36.5t88 -36.5t37 -88.5q0 -51 -37 -87t-88 -36t-88 36t-37 87zM684 1335 q0 52 37 88.5t88 36.5t87 -36.5t36 -88.5q0 -51 -36 -87t-87 -36t-88 36t-37 87z" />
<glyph unicode="&#xfd;" horiz-adv-x="1048" d="M74 1024h209l241 -799l244 799h209l-520 -1536h-203l172 502zM453 1217l182 319h196l-225 -319h-153z" />
<glyph unicode="&#xfe;" horiz-adv-x="1261" d="M203 -510v2095h192v-717q55 84 133.5 130t171.5 46q119 0 218 -70.5t155.5 -193t56.5 -268.5t-56.5 -268.5t-155.5 -193t-218 -70.5q-93 0 -171.5 46t-133.5 130v-666h-192zM397 512q0 -151 80 -256.5t195 -105.5q117 0 197.5 105.5t80.5 256.5t-80.5 256.5t-197.5 105.5 q-115 0 -195 -105.5t-80 -256.5z" />
<glyph unicode="&#xff;" horiz-adv-x="1048" d="M74 1024h209l241 -799l244 799h209l-520 -1536h-203l172 502zM207 1335q0 52 37 88.5t88 36.5t88 -36.5t37 -88.5q0 -51 -37 -87t-88 -36t-88 36t-37 87zM596 1335q0 52 37 88.5t88 36.5t87 -36.5t36 -88.5q0 -51 -36 -87t-87 -36t-88 36t-37 87z" />
<glyph unicode="&#x100;" horiz-adv-x="1333" d="M33 0l522 1536h223l522 -1536h-215l-102 317h-633l-100 -317h-217zM350 1739v127h635v-127h-635zM403 485h527l-262 828z" />
<glyph unicode="&#x101;" horiz-adv-x="1099" d="M135 295q0 90 38.5 167.5t110.5 121t158 28.5l314 -51v111q0 100 -55.5 158.5t-147.5 58.5q-76 0 -132.5 -41t-66.5 -109l-194 2q11 131 121 217t274 86q174 0 283.5 -99t109.5 -259v-686h-155l-21 131q-139 -151 -315 -151q-142 0 -232 88.5t-90 226.5zM248 1227v127 h635v-127h-635zM326 307q0 -75 49 -120.5t125 -45.5q67 0 135.5 33.5t120.5 89.5v150l-267 49q-67 13 -115 -33t-48 -123z" />
<glyph unicode="&#x102;" horiz-adv-x="1333" d="M33 0l522 1536h223l522 -1536h-215l-102 317h-633l-100 -317h-217zM360 1991h115q0 -85 54.5 -145t138.5 -60q85 0 139.5 60t54.5 145h113q0 -150 -85 -237t-222 -87q-136 0 -222 87.5t-86 236.5zM403 485h527l-262 828z" />
<glyph unicode="&#x103;" horiz-adv-x="1099" d="M135 295q0 90 38.5 167.5t110.5 121t158 28.5l314 -51v111q0 100 -55.5 158.5t-147.5 58.5q-76 0 -132.5 -41t-66.5 -109l-194 2q11 131 121 217t274 86q174 0 283.5 -99t109.5 -259v-686h-155l-21 131q-139 -151 -315 -151q-142 0 -232 88.5t-90 226.5zM256 1479h115 q0 -85 54 -145t138 -60q85 0 140 60t55 145h112q0 -150 -85 -237t-222 -87q-136 0 -221.5 87t-85.5 237zM326 307q0 -75 49 -120.5t125 -45.5q67 0 135.5 33.5t120.5 89.5v150l-267 49q-67 13 -115 -33t-48 -123z" />
<glyph unicode="&#x104;" horiz-adv-x="1333" d="M33 0l522 1536h223l522 -1536q-54 -28 -95 -54t-85 -64t-68 -83.5t-24 -95.5q0 -59 34.5 -95t98.5 -36q57 0 108 25.5t85 70.5l63 -92q-119 -116 -287 -106q-107 5 -171 61t-64 154q0 183 248 315h-58l-102 317h-633l-100 -317h-217zM403 485h527l-262 828z" />
<glyph unicode="&#x105;" horiz-adv-x="1099" d="M135 295q0 90 38.5 167.5t110.5 121t158 28.5l314 -51v111q0 100 -55.5 158.5t-147.5 58.5q-76 0 -132.5 -41t-66.5 -109l-194 2q11 131 121 217t274 86q174 0 283.5 -99t109.5 -259v-686q-54 -28 -95 -54t-85 -64t-68 -83.5t-24 -95.5q0 -59 34.5 -95t98.5 -36 q56 0 107 25.5t85 70.5l64 -92q-119 -116 -287 -106q-107 5 -171 61t-64 154q0 185 250 317l-21 129q-139 -151 -315 -151q-142 0 -232 88.5t-90 226.5zM326 307q0 -75 49 -120.5t125 -45.5q67 0 135.5 33.5t120.5 89.5v150l-267 49q-67 13 -115 -33t-48 -123z" />
<glyph unicode="&#x106;" horiz-adv-x="1644" d="M160 768q0 215 98 396t266.5 286.5t368.5 105.5q211 0 386 -116.5t269 -311.5l-172 -81q-67 147 -196 234t-287 87q-149 0 -274 -79.5t-197 -217.5t-72 -303t72 -303t197 -217.5t274 -79.5q157 0 286.5 88t196.5 233l172 -81q-94 -195 -269 -311.5t-386 -116.5 q-200 0 -368.5 105.5t-266.5 286.5t-98 396zM819 1729l182 319h197l-225 -319h-154z" />
<glyph unicode="&#x107;" horiz-adv-x="1175" d="M131 512q0 148 61.5 269t175.5 192t259 71q163 0 283.5 -86.5t174.5 -232.5l-178 -61q-35 97 -107 153.5t-173 56.5q-139 0 -221 -103.5t-82 -258.5t82 -258.5t221 -103.5q101 0 173 56.5t107 153.5l178 -61q-54 -146 -174.5 -232.5t-283.5 -86.5q-145 0 -259 71 t-175.5 192t-61.5 269zM553 1217l182 319h197l-225 -319h-154z" />
<glyph unicode="&#x10a;" horiz-adv-x="1644" d="M160 768q0 215 98 396t266.5 286.5t368.5 105.5q211 0 386 -116.5t269 -311.5l-172 -81q-67 147 -196 234t-287 87q-149 0 -274 -79.5t-197 -217.5t-72 -303t72 -303t197 -217.5t274 -79.5q157 0 286.5 88t196.5 233l172 -81q-94 -195 -269 -311.5t-386 -116.5 q-200 0 -368.5 105.5t-266.5 286.5t-98 396zM768 1847q0 52 37 88.5t88 36.5t88 -36.5t37 -88.5q0 -51 -37 -87t-88 -36t-88 36t-37 87z" />
<glyph unicode="&#x10b;" horiz-adv-x="1175" d="M131 512q0 148 61.5 269t175.5 192t259 71q163 0 283.5 -86.5t174.5 -232.5l-178 -61q-35 97 -107 153.5t-173 56.5q-139 0 -221 -103.5t-82 -258.5t82 -258.5t221 -103.5q101 0 173 56.5t107 153.5l178 -61q-54 -146 -174.5 -232.5t-283.5 -86.5q-145 0 -259 71 t-175.5 192t-61.5 269zM502 1335q0 52 37 88.5t88 36.5t88 -36.5t37 -88.5q0 -51 -37 -87t-88 -36t-88 36t-37 87z" />
<glyph unicode="&#x10c;" horiz-adv-x="1644" d="M160 768q0 215 98 396t266.5 286.5t368.5 105.5q211 0 386 -116.5t269 -311.5l-172 -81q-67 147 -196 234t-287 87q-149 0 -274 -79.5t-197 -217.5t-72 -303t72 -303t197 -217.5t274 -79.5q157 0 286.5 88t196.5 233l172 -81q-94 -195 -269 -311.5t-386 -116.5 q-200 0 -368.5 105.5t-266.5 286.5t-98 396zM582 2089h149l162 -256l162 256h149l-211 -350h-202z" />
<glyph unicode="&#x10d;" horiz-adv-x="1175" d="M131 512q0 148 61.5 269t175.5 192t259 71q163 0 283.5 -86.5t174.5 -232.5l-178 -61q-35 97 -107 153.5t-173 56.5q-139 0 -221 -103.5t-82 -258.5t82 -258.5t221 -103.5q101 0 173 56.5t107 153.5l178 -61q-54 -146 -174.5 -232.5t-283.5 -86.5q-145 0 -259 71 t-175.5 192t-61.5 269zM315 1577h150l162 -256l161 256h150l-211 -350h-203z" />
<glyph unicode="&#x10e;" horiz-adv-x="1501" d="M203 0v1536h415q196 0 362.5 -103t263.5 -279.5t97 -385.5t-97 -385.5t-263.5 -279.5t-362.5 -103h-415zM307 2089h150l161 -256l162 256h150l-211 -350h-203zM399 176h219q144 0 265 78.5t190.5 215t69.5 298.5t-69.5 298.5t-190.5 215t-265 78.5h-219v-1184z" />
<glyph unicode="&#x10f;" horiz-adv-x="1374" d="M131 512q0 149 52 269t153 191.5t235 71.5q180 0 301 -147v688h191v-1585h-191v127q-121 -147 -301 -147q-134 0 -235 71.5t-153 191.5t-52 269zM324 512q0 -157 74.5 -259.5t205.5 -102.5q117 0 199 105.5t82 256.5t-82 256.5t-199 105.5q-131 0 -205.5 -102.5 t-74.5 -259.5zM1200 1487q0 51 35 85t86 34q66 0 100.5 -59.5t34.5 -149.5q0 -86 -27.5 -162t-83 -127t-128.5 -53v90q37 1 66.5 29.5t43.5 67t14 77.5q0 49 -22 49q-49 0 -84 35t-35 84z" />
<glyph unicode="&#x110;" horiz-adv-x="1501" d="M43 717v104h160v715h415q196 0 362.5 -103t263.5 -279.5t97 -385.5t-97 -385.5t-263.5 -279.5t-362.5 -103h-415v717h-160zM399 176h219q144 0 265 78.5t190.5 215t69.5 298.5t-69.5 298.5t-190.5 215t-265 78.5h-219v-539h265v-104h-265v-541z" />
<glyph unicode="&#x111;" horiz-adv-x="1265" d="M131 512q0 149 52 269t153 191.5t235 71.5q180 0 301 -147v317h-272v105h272v266h191v-266h158v-105h-158v-1214h-191v127q-121 -147 -301 -147q-134 0 -235 71.5t-153 191.5t-52 269zM324 512q0 -157 74.5 -259.5t205.5 -102.5q117 0 199 105.5t82 256.5t-82 256.5 t-199 105.5q-131 0 -205.5 -102.5t-74.5 -259.5z" />
<glyph unicode="&#x112;" horiz-adv-x="1148" d="M201 0v1536h803v-176h-605v-504h525v-176h-525v-504h605v-176h-803zM283 1739v127h635v-127h-635z" />
<glyph unicode="&#x113;" horiz-adv-x="1187" d="M131 504q0 236 135.5 388t354.5 152q213 0 334.5 -147.5t121.5 -386.5q0 -41 -2 -59h-751q13 -141 90 -222.5t217 -81.5q87 0 150.5 38.5t117.5 129.5l137 -94q-60 -115 -165 -178t-250 -63q-152 0 -264.5 70t-169 187.5t-56.5 266.5zM305 1233v127h635v-127h-635z M330 602h567q-14 130 -84 203.5t-188 73.5q-119 0 -196 -73.5t-99 -203.5z" />
<glyph unicode="&#x116;" horiz-adv-x="1148" d="M201 0v1536h803v-176h-605v-504h525v-176h-525v-504h605v-176h-803zM475 1847q0 52 37 88.5t88 36.5t88 -36.5t37 -88.5q0 -51 -37 -87t-88 -36t-88 36t-37 87z" />
<glyph unicode="&#x117;" horiz-adv-x="1187" d="M131 504q0 236 135.5 388t354.5 152q213 0 334.5 -147.5t121.5 -386.5q0 -41 -2 -59h-751q13 -141 90 -222.5t217 -81.5q87 0 150.5 38.5t117.5 129.5l137 -94q-60 -115 -165 -178t-250 -63q-152 0 -264.5 70t-169 187.5t-56.5 266.5zM330 602h567q-14 130 -84 203.5 t-188 73.5q-119 0 -196 -73.5t-99 -203.5zM498 1341q0 52 37 88.5t88 36.5t88 -36.5t37 -88.5q0 -51 -37 -86.5t-88 -35.5t-88 35.5t-37 86.5z" />
<glyph unicode="&#x118;" horiz-adv-x="1148" d="M201 0v1536h803v-176h-605v-504h525v-176h-525v-504h605v-176q-55 -28 -95.5 -54t-85 -64t-68.5 -83.5t-24 -95.5q0 -59 34.5 -95t98.5 -36q57 0 108 25.5t85 70.5l63 -92q-119 -115 -286 -106q-107 5 -171.5 61t-64.5 154q0 183 248 315h-645z" />
<glyph unicode="&#x119;" horiz-adv-x="1187" d="M131 504q0 236 135.5 388t354.5 152q213 0 334.5 -147.5t121.5 -386.5q0 -41 -2 -59h-751q13 -141 90 -222.5t217 -81.5q87 0 150.5 38.5t117.5 129.5l137 -94q-82 -162 -254 -217q-166 -111 -166 -235q0 -59 35 -95t99 -36q56 0 107 25.5t85 70.5l64 -92 q-120 -116 -287 -107q-107 5 -171.5 61t-64.5 154q0 129 119 230q-147 4 -255 75t-162 187t-54 262zM330 602h567q-14 130 -84 203.5t-188 73.5q-119 0 -196 -73.5t-99 -203.5z" />
<glyph unicode="&#x11a;" horiz-adv-x="1148" d="M201 0v1536h803v-176h-605v-504h525v-176h-525v-504h605v-176h-803zM289 2089h149l162 -256l162 256h149l-211 -350h-202z" />
<glyph unicode="&#x11b;" horiz-adv-x="1187" d="M131 504q0 236 135.5 388t354.5 152q213 0 334.5 -147.5t121.5 -386.5q0 -41 -2 -59h-751q13 -141 90 -222.5t217 -81.5q87 0 150.5 38.5t117.5 129.5l137 -94q-60 -115 -165 -178t-250 -63q-152 0 -264.5 70t-169 187.5t-56.5 266.5zM311 1583h150l162 -256l161 256h150 l-211 -350h-203zM330 602h567q-14 130 -84 203.5t-188 73.5q-119 0 -196 -73.5t-99 -203.5z" />
<glyph unicode="&#x11e;" horiz-adv-x="1708" d="M160 768q0 215 98 396t266.5 286.5t368.5 105.5q211 0 386 -116.5t269 -311.5l-172 -81q-67 147 -196 234t-287 87q-149 0 -274 -79.5t-197 -217.5t-72 -303t72 -303t197 -217.5t274 -79.5q153 0 278.5 82t194.5 221v164h-365v178h547v-405q-94 -195 -269 -311.5 t-386 -116.5q-200 0 -368.5 105.5t-266.5 286.5t-98 396zM586 1991h114q0 -85 54.5 -145t138.5 -60q85 0 139.5 60t54.5 145h113q0 -150 -85 -237t-222 -87q-136 0 -221.5 87t-85.5 237z" />
<glyph unicode="&#x11f;" horiz-adv-x="1019" d="M131 -133l109 123q-109 59 -109 207q0 131 94 237q-73 98 -73 228q0 159 110 270.5t268 111.5q97 0 179 -45l145 121l102 -125l-122 -104q75 -101 75 -229q0 -158 -110.5 -269.5t-268.5 -111.5q-100 0 -190 51q-45 -58 -45 -109q0 -104 174 -104h190q147 0 230.5 -78.5 t83.5 -222.5q0 -155 -111.5 -241.5t-296.5 -86.5q-213 0 -324 89.5t-110 287.5zM197 1479h114q0 -85 54.5 -145t138.5 -60q85 0 139.5 60t54.5 145h113q0 -150 -85 -237t-222 -87q-136 0 -221.5 87t-85.5 237zM299 -158q0 -99 67.5 -140.5t211.5 -41.5q94 0 156.5 40 t62.5 110q0 61 -43 96t-111 35h-176q-51 0 -98 6zM322 664q0 -86 61 -146.5t147 -60.5t147.5 60.5t61.5 146.5q0 88 -61.5 149t-147.5 61t-147 -61t-61 -149z" />
<glyph unicode="&#x120;" horiz-adv-x="1708" d="M160 768q0 215 98 396t266.5 286.5t368.5 105.5q211 0 386 -116.5t269 -311.5l-172 -81q-67 147 -196 234t-287 87q-149 0 -274 -79.5t-197 -217.5t-72 -303t72 -303t197 -217.5t274 -79.5q153 0 278.5 82t194.5 221v164h-365v178h547v-405q-94 -195 -269 -311.5 t-386 -116.5q-200 0 -368.5 105.5t-266.5 286.5t-98 396zM768 1847q0 52 37 88.5t88 36.5t88 -36.5t37 -88.5q0 -51 -37 -87t-88 -36t-88 36t-37 87z" />
<glyph unicode="&#x121;" horiz-adv-x="1019" d="M131 -133l109 123q-109 59 -109 207q0 131 94 237q-73 98 -73 228q0 159 110 270.5t268 111.5q97 0 179 -45l145 121l102 -125l-122 -104q75 -101 75 -229q0 -158 -110.5 -269.5t-268.5 -111.5q-100 0 -190 51q-45 -58 -45 -109q0 -104 174 -104h190q147 0 230.5 -78.5 t83.5 -222.5q0 -155 -111.5 -241.5t-296.5 -86.5q-213 0 -324 89.5t-110 287.5zM299 -158q0 -99 67.5 -140.5t211.5 -41.5q94 0 156.5 40t62.5 110q0 61 -43 96t-111 35h-176q-51 0 -98 6zM322 664q0 -86 61 -146.5t147 -60.5t147.5 60.5t61.5 146.5q0 88 -61.5 149 t-147.5 61t-147 -61t-61 -149zM381 1335q0 52 37 88.5t88 36.5t88 -36.5t37 -88.5q0 -51 -37 -87t-88 -36t-88 36t-37 87z" />
<glyph unicode="&#x122;" horiz-adv-x="1708" d="M160 768q0 215 98 396t266.5 286.5t368.5 105.5q211 0 386 -116.5t269 -311.5l-172 -81q-67 147 -196 234t-287 87q-149 0 -274 -79.5t-197 -217.5t-72 -303t72 -303t197 -217.5t274 -79.5q153 0 278.5 82t194.5 221v164h-365v178h547v-405q-94 -195 -269 -311.5 t-386 -116.5q-200 0 -368.5 105.5t-266.5 286.5t-98 396zM770 -207q0 54 35 89.5t90 35.5q54 0 89.5 -38.5t35.5 -98.5q0 -95 -26 -175.5t-80.5 -131t-127.5 -47.5v73q51 1 84 44.5t32.5 80.5t-9.5 43q-54 0 -88.5 35t-34.5 90z" />
<glyph unicode="&#x123;" horiz-adv-x="1019" d="M131 -133l109 123q-109 59 -109 207q0 131 94 237q-73 98 -73 228q0 159 110 270.5t268 111.5q97 0 179 -45l145 121l102 -125l-122 -104q75 -101 75 -229q0 -158 -110.5 -269.5t-268.5 -111.5q-100 0 -190 51q-45 -58 -45 -109q0 -104 174 -104h190q147 0 230.5 -78.5 t83.5 -222.5q0 -155 -111.5 -241.5t-296.5 -86.5q-213 0 -324 89.5t-110 287.5zM299 -158q0 -99 67.5 -140.5t211.5 -41.5q94 0 156.5 40t62.5 110q0 61 -43 96t-111 35h-176q-51 0 -98 6zM322 664q0 -86 61 -146.5t147 -60.5t147.5 60.5t61.5 146.5q0 88 -61.5 149 t-147.5 61t-147 -61t-61 -149zM381 1315q-1 65 27.5 134t67 116.5t77.5 77t61 26.5v-72q-22 -1 -53.5 -43.5t-49 -84.5t-5.5 -42q53 0 89 -35t36 -87q0 -53 -36.5 -90t-88.5 -37q-53 0 -89 39.5t-36 97.5z" />
<glyph unicode="&#x126;" horiz-adv-x="1439" d="M-18 1157v86h219v293h198v-293h641v293h199v-293h215v-86h-215v-1157h-199v680h-641v-680h-198v1157h-219zM399 856h641v301h-641v-301z" />
<glyph unicode="&#x127;" horiz-adv-x="1243" d="M78 1225v104h125v256h192v-256h303v-104h-303v-330q55 70 134 109.5t173 39.5q162 0 262.5 -109.5t100.5 -283.5v-651h-195v629q0 108 -61.5 176.5t-161.5 68.5q-104 0 -178 -75.5t-74 -182.5v-616h-192v1225h-125z" />
<glyph unicode="&#x128;" horiz-adv-x="598" d="M-37 1726q-17 117 40 193t155 76q117 0 192 -113q34 -57 88 -57q46 0 68 42t10 109h119q19 -115 -36.5 -191.5t-156.5 -76.5q-118 0 -192 113q-37 57 -88 57q-46 0 -68.5 -43.5t-9.5 -108.5h-121zM201 0v1536h198v-1536h-198z" />
<glyph unicode="&#x129;" horiz-adv-x="661" d="M-6 1214q-17 117 39.5 193t154.5 76q118 0 193 -113q34 -57 88 -57q46 0 68 42t10 109h119q19 -115 -36.5 -191.5t-156.5 -76.5q-118 0 -192 113q-37 57 -88 57q-46 0 -68.5 -43.5t-9.5 -108.5h-121zM236 0v1024h192v-1024h-192z" />
<glyph unicode="&#x12a;" horiz-adv-x="598" d="M-16 1739v127h634v-127h-634zM201 0v1536h198v-1536h-198z" />
<glyph unicode="&#x12b;" horiz-adv-x="661" d="M14 1227v127h635v-127h-635zM236 0v1024h192v-1024h-192z" />
<glyph unicode="&#x12e;" horiz-adv-x="598" d="M-6 -315q0 183 248 315h-41v1536h198v-1536q-54 -28 -95 -54t-85 -64t-68 -83.5t-24 -95.5q0 -59 34.5 -95t98.5 -36q57 0 108 25.5t85 70.5l63 -92q-119 -116 -287 -106q-107 5 -171 61t-64 154z" />
<glyph unicode="&#x12f;" horiz-adv-x="661" d="M23 -315q0 183 247 315h-34v1024h192v-1024q-54 -28 -95 -54t-85 -64t-68 -83.5t-24 -95.5q0 -59 34.5 -95t98.5 -36q56 0 107 25.5t85 70.5l64 -92q-119 -116 -287 -106q-107 5 -171 61t-64 154zM207 1335q0 52 37 88.5t88 36.5t88 -36.5t37 -88.5q0 -51 -37 -87 t-88 -36t-88 36t-37 87z" />
<glyph unicode="&#x130;" horiz-adv-x="598" d="M176 1847q0 52 37 88.5t88 36.5t88 -36.5t37 -88.5q0 -51 -37 -87t-88 -36t-88 36t-37 87zM201 0v1536h198v-1536h-198z" />
<glyph unicode="&#x131;" horiz-adv-x="661" d="M236 0v1024h192v-1024h-192z" />
<glyph unicode="&#x132;" horiz-adv-x="1333" d="M201 0v1536h198v-1536h-198zM705 0v203q63 -25 124 -25q52 0 88.5 48.5t36.5 117.5v1192h199v-1192q0 -153 -91 -258.5t-224 -105.5q-85 0 -133 20z" />
<glyph unicode="&#x133;" horiz-adv-x="1206" d="M180 1335q0 52 34.5 88.5t84.5 36.5q48 0 82.5 -36.5t34.5 -88.5q0 -51 -34.5 -87t-82.5 -36q-49 0 -84 36t-35 87zM201 0v1024h192v-1024h-192zM596 -334q42 -39 96 -39q51 0 86 47t35 115v1235h193v-1247q0 -129 -85 -219t-208 -90q-31 0 -65.5 9.5t-51.5 22.5v166z M791 1335q0 52 34 88.5t84 36.5q48 0 82.5 -36.5t34.5 -88.5q0 -51 -34.5 -87t-82.5 -36q-49 0 -83.5 36t-34.5 87z" />
<glyph unicode="&#x136;" horiz-adv-x="1302" d="M197 0v1536h198v-635l559 635h256l-630 -688l682 -848h-267l-600 770v-770h-198zM547 -207q0 54 35 89.5t90 35.5q54 0 89.5 -38.5t35.5 -98.5q0 -95 -26 -175.5t-80.5 -131t-127.5 -47.5v73q51 1 84 44.5t32.5 80.5t-9.5 43q-54 0 -88.5 35t-34.5 90z" />
<glyph unicode="&#x137;" horiz-adv-x="1099" d="M203 0v1585h192v-958l391 397h232l-463 -451l502 -573h-256l-406 510v-510h-192zM453 -207q0 54 35 89.5t90 35.5q54 0 89 -38.5t35 -98.5q0 -96 -26 -176t-80 -130.5t-127 -47.5v73q51 1 83.5 44.5t32 80.5t-9.5 43q-54 0 -88 35t-34 90z" />
<glyph unicode="&#x139;" horiz-adv-x="993" d="M201 0v1536h198v-1360h463v-176h-661zM225 1729l183 319h196l-225 -319h-154z" />
<glyph unicode="&#x13a;" horiz-adv-x="595" d="M203 0v1585h192v-1585h-192zM225 1749l183 319h196l-225 -319h-154z" />
<glyph unicode="&#x13b;" horiz-adv-x="993" d="M201 0v1536h198v-1360h463v-176h-661zM410 -207q0 54 35 89.5t90 35.5q54 0 89 -38.5t35 -98.5q0 -96 -26 -176t-80 -130.5t-127 -47.5v73q51 1 83.5 44.5t32 80.5t-9.5 43q-54 0 -88 35t-34 90z" />
<glyph unicode="&#x13c;" horiz-adv-x="595" d="M176 -207q0 54 35 89.5t90 35.5q54 0 89.5 -38.5t35.5 -98.5q0 -96 -26 -176t-80 -130.5t-127 -47.5v73q51 1 83.5 44.5t32 80.5t-9.5 43q-54 0 -88.5 35t-34.5 90zM203 0v1585h192v-1585h-192z" />
<glyph unicode="&#x13d;" horiz-adv-x="993" d="M201 0v1536h198v-1360h463v-176h-661zM659 1434q0 52 36 87t89 35q70 0 106 -61.5t36 -155.5q0 -89 -28.5 -169t-87 -133t-134.5 -54v94q56 1 93.5 59t37.5 121q0 52 -25 52q-51 0 -87 36.5t-36 88.5z" />
<glyph unicode="&#x13e;" horiz-adv-x="663" d="M203 0v1585h192v-1585h-192zM500 1487q0 51 34 85t84 34q66 0 101 -59.5t35 -149.5q0 -86 -27.5 -162t-83.5 -127t-129 -53v90q55 1 91 57t36 117q0 49 -25 49q-47 0 -81.5 35t-34.5 84z" />
<glyph unicode="&#x140;" horiz-adv-x="595" d="M203 0v1585h192v-1585h-192zM485 737q0 40 29.5 69.5t69.5 29.5t70 -29.5t30 -69.5q0 -42 -29.5 -70t-70.5 -28t-70 28t-29 70z" />
<glyph unicode="&#x141;" horiz-adv-x="993" d="M59 432v174l142 148v782h198v-575l142 147v-174l-142 -148v-610h463v-176h-661v580z" />
<glyph unicode="&#x142;" horiz-adv-x="595" d="M59 408v174l144 149v854h192v-653l146 151v-174l-146 -151v-758h-192v557z" />
<glyph unicode="&#x143;" horiz-adv-x="1538" d="M203 0v1536h196l738 -1184v1184h198v-1536h-198l-736 1188v-1188h-198zM694 1729l183 319h196l-225 -319h-154z" />
<glyph unicode="&#x144;" horiz-adv-x="1243" d="M203 0v1024h192v-127q55 69 138.5 108t185.5 39q160 0 253 -92t93 -264v-688h-195v666q0 94 -52 151t-156 57q-123 0 -195 -77.5t-72 -180.5v-616h-192zM561 1217l182 319h197l-225 -319h-154z" />
<glyph unicode="&#x145;" horiz-adv-x="1538" d="M203 0v1536h196l738 -1184v1184h198v-1536h-198l-736 1188v-1188h-198zM647 -207q0 54 35 89.5t90 35.5q54 0 89.5 -38.5t35.5 -98.5q0 -96 -26 -176t-80 -130.5t-127 -47.5v73q51 1 83.5 44.5t32 80.5t-9.5 43q-54 0 -88.5 35t-34.5 90z" />
<glyph unicode="&#x146;" horiz-adv-x="1243" d="M203 0v1024h192v-127q55 69 138.5 108t185.5 39q160 0 253 -92t93 -264v-688h-195v666q0 94 -52 151t-156 57q-123 0 -195 -77.5t-72 -180.5v-616h-192zM512 -207q0 54 35 89.5t90 35.5q54 0 89.5 -38.5t35.5 -98.5q0 -95 -26 -175.5t-80.5 -131t-127.5 -47.5v73 q51 1 84 44.5t32.5 80.5t-9.5 43q-54 0 -88.5 35t-34.5 90z" />
<glyph unicode="&#x147;" horiz-adv-x="1538" d="M203 0v1536h196l738 -1184v1184h198v-1536h-198l-736 1188v-1188h-198zM457 2089h149l162 -256l162 256h149l-211 -350h-202z" />
<glyph unicode="&#x148;" horiz-adv-x="1243" d="M203 0v1024h192v-127q55 69 138.5 108t185.5 39q160 0 253 -92t93 -264v-688h-195v666q0 94 -52 151t-156 57q-123 0 -195 -77.5t-72 -180.5v-616h-192zM324 1577h149l162 -256l162 256h149l-211 -350h-203z" />
<glyph unicode="&#x14a;" horiz-adv-x="1521" d="M203 0v1536h190l733 -1192v1192h193v-1683q0 -140 -89.5 -208t-232.5 -65v131q58 -2 90.5 28t32.5 114v165l-725 1176v-1194h-192z" />
<glyph unicode="&#x14b;" horiz-adv-x="1345" d="M229 0v1024h193v-143q56 76 138.5 119.5t176.5 43.5q166 0 283 -119t117 -288v-797q0 -137 -95 -205.5t-245 -66.5v133q147 -8 147 139v776q0 107 -75.5 182.5t-180.5 75.5q-110 0 -188 -75.5t-78 -182.5v-616h-193z" />
<glyph unicode="&#x14c;" horiz-adv-x="1787" d="M160 768q0 215 98 396t266.5 286.5t368.5 105.5q201 0 370 -105.5t267 -286.5t98 -396t-98 -396t-267 -286.5t-370 -105.5q-200 0 -368.5 105.5t-266.5 286.5t-98 396zM350 768q0 -165 72 -303t197 -217.5t274 -79.5q151 0 276 79.5t196 217t71 303.5t-71 303.5t-196 217 t-276 79.5q-149 0 -274 -79.5t-197 -217.5t-72 -303zM575 1739v127h635v-127h-635z" />
<glyph unicode="&#x14d;" horiz-adv-x="1255" d="M131 512q0 148 61.5 269t175.5 192t259 71q146 0 260.5 -71t175.5 -192t61 -269t-61 -269t-175.5 -192t-260.5 -71q-145 0 -259 71t-175.5 192t-61.5 269zM309 1227v127h635v-127h-635zM324 512q0 -155 82 -258.5t221 -103.5t221 103.5t82 258.5t-82 258.5t-221 103.5 t-221 -103.5t-82 -258.5z" />
<glyph unicode="&#x150;" horiz-adv-x="1787" d="M160 768q0 215 98 396t266.5 286.5t368.5 105.5q201 0 370 -105.5t267 -286.5t98 -396t-98 -396t-267 -286.5t-370 -105.5q-200 0 -368.5 105.5t-266.5 286.5t-98 396zM350 768q0 -165 72 -303t197 -217.5t274 -79.5q151 0 276 79.5t196 217t71 303.5t-71 303.5t-196 217 t-276 79.5q-149 0 -274 -79.5t-197 -217.5t-72 -303zM643 1690l299 358h186l-344 -358h-141zM1001 1690l299 358h187l-344 -358h-142z" />
<glyph unicode="&#x151;" horiz-adv-x="1255" d="M131 512q0 148 61.5 269t175.5 192t259 71q146 0 260.5 -71t175.5 -192t61 -269t-61 -269t-175.5 -192t-260.5 -71q-145 0 -259 71t-175.5 192t-61.5 269zM324 512q0 -155 82 -258.5t221 -103.5t221 103.5t82 258.5t-82 258.5t-221 103.5t-221 -103.5t-82 -258.5z M377 1178l299 358h186l-344 -358h-141zM735 1178l299 358h187l-344 -358h-142z" />
<glyph unicode="&#x152;" horiz-adv-x="2355" d="M160 768q0 214 97 395.5t263.5 287t362.5 105.5q167 0 314 -77t249 -211v268h766v-170h-602v-512h520v-172h-520v-512h602v-170h-766v268q-102 -134 -249 -211t-314 -77q-196 0 -362.5 105.5t-263.5 287t-97 395.5zM352 768q0 -163 71 -301t193.5 -217.5t268.5 -79.5 t269 79.5t194 217.5t71 301t-71 301t-194 217.5t-269 79.5t-268.5 -79.5t-193.5 -217.5t-71 -301z" />
<glyph unicode="&#x153;" horiz-adv-x="2062" d="M131 512q0 109 42 208t113.5 170t170 112.5t207.5 41.5q130 0 242.5 -58t187.5 -159q64 103 167.5 160t233.5 57q214 0 335.5 -147t121.5 -387q0 -41 -2 -59h-752q13 -141 89.5 -222.5t217.5 -81.5q87 0 151 38.5t118 129.5l137 -94q-60 -115 -165.5 -178t-250.5 -63 q-136 0 -239.5 55.5t-165.5 154.5q-75 -98 -186 -154t-240 -56q-109 0 -207.5 41.5t-170 112.5t-113.5 170t-42 208zM324 512q0 -151 99.5 -256.5t240.5 -105.5q140 0 238.5 105.5t98.5 256.5t-98.5 256.5t-238.5 105.5q-141 0 -240.5 -105.5t-99.5 -256.5zM1204 602h570 q-14 130 -84.5 203.5t-188.5 73.5q-120 0 -197.5 -73.5t-99.5 -203.5z" />
<glyph unicode="&#x154;" horiz-adv-x="1368" d="M223 0v1536h539q169 0 288 -127t119 -309q0 -154 -90.5 -267.5t-228.5 -138.5l412 -694h-224l-387 682h-229v-682h-199zM422 846h334q97 0 164 75.5t67 182.5t-67.5 181.5t-163.5 74.5h-334v-514zM596 1729l182 319h197l-225 -319h-154z" />
<glyph unicode="&#x155;" horiz-adv-x="821" d="M203 0v1024h192v-141q48 75 117 118t145 43q52 0 93 -18l-13 -166q-40 14 -86 14q-110 0 -183 -86.5t-73 -220.5v-567h-192zM401 1217l183 319h196l-225 -319h-154z" />
<glyph unicode="&#x156;" horiz-adv-x="1368" d="M223 0v1536h539q169 0 288 -127t119 -309q0 -154 -90.5 -267.5t-228.5 -138.5l412 -694h-224l-387 682h-229v-682h-199zM422 846h334q97 0 164 75.5t67 182.5t-67.5 181.5t-163.5 74.5h-334v-514zM547 -207q0 54 35 89.5t90 35.5q54 0 89.5 -38.5t35.5 -98.5 q0 -95 -26 -175.5t-80.5 -131t-127.5 -47.5v73q51 1 84 44.5t32.5 80.5t-9.5 43q-54 0 -88.5 35t-34.5 90z" />
<glyph unicode="&#x157;" horiz-adv-x="821" d="M176 -207q0 54 35 89.5t90 35.5q54 0 89.5 -38.5t35.5 -98.5q0 -96 -26 -176t-80 -130.5t-127 -47.5v73q51 1 83.5 44.5t32 80.5t-9.5 43q-54 0 -88.5 35t-34.5 90zM203 0v1024h192v-141q48 75 117 118t145 43q52 0 93 -18l-13 -166q-40 14 -86 14q-110 0 -183 -86.5 t-73 -220.5v-567h-192z" />
<glyph unicode="&#x158;" horiz-adv-x="1368" d="M223 0v1536h539q169 0 288 -127t119 -309q0 -154 -90.5 -267.5t-228.5 -138.5l412 -694h-224l-387 682h-229v-682h-199zM358 2089h150l162 -256l161 256h150l-211 -350h-203zM422 846h334q97 0 164 75.5t67 182.5t-67.5 181.5t-163.5 74.5h-334v-514z" />
<glyph unicode="&#x159;" horiz-adv-x="821" d="M164 1577h149l162 -256l162 256h149l-211 -350h-202zM203 0v1024h192v-141q48 75 117 118t145 43q52 0 93 -18l-13 -166q-40 14 -86 14q-110 0 -183 -86.5t-73 -220.5v-567h-192z" />
<glyph unicode="&#x15a;" horiz-adv-x="1179" d="M119 297l164 98q36 -100 119 -163.5t190 -63.5t178.5 63.5t71.5 174.5q0 59 -23 105.5t-61.5 78t-89 57.5t-106 49t-111 48t-106 59.5t-89 78t-61.5 108.5t-23 147q0 103 35 185.5t93.5 132t128 75.5t144.5 26q111 0 216 -55t172 -141l-144 -123q-45 67 -111 108t-135 41 q-84 0 -142 -60t-58 -171q0 -57 23 -101.5t62 -74.5t89 -55.5t105.5 -49t111.5 -49.5t106 -62t89 -81.5t62 -114t23 -153.5q0 -100 -38.5 -183.5t-102.5 -137.5t-145 -83.5t-168 -29.5q-158 0 -286 91t-183 226zM510 1729l182 319h197l-225 -319h-154z" />
<glyph unicode="&#x15b;" horiz-adv-x="892" d="M109 135l92 131q36 -53 104.5 -89.5t132.5 -39.5q66 -3 111 34.5t45 100.5q0 45 -25 78t-64.5 54t-87 40.5t-95.5 43t-87.5 53.5t-64.5 81.5t-25 118.5q0 134 92.5 218.5t229.5 84.5q71 0 155 -32t146 -82l-98 -131q-33 37 -81 61.5t-95 30.5q-62 6 -108 -27.5t-46 -97.5 q0 -43 24.5 -74.5t63.5 -51.5t86 -38.5t94 -42.5t86 -55.5t63.5 -86t24.5 -126.5q0 -136 -92 -223.5t-241 -87.5q-91 0 -188 44t-152 111zM373 1217l182 319h197l-226 -319h-153z" />
<glyph unicode="&#x15e;" horiz-adv-x="1179" d="M119 297l164 98q36 -100 119 -163.5t190 -63.5t178.5 63.5t71.5 174.5q0 59 -23 105.5t-61.5 78t-89 57.5t-106 49t-111 48t-106 59.5t-89 78t-61.5 108.5t-23 147q0 103 35 185.5t93.5 132t128 75.5t144.5 26q111 0 216 -55t172 -141l-144 -123q-45 67 -111 108t-135 41 q-84 0 -142 -60t-58 -171q0 -57 23 -101.5t62 -74.5t89 -55.5t105.5 -49t111.5 -49.5t106 -62t89 -81.5t62 -114t23 -153.5q0 -128 -61.5 -226.5t-157.5 -150t-209 -57.5l-57 -115q106 20 180 -34.5t74 -152.5q0 -88 -61 -149t-150 -61q-70 0 -138 38t-97 95l88 34 q24 -30 66 -50.5t81 -20.5q49 0 82 33t33 81q0 71 -59 97.5t-144 -6.5l-78 51l84 164q-138 21 -245 107.5t-154 205.5z" />
<glyph unicode="&#x15f;" horiz-adv-x="892" d="M109 135l92 131q36 -53 104.5 -89.5t132.5 -39.5q66 -3 111 34.5t45 100.5q0 45 -25 78t-64.5 54t-87 40.5t-95.5 43t-87.5 53.5t-64.5 81.5t-25 118.5q0 134 92.5 218.5t229.5 84.5q71 0 155 -32t146 -82l-98 -131q-33 37 -81 61.5t-95 30.5q-62 6 -108 -27.5t-46 -97.5 q0 -43 24.5 -74.5t63.5 -51.5t86 -38.5t94 -42.5t86 -55.5t63.5 -86t24.5 -126.5q0 -124 -75.5 -208t-202.5 -99l-60 -119q106 20 180 -34.5t74 -152.5q0 -88 -61 -149t-150 -61q-70 0 -138 38t-97 95l88 34q24 -30 66 -50.5t81 -20.5q49 0 82 33t33 81q0 71 -59 97.5 t-144 -6.5l-77 51l84 162q-85 11 -166.5 52.5t-130.5 100.5z" />
<glyph unicode="&#x160;" horiz-adv-x="1179" d="M119 297l164 98q36 -100 119 -163.5t190 -63.5t178.5 63.5t71.5 174.5q0 59 -23 105.5t-61.5 78t-89 57.5t-106 49t-111 48t-106 59.5t-89 78t-61.5 108.5t-23 147q0 103 35 185.5t93.5 132t128 75.5t144.5 26q111 0 216 -55t172 -141l-144 -123q-45 67 -111 108t-135 41 q-84 0 -142 -60t-58 -171q0 -57 23 -101.5t62 -74.5t89 -55.5t105.5 -49t111.5 -49.5t106 -62t89 -81.5t62 -114t23 -153.5q0 -100 -38.5 -183.5t-102.5 -137.5t-145 -83.5t-168 -29.5q-158 0 -286 91t-183 226zM272 2089h150l162 -256l161 256h150l-211 -350h-203z" />
<glyph unicode="&#x161;" horiz-adv-x="892" d="M109 135l92 131q36 -53 104.5 -89.5t132.5 -39.5q66 -3 111 34.5t45 100.5q0 45 -25 78t-64.5 54t-87 40.5t-95.5 43t-87.5 53.5t-64.5 81.5t-25 118.5q0 134 92.5 218.5t229.5 84.5q71 0 155 -32t146 -82l-98 -131q-33 37 -81 61.5t-95 30.5q-62 6 -108 -27.5t-46 -97.5 q0 -43 24.5 -74.5t63.5 -51.5t86 -38.5t94 -42.5t86 -55.5t63.5 -86t24.5 -126.5q0 -136 -92 -223.5t-241 -87.5q-91 0 -188 44t-152 111zM135 1577h150l161 -256l162 256h150l-211 -350h-203z" />
<glyph unicode="&#x162;" horiz-adv-x="1110" d="M111 1360v176h890v-176h-346v-1360h-198v1360h-346zM344 -399l88 34q24 -30 66.5 -50.5t81.5 -20.5q49 0 81.5 33t32.5 81q0 71 -58.5 97.5t-143.5 -6.5l-78 51l92 180h98l-67 -135q106 20 180 -34.5t74 -152.5q0 -88 -61 -149t-150 -61q-70 0 -138.5 38.5t-97.5 94.5z " />
<glyph unicode="&#x163;" horiz-adv-x="704" d="M80 874v150h176v328h193v-328h176v-150h-176v-874h-48l-67 -135q106 20 180 -34.5t74 -152.5q0 -88 -61 -149t-150 -61q-70 0 -138.5 38.5t-97.5 94.5l88 34q24 -30 66.5 -50.5t81.5 -20.5q49 0 82 33t33 81q0 71 -59 97.5t-144 -6.5l-78 51l92 180h-47v874h-176z" />
<glyph unicode="&#x164;" horiz-adv-x="1110" d="M111 1360v176h890v-176h-346v-1360h-198v1360h-346zM244 2089h149l162 -256l162 256h149l-211 -350h-202z" />
<glyph unicode="&#x165;" horiz-adv-x="704" d="M80 874v150h176v328h193v-328h176v-150h-176v-874h-193v874h-176zM532 1483q0 58 35 91.5t84 33.5q66 0 101.5 -60t35.5 -147q0 -121 -65 -202.5t-174 -82.5v88q53 2 89 36.5t36 86.5q0 37 -25 43q-56 13 -86.5 36.5t-30.5 76.5z" />
<glyph unicode="&#x166;" horiz-adv-x="1110" d="M111 1360v176h890v-176h-346v-539h211v-104h-211v-717h-198v717h-211v104h211v539h-346z" />
<glyph unicode="&#x167;" horiz-adv-x="704" d="M43 461v104h213v309h-176v150h176v328h193v-328h176v-150h-176v-309h215v-104h-215v-461h-193v461h-213z" />
<glyph unicode="&#x168;" horiz-adv-x="1384" d="M182 502v1034h199v-1001q0 -158 90.5 -268.5t220.5 -110.5t221 110.5t91 268.5v1001h198v-1034q0 -143 -67.5 -263t-185 -189.5t-257.5 -69.5t-257.5 69.5t-185 189.5t-67.5 263zM354 1726q-17 117 40 193t155 76q117 0 192 -113q34 -57 88 -57q46 0 68 42t10 109h119 q19 -115 -36 -191.5t-156 -76.5q-119 0 -193 113q-37 57 -88 57q-46 0 -68.5 -43.5t-9.5 -108.5h-121z" />
<glyph unicode="&#x16a;" horiz-adv-x="1384" d="M182 502v1034h199v-1001q0 -158 90.5 -268.5t220.5 -110.5t221 110.5t91 268.5v1001h198v-1034q0 -143 -67.5 -263t-185 -189.5t-257.5 -69.5t-257.5 69.5t-185 189.5t-67.5 263zM375 1739v127h635v-127h-635z" />
<glyph unicode="&#x16b;" horiz-adv-x="1247" d="M182 350v674h193v-653q0 -107 55 -164t158 -57q102 0 183 76.5t81 181.5v616h192v-1024h-192v139q-58 -74 -141 -116.5t-174 -42.5q-164 0 -259.5 100.5t-95.5 269.5zM297 1227v127h635v-127h-635z" />
<glyph unicode="&#x16e;" horiz-adv-x="1384" d="M182 502v1034h199v-1001q0 -158 90.5 -268.5t220.5 -110.5t221 110.5t91 268.5v1001h198v-1034q0 -143 -67.5 -263t-185 -189.5t-257.5 -69.5t-257.5 69.5t-185 189.5t-67.5 263zM479 1849q0 88 62.5 150.5t150.5 62.5t149.5 -62.5t61.5 -150.5q0 -87 -62 -149t-149 -62 q-88 0 -150.5 62.5t-62.5 148.5zM569 1849q0 -53 35.5 -89t87.5 -36q53 0 88 35.5t35 89.5q0 53 -35.5 90t-87.5 37q-51 0 -87 -37t-36 -90z" />
<glyph unicode="&#x16f;" horiz-adv-x="1247" d="M182 350v674h193v-653q0 -107 55 -164t158 -57q102 0 183 76.5t81 181.5v616h192v-1024h-192v139q-58 -74 -141 -116.5t-174 -42.5q-164 0 -259.5 100.5t-95.5 269.5zM401 1337q0 88 62.5 150.5t150.5 62.5t149.5 -62.5t61.5 -150.5q0 -87 -62 -149t-149 -62 q-88 0 -150.5 62.5t-62.5 148.5zM492 1337q0 -54 35.5 -89.5t86.5 -35.5q53 0 88 35.5t35 89.5q0 53 -35.5 90t-87.5 37q-51 0 -86.5 -37t-35.5 -90z" />
<glyph unicode="&#x170;" horiz-adv-x="1384" d="M182 502v1034h199v-1001q0 -158 90.5 -268.5t220.5 -110.5t221 110.5t91 268.5v1001h198v-1034q0 -143 -67.5 -263t-185 -189.5t-257.5 -69.5t-257.5 69.5t-185 189.5t-67.5 263zM442 1690l299 358h187l-344 -358h-142zM801 1690l299 358h186l-344 -358h-141z" />
<glyph unicode="&#x171;" horiz-adv-x="1247" d="M182 350v674h193v-653q0 -107 55 -164t158 -57q102 0 183 76.5t81 181.5v616h192v-1024h-192v139q-58 -74 -141 -116.5t-174 -42.5q-164 0 -259.5 100.5t-95.5 269.5zM367 1178l299 358h186l-344 -358h-141zM725 1178l299 358h186l-344 -358h-141z" />
<glyph unicode="&#x172;" horiz-adv-x="1384" d="M182 502v1034h199v-1001q0 -158 90.5 -268.5t220.5 -110.5t221 110.5t91 268.5v1001h198v-1034q0 -162 -86.5 -293.5t-226.5 -190.5q-236 -127 -236 -276q0 -59 34.5 -95t98.5 -36q57 0 108 25.5t85 70.5l63 -92q-119 -116 -286 -107q-107 5 -171.5 61.5t-64.5 154.5 q0 143 152 256q-206 8 -348 158.5t-142 363.5z" />
<glyph unicode="&#x173;" horiz-adv-x="1247" d="M182 350v674h193v-653q0 -107 55 -164t158 -57q102 0 183 76.5t81 181.5v616h192v-1024q-54 -28 -95 -54t-85 -64t-68 -83.5t-24 -95.5q0 -59 34.5 -95t98.5 -36q57 0 108 25.5t85 70.5l63 -92q-119 -116 -287 -106q-107 5 -171 61t-64 154q0 183 248 315h-35v139 q-58 -74 -141 -116.5t-174 -42.5q-164 0 -259.5 100.5t-95.5 269.5z" />
<glyph unicode="&#x174;" horiz-adv-x="2086" d="M12 1536h209l361 -1290l354 1290h190h23l360 -1294l361 1294h205l-459 -1536h-209l-365 1243l-358 -1243h-209zM731 1698l209 350h203l211 -350h-156l-156 258l-157 -258h-154z" />
<glyph unicode="&#x175;" horiz-adv-x="1521" d="M53 1024h217l197 -778l213 778h162l217 -784l196 784h213l-297 -1024h-206l-203 723l-205 -723h-207zM451 1186l208 350h203l211 -350h-155l-156 258l-158 -258h-153z" />
<glyph unicode="&#x176;" horiz-adv-x="1261" d="M76 1536h223l332 -616l334 616h221l-455 -795v-741h-199v735zM322 1698l208 350h203l211 -350h-156l-155 258l-158 -258h-153z" />
<glyph unicode="&#x177;" horiz-adv-x="1048" d="M74 1024h209l241 -799l244 799h209l-520 -1536h-203l172 502zM215 1186l209 350h203l211 -350h-156l-156 258l-157 -258h-154z" />
<glyph unicode="&#x178;" horiz-adv-x="1261" d="M76 1536h223l332 -616l334 616h221l-455 -795v-741h-199v735zM313 1847q0 52 37 88.5t88 36.5t88 -36.5t37 -88.5q0 -51 -37 -87t-88 -36t-88 36t-37 87zM702 1847q0 52 37 88.5t88 36.5t87 -36.5t36 -88.5q0 -51 -36 -87t-87 -36t-88 36t-37 87z" />
<glyph unicode="&#x179;" horiz-adv-x="1247" d="M127 0v104l719 1256h-701v176h957v-104l-717 -1256h731v-176h-989zM563 1729l182 319h197l-225 -319h-154z" />
<glyph unicode="&#x17a;" horiz-adv-x="958" d="M109 0v135l495 729h-487v160h737v-131l-498 -731h506v-162h-753zM434 1217l182 319h197l-225 -319h-154z" />
<glyph unicode="&#x17b;" horiz-adv-x="1247" d="M127 0v104l719 1256h-701v176h957v-104l-717 -1256h731v-176h-989zM512 1847q0 52 37 88.5t88 36.5t88 -36.5t37 -88.5q0 -51 -37 -87t-88 -36t-88 36t-37 87z" />
<glyph unicode="&#x17c;" horiz-adv-x="958" d="M109 0v135l495 729h-487v160h737v-131l-498 -731h506v-162h-753zM383 1335q0 52 37 88.5t88 36.5t88 -36.5t37 -88.5q0 -51 -37 -87t-88 -36t-88 36t-37 87z" />
<glyph unicode="&#x17d;" horiz-adv-x="1247" d="M127 0v104l719 1256h-701v176h957v-104l-717 -1256h731v-176h-989zM326 2089h149l162 -256l162 256h149l-211 -350h-202z" />
<glyph unicode="&#x17e;" horiz-adv-x="958" d="M109 0v135l495 729h-487v160h737v-131l-498 -731h506v-162h-753zM197 1577h149l162 -256l162 256h149l-211 -350h-202z" />
<glyph unicode="&#x192;" horiz-adv-x="915" d="M141 -512l183 1386h-146l23 150h143l31 229q17 129 109.5 216t207.5 87q37 0 72 -11t51 -25l-18 -140q-29 33 -86 33q-65 0 -111.5 -50.5t-56.5 -133.5l-27 -205h242l-23 -150h-239l-183 -1386h-172z" />
<glyph unicode="&#x1cd;" horiz-adv-x="1333" d="M33 0l522 1536h223l522 -1536h-215l-102 317h-633l-100 -317h-217zM356 2089h150l162 -256l161 256h150l-211 -350h-203zM403 485h527l-262 828z" />
<glyph unicode="&#x1ce;" horiz-adv-x="1099" d="M135 295q0 90 38.5 167.5t110.5 121t158 28.5l314 -51v111q0 100 -55.5 158.5t-147.5 58.5q-76 0 -132.5 -41t-66.5 -109l-194 2q11 131 121 217t274 86q174 0 283.5 -99t109.5 -259v-686h-155l-21 131q-139 -151 -315 -151q-142 0 -232 88.5t-90 226.5zM252 1577h149 l162 -256l162 256h149l-210 -350h-203zM326 307q0 -75 49 -120.5t125 -45.5q67 0 135.5 33.5t120.5 89.5v150l-267 49q-67 13 -115 -33t-48 -123z" />
<glyph unicode="&#x1cf;" horiz-adv-x="598" d="M-10 2089h149l162 -256l162 256h149l-211 -350h-202zM201 0v1536h198v-1536h-198z" />
<glyph unicode="&#x1d0;" horiz-adv-x="661" d="M20 1577h150l162 -256l162 256h149l-211 -350h-203zM236 0v1024h192v-1024h-192z" />
<glyph unicode="&#x1d1;" horiz-adv-x="1787" d="M160 768q0 215 98 396t266.5 286.5t368.5 105.5q201 0 370 -105.5t267 -286.5t98 -396t-98 -396t-267 -286.5t-370 -105.5q-200 0 -368.5 105.5t-266.5 286.5t-98 396zM350 768q0 -165 72 -303t197 -217.5t274 -79.5q151 0 276 79.5t196 217t71 303.5t-71 303.5t-196 217 t-276 79.5q-149 0 -274 -79.5t-197 -217.5t-72 -303zM582 2089h149l162 -256l162 256h149l-211 -350h-202z" />
<glyph unicode="&#x1d2;" horiz-adv-x="1255" d="M131 512q0 148 61.5 269t175.5 192t259 71q146 0 260.5 -71t175.5 -192t61 -269t-61 -269t-175.5 -192t-260.5 -71q-145 0 -259 71t-175.5 192t-61.5 269zM315 1577h150l162 -256l161 256h150l-211 -350h-203zM324 512q0 -155 82 -258.5t221 -103.5t221 103.5t82 258.5 t-82 258.5t-221 103.5t-221 -103.5t-82 -258.5z" />
<glyph unicode="&#x1d3;" horiz-adv-x="1384" d="M182 502v1034h199v-1001q0 -158 90.5 -268.5t220.5 -110.5t221 110.5t91 268.5v1001h198v-1034q0 -143 -67.5 -263t-185 -189.5t-257.5 -69.5t-257.5 69.5t-185 189.5t-67.5 263zM381 2089h149l162 -256l162 256h150l-211 -350h-203z" />
<glyph unicode="&#x1d4;" horiz-adv-x="1247" d="M182 350v674h193v-653q0 -107 55 -164t158 -57q102 0 183 76.5t81 181.5v616h192v-1024h-192v139q-58 -74 -141 -116.5t-174 -42.5q-164 0 -259.5 100.5t-95.5 269.5zM303 1577h150l161 -256l162 256h150l-211 -350h-203z" />
<glyph unicode="&#x1e6;" horiz-adv-x="1708" d="M160 768q0 215 98 396t266.5 286.5t368.5 105.5q211 0 386 -116.5t269 -311.5l-172 -81q-67 147 -196 234t-287 87q-149 0 -274 -79.5t-197 -217.5t-72 -303t72 -303t197 -217.5t274 -79.5q153 0 278.5 82t194.5 221v164h-365v178h547v-405q-94 -195 -269 -311.5 t-386 -116.5q-200 0 -368.5 105.5t-266.5 286.5t-98 396zM582 2089h149l162 -256l162 256h149l-211 -350h-202z" />
<glyph unicode="&#x1e7;" horiz-adv-x="1019" d="M131 -133l109 123q-109 59 -109 207q0 131 94 237q-73 98 -73 228q0 159 110 270.5t268 111.5q97 0 179 -45l145 121l102 -125l-122 -104q75 -101 75 -229q0 -158 -110.5 -269.5t-268.5 -111.5q-100 0 -190 51q-45 -58 -45 -109q0 -104 174 -104h190q147 0 230.5 -78.5 t83.5 -222.5q0 -155 -111.5 -241.5t-296.5 -86.5q-213 0 -324 89.5t-110 287.5zM193 1577h149l162 -256l162 256h149l-211 -350h-203zM299 -158q0 -99 67.5 -140.5t211.5 -41.5q94 0 156.5 40t62.5 110q0 61 -43 96t-111 35h-176q-51 0 -98 6zM322 664q0 -86 61 -146.5 t147 -60.5t147.5 60.5t61.5 146.5q0 88 -61.5 149t-147.5 61t-147 -61t-61 -149z" />
<glyph unicode="&#x1fe;" horiz-adv-x="1787" d="M160 768q0 215 98 396t266.5 286.5t368.5 105.5q201 0 371 -106l79 121h156l-131 -201q122 -109 191 -266t69 -336q0 -215 -98 -396t-267 -286.5t-370 -105.5q-203 0 -371 108l-80 -121h-153l131 199q-122 109 -191 266t-69 336zM350 768q0 -131 45.5 -245t128.5 -197 l637 966q-129 76 -268 76q-149 0 -274 -79.5t-197 -217.5t-72 -303zM625 244q129 -76 268 -76q151 0 276 79.5t196 217t71 303.5q0 132 -45.5 245.5t-128.5 198.5zM819 1729l182 319h197l-225 -319h-154z" />
<glyph unicode="&#x1ff;" horiz-adv-x="1255" d="M131 512q0 148 61.5 269t175.5 192t259 71q138 0 252 -65l71 108h111l-109 -163q82 -72 127 -180t45 -232q0 -148 -61 -269t-175.5 -192t-260.5 -71q-140 0 -252 67l-74 -110h-111l109 165q-80 72 -124 179t-44 231zM324 512q0 -159 77 -254l379 573q-68 43 -153 43 q-139 0 -221 -103.5t-82 -258.5zM471 195q67 -45 156 -45q139 0 221 103.5t82 258.5q0 152 -80 256zM553 1217l182 319h197l-225 -319h-154z" />
<glyph unicode="&#x218;" horiz-adv-x="1179" d="M119 297l164 98q36 -100 119 -163.5t190 -63.5t178.5 63.5t71.5 174.5q0 59 -23 105.5t-61.5 78t-89 57.5t-106 49t-111 48t-106 59.5t-89 78t-61.5 108.5t-23 147q0 103 35 185.5t93.5 132t128 75.5t144.5 26q111 0 216 -55t172 -141l-144 -123q-45 67 -111 108t-135 41 q-84 0 -142 -60t-58 -171q0 -57 23 -101.5t62 -74.5t89 -55.5t105.5 -49t111.5 -49.5t106 -62t89 -81.5t62 -114t23 -153.5q0 -100 -38.5 -183.5t-102.5 -137.5t-145 -83.5t-168 -29.5q-158 0 -286 91t-183 226zM451 -207q0 54 34.5 89.5t89.5 35.5q54 0 89.5 -38.5 t35.5 -98.5q0 -96 -26 -176t-80 -130.5t-127 -47.5v73q51 1 83.5 44.5t32 80.5t-9.5 43q-54 0 -88 35t-34 90z" />
<glyph unicode="&#x219;" horiz-adv-x="892" d="M109 135l92 131q36 -53 104.5 -89.5t132.5 -39.5q66 -3 111 34.5t45 100.5q0 45 -25 78t-64.5 54t-87 40.5t-95.5 43t-87.5 53.5t-64.5 81.5t-25 118.5q0 134 92.5 218.5t229.5 84.5q71 0 155 -32t146 -82l-98 -131q-33 37 -81 61.5t-95 30.5q-62 6 -108 -27.5t-46 -97.5 q0 -43 24.5 -74.5t63.5 -51.5t86 -38.5t94 -42.5t86 -55.5t63.5 -86t24.5 -126.5q0 -136 -92 -223.5t-241 -87.5q-91 0 -188 44t-152 111zM340 -207q0 54 35 89.5t90 35.5q54 0 89.5 -38.5t35.5 -98.5q0 -95 -26 -175.5t-80.5 -131t-127.5 -47.5v73q51 1 84 44.5t32.5 80.5 t-9.5 43q-54 0 -88.5 35t-34.5 90z" />
<glyph unicode="&#x21a;" horiz-adv-x="1110" d="M111 1360v176h890v-176h-346v-1360h-198v1360h-346zM432 -207q0 54 35 89.5t90 35.5q54 0 89.5 -38.5t35.5 -98.5q0 -96 -26 -176t-80 -130.5t-127 -47.5v73q51 1 83.5 44.5t32 80.5t-9.5 43q-54 0 -88.5 35t-34.5 90z" />
<glyph unicode="&#x21b;" horiz-adv-x="704" d="M80 874v150h176v328h193v-328h176v-150h-176v-874h-193v874h-176zM229 -207q0 54 35 89.5t90 35.5q54 0 89.5 -38.5t35.5 -98.5q0 -96 -26 -176t-80 -130.5t-127 -47.5v73q51 1 83.5 44.5t32 80.5t-9.5 43q-54 0 -88.5 35t-34.5 90z" />
<glyph unicode="&#x228;" horiz-adv-x="1148" d="M201 0v1536h803v-176h-605v-504h525v-176h-525v-504h605v-176h-355l-67 -135q106 20 180 -34.5t74 -152.5q0 -88 -61 -149t-150 -61q-70 0 -138.5 38.5t-97.5 94.5l88 34q24 -30 66.5 -50.5t81.5 -20.5q49 0 81.5 33t32.5 81q0 71 -58.5 97.5t-143.5 -6.5l-78 51l92 180 h-350z" />
<glyph unicode="&#x229;" horiz-adv-x="1187" d="M131 504q0 236 135.5 388t354.5 152q213 0 334.5 -147.5t121.5 -386.5q0 -41 -2 -59h-751q13 -141 90 -222.5t217 -81.5q87 0 150.5 38.5t117.5 129.5l137 -94q-55 -105 -149.5 -167.5t-222.5 -71.5l-58 -117q106 20 180 -34.5t74 -152.5q0 -88 -61 -149t-150 -61 q-70 0 -138 38t-97 95l88 34q24 -30 66 -50.5t81 -20.5q49 0 82 33t33 81q0 71 -59 97.5t-144 -6.5l-78 51l82 162q-136 12 -235.5 84.5t-149 185.5t-49.5 252zM330 602h567q-14 130 -84 203.5t-188 73.5q-119 0 -196 -73.5t-99 -203.5z" />
<glyph unicode="&#x237;" horiz-adv-x="708" d="M10 -334q21 -17 53.5 -28t59.5 -11q63 0 106 47t43 115v1235h193v-1247q0 -129 -93.5 -219t-228.5 -90q-35 0 -74 9.5t-59 22.5v166z" />
<glyph unicode="&#x2c6;" horiz-adv-x="182" d="M115 1186l209 350h202l211 -350h-155l-156 258l-158 -258h-153z" />
<glyph unicode="&#x2c7;" horiz-adv-x="182" d="M115 1577h149l162 -256l162 256h149l-211 -350h-202z" />
<glyph unicode="&#x2d8;" horiz-adv-x="196" d="M307 1479h115q0 -85 54 -145t138 -60q85 0 140 60t55 145h113q0 -150 -85.5 -237t-222.5 -87q-136 0 -221.5 87t-85.5 237z" />
<glyph unicode="&#x2d9;" horiz-adv-x="182" d="M238 1335q0 52 36.5 88.5t87.5 36.5t88 -36.5t37 -88.5q0 -51 -37 -87t-88 -36t-87.5 36t-36.5 87z" />
<glyph unicode="&#x2da;" horiz-adv-x="194" d="M29 1337q0 88 62.5 150.5t150.5 62.5t149.5 -62.5t61.5 -150.5q0 -87 -62 -149t-149 -62q-88 0 -150.5 62.5t-62.5 148.5zM119 1337q0 -53 35.5 -89t87.5 -36q53 0 88 35.5t35 89.5q0 53 -35.5 90t-87.5 37q-51 0 -87 -37t-36 -90z" />
<glyph unicode="&#x2db;" horiz-adv-x="188" d="M82 -315q0 205 309 346l96 -31q-54 -28 -95 -54t-85 -64t-68 -83.5t-24 -95.5q0 -59 34.5 -95t98.5 -36q57 0 108 25.5t85 70.5l63 -92q-119 -116 -287 -106q-107 5 -171 61t-64 154z" />
<glyph unicode="&#x2dc;" horiz-adv-x="208" d="M117 1276q-17 117 39.5 192.5t154.5 75.5q119 0 193 -112q34 -58 88 -58q46 0 68 42.5t10 109.5h118q19 -116 -36 -192.5t-156 -76.5q-119 0 -193 113q-37 57 -88 57q-46 0 -68 -42.5t-9 -108.5h-121z" />
<glyph unicode="&#x2dd;" horiz-adv-x="182" d="M115 1178l299 358h186l-344 -358h-141zM473 1178l299 358h186l-344 -358h-141z" />
<glyph unicode="&#x300;" d="M-496 1536h197l182 -319h-151z" />
<glyph unicode="&#x301;" d="M-496 1217l183 319h196l-225 -319h-154z" />
<glyph unicode="&#x302;" d="M-737 1186l209 350h202l211 -350h-155l-156 258l-158 -258h-153z" />
<glyph unicode="&#x303;" d="M-793 1276q-17 117 40 192.5t155 75.5q118 0 192 -112q34 -58 89 -58q46 0 67.5 42.5t9.5 109.5h119q19 -116 -36 -192.5t-156 -76.5q-119 0 -193 113q-37 57 -88 57q-46 0 -68.5 -43t-9.5 -108h-121z" />
<glyph unicode="&#x304;" d="M-750 1227v127h635v-127h-635z" />
<glyph unicode="&#x306;" d="M-1022 1479h115q0 -85 54 -145t138 -60q85 0 140 60t55 145h112q0 -150 -85 -237t-222 -87q-136 0 -221.5 87t-85.5 237z" />
<glyph unicode="&#x307;" d="M-485 1335q0 52 37 88.5t88 36.5t87.5 -36.5t36.5 -88.5q0 -51 -36.5 -87t-87.5 -36t-88 36t-37 87z" />
<glyph unicode="&#x308;" d="M-817 1335q0 52 37 88.5t88 36.5t88 -36.5t37 -88.5q0 -51 -37 -87t-88 -36t-88 36t-37 87zM-428 1335q0 52 37 88.5t88 36.5t87 -36.5t36 -88.5q0 -51 -36 -87t-87 -36t-88 36t-37 87z" />
<glyph unicode="&#x30a;" d="M-453 1337q0 88 62.5 150.5t150.5 62.5t149.5 -62.5t61.5 -150.5q0 -87 -62 -149t-149 -62q-88 0 -150.5 62.5t-62.5 148.5zM-362 1337q0 -54 35.5 -89.5t86.5 -35.5q53 0 88 35.5t35 89.5q0 53 -35.5 90t-87.5 37q-51 0 -86.5 -37t-35.5 -90z" />
<glyph unicode="&#x30b;" d="M-956 1178l299 358h186l-344 -358h-141zM-598 1178l299 358h186l-344 -358h-141z" />
<glyph unicode="&#x30c;" d="M-737 1577h149l162 -256l162 256h149l-211 -350h-202z" />
<glyph unicode="&#x312;" d="M-367 1200q-1 65 27.5 134t67.5 116.5t78 77t61 26.5v-71q-22 -1 -54 -43.5t-49.5 -84.5t-5.5 -42q53 0 89 -35.5t36 -87.5q0 -53 -36.5 -90t-88.5 -37q-53 0 -89 39.5t-36 97.5z" />
<glyph unicode="&#x323;" d="M-362 -387q0 51 36.5 88t87.5 37t88 -37t37 -88t-37 -88t-88 -37t-87.5 37t-36.5 88z" />
<glyph unicode="&#x326;" d="M-365 104q0 54 35 89.5t90 35.5q54 0 89.5 -38.5t35.5 -98.5q0 -96 -26 -176t-80 -130.5t-127 -47.5v74q51 1 83.5 44.5t32 80.5t-9.5 43q-54 0 -88.5 34.5t-34.5 89.5z" />
<glyph unicode="&#x327;" d="M-561 -399l88 34q24 -30 66 -50.5t81 -20.5q49 0 82 33t33 81q0 71 -59 97.5t-144 -6.5l-78 51l93 180h98l-68 -135q106 20 180 -34.5t74 -152.5q0 -88 -61 -149t-150 -61q-70 0 -138 38t-97 95z" />
<glyph unicode="&#x328;" d="M-637 -315q0 205 309 346l97 -31q-55 -28 -95.5 -54t-85 -64t-68.5 -83.5t-24 -95.5q0 -59 34.5 -95t98.5 -36q57 0 108 25.5t85 70.5l63 -92q-119 -115 -286 -106q-107 5 -171.5 61t-64.5 154z" />
<glyph unicode="&#x335;" d="M-1020 479v105h621v-105h-621z" />
<glyph unicode="&#x336;" d="M-1589 489v86h1472v-86h-1472z" />
<glyph unicode="&#x337;" d="M-938 127v174l481 502v-174z" />
<glyph unicode="&#x338;" d="M-1305 -33l1055 1604h156l-1057 -1604h-154z" />
<glyph unicode="&#x394;" horiz-adv-x="1730" d="M133 0v117l625 1435h223l614 -1435v-117h-1462zM326 158h1065l-355 811q-17 45 -83 203.5t-83 209.5h-20q-8 -28 -34.5 -93.5t-63 -152t-52.5 -126.5z" />
<glyph unicode="&#x3a9;" horiz-adv-x="1925" d="M176 0v141h336v15q-128 101 -214.5 272.5t-86.5 376.5q0 154 56.5 289.5t156 233t240.5 154t303 56.5q166 0 308 -60.5t236.5 -161t147.5 -232t53 -273.5q0 -205 -90 -382t-215 -273v-15h340v-141h-604v104q76 40 142.5 102.5t121 146.5t86 195t31.5 232q0 92 -23 180.5 t-69.5 167t-112 138t-156 94.5t-194.5 35q-168 0 -299.5 -83t-202 -223t-70.5 -311q0 -157 56.5 -297.5t141.5 -233.5t185 -143v-104h-604z" />
<glyph unicode="&#x3bc;" horiz-adv-x="1280" d="M182 -512v1536h144v-625q0 -121 85 -205.5t207 -84.5t208.5 84.5t86.5 205.5v625h146v-1024h-146v160q-57 -83 -143.5 -131.5t-187.5 -48.5q-171 0 -287 122v-614h-113z" />
<glyph unicode="&#x3c0;" horiz-adv-x="1538" d="M82 1057q99 59 350 59h1000l-15 -143h-203v-639q0 -234 33 -334h-178q-39 61 -39 313v660l-461 2q-10 -225 -62.5 -529t-115.5 -446h-178q64 169 115.5 455t60.5 518q-198 0 -287 -29z" />
<glyph unicode="&#x1e04;" horiz-adv-x="1349" d="M223 0v1536h545q170 0 286.5 -115.5t116.5 -296.5q0 -125 -59 -212t-162 -128q123 -40 196 -137t73 -237q0 -182 -115 -296t-287 -114h-594zM420 176h373q93 0 160 75.5t67 180.5q0 103 -67 178.5t-160 75.5h-373v-510zM420 850h323q95 0 162.5 75.5t67.5 180.5 q0 104 -67.5 179t-162.5 75h-323v-510zM561 -258q0 51 37 88t88 37t88 -37t37 -88t-37 -88t-88 -37t-88 37t-37 88z" />
<glyph unicode="&#x1e05;" horiz-adv-x="1265" d="M203 0v1585h192v-688q118 147 299 147q134 0 235 -71.5t153.5 -191.5t52.5 -269t-52.5 -269t-153.5 -191.5t-235 -71.5q-181 0 -299 147v-127h-192zM381 512q0 -151 81 -256.5t197 -105.5q132 0 208.5 103t76.5 259t-76.5 259t-208.5 103q-116 0 -197 -105.5t-81 -256.5z M545 -258q0 51 37 88t88 37t88 -37t37 -88t-37 -88t-88 -37t-88 37t-37 88z" />
<glyph unicode="&#x1e24;" horiz-adv-x="1439" d="M201 0v1536h198v-680h641v680h199v-1536h-199v680h-641v-680h-198zM598 -258q0 51 37 88t88 37t88 -37t37 -88t-37 -88t-88 -37t-88 37t-37 88z" />
<glyph unicode="&#x1e25;" horiz-adv-x="1243" d="M203 0v1585h192v-690q55 70 134 109.5t173 39.5q162 0 262.5 -109.5t100.5 -283.5v-651h-195v629q0 108 -61.5 176.5t-161.5 68.5q-104 0 -178 -75.5t-74 -182.5v-616h-192zM498 -258q0 51 37 88t88 37t88 -37t37 -88t-37 -88t-88 -37t-88 37t-37 88z" />
<glyph unicode="&#x1e36;" horiz-adv-x="993" d="M201 0v1536h198v-1360h463v-176h-661zM408 -258q0 51 36.5 88t87.5 37t88 -37t37 -88t-37 -88t-88 -37t-87.5 37t-36.5 88z" />
<glyph unicode="&#x1e37;" horiz-adv-x="595" d="M176 -258q0 51 37 88t88 37t88 -37t37 -88t-37 -88t-88 -37t-88 37t-37 88zM203 0v1585h192v-1585h-192z" />
<glyph unicode="&#x1e44;" horiz-adv-x="1538" d="M203 0v1536h196l738 -1184v1184h198v-1536h-198l-736 1188v-1188h-198zM643 1847q0 52 37 88.5t88 36.5t88 -36.5t37 -88.5q0 -51 -37 -87t-88 -36t-88 36t-37 87z" />
<glyph unicode="&#x1e45;" horiz-adv-x="1243" d="M203 0v1024h192v-127q55 69 138.5 108t185.5 39q160 0 253 -92t93 -264v-688h-195v666q0 94 -52 151t-156 57q-123 0 -195 -77.5t-72 -180.5v-616h-192zM510 1335q0 52 37 88.5t88 36.5t88 -36.5t37 -88.5q0 -51 -37 -87t-88 -36t-88 36t-37 87z" />
<glyph unicode="&#x1e46;" horiz-adv-x="1538" d="M203 0v1536h196l738 -1184v1184h198v-1536h-198l-736 1188v-1188h-198zM645 -258q0 51 37 88t88 37t88 -37t37 -88t-37 -88t-88 -37t-88 37t-37 88z" />
<glyph unicode="&#x1e47;" horiz-adv-x="1243" d="M203 0v1024h192v-127q55 69 138.5 108t185.5 39q160 0 253 -92t93 -264v-688h-195v666q0 94 -52 151t-156 57q-123 0 -195 -77.5t-72 -180.5v-616h-192zM510 -258q0 51 37 88t88 37t88 -37t37 -88t-37 -88t-88 -37t-88 37t-37 88z" />
<glyph unicode="&#x1e62;" horiz-adv-x="1179" d="M119 297l164 98q36 -100 119 -163.5t190 -63.5t178.5 63.5t71.5 174.5q0 59 -23 105.5t-61.5 78t-89 57.5t-106 49t-111 48t-106 59.5t-89 78t-61.5 108.5t-23 147q0 103 35 185.5t93.5 132t128 75.5t144.5 26q111 0 216 -55t172 -141l-144 -123q-45 67 -111 108t-135 41 q-84 0 -142 -60t-58 -171q0 -57 23 -101.5t62 -74.5t89 -55.5t105.5 -49t111.5 -49.5t106 -62t89 -81.5t62 -114t23 -153.5q0 -100 -38.5 -183.5t-102.5 -137.5t-145 -83.5t-168 -29.5q-158 0 -286 91t-183 226zM451 -258q0 51 36.5 88t87.5 37t88 -37t37 -88t-37 -88 t-88 -37t-87.5 37t-36.5 88z" />
<glyph unicode="&#x1e63;" horiz-adv-x="892" d="M109 135l92 131q36 -53 104.5 -89.5t132.5 -39.5q66 -3 111 34.5t45 100.5q0 45 -25 78t-64.5 54t-87 40.5t-95.5 43t-87.5 53.5t-64.5 81.5t-25 118.5q0 134 92.5 218.5t229.5 84.5q71 0 155 -32t146 -82l-98 -131q-33 37 -81 61.5t-95 30.5q-62 6 -108 -27.5t-46 -97.5 q0 -43 24.5 -74.5t63.5 -51.5t86 -38.5t94 -42.5t86 -55.5t63.5 -86t24.5 -126.5q0 -136 -92 -223.5t-241 -87.5q-91 0 -188 44t-152 111zM340 -258q0 51 37 88t88 37t88 -37t37 -88t-37 -88t-88 -37t-88 37t-37 88z" />
<glyph unicode="&#x1e6c;" horiz-adv-x="1110" d="M111 1360v176h890v-176h-346v-1360h-198v1360h-346zM430 -258q0 51 37 88t88 37t88 -37t37 -88t-37 -88t-88 -37t-88 37t-37 88z" />
<glyph unicode="&#x1e6d;" horiz-adv-x="704" d="M80 874v150h176v328h193v-328h176v-150h-176v-874h-193v874h-176zM229 -258q0 51 37 88t88 37t88 -37t37 -88t-37 -88t-88 -37t-88 37t-37 88z" />
<glyph unicode="&#x1e80;" horiz-adv-x="2086" d="M12 1536h209l361 -1290l354 1290h190h23l360 -1294l361 1294h205l-459 -1536h-209l-365 1243l-358 -1243h-209zM731 2048h197l182 -319h-152z" />
<glyph unicode="&#x1e81;" horiz-adv-x="1521" d="M53 1024h217l197 -778l213 778h162l217 -784l196 784h213l-297 -1024h-206l-203 723l-205 -723h-207zM451 1536h196l182 -319h-151z" />
<glyph unicode="&#x1e82;" horiz-adv-x="2086" d="M12 1536h209l361 -1290l354 1290h190h23l360 -1294l361 1294h205l-459 -1536h-209l-365 1243l-358 -1243h-209zM969 1729l182 319h197l-226 -319h-153z" />
<glyph unicode="&#x1e83;" horiz-adv-x="1521" d="M53 1024h217l197 -778l213 778h162l217 -784l196 784h213l-297 -1024h-206l-203 723l-205 -723h-207zM688 1217l182 319h197l-225 -319h-154z" />
<glyph unicode="&#x1e84;" horiz-adv-x="2086" d="M12 1536h209l361 -1290l354 1290h190h23l360 -1294l361 1294h205l-459 -1536h-209l-365 1243l-358 -1243h-209zM723 1847q0 52 37 88.5t88 36.5t88 -36.5t37 -88.5q0 -51 -37 -87t-88 -36t-88 36t-37 87zM1112 1847q0 52 37 88.5t88 36.5t87 -36.5t36 -88.5 q0 -51 -36 -87t-87 -36t-88 36t-37 87z" />
<glyph unicode="&#x1e85;" horiz-adv-x="1521" d="M53 1024h217l197 -778l213 778h162l217 -784l196 784h213l-297 -1024h-206l-203 723l-205 -723h-207zM442 1335q0 52 37 88.5t88 36.5t88 -36.5t37 -88.5q0 -51 -37 -87t-88 -36t-88 36t-37 87zM831 1335q0 52 37 88.5t88 36.5t87 -36.5t36 -88.5q0 -51 -36 -87t-87 -36 t-88 36t-37 87z" />
<glyph unicode="&#x1e92;" horiz-adv-x="1247" d="M127 0v104l719 1256h-701v176h957v-104l-717 -1256h731v-176h-989zM494 -258q0 51 36.5 88t87.5 37t88 -37t37 -88t-37 -88t-88 -37t-87.5 37t-36.5 88z" />
<glyph unicode="&#x1e93;" horiz-adv-x="958" d="M109 0v135l495 729h-487v160h737v-131l-498 -731h506v-162h-753zM360 -258q0 51 37 88t88 37t88 -37t37 -88t-37 -88t-88 -37t-88 37t-37 88z" />
<glyph unicode="&#x1ea0;" horiz-adv-x="1333" d="M33 0l522 1536h223l522 -1536h-215l-102 317h-633l-100 -317h-217zM403 485h527l-262 828zM543 -258q0 51 37 88t88 37t88 -37t37 -88t-37 -88t-88 -37t-88 37t-37 88z" />
<glyph unicode="&#x1ea1;" horiz-adv-x="1099" d="M135 295q0 90 38.5 167.5t110.5 121t158 28.5l314 -51v111q0 100 -55.5 158.5t-147.5 58.5q-76 0 -132.5 -41t-66.5 -109l-194 2q11 131 121 217t274 86q174 0 283.5 -99t109.5 -259v-686h-155l-21 131q-139 -151 -315 -151q-142 0 -232 88.5t-90 226.5zM326 307 q0 -75 49 -120.5t125 -45.5q67 0 135.5 33.5t120.5 89.5v150l-267 49q-67 13 -115 -33t-48 -123zM477 -260q0 51 37 88t88 37t88 -37t37 -88t-37 -88t-88 -37t-88 37t-37 88z" />
<glyph unicode="&#x1eb8;" horiz-adv-x="1148" d="M201 0v1536h803v-176h-605v-504h525v-176h-525v-504h605v-176h-803zM475 -258q0 51 37 88t88 37t88 -37t37 -88t-37 -88t-88 -37t-88 37t-37 88z" />
<glyph unicode="&#x1eb9;" horiz-adv-x="1187" d="M131 504q0 236 135.5 388t354.5 152q213 0 334.5 -147.5t121.5 -386.5q0 -41 -2 -59h-751q13 -141 90 -222.5t217 -81.5q87 0 150.5 38.5t117.5 129.5l137 -94q-60 -115 -165 -178t-250 -63q-152 0 -264.5 70t-169 187.5t-56.5 266.5zM330 602h567q-14 130 -84 203.5 t-188 73.5q-119 0 -196 -73.5t-99 -203.5zM502 -258q0 51 37 88t88 37t88 -37t37 -88t-37 -88t-88 -37t-88 37t-37 88z" />
<glyph unicode="&#x1ebc;" horiz-adv-x="1148" d="M201 0v1536h803v-176h-605v-504h525v-176h-525v-504h605v-176h-803zM262 1726q-17 117 40 193t155 76q117 0 192 -113q34 -57 88 -57q46 0 68 42t10 109h119q19 -115 -36.5 -191.5t-156.5 -76.5q-118 0 -192 113q-37 57 -88 57q-46 0 -68.5 -43.5t-9.5 -108.5h-121z" />
<glyph unicode="&#x1ebd;" horiz-adv-x="1187" d="M131 504q0 236 135.5 388t354.5 152q213 0 334.5 -147.5t121.5 -386.5q0 -41 -2 -59h-751q13 -141 90 -222.5t217 -81.5q87 0 150.5 38.5t117.5 129.5l137 -94q-60 -115 -165 -178t-250 -63q-152 0 -264.5 70t-169 187.5t-56.5 266.5zM285 1221q-17 117 39.5 192.5 t154.5 75.5q118 0 193 -113q34 -57 88 -57q46 0 68 42t10 109h118q19 -115 -36 -191.5t-156 -76.5q-119 0 -193 113q-37 57 -88 57q-46 0 -68 -42.5t-9 -108.5h-121zM330 602h567q-14 130 -84 203.5t-188 73.5q-119 0 -196 -73.5t-99 -203.5z" />
<glyph unicode="&#x1eca;" horiz-adv-x="598" d="M174 -258q0 51 37 88t88 37t88 -37t37 -88t-37 -88t-88 -37t-88 37t-37 88zM201 0v1536h198v-1536h-198z" />
<glyph unicode="&#x1ecb;" horiz-adv-x="593" d="M174 -258q0 51 37 88t88 37t88 -37t37 -88t-37 -88t-88 -37t-88 37t-37 88zM180 1335q0 52 34.5 88.5t84.5 36.5q48 0 82.5 -36.5t34.5 -88.5q0 -51 -34.5 -87t-82.5 -36q-49 0 -84 36t-35 87zM201 0v1024h192v-1024h-192z" />
<glyph unicode="&#x1ecc;" horiz-adv-x="1787" d="M160 768q0 215 98 396t266.5 286.5t368.5 105.5q201 0 370 -105.5t267 -286.5t98 -396t-98 -396t-267 -286.5t-370 -105.5q-200 0 -368.5 105.5t-266.5 286.5t-98 396zM350 768q0 -165 72 -303t197 -217.5t274 -79.5q151 0 276 79.5t196 217t71 303.5t-71 303.5t-196 217 t-276 79.5q-149 0 -274 -79.5t-197 -217.5t-72 -303zM768 -258q0 51 37 88t88 37t88 -37t37 -88t-37 -88t-88 -37t-88 37t-37 88z" />
<glyph unicode="&#x1ecd;" horiz-adv-x="1255" d="M131 512q0 148 61.5 269t175.5 192t259 71q146 0 260.5 -71t175.5 -192t61 -269t-61 -269t-175.5 -192t-260.5 -71q-145 0 -259 71t-175.5 192t-61.5 269zM324 512q0 -155 82 -258.5t221 -103.5t221 103.5t82 258.5t-82 258.5t-221 103.5t-221 -103.5t-82 -258.5z M502 -258q0 51 37 88t88 37t88 -37t37 -88t-37 -88t-88 -37t-88 37t-37 88z" />
<glyph unicode="&#x1ee4;" horiz-adv-x="1384" d="M182 502v1034h199v-1001q0 -158 90.5 -268.5t220.5 -110.5t221 110.5t91 268.5v1001h198v-1034q0 -143 -67.5 -263t-185 -189.5t-257.5 -69.5t-257.5 69.5t-185 189.5t-67.5 263zM567 -258q0 51 37 88t88 37t88 -37t37 -88t-37 -88t-88 -37t-88 37t-37 88z" />
<glyph unicode="&#x1ef2;" horiz-adv-x="1261" d="M76 1536h223l332 -616l334 616h221l-455 -795v-741h-199v735zM322 2048h196l182 -319h-151z" />
<glyph unicode="&#x1ef3;" horiz-adv-x="1048" d="M74 1024h209l241 -799l244 799h209l-520 -1536h-203l172 502zM215 1536h197l182 -319h-152z" />
<glyph unicode="&#x1ef4;" horiz-adv-x="1261" d="M76 1536h223l332 -616l334 616h221l-455 -795v-741h-199v735zM508 -258q0 51 37 88t88 37t88 -37t37 -88t-37 -88t-88 -37t-88 37t-37 88z" />
<glyph unicode="&#x1ef8;" horiz-adv-x="1261" d="M76 1536h223l332 -616l334 616h221l-455 -795v-741h-199v735zM295 1726q-17 117 39.5 193t154.5 76q118 0 193 -113q34 -57 88 -57q46 0 68 42t10 109h119q19 -115 -36.5 -191.5t-156.5 -76.5q-118 0 -192 113q-37 57 -88 57q-46 0 -68.5 -43.5t-9.5 -108.5h-121z" />
<glyph unicode="&#x2000;" horiz-adv-x="1044" />
<glyph unicode="&#x2001;" horiz-adv-x="2089" />
<glyph unicode="&#x2002;" horiz-adv-x="1044" />
<glyph unicode="&#x2003;" horiz-adv-x="2089" />
<glyph unicode="&#x2004;" horiz-adv-x="696" />
<glyph unicode="&#x2005;" horiz-adv-x="522" />
<glyph unicode="&#x2006;" horiz-adv-x="348" />
<glyph unicode="&#x2007;" horiz-adv-x="348" />
<glyph unicode="&#x2008;" horiz-adv-x="261" />
<glyph unicode="&#x2009;" horiz-adv-x="417" />
<glyph unicode="&#x200a;" horiz-adv-x="116" />
<glyph unicode="&#x2010;" horiz-adv-x="1191" d="M238 465v135h716v-135h-716z" />
<glyph unicode="&#x2011;" horiz-adv-x="1191" d="M238 465v135h716v-135h-716z" />
<glyph unicode="&#x2012;" horiz-adv-x="1191" d="M238 465v135h716v-135h-716z" />
<glyph unicode="&#x2013;" horiz-adv-x="1499" d="M238 465v135h1024v-135h-1024z" />
<glyph unicode="&#x2014;" horiz-adv-x="2048" d="M0 465v135h2048v-135h-2048z" />
<glyph unicode="&#x2018;" horiz-adv-x="493" d="M118 1090.5q-25 150.5 49 302t200 153.5v-94q-61 -2 -103 -91q-35 -75 -29 -135q3 -38 25 -38q51 0 87 -36.5t36 -88.5t-36 -87.5t-89 -35.5q-115 0 -140 150.5z" />
<glyph unicode="&#x2019;" horiz-adv-x="507" d="M111 1423q0 52 36 87.5t89 35.5q70 0 106.5 -62t36.5 -157q0 -89 -28.5 -176t-88 -148.5t-135.5 -62.5v92q55 3 93 76t38 139q0 51 -25 51q-51 0 -86.5 36.5t-35.5 88.5z" />
<glyph unicode="&#x201a;" horiz-adv-x="579" d="M246 104q0 52 36 88.5t89 36.5q75 0 114 -64t39 -161q0 -90 -30 -176t-91.5 -146.5t-140.5 -60.5v94q61 0 102.5 69t41.5 136q0 62 -37 62q-51 0 -87 35.5t-36 86.5z" />
<glyph unicode="&#x201c;" horiz-adv-x="958" d="M227 1176q0 90 29 177t88.5 148.5t134.5 63.5v-95q-37 -1 -68.5 -39.5t-47 -87t-15.5 -88.5q0 -51 25 -51q51 0 87 -36.5t36 -88.5t-36 -87.5t-89 -35.5q-70 0 -107 62.5t-37 157.5zM610 1176q0 90 28.5 177t88 148.5t135.5 63.5v-95q-37 -1 -68.5 -39.5t-47 -87 t-15.5 -88.5q0 -51 25 -51q51 0 87 -36.5t36 -88.5t-36 -87.5t-89 -35.5q-70 0 -107 62.5t-37 157.5z" />
<glyph unicode="&#x201d;" horiz-adv-x="905" d="M102 1423q0 52 36 87.5t89 35.5q70 0 107 -62t37 -157q0 -89 -28.5 -176t-88 -148.5t-135.5 -62.5v92q55 3 93 76t38 139q0 51 -25 51q-51 0 -87 36.5t-36 88.5zM485 1423q0 52 36 87.5t89 35.5q70 0 107 -62t37 -157q0 -89 -29 -176t-88.5 -148.5t-134.5 -62.5v92 q55 3 93 76t38 139q0 51 -25 51q-51 0 -87 36.5t-36 88.5z" />
<glyph unicode="&#x201e;" horiz-adv-x="927" d="M236 104q0 53 36 89t88 36q74 0 113 -64t39 -161q0 -90 -30 -176t-91 -146.5t-139 -60.5v94q41 0 75 35.5t50 82t16 87.5q0 62 -35 62q-51 0 -86.5 35.5t-35.5 86.5zM600 104q0 52 36 88.5t89 36.5q74 0 114 -64t40 -161q0 -90 -30.5 -176.5t-92.5 -146.5t-140 -60v94 q61 0 102.5 69t41.5 136q0 62 -37 62q-51 0 -87 35.5t-36 86.5z" />
<glyph unicode="&#x2020;" horiz-adv-x="1249" d="M272 850v127h287v395h125v-395h293v-127h-293v-1198h-125v1198h-287z" />
<glyph unicode="&#x2021;" horiz-adv-x="1249" d="M272 57v127h287v666h-287v127h287v395h125v-395h293v-127h-293v-666h293v-127h-293v-405h-125v405h-287z" />
<glyph unicode="&#x2022;" horiz-adv-x="1085" d="M279 666q0 106 79.5 186t186.5 80q104 0 184 -80t80 -186q0 -111 -79 -188t-185 -77q-109 0 -187.5 77t-78.5 188z" />
<glyph unicode="&#x2026;" horiz-adv-x="1742" d="M260 104q0 51 37 88t88 37t88 -37t37 -88t-37 -87.5t-88 -36.5t-88 36.5t-37 87.5zM743 104q0 51 37 88t88 37t88 -37t37 -88t-37 -87.5t-88 -36.5t-88 36.5t-37 87.5zM1233 104q0 51 37 88t88 37t88 -37t37 -88t-37 -87.5t-88 -36.5t-88 36.5t-37 87.5z" />
<glyph unicode="&#x202f;" horiz-adv-x="417" />
<glyph unicode="&#x2030;" horiz-adv-x="2265" d="M166 1225q0 138 81.5 234.5t198.5 96.5q116 0 197.5 -96.5t81.5 -234.5q0 -135 -82 -232.5t-197 -97.5q-116 0 -198 97t-82 233zM207 0l1003 1536h203l-1005 -1536h-201zM317 1225q0 -75 37.5 -128t91.5 -53q52 0 90.5 53.5t38.5 127.5q0 75 -38.5 128.5t-90.5 53.5 q-54 0 -91.5 -53t-37.5 -129zM897 311q0 136 82 233t199 97q115 0 196.5 -97.5t81.5 -232.5q0 -138 -81 -234.5t-197 -96.5q-117 0 -199 96.5t-82 234.5zM1047 311q0 -76 37.5 -129t91.5 -53q53 0 91 53t38 129q0 75 -38 128t-91 53q-54 0 -91.5 -53t-37.5 -128zM1554 311 q0 136 80.5 233t196.5 97q115 0 196.5 -97.5t81.5 -232.5q0 -138 -81 -234.5t-197 -96.5q-117 0 -197 96.5t-80 234.5zM1700 311q0 -76 38 -129t91 -53q54 0 91.5 53t37.5 129q0 75 -37.5 128t-91.5 53q-53 0 -91 -53t-38 -128z" />
<glyph unicode="&#x2039;" horiz-adv-x="825" d="M158 571l311 377h162l-312 -377l312 -376h-162z" />
<glyph unicode="&#x203a;" horiz-adv-x="825" d="M197 195l311 376l-311 377h161l312 -377l-312 -376h-161z" />
<glyph unicode="&#x2044;" horiz-adv-x="1339" d="M16 0l1082 1536h198l-1083 -1536h-197z" />
<glyph unicode="&#x205f;" horiz-adv-x="522" />
<glyph unicode="&#x20ac;" horiz-adv-x="1603" d="M23 522v135h147q-8 47 -8 111q0 49 6 98h-145v135h174q74 244 281.5 399.5t471.5 155.5q110 0 222 -35t208 -98l-47 -145q-171 129 -383 129q-203 0 -364.5 -112t-231.5 -294h891l-43 -135h-885q-6 -46 -6 -98q0 -64 8 -111h818l-43 -135h-736q73 -177 233 -285t359 -108 q123 0 240 47.5t205 132.5v-188q-99 -67 -215.5 -104t-229.5 -37q-261 0 -466 151.5t-283 390.5h-178z" />
<glyph unicode="&#x2113;" horiz-adv-x="1146" d="M115 403q20 18 53.5 48.5t60.5 55.5t50 48v586q0 147 27.5 255t75.5 168.5t105 88.5t125 28q91 0 155 -52.5t92 -133t28 -180.5q0 -198 -109 -393t-319 -414l2 -59q3 -150 64 -229t149 -79q87 0 162 68.5t120 163.5l86 -84q-75 -151 -180 -226t-229 -75q-82 0 -147.5 32 t-107 87.5t-65.5 122.5t-32 145v24q-18 -16 -56 -51.5t-57 -52.5zM461 684q139 177 216 329t77 294q0 237 -136 237q-64 0 -110.5 -89.5t-46.5 -287.5v-483z" />
<glyph unicode="&#x2122;" horiz-adv-x="1443" d="M115 1448v88h417v-88h-159v-633h-99v633h-159zM612 815v721h105l211 -381l213 381h100v-721h-94v553l-219 -389l-219 389v-553h-97z" />
<glyph unicode="&#x212e;" horiz-adv-x="1716" d="M123 766q0 216 98 397.5t267 287t370 105.5t370.5 -105.5t268 -287.5t98.5 -397v-21h-1192q-12 0 -12 -8v-430q0 -19 17 -49q91 -109 207 -171t245 -62q140 0 262.5 69.5t210.5 192.5h107q-100 -141 -253.5 -223t-328.5 -82q-150 0 -286.5 62t-234.5 167.5t-156 250.5 t-58 304zM391 803q0 -15 12 -15h914q6 0 6 15v430q0 35 -16 51q-89 105 -204.5 165t-242.5 60t-242 -61.5t-208 -169.5q-19 -27 -19 -53v-422z" />
<glyph unicode="&#x2190;" horiz-adv-x="1859" d="M-154 688l498 385l-61 -262h1099v-248h-1099l61 -260z" />
<glyph unicode="&#x2191;" horiz-adv-x="1171" d="M182 1038l385 498l385 -498l-260 62v-1100h-248v1100z" />
<glyph unicode="&#x2192;" horiz-adv-x="1859" d="M217 563v248h1100l-62 262l498 -385l-498 -385l62 260h-1100z" />
<glyph unicode="&#x2193;" horiz-adv-x="1136" d="M182 498l262 -62v1100h248v-1100l260 62l-385 -498z" />
<glyph unicode="&#x2194;" horiz-adv-x="1605" d="M-45 682l418 385l-54 -260l965 -2l-49 260l418 -385l-418 -385l51 262l-967 2l52 -264z" />
<glyph unicode="&#x2195;" horiz-adv-x="974" d="M164 350l219 -61v798l-219 -61l323 496l324 -498l-219 61v-794l219 61l-324 -497z" />
<glyph unicode="&#x2196;" horiz-adv-x="1230" d="M-102 1286l624 -80l-229 -141l778 -778l-174 -174l-778 776l-142 -227z" />
<glyph unicode="&#x2197;" horiz-adv-x="1236" d="M-6 287l778 778l-229 141l624 80l-80 -624l-139 227l-778 -776z" />
<glyph unicode="&#x2198;" horiz-adv-x="1239" d="M-4 1249l176 174l778 -776l140 227l79 -624l-624 80l229 141z" />
<glyph unicode="&#x2199;" horiz-adv-x="1232" d="M-102 250l79 624l142 -227l778 776l174 -174l-778 -778l229 -141z" />
<glyph unicode="&#x2202;" horiz-adv-x="1048" d="M143 309q-19 135 33 309q36 111 95.5 194t131 125t152.5 51.5t160 -25.5q-46 195 -148.5 291.5t-226.5 54.5v139q159 28 292.5 -66t210 -282.5t75.5 -427.5q-1 -184 -58.5 -335.5t-157 -238t-219.5 -86.5q-139 0 -230 81t-110 216zM308.5 356.5q6.5 -96.5 53.5 -156 t121 -59.5q69 0 129 71t96 193.5t37 266.5q0 72 -6 139q-126 85 -235.5 21.5t-167.5 -257.5q-34 -122 -27.5 -218.5z" />
<glyph unicode="&#x2205;" horiz-adv-x="1798" d="M289 596q0 166 81.5 307t222 223t306.5 82q231 0 401 -151l89 88l59 -58l-88 -90q149 -172 149 -401q0 -166 -82 -307t-222.5 -223t-305.5 -82q-226 0 -401 151l-86 -88l-62 57l88 91q-149 168 -149 401zM444 596q0 -166 105 -293l643 645q-127 105 -293 105 q-189 0 -322 -133.5t-133 -323.5zM608 244q124 -105 291 -105q191 0 323 133t132 324q0 166 -105 293z" />
<glyph unicode="&#x220f;" horiz-adv-x="1394" d="M133 1300v140h1129v-140h-111v-1546h-135v1546h-635v-1546h-137v1546h-111z" />
<glyph unicode="&#x2211;" horiz-adv-x="1400" d="M203 -131l612 729l-612 729v113h995v-150h-754l568 -692l-568 -692h754v-150l-995 2v111z" />
<glyph unicode="&#x2212;" horiz-adv-x="1331" d="M150 539v129h1032v-129h-1032z" />
<glyph unicode="&#x221a;" horiz-adv-x="1372" d="M168 559v127h207l170 -631l596 1508l114 -50l-669 -1673h-107l-194 719h-117z" />
<glyph unicode="&#x221e;" horiz-adv-x="1431" d="M150 596q5 132 75 217.5t176 85.5q74 0 155.5 -54t160.5 -153q162 207 315 207q110 0 178.5 -83t71.5 -220q-3 -137 -71.5 -220t-178.5 -83q-153 0 -315 207q-79 -99 -160.5 -153t-155.5 -54q-106 0 -176 85.5t-75 217.5zM274 596q0 -73 37 -124.5t90 -51.5 q101 0 232 176q-131 176 -232 176q-53 0 -90 -51.5t-37 -124.5zM799 596q131 -176 231 -176q53 0 89.5 50t37.5 126q-1 76 -37.5 126t-89.5 50q-100 0 -231 -176z" />
<glyph unicode="&#x222b;" horiz-adv-x="894" d="M207 -180h98q0 -56 10.5 -78.5t36.5 -22.5q19 0 32 18t13 48v1561q0 75 44 123.5t108 48.5q70 0 113 -59t28 -148h-98q0 55 -10 77.5t-35 22.5q-21 0 -34 -17.5t-13 -47.5v-1561q0 -75 -42.5 -123.5t-105.5 -48.5q-72 0 -115 58.5t-30 148.5z" />
<glyph unicode="&#x2248;" horiz-adv-x="1124" d="M150 276q-12 149 56.5 242.5t182.5 93.5q67 0 117 -37.5t98 -111.5q32 -52 62 -79.5t71 -27.5q64 0 104 64.5t33 165.5h101q15 -143 -52.5 -237.5t-177.5 -94.5q-41 0 -75.5 13t-64.5 40t-45.5 45.5t-41.5 53.5q-36 50 -65.5 75t-65.5 25q-65 0 -104 -66t-33 -164h-100z M150 678q-12 149 56.5 242.5t182.5 93.5q66 0 116.5 -38.5t98.5 -113.5q31 -49 61 -75.5t72 -26.5q64 0 104 63t33 162h101q15 -140 -52.5 -236t-177.5 -96q-41 0 -75.5 13t-64.5 41t-45 46t-42 54q-35 50 -64.5 75t-66.5 25q-65 0 -104 -66.5t-33 -162.5h-100z" />
<glyph unicode="&#x2260;" horiz-adv-x="1331" d="M150 283v127h378l189 266h-567v127h659l168 231h113l-166 -231h258v-127h-351l-188 -266h539v-127h-631l-197 -273h-114l196 273h-286z" />
<glyph unicode="&#x2264;" horiz-adv-x="1456" d="M254 0v117h950v-117h-950zM254 729v174l950 524v-163l-807 -447l807 -452v-164z" />
<glyph unicode="&#x2265;" horiz-adv-x="1456" d="M254 0v117h950v-117h-950zM254 201v164l807 452l-807 447v163l950 -524v-174z" />
<glyph unicode="&#x25ca;" horiz-adv-x="1443" d="M203 723l520 618l518 -616l-518 -619zM418 723l305 -401l305 403l-305 401z" />
<glyph unicode="&#x25fc;" horiz-adv-x="1024" d="M0 0v1024h1024v-1024h-1024z" />
<glyph unicode="&#xf8ff;" horiz-adv-x="1966" d="M231 778q0 127 38 245.5t108 214.5t162.5 168t207 111t236.5 39q153 0 292.5 -61.5t240 -165.5t160 -248.5t59.5 -302.5t-59.5 -302t-160 -248t-240 -166t-292.5 -62q-152 0 -291.5 62t-240.5 166t-160.5 248t-59.5 302zM303 778q0 -143 54 -273t145 -224.5t217 -150.5 t264 -56q139 0 265 56t217 150.5t144.5 224.5t53.5 273t-53.5 273.5t-144.5 225t-217 150.5t-265 56q-184 0 -341 -94.5t-248 -257t-91 -353.5zM553 481v594q0 15 11 26t26 11q14 0 24.5 -11t10.5 -26v-594q0 -15 -10.5 -26t-24.5 -11q-15 0 -26 11t-11 26zM659 778 q0 15 11 26t26 11h181q15 0 24.5 -11t9.5 -26t-9.5 -26t-24.5 -11h-181q-15 0 -26 11t-11 26zM948 481v594q0 15 10.5 26t24.5 11q15 0 25 -11t10 -26v-594q0 -15 -10 -26t-25 -11q-14 0 -24.5 11t-10.5 26zM1056 779.5q-1 15.5 7 25.5l291 297q10 10 25 10t24 -10 q9 -11 9.5 -26.5t-9.5 -26.5l-262 -271l262 -270q11 -10 11 -24.5t-11 -26.5q-10 -13 -27 -13q-9 0 -22 13l-287 295q-10 12 -11 27.5z" />
<glyph horiz-adv-x="661" d="M207 1335q0 52 37 88.5t88 36.5t88 -36.5t37 -88.5q0 -51 -37 -87t-88 -36t-88 36t-37 87zM236 0v1024h192v-1024h-192z" />
</font>
</defs>
</svg>
