<?xml version="1.0" standalone="no"?>
<!DOCTYPE svg PUBLIC "-//W3C//DTD SVG 1.1//EN" "http://www.w3.org/Graphics/SVG/1.1/DTD/svg11.dtd" >
<svg xmlns="http://www.w3.org/2000/svg">
<metadata></metadata>
<defs>
<font id="elenarbold" horiz-adv-x="0" >
<font-face units-per-em="2048" ascent="1638" descent="-410" />
<missing-glyph horiz-adv-x="610" />
<glyph unicode="fi" horiz-adv-x="1353" d="M57 786v238h170v117q0 207 151 336t394 129q106 0 219 -22.5t195 -59.5v-283q-87 48 -188.5 77.5t-188.5 29.5q-119 0 -191.5 -62.5t-72.5 -165.5v-96h637v-1024h-318v786h-319v-786h-318v786h-170z" />
<glyph unicode="fl" horiz-adv-x="1388" d="M57 786v238h164v117q0 207 148.5 336t386.5 129q129 0 260 -32t203 -81v-1493h-316v1337q-68 11 -108 11q-115 0 -185.5 -62.5t-70.5 -165.5v-96h227v-238h-227v-786h-318v786h-164z" />
<glyph unicode="ffi" horiz-adv-x="2041" d="M57 786v238h160v117q0 207 145.5 336t380.5 129q97 0 199 -19t178 -51q128 70 297 70q127 0 257 -32t200 -81v-291q-81 64 -200 105t-220 41q-112 0 -180 -62.5t-68 -165.5v-96h668v-1024h-318v786h-350v-786h-315v786h-356v-786h-318v786h-160zM535 1024h356v117 q0 104 37 188q-78 19 -144 19q-112 0 -180.5 -62.5t-68.5 -165.5v-96z" />
<glyph unicode="ffl" horiz-adv-x="2041" d="M57 786v238h160v117q0 207 145.5 336t380.5 129q97 0 199 -19t178 -51q128 70 297 70q127 0 257 -32t200 -81v-1493h-318v1337q-48 11 -102 11q-112 0 -180 -62.5t-68 -165.5v-96h219v-238h-219v-786h-315v786h-356v-786h-318v786h-160zM535 1024h356v117q0 104 37 188 q-78 19 -144 19q-112 0 -180.5 -62.5t-68.5 -165.5v-96z" />
<glyph unicode=" "  horiz-adv-x="610" />
<glyph unicode="&#x09;" horiz-adv-x="610" />
<glyph unicode="&#xa0;" horiz-adv-x="610" />
<glyph unicode="!" horiz-adv-x="741" d="M195 156q0 73 52 124.5t124 51.5t124 -51.5t52 -124.5q0 -72 -52 -124t-124 -52t-124 52t-52 124zM211 1536h317l-41 -1012h-235z" />
<glyph unicode="&#x22;" horiz-adv-x="1122" d="M195 1536h297l-39 -592h-220zM633 1536h295l-39 -592h-217z" />
<glyph unicode="#" horiz-adv-x="1802" d="M162 334l28 223h289l60 381h-293l37 221h284l49 340h220l-45 -340h335l50 340h221l-49 -340h292l-34 -221h-287l-55 -381h286l-28 -223h-287l-51 -334h-219l45 334h-340l-45 -334h-222l48 334h-289zM705 557h335l56 381h-340z" />
<glyph unicode="$" horiz-adv-x="1292" d="M135 311l225 140q42 -87 120 -141t171 -54q96 0 156.5 54t60.5 143q0 61 -38 104.5t-99 69.5t-134.5 49t-147 54.5t-134.5 74.5t-99 119t-38 180q0 162 87 270t222 146v182h275v-186q166 -49 280 -173l-180 -155q-99 110 -221 110q-82 0 -134 -48.5t-52 -127.5 q0 -47 23.5 -83t63.5 -60t91.5 -44.5t108.5 -40t114 -42t108.5 -55.5t91.5 -75.5t63.5 -107t23.5 -145.5q0 -94 -31.5 -174t-86 -135.5t-121 -93t-142.5 -54.5v-176h-275v187q-113 34 -205.5 111.5t-146.5 176.5z" />
<glyph unicode="%" horiz-adv-x="1742" d="M117 1182q0 155 95 264.5t230 109.5q136 0 232 -109.5t96 -264.5t-96 -265t-232 -110q-135 0 -230 110t-95 265zM205 0l1001 1536h328l-1004 -1536h-325zM354 1182q0 -57 26.5 -97.5t61.5 -40.5t62.5 40.5t27.5 97.5t-27.5 97t-62.5 40t-61.5 -40t-26.5 -97zM973 354 q0 156 94.5 265.5t230.5 109.5t231 -109.5t95 -265.5t-95 -265t-231 -109t-230.5 109t-94.5 265zM1208 354q0 -57 27 -97t63 -40q35 0 61.5 40t26.5 97t-26.5 97.5t-61.5 40.5q-36 0 -63 -40.5t-27 -97.5z" />
<glyph unicode="&#x26;" horiz-adv-x="1495" d="M213 444q0 91 34.5 177.5t100.5 152.5l33 31l-10 10q-60 60 -92.5 141t-32.5 166q0 178 127 304t307 126q179 0 305.5 -126t126.5 -304h-278q0 63 -45.5 108.5t-108.5 45.5q-66 0 -112 -46t-46 -112q0 -58 47 -108l473 -469l179 176l198 -197l-178 -176l180 -178 l-198 -201l-181 180l-32 -30q-66 -66 -152.5 -100.5t-179.5 -34.5q-91 0 -177.5 34.5t-152.5 100.5t-100.5 152t-34.5 177zM489 444q0 -77 56 -133q58 -55 135 -55q78 0 133 55l33 31l-268 266l-33 -33q-56 -56 -56 -131z" />
<glyph unicode="'" horiz-adv-x="686" d="M195 1536h297l-39 -592h-220z" />
<glyph unicode="(" horiz-adv-x="929" d="M154 508q0 252 31.5 459t88 353.5t135.5 246.5t172.5 147.5t200.5 48.5v-225q-156 -3 -254 -265.5t-98 -764.5q0 -499 98 -759t254 -263v-225q-107 1 -200.5 48t-172.5 146t-135.5 244t-88 351.5t-31.5 457.5z" />
<glyph unicode=")" horiz-adv-x="929" d="M150 -514q156 3 253 263t97 759q0 502 -97 764.5t-253 265.5v225q106 -1 199.5 -48.5t172 -147.5t135 -246.5t88 -353.5t31.5 -459q0 -251 -31.5 -457.5t-88 -351.5t-135 -244t-172 -146t-199.5 -48v225z" />
<glyph unicode="*" horiz-adv-x="804" d="M113 1188v153l198 -26l-118 160l131 79l77 -188l80 188l133 -79l-122 -160l198 26v-153l-198 26l122 -159l-133 -78l-80 184l-77 -184l-131 78l118 159z" />
<glyph unicode="+" horiz-adv-x="1628" d="M195 516v238h501v516h236v-516h500v-238h-500v-516h-236v516h-501z" />
<glyph unicode="," horiz-adv-x="770" d="M201 156q0 74 51.5 125t124.5 51q93 0 141.5 -72t48.5 -182q0 -75 -23 -150t-64 -138t-105.5 -102.5t-141.5 -39.5v137q61 0 100 44.5t50 96.5q4 23 2 39.5t-10 16.5q-72 0 -123 51t-51 123z" />
<glyph unicode="-" horiz-adv-x="1105" d="M195 428v209h716v-209h-716z" />
<glyph unicode="." horiz-adv-x="753" d="M201 156q0 72 52 124t124 52t124 -52t52 -124t-52 -124t-124 -52t-124 52t-52 124z" />
<glyph unicode="/" horiz-adv-x="1361" d="M-27 -512l1092 2048h293l-1090 -2048h-295z" />
<glyph unicode="0" horiz-adv-x="1366" d="M131 768q0 236 62 411.5t188 276t303 100.5q176 0 302.5 -100t189.5 -276.5t63 -411.5t-63 -411.5t-189.5 -276.5t-302.5 -100q-177 0 -303 100.5t-188 276t-62 411.5zM446 768q0 -512 238 -512t238 512t-238 512t-238 -512z" />
<glyph unicode="1" horiz-adv-x="872" d="M98 1260v276h520v-1536h-315v1260h-205z" />
<glyph unicode="2" horiz-adv-x="1105" d="M119 1077q-10 104 23 195t95 153t147.5 98t178.5 36q181 0 301 -124t119 -313q0 -62 -6.5 -111t-29 -108t-49 -110t-84.5 -136t-118 -165t-164 -216h472v-276h-875v233q200 255 310.5 403t164.5 238.5t65 129t11 90.5q0 96 -41.5 141t-91.5 45q-61 2 -99 -55t-26 -150z " />
<glyph unicode="3" horiz-adv-x="1234" d="M121 426l309 4q0 -66 53.5 -112t130.5 -46q79 0 132 61t53 152q0 92 -52.5 151.5t-132.5 59.5h-114l-2 248h94q67 0 110 49t43 123q0 66 -43 108t-110 42q-54 0 -92.5 -35t-38.5 -86l-303 4q0 172 125.5 289.5t308.5 117.5q184 0 310 -117.5t126 -289.5q0 -85 -40 -157 t-111 -120q107 -62 169 -162.5t62 -226.5q0 -138 -65.5 -254t-179 -182.5t-249.5 -66.5q-207 0 -350 129.5t-143 316.5z" />
<glyph unicode="4" horiz-adv-x="1329" d="M63 324v198l617 1014h399v-936h121v-276h-121v-324h-317v324h-699zM422 600h340v629z" />
<glyph unicode="5" horiz-adv-x="1312" d="M156 176l200 240q47 -66 128.5 -108t164.5 -42q104 0 172 70t68 176q0 107 -67.5 178.5t-170.5 71.5q-61 0 -123 -29.5t-104 -77.5l-254 115l70 762h858v-277h-613l-28 -309q46 41 123.5 66.5t158.5 25.5q203 0 334 -145t131 -369q0 -239 -149 -391.5t-381 -152.5 q-146 0 -289.5 54t-228.5 142z" />
<glyph unicode="6" horiz-adv-x="1343" d="M119 516q0 169 119 340l469 680h360l-352 -479q8 -1 25 -2t24 -2q197 -25 329.5 -178.5t131.5 -354.5q0 -150 -75.5 -274.5t-202 -194.5t-273.5 -71q-151 -1 -278.5 69.5t-202 194t-74.5 272.5zM430 514q-2 -114 65.5 -191t176.5 -77q107 1 176 79.5t67 192.5 q0 116 -68 192.5t-175 75.5q-108 0 -175 -78t-67 -194z" />
<glyph unicode="7" horiz-adv-x="1202" d="M123 1260v276h1020v-231l-662 -1305h-342l662 1260h-678z" />
<glyph unicode="8" horiz-adv-x="1263" d="M106 465q0 124 58.5 225t161.5 164q-129 113 -129 295q0 174 123 290.5t311 116.5t312 -116.5t124 -290.5q0 -181 -131 -293q104 -64 162.5 -165.5t58.5 -225.5q0 -136 -68 -247t-188.5 -174.5t-269.5 -63.5q-225 0 -375 139t-150 346zM424 489q0 -98 59.5 -165.5 t147.5 -67.5q89 0 149 67t60 166q0 96 -59.5 159t-149.5 63q-88 0 -147.5 -63t-59.5 -159zM459 1124q0 -78 49.5 -130t124.5 -52q72 0 121 52t49 130t-49 130.5t-121 52.5q-75 0 -124.5 -52.5t-49.5 -130.5z" />
<glyph unicode="9" horiz-adv-x="1343" d="M119 1018q1 149 77 273t202.5 194t273.5 71q150 1 277.5 -69.5t201.5 -194t74 -272.5q-3 -158 -117 -340l-473 -680h-359l355 481q-19 -2 -49 2q-199 25 -331 178.5t-132 356.5zM426 1018q0 -115 68.5 -191.5t177.5 -76.5q108 0 174.5 78.5t66.5 193.5 q-2 114 -68.5 191.5t-172.5 76.5q-108 -1 -178 -79.5t-68 -192.5z" />
<glyph unicode=":" horiz-adv-x="753" d="M201 156q0 72 52 124t124 52t124 -52t52 -124t-52 -124t-124 -52t-124 52t-52 124zM201 870q0 71 52 122.5t124 51.5t124 -51.5t52 -122.5q0 -72 -52 -125t-124 -53t-124 53t-52 125z" />
<glyph unicode=";" horiz-adv-x="765" d="M201 156q0 74 51.5 125t124.5 51q116 0 163 -115q46 -109 10 -259q-37 -154 -137 -241q-80 -69 -180 -69v137q62 1 104.5 52t44 94.5t-6.5 50.5q-72 0 -123 51t-51 123zM201 870q0 71 52 122.5t124 51.5t124 -51.5t52 -122.5q0 -72 -52 -125t-124 -53t-124 53t-52 125z " />
<glyph unicode="&#x3c;" horiz-adv-x="1331" d="M168 625v280l995 568v-259l-784 -450l784 -449v-262z" />
<glyph unicode="=" horiz-adv-x="1308" d="M113 240v196h1083v-196h-1083zM113 649v197h1083v-197h-1083z" />
<glyph unicode="&#x3e;" horiz-adv-x="1331" d="M168 53v262l784 449l-784 450v259l995 -568v-280z" />
<glyph unicode="?" horiz-adv-x="1153" d="M115 1016q-12 111 18 211.5t92 171.5t152.5 113t195.5 42q131 0 238 -63t168 -171.5t61 -238.5q0 -87 -17.5 -152.5t-45.5 -103t-62.5 -65t-68.5 -45.5t-62 -36t-45.5 -45.5t-17.5 -66.5v-106h-283v88q0 76 14 132.5t37 88t52.5 56t60.5 37t60.5 29.5t52.5 35t37 52.5 t14 83.5q0 104 -56 160.5t-135 56.5q-95 0 -150 -75.5t-32 -188.5h-278zM416 156q0 72 50 124t120 52t120 -52t50 -124q0 -73 -49.5 -124.5t-120.5 -51.5t-120.5 51.5t-49.5 124.5z" />
<glyph unicode="@" horiz-adv-x="1232" d="M125 565q0 153 69 281.5t188.5 203t260.5 74.5q172 0 289 -108t117 -266v-445h-177v39q-33 -28 -78.5 -44.5t-86.5 -16.5q-97 0 -165.5 75t-68.5 183q0 107 68 181.5t164 74.5q92 0 167 -68v21q0 80 -66.5 136t-162.5 56q-140 0 -239 -110.5t-99 -266.5 q0 -162 107 -273.5t260 -111.5h377v-180h-377q-113 0 -214 44t-174 119t-116 180t-43 222zM682 541q0 -47 29 -78t71 -31q61 0 90 53v111q-30 51 -90 51q-42 0 -71 -30.5t-29 -75.5z" />
<glyph unicode="A" horiz-adv-x="1486" d="M16 0l545 1536h367l542 -1536h-354l-88 287h-569l-88 -287h-355zM543 555h401l-201 645z" />
<glyph unicode="B" horiz-adv-x="1349" d="M172 0v1536h604q184 0 304 -115t120 -311q0 -241 -203 -322q118 -42 185 -133.5t67 -234.5q0 -195 -119.5 -307.5t-300.5 -112.5h-657zM498 285h282q59 0 100.5 52.5t41.5 123.5q0 70 -41.5 123t-100.5 53h-282v-352zM498 901h237q56 0 96.5 52t40.5 122q0 72 -40 124 t-97 52h-237v-350z" />
<glyph unicode="C" horiz-adv-x="1622" d="M127 768q0 161 60 307t161 251t241 167.5t294 62.5q215 0 393.5 -113.5t275.5 -305.5l-284 -138q-55 111 -156.5 175.5t-228.5 64.5q-186 0 -312.5 -135t-126.5 -336t126.5 -336t312.5 -135q127 0 228.5 64.5t156.5 175.5l284 -138q-97 -191 -275.5 -305t-393.5 -114 q-154 0 -294 62.5t-241 167.5t-161 251t-60 307z" />
<glyph unicode="D" horiz-adv-x="1529" d="M166 0v1536h489q204 0 376 -103t272 -279.5t100 -385.5t-100 -385.5t-272 -279.5t-376 -103h-489zM492 285h163q178 0 301 140t123 343t-123 343t-301 140h-163v-966z" />
<glyph unicode="E" horiz-adv-x="1169" d="M164 0v1536h889v-285h-564v-340h480v-286h-480v-340h564v-285h-889z" />
<glyph unicode="F" horiz-adv-x="1105" d="M164 0v1536h889v-285h-564v-340h480v-286h-480v-625h-325z" />
<glyph unicode="G" horiz-adv-x="1687" d="M127 768q0 161 60 307t161 251t241 167.5t294 62.5q215 0 393.5 -113.5t275.5 -305.5l-284 -138q-55 111 -156.5 175.5t-228.5 64.5q-186 0 -312.5 -135t-126.5 -336t126.5 -336t312.5 -135q119 0 216.5 57.5t155.5 157.5v78h-292v276h589v-467q-97 -191 -275.5 -305 t-393.5 -114q-154 0 -294 62.5t-241 167.5t-161 251t-60 307z" />
<glyph unicode="H" horiz-adv-x="1490" d="M164 0v1536h325v-625h512v625h326v-1536h-326v625h-512v-625h-325z" />
<glyph unicode="I" horiz-adv-x="651" d="M164 0v1536h325v-1536h-325z" />
<glyph unicode="J" horiz-adv-x="804" d="M90 0v332q56 -27 121 -27q54 0 87.5 36t33.5 93v1102h325v-1165q0 -174 -100 -282.5t-262 -108.5q-123 0 -205 20z" />
<glyph unicode="K" horiz-adv-x="1468" d="M160 0v1536h325v-582l478 582h415l-592 -672l670 -864h-434l-537 729v-729h-325z" />
<glyph unicode="L" horiz-adv-x="1017" d="M164 0v1536h325v-1251h439v-285h-764z" />
<glyph unicode="M" horiz-adv-x="1861" d="M168 0v1536h358l406 -702l407 702h357v-1536h-326v1053l-440 -770l-436 772v-1055h-326z" />
<glyph unicode="N" horiz-adv-x="1630" d="M168 0v1536h340l631 -995v995h325v-1536h-340l-630 1001v-1001h-326z" />
<glyph unicode="O" horiz-adv-x="1767" d="M127 768q0 161 60 307t161 251t241 167.5t294 62.5q207 0 381 -105.5t275 -286.5t101 -396t-101 -396t-275 -286.5t-381 -105.5q-154 0 -294 62.5t-241 167.5t-161 251t-60 307zM444 768q0 -201 126.5 -336t312.5 -135q188 0 314 135t126 336t-126 336t-314 135 q-186 0 -312.5 -135t-126.5 -336z" />
<glyph unicode="P" horiz-adv-x="1241" d="M172 0v1536h606q117 0 214 -62t152.5 -168t55.5 -231q0 -192 -121.5 -321t-300.5 -129h-280v-625h-326zM498 891h243q70 0 117 50.5t47 131.5q0 77 -47 127.5t-117 50.5h-243v-360z" />
<glyph unicode="Q" horiz-adv-x="1771" d="M152 768q0 215 101 396t274.5 286.5t379.5 105.5q155 0 295.5 -62.5t241.5 -167.5t161 -251t60 -307q0 -258 -147 -467l178 -184l-174 -174l-174 182q-197 -145 -441 -145q-206 0 -379.5 105.5t-274.5 286.5t-101 396zM467 768q0 -201 126.5 -338t313.5 -137 q122 0 221 61l-215 226l170 170l211 -218q56 103 56 236q0 201 -128 338t-315 137t-313.5 -137t-126.5 -338z" />
<glyph unicode="R" horiz-adv-x="1370" d="M172 0v1536h606q177 0 299.5 -134.5t122.5 -328.5q0 -149 -77 -258.5t-203 -146.5l380 -668h-366l-342 647h-94v-647h-326zM498 897h264q61 0 102 51.5t41 126.5t-41 125.5t-102 50.5h-264v-354z" />
<glyph unicode="S" horiz-adv-x="1175" d="M72 317l256 162q36 -91 106 -148t150 -57q75 0 124.5 46t49.5 122q0 58 -35 100t-90.5 68.5t-123 51.5t-134.5 58.5t-122.5 79t-90.5 124t-35 182.5q0 137 63 241t165.5 156.5t226.5 52.5q121 0 243.5 -60.5t196.5 -154.5l-227 -192q-35 60 -90.5 97.5t-110.5 37.5 q-62 0 -103.5 -42.5t-41.5 -115.5q0 -42 21.5 -74t58.5 -54.5t84.5 -42.5t100 -41t105 -46t100 -63t84.5 -85.5t58.5 -119t21.5 -160.5q0 -210 -140.5 -335t-348.5 -125q-174 0 -318 95.5t-204 241.5z" />
<glyph unicode="T" horiz-adv-x="1144" d="M74 1251v285h995v-285h-334v-1251h-323v1251h-338z" />
<glyph unicode="U" horiz-adv-x="1456" d="M156 494v1042h325v-983q0 -120 71.5 -204.5t174.5 -84.5q104 0 176 84.5t72 204.5v983h325v-1042q0 -142 -75 -260t-207 -186t-291 -68q-118 0 -223.5 40t-182 108.5t-121 163.5t-44.5 202z" />
<glyph unicode="V" horiz-adv-x="1466" d="M14 1536h355l364 -1153l365 1153h354l-541 -1536h-354z" />
<glyph unicode="W" horiz-adv-x="2134" d="M10 1536h344l285 -1133l270 1133h279h35l274 -1135l285 1135h342l-426 -1536h-371l-260 1047l-258 -1047h-371z" />
<glyph unicode="X" horiz-adv-x="1363" d="M35 0l477 795l-446 741h372l242 -446l248 446h372l-450 -745l479 -791h-373l-272 498l-272 -498h-377z" />
<glyph unicode="Y" horiz-adv-x="1345" d="M35 1536h364l275 -504l278 504h359l-471 -793v-743h-328v735z" />
<glyph unicode="Z" horiz-adv-x="1232" d="M94 0v176l629 1075h-610v285h1026v-176l-625 -1075h619v-285h-1039z" />
<glyph unicode="[" horiz-adv-x="792" d="M141 -750v2524h539v-185h-264v-2154h264v-185h-539z" />
<glyph unicode="\" horiz-adv-x="1361" d="M-27 1536h295l1090 -2048h-293z" />
<glyph unicode="]" horiz-adv-x="792" d="M113 -565h264v2154h-264v185h538v-2524h-538v185z" />
<glyph unicode="^" horiz-adv-x="1400" d="M59 406l502 1130h281l499 -1130h-258l-383 860l-381 -860h-260z" />
<glyph unicode="_" horiz-adv-x="1413" d="M195 0h1024v-207h-1024v207z" />
<glyph unicode="`" horiz-adv-x="137" d="M72 1536h315l170 -346h-235z" />
<glyph unicode="a" horiz-adv-x="1161" d="M123 295q0 96 39 172q38 77 115 117q55 29 123 28q27 0 55 -4l245 -39v86q0 75 -34.5 118.5t-98.5 43.5q-56 0 -91.5 -33.5t-35.5 -91.5h-288q2 163 117.5 257.5t314.5 94.5q203 0 318.5 -100.5t115.5 -275.5v-668h-258l-27 102q-128 -122 -287 -122q-148 0 -235.5 84 t-87.5 231zM434 311q0 -52 33 -82t86 -30q84 0 147 71v127l-133 31q-15 3 -29 3q-38 -1 -66 -27q-38 -36 -38 -93z" />
<glyph unicode="b" horiz-adv-x="1271" d="M170 0v1585h315v-641q100 100 248 100q128 0 228.5 -70.5t154 -191.5t53.5 -270t-53.5 -270t-154 -191.5t-228.5 -70.5q-161 0 -266 118l-8 -100zM467 512q0 -109 53 -182.5t137 -73.5q90 0 143.5 73t53.5 183t-53.5 183t-143.5 73q-84 0 -137 -73.5t-53 -182.5z" />
<glyph unicode="c" horiz-adv-x="1165" d="M102 512q0 149 64 270t182.5 191.5t267.5 70.5q175 0 304 -92.5t176 -240.5l-293 -88q-18 65 -66.5 105t-118.5 40q-95 0 -147.5 -72t-52.5 -184t52.5 -184t147.5 -72q70 0 118.5 40t66.5 105l293 -100q-47 -147 -176.5 -234t-298.5 -87q-152 0 -271.5 70.5t-183.5 191.5 t-64 270z" />
<glyph unicode="d" horiz-adv-x="1271" d="M102 516q0 148 52 267.5t151.5 190t229.5 70.5q148 0 253 -100v641h316v-1585l-291 -2l-8 102q-104 -120 -266 -120q-193 0 -315 152.5t-122 383.5zM418 518q0 -116 52.5 -189t141.5 -73q86 0 139.5 74t53.5 182q0 106 -52 181t-143 75q-93 0 -142.5 -70.5t-49.5 -179.5z " />
<glyph unicode="e" horiz-adv-x="1181" d="M102 508q0 235 140.5 387t380.5 152q220 0 347.5 -143t127.5 -388q0 -61 -4 -94h-672q11 -101 59 -153t146 -52q72 0 124 31.5t97 103.5l227 -102q-51 -125 -167.5 -197.5t-272.5 -72.5q-137 0 -241 40.5t-167 113t-94 166.5t-31 208zM428 618h367q-11 93 -53 139 t-124 46q-157 0 -190 -185z" />
<glyph unicode="f" horiz-adv-x="778" d="M57 786v238h152v227q0 160 96.5 257.5t253.5 97.5q43 0 95.5 -10t70.5 -23v-264q-46 39 -100 39q-43 0 -72 -41t-29 -101v-182h205v-238h-205v-786h-315v786h-152z" />
<glyph unicode="g" horiz-adv-x="1087" d="M102 -145l99 139q-86 76 -86 205q0 124 90 217q-84 108 -84 241q0 169 125 278t305 109q71 0 135 -18l166 160l166 -187l-121 -108q82 -101 82 -234q0 -170 -124.5 -287.5t-303.5 -117.5q-86 0 -170 33q-19 -29 -19 -56q0 -39 33.5 -56t104.5 -17h196q158 0 246 -84 t88 -236q0 -169 -120 -257.5t-351 -88.5q-79 0 -142.5 9.5t-124 34.5t-101 65t-65 105t-24.5 151zM362 -154q-1 -64 45.5 -90t149.5 -26q87 0 133.5 24t46.5 70q0 40 -29.5 62t-82.5 22h-142q-45 0 -88 6zM418 653q0 -64 36 -103.5t95 -39.5q60 0 96.5 39t36.5 104 q0 66 -36.5 106t-96.5 40q-59 0 -95 -40t-36 -106z" />
<glyph unicode="h" horiz-adv-x="1306" d="M170 0v1585h315v-663q116 122 279 122q177 0 282 -107t105 -290v-647h-317v608q0 72 -44.5 116t-117.5 44q-78 0 -132.5 -51.5t-54.5 -126.5v-590h-315z" />
<glyph unicode="i" horiz-adv-x="636" d="M147 1372q0 73 50.5 124.5t119.5 51.5q71 0 121.5 -51.5t50.5 -124.5q0 -71 -51 -122.5t-121 -51.5q-69 0 -119.5 51.5t-50.5 122.5zM160 0v1024h315v-1024h-315z" />
<glyph unicode="j" horiz-adv-x="634" d="M-41 -236q45 -38 98 -38q43 0 73 40.5t30 100.5v1157h315v-1178q0 -158 -109.5 -268t-267.5 -110q-41 0 -80.5 9t-58.5 23v264zM145 1372q0 73 50.5 124.5t121.5 51.5q69 0 119.5 -51.5t50.5 -124.5q0 -71 -50.5 -122.5t-119.5 -51.5q-70 0 -121 51.5t-51 122.5z" />
<glyph unicode="k" horiz-adv-x="1212" d="M168 0v1585h315v-913l310 352h374l-432 -451l473 -573h-417l-308 446v-446h-315z" />
<glyph unicode="l" horiz-adv-x="653" d="M170 0v1585h315v-1585h-315z" />
<glyph unicode="m" horiz-adv-x="1890" d="M170 0v1024h315v-90q107 110 269 110q206 0 299 -147q127 147 323 147q168 0 263.5 -100t95.5 -280v-664h-316v625q0 143 -135 143q-81 0 -126.5 -51.5t-45.5 -126.5v-590h-317v625q0 143 -138 143q-81 0 -126.5 -52t-45.5 -126v-590h-315z" />
<glyph unicode="n" horiz-adv-x="1306" d="M170 0v1024h315v-102q116 122 291 122q174 0 274.5 -100t100.5 -280v-664h-317v623q0 67 -38.5 106t-115.5 39q-91 0 -143 -52.5t-52 -125.5v-590h-315z" />
<glyph unicode="o" horiz-adv-x="1241" d="M102 512q0 149 64 270t183.5 191.5t271.5 70.5t271 -70.5t183 -191.5t64 -270t-64 -270t-183 -191.5t-271 -70.5t-271.5 70.5t-183.5 191.5t-64 270zM418 512q0 -112 53.5 -184t149.5 -72t149 72t53 184t-53 184t-149 72t-149.5 -72t-53.5 -184z" />
<glyph unicode="p" horiz-adv-x="1265" d="M170 -512v1536h283l8 -98q105 118 268 118q131 0 230.5 -71t151.5 -191.5t52 -269.5t-52 -269.5t-151.5 -191.5t-230.5 -71q-147 0 -252 100v-594zM459 512q0 -106 52 -181t142 -75q94 0 143.5 72t49.5 184t-49.5 184t-143.5 72q-90 0 -142 -75t-52 -181z" />
<glyph unicode="q" horiz-adv-x="1271" d="M102 512q0 149 51.5 269t151 191.5t230.5 71.5q165 0 270 -118l8 98h291v-1536l-316 -2v594q-105 -100 -253 -100q-131 0 -230.5 71.5t-151 191.5t-51.5 269zM418 512q0 -112 49.5 -184t142.5 -72q91 0 143 75t52 181t-52 181t-143 75q-93 0 -142.5 -72t-49.5 -184z" />
<glyph unicode="r" horiz-adv-x="886" d="M170 0v1024h301l8 -145q45 78 109.5 121.5t140.5 43.5q68 0 98 -20l-24 -268q-40 12 -86 12q-103 0 -167.5 -71t-64.5 -193v-504h-315z" />
<glyph unicode="s" horiz-adv-x="944" d="M78 113l139 227q54 -45 121.5 -81t110.5 -40q9 -1 18 -1q33 0 53 16q26 20 27 57q0 32 -23.5 55.5t-60.5 39.5t-82 31.5t-90 38t-82 53t-60.5 82t-23.5 118.5q0 157 101.5 246t281.5 89q77 0 166 -29t172 -81l-125 -203q-85 72 -191 88q-10 1 -19 1q-31 0 -51 -13 q-26 -17 -26 -53q0 -29 23 -50.5t59.5 -36.5t81 -31t89 -40t81 -57t59.5 -88.5t23 -128.5q0 -160 -101.5 -251t-283.5 -91q-101 0 -208.5 35.5t-178.5 97.5z" />
<glyph unicode="t" horiz-adv-x="772" d="M66 786v238h161v328h316v-328h164v-238h-164v-786h-316v786h-161z" />
<glyph unicode="u" horiz-adv-x="1312" d="M162 381v643h317v-604q0 -75 41.5 -119.5t110.5 -44.5q79 0 138.5 52t59.5 126v590h316v-1024h-316v111q-121 -131 -290 -131q-163 0 -270 113.5t-107 287.5z" />
<glyph unicode="v" horiz-adv-x="1091" d="M35 1024h338l172 -641l174 641h338l-365 -1024h-297z" />
<glyph unicode="w" horiz-adv-x="1675" d="M41 1024h358l140 -655l178 655h241l183 -657l139 657h354l-309 -1024h-332l-155 541l-156 -541h-330z" />
<glyph unicode="x" horiz-adv-x="1198" d="M27 0l385 512l-385 512h370l201 -266l201 266h372l-387 -514l387 -510h-374l-199 264l-197 -264h-374z" />
<glyph unicode="y" horiz-adv-x="1144" d="M43 1024h334l198 -651l197 651h332l-541 -1536h-321l176 494z" />
<glyph unicode="z" horiz-adv-x="983" d="M102 766v258h797v-229l-403 -537h401v-258h-793v233l402 533h-404z" />
<glyph unicode="{" horiz-adv-x="788" d="M113 418v184q69 30 98 57t42 81.5t13 166.5v490q0 137 75 232t187 95h146v-186h-21q-36 0 -51.5 -0.5t-36.5 -4t-29 -10.5t-17 -21.5t-11 -35.5t-2 -53v-536q0 -128 -25.5 -216t-85.5 -151q60 -63 85.5 -151t25.5 -216v-549q0 -66 30 -86t138 -20v-193h-146 q-112 0 -187 94.5t-75 231.5v492q0 112 -12.5 166t-42 82.5t-98.5 56.5z" />
<glyph unicode="|" horiz-adv-x="598" d="M203 -307v1843h192v-1843h-192z" />
<glyph unicode="}" horiz-adv-x="788" d="M115 -512q108 0 138 20t30 86v549q0 129 25.5 216.5t86.5 150.5q-61 63 -86.5 150.5t-25.5 216.5v536q0 32 -2 53t-11 35.5t-16 21.5t-29 10.5t-36.5 4t-52.5 0.5h-21v188h145q112 0 187 -94t75 -231v-494q0 -85 5.5 -132.5t25 -81.5t45 -51t78.5 -40v-184 q-53 -22 -79.5 -39t-45.5 -51.5t-24 -82t-5 -132.5v-492q0 -137 -75 -231.5t-187 -94.5h-145v193z" />
<glyph unicode="~" horiz-adv-x="1060" d="M94 358q-23 160 54 265.5t214 105.5t234 -147q26 -43 51 -65.5t60 -22.5q57 0 90.5 59t15.5 152h154q26 -155 -47.5 -261t-200.5 -106q-47 0 -88 15t-74 44t-51 49t-41 50q-31 39 -54.5 56t-50.5 17q-61 0 -92.5 -62t-17.5 -149h-156z" />
<glyph unicode="&#xa1;" horiz-adv-x="741" d="M195 850q0 72 52 123t124 51t124 -51t52 -123q0 -73 -52 -125.5t-124 -52.5t-124 52.5t-52 125.5zM211 -512l41 1012h235l41 -1012h-317z" />
<glyph unicode="&#xa2;" horiz-adv-x="944" d="M127 717q0 179 97 318t253 190v211h180v-187q84 -6 154 -39v-301q-59 64 -176 64q-80 0 -136.5 -74.5t-56.5 -181.5t56.5 -181.5t136.5 -74.5q119 0 176 65v-303q-70 -33 -154 -39v-186h-180v211q-156 51 -253 190t-97 318z" />
<glyph unicode="&#xa3;" horiz-adv-x="1218" d="M70 643v203h145v192q0 227 129 372.5t330 145.5q160 0 290 -114t158 -283l-227 -98q7 106 -61 182t-160 76q-103 0 -164 -76t-61 -205v-192h335v-203h-335v-424h686v-219h-920v643h-145z" />
<glyph unicode="&#xa4;" horiz-adv-x="1392" d="M164 377l108 108q-73 119 -72.5 258.5t72.5 257.5l-106 107l164 174l110 -113q118 72 256 72.5t254 -72.5l109 111l170 -168l-107 -108q70 -119 70 -260t-70 -261l103 -106l-164 -174l-111 112q-116 -72 -255.5 -72t-256.5 72l-110 -112zM436 741q-1 -110 74 -184 q78 -78 186 -78.5t185 78.5q75 77 75.5 187.5t-75.5 185.5q-76 77 -185 76.5t-184 -78.5q-75 -77 -76 -187z" />
<glyph unicode="&#xa5;" horiz-adv-x="1337" d="M78 1536h291l301 -549l303 549h289l-453 -764v-14h293v-183h-293v-139h293v-182h-293v-254h-277v254h-296v182h296v139h-296v183h296v12z" />
<glyph unicode="&#xa6;" horiz-adv-x="598" d="M203 -307v737h192v-737h-192zM203 799v737h192v-737h-192z" />
<glyph unicode="&#xa7;" horiz-adv-x="1230" d="M133 254l191 119q35 -69 118.5 -111.5t198.5 -42.5q103 0 172.5 37t69.5 100q0 42 -38.5 72t-100 48t-136 35t-148.5 41.5t-135.5 59t-100 96t-38.5 144.5q0 106 70 188q-68 71 -68 181q0 105 63 183t158 115t205 37q118 0 230.5 -43.5t181.5 -115.5l-154 -131 q-87 90 -243 90q-89 0 -150 -34t-61 -89q0 -42 38.5 -71.5t100 -47.5t135.5 -35t148 -42t135.5 -60.5t100 -99t38.5 -148.5q0 -99 -72 -184q70 -77 70 -191q0 -98 -66.5 -179t-177 -126t-239.5 -45q-159 0 -296.5 70.5t-199.5 179.5zM418 860q0 -36 24.5 -62t72.5 -44 t97 -30.5t120 -31t120 -35.5q31 36 31 74q0 35 -25 60.5t-73 43t-97 30.5t-120 30.5t-119 34.5q-31 -28 -31 -70z" />
<glyph unicode="&#xa8;" horiz-adv-x="137" d="M137 1372q0 73 52 124.5t124 51.5t124 -51.5t52 -124.5q0 -71 -52 -122.5t-124 -51.5t-124 51.5t-52 122.5zM594 1372q0 73 52 124.5t124 51.5t123 -51.5t51 -124.5q0 -71 -51 -122.5t-123 -51.5t-124 51.5t-52 122.5z" />
<glyph unicode="&#xa9;" horiz-adv-x="1843" d="M127 768q0 128 40 248t114 217t171.5 170t219 113t250.5 40q161 0 307.5 -62.5t253.5 -168t170 -251.5t63 -306t-63 -306t-170 -251.5t-253.5 -168t-307.5 -62.5q-129 0 -250.5 40t-219 113t-171.5 170t-114 217t-40 248zM293 768q0 -128 49 -243.5t133 -198.5 t200.5 -132t246.5 -49q173 0 317.5 82.5t227.5 226t83 314.5t-83 314.5t-227.5 226t-317.5 82.5q-130 0 -246.5 -49t-200.5 -132t-133 -198.5t-49 -243.5zM575 760q0 154 115.5 260t280.5 106q88 0 157 -28v-189h-10q-55 45 -141 45q-87 0 -146 -51t-59 -143q0 -91 59 -142 t146 -51q36 0 75.5 11.5t65.5 29.5h10v-186q-74 -27 -157 -27q-165 0 -280.5 106t-115.5 259z" />
<glyph unicode="&#xaa;" horiz-adv-x="913" d="M96 1229q0 133 89.5 226t215.5 93q139 0 222 -108v96h149v-614h-149v96q-82 -109 -222 -109q-126 0 -215.5 93.5t-89.5 226.5zM246 1229q0 -78 55 -133.5t133 -55.5q77 0 133 55.5t56 133.5t-56 133t-133 55q-78 0 -133 -55t-55 -133z" />
<glyph unicode="&#xab;" horiz-adv-x="1517" d="M238 571l311 377h248l-312 -377l312 -376h-248zM719 571l311 377h252l-311 -377l311 -376h-252z" />
<glyph unicode="&#xac;" horiz-adv-x="1511" d="M168 725v199h1175v-723h-194v524h-981z" />
<glyph unicode="&#xad;" horiz-adv-x="1306" d="M195 428v209h716v-209h-716z" />
<glyph unicode="&#xae;" horiz-adv-x="1843" d="M127 768q0 128 40 248t114 217t171.5 170t219 113t250.5 40q161 0 307.5 -62.5t253.5 -168t170 -251.5t63 -306t-63 -306t-170 -251.5t-253.5 -168t-307.5 -62.5q-129 0 -250.5 40t-219 113t-171.5 170t-114 217t-40 248zM293 768q0 -128 49 -243.5t133 -198.5 t200.5 -132t246.5 -49q173 0 317.5 82.5t227.5 226t83 314.5t-83 314.5t-227.5 226t-317.5 82.5q-130 0 -246.5 -49t-200.5 -132t-133 -198.5t-49 -243.5zM700 373v790h275q101 0 172.5 -69.5t71.5 -169.5q0 -69 -36.5 -126t-97.5 -87l187 -338h-174l-172 311h-72v-311h-154 zM854 836h121q37 0 63.5 25.5t26.5 62.5t-26 61.5t-64 24.5h-121v-174z" />
<glyph unicode="&#xaf;" horiz-adv-x="143" d="M72 1192v199h635v-199h-635z" />
<glyph unicode="&#xb0;" horiz-adv-x="890" d="M205 1282q0 115 70 194.5t171 79.5q100 0 171 -79.5t71 -194.5t-71 -194.5t-171 -79.5q-101 0 -171 79.5t-70 194.5zM350 1282q0 -54 27.5 -89.5t68.5 -35.5q40 0 67.5 35.5t27.5 89.5t-27.5 89.5t-67.5 35.5q-41 0 -68.5 -35.5t-27.5 -89.5z" />
<glyph unicode="&#xb1;" horiz-adv-x="1458" d="M96 0v178h1266v-178h-1266zM96 739v199h535v369h196v-369h535v-199h-535v-368h-196v368h-535z" />
<glyph unicode="&#xb2;" horiz-adv-x="718" d="M115 778v111q166 178 233 255.5t88 112.5t21 68q0 52 -29.5 76t-71.5 24q-44 0 -72 -29.5t-24 -78.5h-143q-7 104 67 171.5t181 67.5q99 0 166 -60.5t67 -154.5q1 -87 -49.5 -160.5t-241.5 -271.5h309v-131h-501z" />
<glyph unicode="&#xb3;" horiz-adv-x="755" d="M121 991l145 2q0 -35 31.5 -60.5t75.5 -25.5q45 0 75.5 32.5t30.5 80.5q0 49 -30 79.5t-76 30.5h-60l-2 117h51q38 0 63.5 26t25.5 66q0 34 -25.5 57t-63.5 23q-32 0 -54.5 -19.5t-22.5 -47.5l-144 4q0 84 64 142t157 58q94 0 159 -57.5t65 -142.5q0 -91 -80 -142 q56 -30 88.5 -80.5t32.5 -113.5q0 -106 -73.5 -179t-180.5 -73q-106 0 -179 64.5t-73 158.5z" />
<glyph unicode="&#xb4;" horiz-adv-x="137" d="M72 1190l170 346h315l-246 -346h-239z" />
<glyph unicode="&#xb5;" horiz-adv-x="1161" d="M150 -512v1536h315v-590q0 -76 38.5 -127t96.5 -51q65 0 109.5 51.5t44.5 126.5v590h317v-1024h-317v98q-105 -118 -248 -118q-62 0 -129 26v-518h-227z" />
<glyph unicode="&#xb6;" horiz-adv-x="1228" d="M186 1194q0 165 84.5 253.5t235.5 88.5h176v-1843h-154v1157h-22q-151 0 -235.5 89t-84.5 255zM852 -307v1843h156v-1843h-156z" />
<glyph unicode="&#xb7;" horiz-adv-x="659" d="M201 737q0 53 38.5 91t90.5 38q51 0 90 -38.5t39 -90.5q0 -54 -38.5 -91.5t-90.5 -37.5q-53 0 -91 37t-38 92z" />
<glyph unicode="&#xb8;" horiz-adv-x="137" d="M72 -377l135 45q15 -25 45 -42t59 -17q35 0 59.5 24.5t24.5 59.5q0 56 -48.5 71.5t-115.5 -18.5l-110 66l102 188h146l-70 -119q100 17 169 -38t69 -150q0 -94 -65.5 -159.5t-160.5 -65.5q-76 0 -146 45t-93 110z" />
<glyph unicode="&#xb9;" horiz-adv-x="610" d="M98 1405v131h258v-768h-149v637h-109z" />
<glyph unicode="&#xba;" horiz-adv-x="868" d="M96 1229q0 133 98.5 226t239.5 93t239.5 -93t98.5 -226t-98.5 -226.5t-239.5 -93.5t-239.5 93.5t-98.5 226.5zM246 1229q0 -78 55 -133.5t133 -55.5q77 0 133 55.5t56 133.5t-56 133t-133 55q-78 0 -133 -55t-55 -133z" />
<glyph unicode="&#xbb;" horiz-adv-x="1517" d="M236 195l311 376l-311 377h249l312 -377l-312 -376h-249zM719 195l311 376l-311 377h250l311 -377l-311 -376h-250z" />
<glyph unicode="&#xbc;" horiz-adv-x="1808" d="M104 1339v193h428v-911h-231v718h-197zM344 -23l776 1561h178l-778 -1561h-176zM928 211v127l387 580h244v-556h120v-151h-120v-211h-213v211h-418zM1100 362h246v357l-76 -115z" />
<glyph unicode="&#xbd;" horiz-adv-x="1884" d="M104 1339v193h428v-911h-231v718h-197zM344 -23l776 1561h176l-776 -1561h-176zM1081 0v129l146 141q147 142 200.5 210.5t53.5 133.5q0 48 -35.5 86.5t-104.5 38.5q-49 0 -103 -20t-91 -47l-57 153q56 40 140 68.5t175 28.5q145 0 232 -76t87 -199q0 -47 -13 -91 t-31.5 -78t-53 -74.5t-64 -69.5t-76.5 -73q-20 -19 -30 -28l-61 -51v-8h342v-174h-656z" />
<glyph unicode="&#xbe;" horiz-adv-x="1947" d="M98 672l43 157q35 -21 96.5 -39t118.5 -18q79 0 129 34.5t50 90.5q0 61 -60.5 96t-155.5 35h-67v141h65q81 0 136 31t55 82q0 42 -33.5 70t-105.5 28q-101 0 -191 -59l-43 152q46 30 126.5 50.5t174.5 20.5q144 0 228 -63.5t84 -165.5q0 -73 -51 -127t-132 -82v-8 q91 -11 152 -71.5t61 -143.5q0 -119 -104 -196t-279 -77q-87 0 -170.5 17.5t-126.5 44.5zM483 -23l779 1561h176l-779 -1561h-176zM1057 211v127l387 580h246v-556h118v-151h-118v-211h-215v211h-418zM1229 362h246v211l2 144l-76 -113z" />
<glyph unicode="&#xbf;" horiz-adv-x="1224" d="M113 -37q0 87 17.5 152t46 103t63 65t68.5 45t62.5 36.5t46 46t17.5 66.5v105h281v-86q0 -86 -18 -146.5t-46.5 -92.5t-63.5 -53.5t-70 -37.5t-63.5 -36t-46.5 -57t-18 -93q0 -105 56.5 -161.5t134.5 -56.5q96 0 150 77.5t32 189.5h276q16 -149 -39.5 -273.5t-166 -196 t-250.5 -71.5q-199 0 -334 137.5t-135 337.5zM397 889q0 73 50 123.5t122 50.5q71 0 120.5 -50.5t49.5 -123.5t-49.5 -123.5t-120.5 -50.5q-72 0 -122 50.5t-50 123.5z" />
<glyph unicode="&#xc0;" horiz-adv-x="1486" d="M16 0l545 1536h367l542 -1536h-354l-88 287h-569l-88 -287h-355zM365 2048h315l170 -346h-236zM543 555h401l-201 645z" />
<glyph unicode="&#xc1;" horiz-adv-x="1486" d="M16 0l545 1536h367l542 -1536h-354l-88 287h-569l-88 -287h-355zM543 555h401l-201 645zM627 1702l170 346h315l-246 -346h-239z" />
<glyph unicode="&#xc2;" horiz-adv-x="1486" d="M16 0l545 1536h367l542 -1536h-354l-88 287h-569l-88 -287h-355zM362 1698l218 350h327l219 -350h-239l-142 215l-143 -215h-240zM543 555h401l-201 645z" />
<glyph unicode="&#xc3;" horiz-adv-x="1486" d="M16 0l545 1536h367l542 -1536h-354l-88 287h-569l-88 -287h-355zM403 1683q-30 137 31 227.5t176 90.5q129 0 209 -121q21 -35 51 -35q35 0 43.5 39.5t-14.5 100.5h184q32 -135 -27 -226.5t-179 -91.5q-125 0 -209 119q-24 37 -52 37q-33 0 -42 -40t14 -100h-185z M543 555h401l-201 645z" />
<glyph unicode="&#xc4;" horiz-adv-x="1486" d="M16 0l545 1536h367l542 -1536h-354l-88 287h-569l-88 -287h-355zM340 1884q0 73 52 124.5t124 51.5t124 -51.5t52 -124.5q0 -71 -52 -122.5t-124 -51.5t-124 51.5t-52 122.5zM543 555h401l-201 645zM797 1884q0 73 52 124.5t124 51.5t123 -51.5t51 -124.5 q0 -71 -51 -122.5t-123 -51.5t-124 51.5t-52 122.5z" />
<glyph unicode="&#xc5;" horiz-adv-x="1486" d="M16 0l539 1522q-57 70 -57 157q0 99 72.5 170.5t174.5 71.5q99 0 170.5 -71.5t71.5 -170.5q0 -91 -55 -155l538 -1524h-354l-88 287h-569l-88 -287h-355zM543 555h401l-201 645zM631 1679q0 -53 32 -85.5t82 -32.5q49 0 82 32.5t33 85.5q0 46 -34 81.5t-81 35.5 q-48 0 -81 -35t-33 -82z" />
<glyph unicode="&#xc6;" horiz-adv-x="1828" d="M16 0l545 1536h1149v-276h-510v-369h434v-246h-434v-369h510v-276h-825v317h-412l-90 -317h-367zM578 563h307v697h-101z" />
<glyph unicode="&#xc7;" horiz-adv-x="1622" d="M127 768q0 161 60 307t161 251t241 167.5t294 62.5q215 0 393.5 -113.5t275.5 -305.5l-284 -138q-55 111 -156.5 175.5t-228.5 64.5q-186 0 -312.5 -135t-126.5 -336t126.5 -336t312.5 -135q127 0 228.5 64.5t156.5 175.5l284 -138q-89 -176 -249.5 -288t-356.5 -129 l-59 -101q99 17 168 -37.5t69 -150.5q0 -94 -65 -159.5t-160 -65.5q-77 0 -147 45.5t-93 109.5l136 45q15 -25 45 -42t59 -17q35 0 59.5 24.5t24.5 59.5q0 56 -48.5 71.5t-115.5 -18.5l-110 66l94 172q-141 16 -266 83.5t-215 171t-142.5 241.5t-52.5 288z" />
<glyph unicode="&#xc8;" horiz-adv-x="1169" d="M164 0v1536h889v-285h-564v-340h480v-286h-480v-340h564v-285h-889zM227 2048h316l170 -346h-236z" />
<glyph unicode="&#xc9;" horiz-adv-x="1169" d="M164 0v1536h889v-285h-564v-340h480v-286h-480v-340h564v-285h-889zM489 1702l170 346h316l-246 -346h-240z" />
<glyph unicode="&#xca;" horiz-adv-x="1169" d="M164 0v1536h889v-285h-564v-340h480v-286h-480v-340h564v-285h-889zM225 1698l217 350h328l219 -350h-239l-142 215l-143 -215h-240z" />
<glyph unicode="&#xcb;" horiz-adv-x="1169" d="M164 0v1536h889v-285h-564v-340h480v-286h-480v-340h564v-285h-889zM203 1884q0 73 52 124.5t124 51.5t124 -51.5t52 -124.5q0 -71 -52 -122.5t-124 -51.5t-124 51.5t-52 122.5zM659 1884q0 73 52.5 124.5t124.5 51.5t123 -51.5t51 -124.5q0 -71 -51 -122.5t-123 -51.5 t-124.5 51.5t-52.5 122.5z" />
<glyph unicode="&#xcc;" horiz-adv-x="651" d="M-55 2048h315l170 -346h-235zM164 0v1536h325v-1536h-325z" />
<glyph unicode="&#xcd;" horiz-adv-x="651" d="M164 0v1536h325v-1536h-325zM209 1702l170 346h315l-245 -346h-240z" />
<glyph unicode="&#xce;" horiz-adv-x="651" d="M-57 1698l217 350h327l220 -350h-240l-141 215l-144 -215h-239zM164 0v1536h325v-1536h-325z" />
<glyph unicode="&#xcf;" horiz-adv-x="651" d="M-80 1884q0 73 52 124.5t124 51.5t124 -51.5t52 -124.5q0 -71 -52 -122.5t-124 -51.5t-124 51.5t-52 122.5zM164 0v1536h325v-1536h-325zM377 1884q0 73 52 124.5t124 51.5t123 -51.5t51 -124.5q0 -71 -51 -122.5t-123 -51.5t-124 51.5t-52 122.5z" />
<glyph unicode="&#xd0;" horiz-adv-x="1529" d="M16 690v156h150v690h489q204 0 376 -103t272 -279.5t100 -385.5t-100 -385.5t-272 -279.5t-376 -103h-489v690h-150zM492 285h163q178 0 301 140t123 343t-123 343t-301 140h-163v-405h233v-156h-233v-405z" />
<glyph unicode="&#xd1;" horiz-adv-x="1630" d="M168 0v1536h340l631 -995v995h325v-1536h-340l-630 1001v-1001h-326zM481 1683q-30 137 31 227.5t176 90.5q129 0 209 -121q21 -35 51 -35q35 0 43.5 39.5t-14.5 100.5h184q32 -135 -27.5 -226.5t-179.5 -91.5q-125 0 -209 119q-13 20 -24 28.5t-27 8.5q-33 0 -42 -40 t14 -100h-185z" />
<glyph unicode="&#xd2;" horiz-adv-x="1767" d="M127 768q0 161 60 307t161 251t241 167.5t294 62.5q207 0 381 -105.5t275 -286.5t101 -396t-101 -396t-275 -286.5t-381 -105.5q-154 0 -294 62.5t-241 167.5t-161 251t-60 307zM444 768q0 -201 126.5 -336t312.5 -135q188 0 314 135t126 336t-126 336t-314 135 q-186 0 -312.5 -135t-126.5 -336zM502 2048h315l170 -346h-235z" />
<glyph unicode="&#xd3;" horiz-adv-x="1767" d="M127 768q0 161 60 307t161 251t241 167.5t294 62.5q207 0 381 -105.5t275 -286.5t101 -396t-101 -396t-275 -286.5t-381 -105.5q-154 0 -294 62.5t-241 167.5t-161 251t-60 307zM444 768q0 -201 126.5 -336t312.5 -135q188 0 314 135t126 336t-126 336t-314 135 q-186 0 -312.5 -135t-126.5 -336zM766 1702l170 346h315l-245 -346h-240z" />
<glyph unicode="&#xd4;" horiz-adv-x="1767" d="M127 768q0 161 60 307t161 251t241 167.5t294 62.5q207 0 381 -105.5t275 -286.5t101 -396t-101 -396t-275 -286.5t-381 -105.5q-154 0 -294 62.5t-241 167.5t-161 251t-60 307zM444 768q0 -201 126.5 -336t312.5 -135q188 0 314 135t126 336t-126 336t-314 135 q-186 0 -312.5 -135t-126.5 -336zM502 1698l217 350h328l219 -350h-240l-141 215l-144 -215h-239z" />
<glyph unicode="&#xd5;" horiz-adv-x="1767" d="M127 768q0 161 60 307t161 251t241 167.5t294 62.5q207 0 381 -105.5t275 -286.5t101 -396t-101 -396t-275 -286.5t-381 -105.5q-154 0 -294 62.5t-241 167.5t-161 251t-60 307zM444 768q0 -201 126.5 -336t312.5 -135q188 0 314 135t126 336t-126 336t-314 135 q-186 0 -312.5 -135t-126.5 -336zM543 1683q-30 137 31 227.5t176 90.5q128 0 208 -121q21 -35 52 -35q35 0 43 39.5t-15 100.5h185q32 -135 -27.5 -226.5t-179.5 -91.5q-125 0 -209 119q-13 20 -24 28.5t-27 8.5q-33 0 -42 -40t13 -100h-184z" />
<glyph unicode="&#xd6;" horiz-adv-x="1767" d="M127 768q0 161 60 307t161 251t241 167.5t294 62.5q207 0 381 -105.5t275 -286.5t101 -396t-101 -396t-275 -286.5t-381 -105.5q-154 0 -294 62.5t-241 167.5t-161 251t-60 307zM444 768q0 -201 126.5 -336t312.5 -135q188 0 314 135t126 336t-126 336t-314 135 q-186 0 -312.5 -135t-126.5 -336zM479 1884q0 73 52 124.5t124 51.5t124 -51.5t52 -124.5q0 -71 -52 -122.5t-124 -51.5t-124 51.5t-52 122.5zM936 1884q0 73 52 124.5t124 51.5t123 -51.5t51 -124.5q0 -71 -51 -122.5t-123 -51.5t-124 51.5t-52 122.5z" />
<glyph unicode="&#xd7;" horiz-adv-x="1570" d="M293 270l356 365l-356 364l168 168l352 -362l354 362l168 -168l-356 -364l356 -365l-168 -168l-354 363l-352 -363z" />
<glyph unicode="&#xd8;" horiz-adv-x="1767" d="M127 768q0 161 60 307t161 251t241 167.5t294 62.5q186 0 350 -90l92 142h209l-158 -242q124 -109 194 -265t70 -333q0 -215 -101 -396t-275 -286.5t-381 -105.5q-187 0 -351 90l-92 -142h-209l158 242q-124 111 -193 266t-69 332zM444 768q0 -195 119 -330l498 764 q-78 37 -178 37q-186 0 -312.5 -135t-126.5 -336zM705 334q78 -37 178 -37q188 0 314 135t126 336q0 196 -121 330z" />
<glyph unicode="&#xd9;" horiz-adv-x="1456" d="M156 494v1042h325v-983q0 -120 71.5 -204.5t174.5 -84.5q104 0 176 84.5t72 204.5v983h325v-1042q0 -142 -75 -260t-207 -186t-291 -68q-118 0 -223.5 40t-182 108.5t-121 163.5t-44.5 202zM348 2048h316l170 -346h-236z" />
<glyph unicode="&#xda;" horiz-adv-x="1456" d="M156 494v1042h325v-983q0 -120 71.5 -204.5t174.5 -84.5q104 0 176 84.5t72 204.5v983h325v-1042q0 -142 -75 -260t-207 -186t-291 -68q-118 0 -223.5 40t-182 108.5t-121 163.5t-44.5 202zM610 1702l170 346h316l-246 -346h-240z" />
<glyph unicode="&#xdb;" horiz-adv-x="1456" d="M156 494v1042h325v-983q0 -120 71.5 -204.5t174.5 -84.5q104 0 176 84.5t72 204.5v983h325v-1042q0 -142 -75 -260t-207 -186t-291 -68q-118 0 -223.5 40t-182 108.5t-121 163.5t-44.5 202zM346 1698l217 350h328l219 -350h-240l-141 215l-143 -215h-240z" />
<glyph unicode="&#xdc;" horiz-adv-x="1456" d="M156 494v1042h325v-983q0 -120 71.5 -204.5t174.5 -84.5q104 0 176 84.5t72 204.5v983h325v-1042q0 -142 -75 -260t-207 -186t-291 -68q-118 0 -223.5 40t-182 108.5t-121 163.5t-44.5 202zM324 1884q0 73 52 124.5t124 51.5t124 -51.5t52 -124.5q0 -71 -52 -122.5 t-124 -51.5t-124 51.5t-52 122.5zM780 1884q0 73 52 124.5t124 51.5t123 -51.5t51 -124.5q0 -71 -51 -122.5t-123 -51.5t-124 51.5t-52 122.5z" />
<glyph unicode="&#xdd;" horiz-adv-x="1345" d="M35 1536h364l275 -504l278 504h359l-471 -793v-743h-328v735zM559 1702l170 346h315l-245 -346h-240z" />
<glyph unicode="&#xde;" horiz-adv-x="1204" d="M170 0v1313v223h315v-223h271q170 0 288.5 -134.5t118.5 -328.5q0 -187 -118.5 -317t-288.5 -130h-271v-403h-315zM485 682h260q55 0 94.5 52t39.5 124q0 75 -39 125.5t-95 50.5h-260v-352z" />
<glyph unicode="&#xdf;" horiz-adv-x="1345" d="M168 0v1053q0 137 66 248t181 173t257 62q202 0 332.5 -124t130.5 -314q0 -169 -105 -293q86 -67 134 -164.5t48 -214.5q0 -188 -107.5 -317t-268.5 -129q-73 0 -167 27t-145 69l119 246q24 -21 64 -36.5t67 -15.5q47 3 85 52.5t38 121.5q0 85 -51 145t-123 60h-57v256 h22q61 0 105.5 56t44.5 131q0 74 -46 121t-118 47q-82 0 -136.5 -58.5t-54.5 -148.5v-1053h-315z" />
<glyph unicode="&#xe0;" horiz-adv-x="1161" d="M123 295q0 96 38.5 172t115.5 116.5t178 24.5l245 -39v86q0 75 -34.5 118.5t-98.5 43.5q-56 0 -91.5 -33.5t-35.5 -91.5h-288q2 163 117.5 257.5t314.5 94.5q203 0 318.5 -100.5t115.5 -275.5v-668h-258l-27 102q-128 -122 -287 -122q-148 0 -235.5 84t-87.5 231z M209 1536h315l170 -346h-235zM434 311q0 -52 33 -82t86 -30q84 0 147 71v127l-133 31q-58 13 -95.5 -23.5t-37.5 -93.5z" />
<glyph unicode="&#xe1;" horiz-adv-x="1161" d="M123 295q0 96 38.5 172t115.5 116.5t178 24.5l245 -39v86q0 75 -34.5 118.5t-98.5 43.5q-56 0 -91.5 -33.5t-35.5 -91.5h-288q2 163 117.5 257.5t314.5 94.5q203 0 318.5 -100.5t115.5 -275.5v-668h-258l-27 102q-128 -122 -287 -122q-148 0 -235.5 84t-87.5 231z M434 311q0 -52 33 -82t86 -30q84 0 147 71v127l-133 31q-58 13 -95.5 -23.5t-37.5 -93.5zM473 1190l170 346h315l-245 -346h-240z" />
<glyph unicode="&#xe2;" horiz-adv-x="1161" d="M123 295q0 96 38.5 172t115.5 116.5t178 24.5l245 -39v86q0 75 -34.5 118.5t-98.5 43.5q-56 0 -91.5 -33.5t-35.5 -91.5h-288q2 163 117.5 257.5t314.5 94.5q203 0 318.5 -100.5t115.5 -275.5v-668h-258l-27 102q-128 -122 -287 -122q-148 0 -235.5 84t-87.5 231z M209 1186l217 350h328l219 -350h-240l-141 215l-143 -215h-240zM434 311q0 -52 33 -82t86 -30q84 0 147 71v127l-133 31q-58 13 -95.5 -23.5t-37.5 -93.5z" />
<glyph unicode="&#xe3;" horiz-adv-x="1161" d="M123 295q0 96 38.5 172t115.5 116.5t178 24.5l245 -39v86q0 75 -34.5 118.5t-98.5 43.5q-56 0 -91.5 -33.5t-35.5 -91.5h-288q2 163 117.5 257.5t314.5 94.5q203 0 318.5 -100.5t115.5 -275.5v-668h-258l-27 102q-128 -122 -287 -122q-148 0 -235.5 84t-87.5 231z M250 1171q-30 137 31 227.5t176 90.5q129 0 209 -121q21 -35 51 -35q35 0 43 39.5t-15 100.5h185q32 -135 -27.5 -226.5t-179.5 -91.5q-125 0 -209 119q-13 20 -24 28.5t-27 8.5q-33 0 -42 -40t13 -100h-184zM434 311q0 -52 33 -82t86 -30q84 0 147 71v127l-133 31 q-58 13 -95.5 -23.5t-37.5 -93.5z" />
<glyph unicode="&#xe4;" horiz-adv-x="1161" d="M123 295q0 96 38.5 172t115.5 116.5t178 24.5l245 -39v86q0 75 -34.5 118.5t-98.5 43.5q-56 0 -91.5 -33.5t-35.5 -91.5h-288q2 163 117.5 257.5t314.5 94.5q203 0 318.5 -100.5t115.5 -275.5v-668h-258l-27 102q-128 -122 -287 -122q-148 0 -235.5 84t-87.5 231z M186 1372q0 73 52 124.5t124 51.5t124.5 -51.5t52.5 -124.5q0 -71 -52.5 -122.5t-124.5 -51.5t-124 51.5t-52 122.5zM434 311q0 -52 33 -82t86 -30q84 0 147 71v127l-133 31q-58 13 -95.5 -23.5t-37.5 -93.5zM643 1372q0 73 52 124.5t124 51.5t123 -51.5t51 -124.5 q0 -71 -51 -122.5t-123 -51.5t-124 51.5t-52 122.5z" />
<glyph unicode="&#xe5;" horiz-adv-x="1161" d="M123 295q0 96 38.5 172t115.5 116.5t178 24.5l245 -39v86q0 75 -34.5 118.5t-98.5 43.5q-56 0 -91.5 -33.5t-35.5 -91.5h-288q2 163 117.5 257.5t314.5 94.5q203 0 318.5 -100.5t115.5 -275.5v-668h-258l-27 102q-128 -122 -287 -122q-148 0 -235.5 84t-87.5 231z M344 1354q0 100 72.5 171.5t173.5 71.5q100 0 170.5 -71.5t70.5 -171.5q0 -101 -70.5 -173.5t-170.5 -72.5q-101 0 -173.5 72.5t-72.5 173.5zM434 311q0 -52 33 -82t86 -30q84 0 147 71v127l-133 31q-58 13 -95.5 -23.5t-37.5 -93.5zM475 1354q0 -52 32.5 -85.5t82.5 -33.5 t83.5 33.5t33.5 85.5q0 47 -34.5 83t-82.5 36t-81.5 -36t-33.5 -83z" />
<glyph unicode="&#xe6;" horiz-adv-x="1792" d="M123 289q0 144 98 244t234 75l245 -45v96q0 71 -34.5 109.5t-92.5 40.5q-69 3 -106 -29.5t-31 -87.5h-284q0 162 115.5 257t307.5 95q204 0 324 -108q136 111 336 111q220 0 347.5 -143t127.5 -388q0 -28 -4 -94h-672q11 -101 59 -153t146 -52q72 0 124 31.5t97 103.5 l226 -102q-51 -125 -168 -197.5t-271 -72.5q-284 0 -422 170q-142 -170 -360 -170q-154 0 -248 86.5t-94 222.5zM451 307q0 -42 26.5 -68t71.5 -26q59 0 110 39t70 108q-1 2 -2 8t-2 9l-180 39q-39 7 -66.5 -27.5t-27.5 -81.5zM1038 618h369q-11 93 -53 139t-125 46 q-158 0 -191 -185z" />
<glyph unicode="&#xe7;" horiz-adv-x="1165" d="M102 512q0 149 64 270t182.5 191.5t267.5 70.5q175 0 304 -92.5t176 -240.5l-293 -88q-18 65 -66.5 105t-118.5 40q-95 0 -147.5 -72t-52.5 -184t52.5 -184t147.5 -72q70 0 118.5 40t66.5 105l293 -100q-43 -133 -153.5 -217.5t-260.5 -99.5l-59 -103q99 17 168 -37.5 t69 -150.5q0 -94 -65 -159.5t-160 -65.5q-77 0 -147 45.5t-93 109.5l135 45q15 -25 45.5 -42t59.5 -17q35 0 59.5 24.5t24.5 59.5q0 56 -48.5 71.5t-115.5 -18.5l-111 66l95 174q-131 18 -230.5 91.5t-153 186.5t-53.5 248z" />
<glyph unicode="&#xe8;" horiz-adv-x="1181" d="M102 508q0 235 140.5 387t380.5 152q220 0 347.5 -143t127.5 -388q0 -61 -4 -94h-672q11 -101 59 -153t146 -52q72 0 124 31.5t97 103.5l227 -102q-51 -125 -167.5 -197.5t-272.5 -72.5q-137 0 -241 40.5t-167 113t-94 166.5t-31 208zM242 1536h315l170 -346h-235z M428 618h367q-11 93 -53 139t-124 46q-157 0 -190 -185z" />
<glyph unicode="&#xe9;" horiz-adv-x="1181" d="M102 508q0 235 140.5 387t380.5 152q220 0 347.5 -143t127.5 -388q0 -61 -4 -94h-672q11 -101 59 -153t146 -52q72 0 124 31.5t97 103.5l227 -102q-51 -125 -167.5 -197.5t-272.5 -72.5q-137 0 -241 40.5t-167 113t-94 166.5t-31 208zM428 618h367q-11 93 -53 139 t-124 46q-157 0 -190 -185zM506 1190l170 346h315l-246 -346h-239z" />
<glyph unicode="&#xea;" horiz-adv-x="1181" d="M102 508q0 235 140.5 387t380.5 152q220 0 347.5 -143t127.5 -388q0 -61 -4 -94h-672q11 -101 59 -153t146 -52q72 0 124 31.5t97 103.5l227 -102q-51 -125 -167.5 -197.5t-272.5 -72.5q-137 0 -241 40.5t-167 113t-94 166.5t-31 208zM240 1186l217 350h327l220 -350 h-240l-141 215l-144 -215h-239zM428 618h367q-11 93 -53 139t-124 46q-157 0 -190 -185z" />
<glyph unicode="&#xeb;" horiz-adv-x="1181" d="M102 508q0 235 140.5 387t380.5 152q220 0 347.5 -143t127.5 -388q0 -61 -4 -94h-672q11 -101 59 -153t146 -52q72 0 124 31.5t97 103.5l227 -102q-51 -125 -167.5 -197.5t-272.5 -72.5q-137 0 -241 40.5t-167 113t-94 166.5t-31 208zM217 1372q0 73 52 124.5t124 51.5 t124 -51.5t52 -124.5q0 -71 -52 -122.5t-124 -51.5t-124 51.5t-52 122.5zM428 618h367q-11 93 -53 139t-124 46q-157 0 -190 -185zM674 1372q0 73 52 124.5t124 51.5t123 -51.5t51 -124.5q0 -71 -51 -122.5t-123 -51.5t-124 51.5t-52 122.5z" />
<glyph unicode="&#xec;" horiz-adv-x="698" d="M-31 1536h316l170 -346h-236zM193 0v1024h315v-1024h-315z" />
<glyph unicode="&#xed;" horiz-adv-x="698" d="M193 0v1024h315v-1024h-315zM233 1190l170 346h316l-246 -346h-240z" />
<glyph unicode="&#xee;" horiz-adv-x="698" d="M-33 1186l217 350h328l219 -350h-239l-142 215l-143 -215h-240zM193 0v1024h315v-1024h-315z" />
<glyph unicode="&#xef;" horiz-adv-x="698" d="M-55 1372q0 73 52 124.5t124 51.5t124 -51.5t52 -124.5q0 -71 -52 -122.5t-124 -51.5t-124 51.5t-52 122.5zM193 0v1024h315v-1024h-315zM401 1372q0 73 52.5 124.5t124.5 51.5t123 -51.5t51 -124.5q0 -71 -51 -122.5t-123 -51.5t-124.5 51.5t-52.5 122.5z" />
<glyph unicode="&#xf0;" horiz-adv-x="1198" d="M102 512q0 147 67 269.5t184 192.5t257 70q58 0 111 -12q-49 110 -121 172l-76 -106l-90 71l70 99q-79 37 -193 45l66 248q149 0 282 -76l74 102l90 -71l-69 -95q170 -137 269 -377.5t99 -531.5q0 -224 -148.5 -378t-363.5 -154q-140 0 -257 70t-184 192.5t-67 269.5z M418 512q0 -107 56 -181.5t136 -74.5q82 0 138.5 74.5t56.5 181.5t-56.5 181.5t-138.5 74.5q-80 0 -136 -74.5t-56 -181.5z" />
<glyph unicode="&#xf1;" horiz-adv-x="1306" d="M170 0v1024h315v-102q116 122 291 122q174 0 274.5 -100t100.5 -280v-664h-317v623q0 67 -38.5 106t-115.5 39q-91 0 -143 -52.5t-52 -125.5v-590h-315zM319 1171q-30 137 31 227.5t176 90.5q129 0 209 -121q21 -35 51 -35q35 0 43.5 39.5t-14.5 100.5h184 q32 -135 -27 -226.5t-179 -91.5q-125 0 -209 119q-24 37 -52 37q-33 0 -42 -40t14 -100h-185z" />
<glyph unicode="&#xf2;" horiz-adv-x="1241" d="M102 512q0 149 64 270t183.5 191.5t271.5 70.5t271 -70.5t183 -191.5t64 -270t-64 -270t-183 -191.5t-271 -70.5t-271.5 70.5t-183.5 191.5t-64 270zM240 1536h315l170 -346h-236zM418 512q0 -112 53.5 -184t149.5 -72t149 72t53 184t-53 184t-149 72t-149.5 -72 t-53.5 -184z" />
<glyph unicode="&#xf3;" horiz-adv-x="1241" d="M102 512q0 149 64 270t183.5 191.5t271.5 70.5t271 -70.5t183 -191.5t64 -270t-64 -270t-183 -191.5t-271 -70.5t-271.5 70.5t-183.5 191.5t-64 270zM418 512q0 -112 53.5 -184t149.5 -72t149 72t53 184t-53 184t-149 72t-149.5 -72t-53.5 -184zM502 1190l170 346h315 l-246 -346h-239z" />
<glyph unicode="&#xf4;" horiz-adv-x="1241" d="M102 512q0 149 64 270t183.5 191.5t271.5 70.5t271 -70.5t183 -191.5t64 -270t-64 -270t-183 -191.5t-271 -70.5t-271.5 70.5t-183.5 191.5t-64 270zM238 1186l217 350h327l219 -350h-239l-141 215l-144 -215h-239zM418 512q0 -112 53.5 -184t149.5 -72t149 72t53 184 t-53 184t-149 72t-149.5 -72t-53.5 -184z" />
<glyph unicode="&#xf5;" horiz-adv-x="1241" d="M102 512q0 149 64 270t183.5 191.5t271.5 70.5t271 -70.5t183 -191.5t64 -270t-64 -270t-183 -191.5t-271 -70.5t-271.5 70.5t-183.5 191.5t-64 270zM279 1171q-30 137 30.5 227.5t175.5 90.5q129 0 209 -121q21 -35 51 -35q35 0 43.5 39.5t-14.5 100.5h184 q32 -135 -27 -226.5t-179 -91.5q-125 0 -209 119q-13 20 -24 28.5t-27 8.5q-33 0 -42 -40t13 -100h-184zM418 512q0 -112 53.5 -184t149.5 -72t149 72t53 184t-53 184t-149 72t-149.5 -72t-53.5 -184z" />
<glyph unicode="&#xf6;" horiz-adv-x="1241" d="M102 512q0 149 64 270t183.5 191.5t271.5 70.5t271 -70.5t183 -191.5t64 -270t-64 -270t-183 -191.5t-271 -70.5t-271.5 70.5t-183.5 191.5t-64 270zM215 1372q0 73 52 124.5t124 51.5t124 -51.5t52 -124.5q0 -71 -52 -122.5t-124 -51.5t-124 51.5t-52 122.5zM418 512 q0 -112 53.5 -184t149.5 -72t149 72t53 184t-53 184t-149 72t-149.5 -72t-53.5 -184zM672 1372q0 73 52 124.5t124 51.5t123 -51.5t51 -124.5q0 -71 -51 -122.5t-123 -51.5t-124 51.5t-52 122.5z" />
<glyph unicode="&#xf7;" horiz-adv-x="1308" d="M113 485v156h1083v-156h-1083zM504 215q0 63 45.5 109.5t105.5 46.5t105 -46.5t45 -109.5q0 -65 -44.5 -110.5t-105.5 -45.5t-106 45.5t-45 110.5zM504 911q0 63 45.5 109.5t105.5 46.5t105 -46.5t45 -109.5q0 -65 -44.5 -110t-105.5 -45t-106 45t-45 110z" />
<glyph unicode="&#xf8;" horiz-adv-x="1241" d="M102 512q0 149 64 270t183.5 191.5t271.5 70.5q133 0 239 -53l68 105h143l-110 -172q85 -72 131.5 -179t46.5 -233q0 -149 -64 -270t-183 -191.5t-271 -70.5q-134 0 -240 53l-68 -103h-145l111 170q-84 73 -130.5 180t-46.5 232zM418 512q0 -86 31 -150l253 390 q-40 16 -81 16q-96 0 -149.5 -72t-53.5 -184zM537 272q40 -16 84 -16q96 0 149 72t53 184q0 83 -32 152z" />
<glyph unicode="&#xf9;" horiz-adv-x="1312" d="M162 381v643h317v-604q0 -75 41.5 -119.5t110.5 -44.5q79 0 138.5 52t59.5 126v590h316v-1024h-316v111q-121 -131 -290 -131q-163 0 -270 113.5t-107 287.5zM272 1536h316l170 -346h-236z" />
<glyph unicode="&#xfa;" horiz-adv-x="1312" d="M162 381v643h317v-604q0 -75 41.5 -119.5t110.5 -44.5q79 0 138.5 52t59.5 126v590h316v-1024h-316v111q-121 -131 -290 -131q-163 0 -270 113.5t-107 287.5zM537 1190l170 346h315l-246 -346h-239z" />
<glyph unicode="&#xfb;" horiz-adv-x="1312" d="M162 381v643h317v-604q0 -75 41.5 -119.5t110.5 -44.5q79 0 138.5 52t59.5 126v590h316v-1024h-316v111q-121 -131 -290 -131q-163 0 -270 113.5t-107 287.5zM270 1186l217 350h328l219 -350h-239l-142 215l-143 -215h-240z" />
<glyph unicode="&#xfc;" horiz-adv-x="1312" d="M162 381v643h317v-604q0 -75 41.5 -119.5t110.5 -44.5q79 0 138.5 52t59.5 126v590h316v-1024h-316v111q-121 -131 -290 -131q-163 0 -270 113.5t-107 287.5zM248 1372q0 73 52 124.5t124 51.5t124 -51.5t52 -124.5q0 -71 -52 -122.5t-124 -51.5t-124 51.5t-52 122.5z M705 1372q0 73 52 124.5t124 51.5t123 -51.5t51 -124.5q0 -71 -51 -122.5t-123 -51.5t-124 51.5t-52 122.5z" />
<glyph unicode="&#xfd;" horiz-adv-x="1144" d="M43 1024h334l198 -651l197 651h332l-541 -1536h-321l176 494zM455 1190l170 346h315l-246 -346h-239z" />
<glyph unicode="&#xfe;" horiz-adv-x="1269" d="M168 -512v2097h315v-641q100 100 244 100q122 0 223 -70t159 -192.5t58 -269.5t-58 -269.5t-159 -192.5t-223 -70q-144 0 -244 100v-592h-315zM483 512q0 -108 55.5 -182t137.5 -74q81 0 136.5 74t55.5 182t-55.5 182t-136.5 74q-82 0 -137.5 -74t-55.5 -182z" />
<glyph unicode="&#xff;" horiz-adv-x="1144" d="M43 1024h334l198 -651l197 651h332l-541 -1536h-321l176 494zM168 1372q0 73 52 124.5t124 51.5t124 -51.5t52 -124.5q0 -71 -52 -122.5t-124 -51.5t-124 51.5t-52 122.5zM625 1372q0 73 52 124.5t124 51.5t123 -51.5t51 -124.5q0 -71 -51 -122.5t-123 -51.5t-124 51.5 t-52 122.5z" />
<glyph unicode="&#x100;" horiz-adv-x="1486" d="M16 0l545 1536h367l542 -1536h-354l-88 287h-569l-88 -287h-355zM426 1704v199h635v-199h-635zM543 555h401l-201 645z" />
<glyph unicode="&#x101;" horiz-adv-x="1161" d="M123 295q0 96 38.5 172t115.5 116.5t178 24.5l245 -39v86q0 75 -34.5 118.5t-98.5 43.5q-56 0 -91.5 -33.5t-35.5 -91.5h-288q2 163 117.5 257.5t314.5 94.5q203 0 318.5 -100.5t115.5 -275.5v-668h-258l-27 102q-128 -122 -287 -122q-148 0 -235.5 84t-87.5 231z M272 1192v199h635v-199h-635zM434 311q0 -52 33 -82t86 -30q84 0 147 71v127l-133 31q-58 13 -95.5 -23.5t-37.5 -93.5z" />
<glyph unicode="&#x102;" horiz-adv-x="1486" d="M16 0l545 1536h367l542 -1536h-354l-88 287h-569l-88 -287h-355zM408 2007h176q0 -72 43.5 -125t115.5 -53q73 0 117.5 53t44.5 125h176q0 -175 -90.5 -265.5t-247.5 -90.5q-154 0 -244.5 90.5t-90.5 265.5zM543 555h401l-201 645z" />
<glyph unicode="&#x103;" horiz-adv-x="1161" d="M123 295q0 96 38.5 172t115.5 116.5t178 24.5l245 -39v86q0 75 -34.5 118.5t-98.5 43.5q-56 0 -91.5 -33.5t-35.5 -91.5h-288q2 163 117.5 257.5t314.5 94.5q203 0 318.5 -100.5t115.5 -275.5v-668h-258l-27 102q-128 -122 -287 -122q-148 0 -235.5 84t-87.5 231z M254 1495h176q0 -71 44 -124.5t116 -53.5q73 0 117.5 53t44.5 125h176q0 -175 -90.5 -265.5t-247.5 -90.5q-154 0 -245 90.5t-91 265.5zM434 311q0 -52 33 -82t86 -30q84 0 147 71v127l-133 31q-58 13 -95.5 -23.5t-37.5 -93.5z" />
<glyph unicode="&#x104;" horiz-adv-x="1486" d="M16 0l545 1536h367l542 -1536q-131 -68 -193.5 -128t-62.5 -134q0 -53 30 -80t85 -27q89 0 156 74l76 -151q-123 -91 -285 -82q-123 6 -197.5 66.5t-74.5 174.5q0 186 204 287h-92l-88 287h-569l-88 -287h-355zM543 555h401l-201 645z" />
<glyph unicode="&#x105;" horiz-adv-x="1161" d="M123 295q0 96 38.5 172t115.5 116.5t178 24.5l245 -39v86q0 75 -34.5 118.5t-98.5 43.5q-56 0 -91.5 -33.5t-35.5 -91.5h-288q2 163 117.5 257.5t314.5 94.5q203 0 318.5 -100.5t115.5 -275.5v-668q-131 -68 -193.5 -128t-62.5 -134q0 -53 30 -80t85 -27q88 0 155 74 l76 -151q-123 -91 -285 -82q-123 6 -197.5 66.5t-74.5 174.5q0 87 51.5 162t157.5 127l-27 100q-128 -122 -287 -122q-148 0 -235.5 84t-87.5 231zM434 311q0 -52 33 -82t86 -30q84 0 147 71v127l-133 31q-58 13 -95.5 -23.5t-37.5 -93.5z" />
<glyph unicode="&#x106;" horiz-adv-x="1622" d="M127 768q0 161 60 307t161 251t241 167.5t294 62.5q215 0 393.5 -113.5t275.5 -305.5l-284 -138q-55 111 -156.5 175.5t-228.5 64.5q-186 0 -312.5 -135t-126.5 -336t126.5 -336t312.5 -135q127 0 228.5 64.5t156.5 175.5l284 -138q-97 -191 -275.5 -305t-393.5 -114 q-154 0 -294 62.5t-241 167.5t-161 251t-60 307zM766 1702l170 346h315l-245 -346h-240z" />
<glyph unicode="&#x107;" horiz-adv-x="1165" d="M102 512q0 149 64 270t182.5 191.5t267.5 70.5q175 0 304 -92.5t176 -240.5l-293 -88q-18 65 -66.5 105t-118.5 40q-95 0 -147.5 -72t-52.5 -184t52.5 -184t147.5 -72q70 0 118.5 40t66.5 105l293 -100q-47 -147 -176.5 -234t-298.5 -87q-152 0 -271.5 70.5t-183.5 191.5 t-64 270zM502 1190l170 346h315l-246 -346h-239z" />
<glyph unicode="&#x10a;" horiz-adv-x="1622" d="M127 768q0 161 60 307t161 251t241 167.5t294 62.5q215 0 393.5 -113.5t275.5 -305.5l-284 -138q-55 111 -156.5 175.5t-228.5 64.5q-186 0 -312.5 -135t-126.5 -336t126.5 -336t312.5 -135q127 0 228.5 64.5t156.5 175.5l284 -138q-97 -191 -275.5 -305t-393.5 -114 q-154 0 -294 62.5t-241 167.5t-161 251t-60 307zM709 1884q0 73 52 124.5t124 51.5t124 -51.5t52 -124.5q0 -71 -52 -122.5t-124 -51.5t-124 51.5t-52 122.5z" />
<glyph unicode="&#x10b;" horiz-adv-x="1165" d="M102 512q0 149 64 270t182.5 191.5t267.5 70.5q175 0 304 -92.5t176 -240.5l-293 -88q-18 65 -66.5 105t-118.5 40q-95 0 -147.5 -72t-52.5 -184t52.5 -184t147.5 -72q70 0 118.5 40t66.5 105l293 -100q-47 -147 -176.5 -234t-298.5 -87q-152 0 -271.5 70.5t-183.5 191.5 t-64 270zM444 1372q0 73 52.5 124.5t124.5 51.5t124 -51.5t52 -124.5q0 -71 -52 -122.5t-124 -51.5t-124.5 51.5t-52.5 122.5z" />
<glyph unicode="&#x10c;" horiz-adv-x="1622" d="M127 768q0 161 60 307t161 251t241 167.5t294 62.5q215 0 393.5 -113.5t275.5 -305.5l-284 -138q-55 111 -156.5 175.5t-228.5 64.5q-186 0 -312.5 -135t-126.5 -336t126.5 -336t312.5 -135q127 0 228.5 64.5t156.5 175.5l284 -138q-97 -191 -275.5 -305t-393.5 -114 q-154 0 -294 62.5t-241 167.5t-161 251t-60 307zM502 2066h229l154 -215l151 215h230l-219 -350h-328z" />
<glyph unicode="&#x10d;" horiz-adv-x="1165" d="M102 512q0 149 64 270t182.5 191.5t267.5 70.5q175 0 304 -92.5t176 -240.5l-293 -88q-18 65 -66.5 105t-118.5 40q-95 0 -147.5 -72t-52.5 -184t52.5 -184t147.5 -72q70 0 118.5 40t66.5 105l293 -100q-47 -147 -176.5 -234t-298.5 -87q-152 0 -271.5 70.5t-183.5 191.5 t-64 270zM238 1554h229l154 -215l151 215h229l-219 -350h-327z" />
<glyph unicode="&#x10e;" horiz-adv-x="1529" d="M166 0v1536h489q204 0 376 -103t272 -279.5t100 -385.5t-100 -385.5t-272 -279.5t-376 -103h-489zM274 2066h230l153 -215l152 215h229l-219 -350h-327zM492 285h163q178 0 301 140t123 343t-123 343t-301 140h-163v-966z" />
<glyph unicode="&#x10f;" horiz-adv-x="1433" d="M102 516q0 148 52 267.5t151.5 190t229.5 70.5q148 0 253 -100v641h316v-1585l-291 -2l-8 102q-104 -120 -266 -120q-193 0 -315 152.5t-122 383.5zM418 518q0 -116 52.5 -189t141.5 -73q86 0 139.5 74t53.5 182q0 106 -52 181t-143 75q-93 0 -142.5 -70.5t-49.5 -179.5z M1202 1456q0 63 44.5 106.5t107.5 43.5q79 0 120.5 -61.5t41.5 -155.5q0 -99 -33 -185.5t-99 -142.5t-153 -57v118q62 1 95.5 50t33.5 110q0 25 -8 25q-62 0 -106 43t-44 106z" />
<glyph unicode="&#x110;" horiz-adv-x="1529" d="M16 690v156h150v690h489q204 0 376 -103t272 -279.5t100 -385.5t-100 -385.5t-272 -279.5t-376 -103h-489v690h-150zM492 285h163q178 0 301 140t123 343t-123 343t-301 140h-163v-405h233v-156h-233v-405z" />
<glyph unicode="&#x111;" horiz-adv-x="1271" d="M102 516q0 148 52 267.5t151.5 190t229.5 70.5q148 0 253 -100v238h-249v155h249v248h316v-248h143v-155h-143v-1182l-291 -2l-8 102q-104 -120 -266 -120q-193 0 -315 152.5t-122 383.5zM418 518q0 -116 52.5 -189t141.5 -73q86 0 139.5 74t53.5 182q0 106 -52 181 t-143 75q-93 0 -142.5 -70.5t-49.5 -179.5z" />
<glyph unicode="&#x112;" horiz-adv-x="1169" d="M164 0v1536h889v-285h-564v-340h480v-286h-480v-340h564v-285h-889zM289 1704v199h635v-199h-635z" />
<glyph unicode="&#x113;" horiz-adv-x="1181" d="M102 508q0 235 140.5 387t380.5 152q220 0 347.5 -143t127.5 -388q0 -61 -4 -94h-672q11 -101 59 -153t146 -52q72 0 124 31.5t97 103.5l227 -102q-51 -125 -167.5 -197.5t-272.5 -72.5q-137 0 -241 40.5t-167 113t-94 166.5t-31 208zM305 1192v199h635v-199h-635z M428 618h367q-11 93 -53 139t-124 46q-157 0 -190 -185z" />
<glyph unicode="&#x116;" horiz-adv-x="1169" d="M164 0v1536h889v-285h-564v-340h480v-286h-480v-340h564v-285h-889zM432 1884q0 73 52 124.5t124 51.5t124 -51.5t52 -124.5q0 -71 -52 -122.5t-124 -51.5t-124 51.5t-52 122.5z" />
<glyph unicode="&#x117;" horiz-adv-x="1181" d="M102 508q0 235 140.5 387t380.5 152q220 0 347.5 -143t127.5 -388q0 -61 -4 -94h-672q11 -101 59 -153t146 -52q72 0 124 31.5t97 103.5l227 -102q-51 -125 -167.5 -197.5t-272.5 -72.5q-137 0 -241 40.5t-167 113t-94 166.5t-31 208zM428 618h367q-11 93 -53 139 t-124 46q-157 0 -190 -185zM446 1372q0 73 52.5 124.5t124.5 51.5t124 -51.5t52 -124.5q0 -71 -52 -122.5t-124 -51.5t-124.5 51.5t-52.5 122.5z" />
<glyph unicode="&#x118;" horiz-adv-x="1169" d="M164 0v1536h889v-285h-564v-340h480v-286h-480v-340h564v-285q-131 -68 -193.5 -128t-62.5 -134q0 -107 114 -107q89 0 156 74l76 -151q-123 -91 -285 -82q-123 6 -197.5 66.5t-74.5 174.5q0 185 205 287h-627z" />
<glyph unicode="&#x119;" horiz-adv-x="1181" d="M102 508q0 235 140.5 387t380.5 152q220 0 347.5 -143t127.5 -388q0 -61 -4 -94h-672q11 -101 59 -153t146 -52q72 0 124 31.5t97 103.5l227 -102q-35 -85 -101 -146.5t-155 -93.5q-76 -47 -113.5 -96t-37.5 -107q0 -106 114 -106q89 0 156 74l76 -152q-123 -91 -285 -82 q-123 6 -197.5 66.5t-74.5 175.5q0 116 84 203q-220 25 -329.5 166.5t-109.5 355.5zM428 618h367q-11 93 -53 139t-124 46q-157 0 -190 -185z" />
<glyph unicode="&#x11a;" horiz-adv-x="1169" d="M164 0v1536h889v-285h-564v-340h480v-286h-480v-340h564v-285h-889zM225 2066h230l153 -215l152 215h229l-219 -350h-328z" />
<glyph unicode="&#x11b;" horiz-adv-x="1181" d="M102 508q0 235 140.5 387t380.5 152q220 0 347.5 -143t127.5 -388q0 -61 -4 -94h-672q11 -101 59 -153t146 -52q72 0 124 31.5t97 103.5l227 -102q-51 -125 -167.5 -197.5t-272.5 -72.5q-137 0 -241 40.5t-167 113t-94 166.5t-31 208zM240 1554h229l154 -215l151 215h230 l-220 -350h-327zM428 618h367q-11 93 -53 139t-124 46q-157 0 -190 -185z" />
<glyph unicode="&#x11e;" horiz-adv-x="1687" d="M127 768q0 161 60 307t161 251t241 167.5t294 62.5q215 0 393.5 -113.5t275.5 -305.5l-284 -138q-55 111 -156.5 175.5t-228.5 64.5q-186 0 -312.5 -135t-126.5 -336t126.5 -336t312.5 -135q119 0 216.5 57.5t155.5 157.5v78h-292v276h589v-467q-97 -191 -275.5 -305 t-393.5 -114q-154 0 -294 62.5t-241 167.5t-161 251t-60 307zM563 2007h176q0 -71 44 -124.5t116 -53.5q73 0 117.5 53t44.5 125h176q0 -175 -90.5 -265.5t-247.5 -90.5q-154 0 -245 90.5t-91 265.5z" />
<glyph unicode="&#x11f;" horiz-adv-x="1087" d="M102 -145l99 139q-86 76 -86 205q0 124 90 217q-84 108 -84 241q0 169 125 278t305 109q71 0 135 -18l166 160l166 -187l-121 -108q82 -101 82 -234q0 -170 -124.5 -287.5t-303.5 -117.5q-86 0 -170 33q-19 -29 -19 -56q0 -39 33.5 -56t104.5 -17h196q158 0 246 -84 t88 -236q0 -169 -120 -257.5t-351 -88.5q-79 0 -142.5 9.5t-124 34.5t-101 65t-65 105t-24.5 151zM203 1495h176q0 -71 44 -124.5t116 -53.5q73 0 117 53t44 125h177q0 -175 -90.5 -265.5t-247.5 -90.5q-154 0 -245 90.5t-91 265.5zM362 -154q-1 -64 45.5 -90t149.5 -26 q87 0 133.5 24t46.5 70q0 40 -29.5 62t-82.5 22h-142q-45 0 -88 6zM418 653q0 -64 36 -103.5t95 -39.5q60 0 96.5 39t36.5 104q0 66 -36.5 106t-96.5 40q-59 0 -95 -40t-36 -106z" />
<glyph unicode="&#x120;" horiz-adv-x="1687" d="M127 768q0 161 60 307t161 251t241 167.5t294 62.5q215 0 393.5 -113.5t275.5 -305.5l-284 -138q-55 111 -156.5 175.5t-228.5 64.5q-186 0 -312.5 -135t-126.5 -336t126.5 -336t312.5 -135q119 0 216.5 57.5t155.5 157.5v78h-292v276h589v-467q-97 -191 -275.5 -305 t-393.5 -114q-154 0 -294 62.5t-241 167.5t-161 251t-60 307zM723 1884q0 73 52 124.5t124 51.5t124 -51.5t52 -124.5q0 -71 -52 -122.5t-124 -51.5t-124 51.5t-52 122.5z" />
<glyph unicode="&#x121;" horiz-adv-x="1087" d="M102 -145l99 139q-86 76 -86 205q0 124 90 217q-84 108 -84 241q0 169 125 278t305 109q71 0 135 -18l166 160l166 -187l-121 -108q82 -101 82 -234q0 -170 -124.5 -287.5t-303.5 -117.5q-86 0 -170 33q-19 -29 -19 -56q0 -39 33.5 -56t104.5 -17h196q158 0 246 -84 t88 -236q0 -169 -120 -257.5t-351 -88.5q-79 0 -142.5 9.5t-124 34.5t-101 65t-65 105t-24.5 151zM362 -154q-1 -64 45.5 -90t149.5 -26q87 0 133.5 24t46.5 70q0 40 -29.5 62t-82.5 22h-142q-45 0 -88 6zM365 1372q0 73 52 124.5t124 51.5t124 -51.5t52 -124.5 q0 -71 -52 -122.5t-124 -51.5t-124 51.5t-52 122.5zM418 653q0 -64 36 -103.5t95 -39.5q60 0 96.5 39t36.5 104q0 66 -36.5 106t-96.5 40q-59 0 -95 -40t-36 -106z" />
<glyph unicode="&#x122;" horiz-adv-x="1687" d="M127 768q0 161 60 307t161 251t241 167.5t294 62.5q215 0 393.5 -113.5t275.5 -305.5l-284 -138q-55 111 -156.5 175.5t-228.5 64.5q-186 0 -312.5 -135t-126.5 -336t126.5 -336t312.5 -135q119 0 216.5 57.5t155.5 157.5v78h-292v276h589v-467q-97 -191 -275.5 -305 t-393.5 -114q-154 0 -294 62.5t-241 167.5t-161 251t-60 307zM702 -260q0 77 49.5 127.5t125.5 50.5q77 0 126.5 -55.5t49.5 -141.5q0 -201 -90 -328.5t-230 -117.5v104q61 0 102.5 48.5t44 90t-5.5 48.5q-75 0 -123.5 49t-48.5 125z" />
<glyph unicode="&#x123;" horiz-adv-x="1087" d="M102 -145l99 139q-86 76 -86 205q0 124 90 217q-84 108 -84 241q0 169 125 278t305 109q71 0 135 -18l166 160l166 -187l-121 -108q82 -101 82 -234q0 -170 -124.5 -287.5t-303.5 -117.5q-86 0 -170 33q-19 -29 -19 -56q0 -39 33.5 -56t104.5 -17h196q158 0 246 -84 t88 -236q0 -169 -120 -257.5t-351 -88.5q-79 0 -142.5 9.5t-124 34.5t-101 65t-65 105t-24.5 151zM362 -154q-1 -64 45.5 -90t149.5 -26q87 0 133.5 24t46.5 70q0 40 -29.5 62t-82.5 22h-142q-45 0 -88 6zM365 1315q0 75 31.5 149.5t76.5 128t91.5 94.5t80.5 60t39 14v-102 q-7 0 -47.5 -47.5t-73.5 -94.5t-22 -47q74 0 125 -50.5t51 -123.5q0 -74 -51.5 -125t-124.5 -51q-74 0 -125 56.5t-51 138.5zM418 653q0 -64 36 -103.5t95 -39.5q60 0 96.5 39t36.5 104q0 66 -36.5 106t-96.5 40q-59 0 -95 -40t-36 -106z" />
<glyph unicode="&#x126;" horiz-adv-x="1490" d="M-20 1151v119h184v266h325v-266h512v266h326v-266h180v-119h-180v-1151h-326v625h-512v-625h-325v1151h-184zM489 911h512v240h-512v-240z" />
<glyph unicode="&#x127;" horiz-adv-x="1306" d="M39 1192v156h131v237h315v-237h263v-156h-263v-270q116 122 279 122q177 0 282 -107t105 -290v-647h-317v608q0 72 -44.5 116t-117.5 44q-78 0 -132.5 -51.5t-54.5 -126.5v-590h-315v1192h-131z" />
<glyph unicode="&#x128;" horiz-adv-x="651" d="M-16 1683q-32 137 29.5 227.5t176.5 90.5q129 0 209 -121q21 -35 52 -35q35 0 43 39.5t-15 100.5h185q32 -135 -27.5 -226.5t-179.5 -91.5q-125 0 -209 119q-13 20 -24 28.5t-27 8.5q-33 0 -42 -40t13 -100h-184zM164 0v1536h325v-1536h-325z" />
<glyph unicode="&#x129;" horiz-adv-x="698" d="M8 1171q-32 137 30 227.5t177 90.5q129 0 209 -121q21 -35 51 -35q35 0 43.5 39.5t-14.5 100.5h184q32 -135 -27.5 -226.5t-179.5 -91.5q-125 0 -209 119q-13 20 -24 28.5t-27 8.5q-33 0 -42 -40t14 -100h-185zM193 0v1024h315v-1024h-315z" />
<glyph unicode="&#x12a;" horiz-adv-x="651" d="M8 1704v199h635v-199h-635zM164 0v1536h325v-1536h-325z" />
<glyph unicode="&#x12b;" horiz-adv-x="698" d="M33 1192v199h635v-199h-635zM193 0v1024h315v-1024h-315z" />
<glyph unicode="&#x12e;" horiz-adv-x="651" d="M-4 -287q0 185 205 287h-37v1536h325v-1536h-26q-131 -68 -193.5 -128t-62.5 -134q0 -53 30 -80t85 -27q88 0 155 74l76 -151q-123 -91 -285 -82q-123 6 -197.5 66.5t-74.5 174.5z" />
<glyph unicode="&#x12f;" horiz-adv-x="698" d="M41 -287q0 185 205 287h-53v1024h315v-1024q-131 -68 -193.5 -128t-62.5 -134q0 -53 30 -80t85 -27q88 0 155 74l76 -151q-123 -91 -285 -82q-123 6 -197.5 66.5t-74.5 174.5zM174 1372q0 73 52 124.5t124 51.5t124 -51.5t52 -124.5q0 -71 -52 -122.5t-124 -51.5 t-124 51.5t-52 122.5z" />
<glyph unicode="&#x130;" horiz-adv-x="651" d="M150 1884q0 73 52 124.5t124 51.5t124 -51.5t52 -124.5q0 -71 -52 -122.5t-124 -51.5t-124 51.5t-52 122.5zM164 0v1536h325v-1536h-325z" />
<glyph unicode="&#x131;" horiz-adv-x="698" d="M193 0v1024h315v-1024h-315z" />
<glyph unicode="&#x132;" horiz-adv-x="1458" d="M164 0v1536h325v-1536h-325zM741 0v332q56 -27 121 -27q54 0 87.5 36t33.5 93v1102h326v-1165q0 -174 -100.5 -282.5t-262.5 -108.5q-123 0 -205 20z" />
<glyph unicode="&#x133;" horiz-adv-x="1271" d="M147 1372q0 73 50.5 124.5t119.5 51.5q71 0 121.5 -51.5t50.5 -124.5q0 -71 -51 -122.5t-121 -51.5q-69 0 -119.5 51.5t-50.5 122.5zM160 0v1024h315v-1024h-315zM596 -236q45 -38 98 -38q43 0 73 40.5t30 100.5v1157h315v-1178q0 -158 -109.5 -268t-267.5 -110 q-41 0 -80.5 9t-58.5 23v264zM782 1372q0 73 50.5 124.5t121.5 51.5q69 0 119.5 -51.5t50.5 -124.5q0 -71 -50.5 -122.5t-119.5 -51.5q-70 0 -121 51.5t-51 122.5z" />
<glyph unicode="&#x136;" horiz-adv-x="1468" d="M160 0v1536h325v-582l478 582h415l-592 -672l670 -864h-434l-537 729v-729h-325zM561 -260q0 77 49 127.5t125 50.5q77 0 126.5 -55.5t49.5 -141.5q0 -201 -89.5 -328.5t-229.5 -117.5v104q61 0 102.5 48.5t44 90t-5.5 48.5q-75 0 -123.5 49t-48.5 125z" />
<glyph unicode="&#x137;" horiz-adv-x="1212" d="M168 0v1585h315v-913l310 352h374l-432 -451l473 -573h-417l-308 446v-446h-315zM453 -260q0 77 49 127.5t125 50.5q77 0 126.5 -55.5t49.5 -141.5q0 -201 -90 -328.5t-230 -117.5v104q61 0 103 48.5t44 90t-5 48.5q-75 0 -123.5 49t-48.5 125z" />
<glyph unicode="&#x139;" horiz-adv-x="1017" d="M164 0v1536h325v-1251h439v-285h-764zM209 1702l170 346h315l-245 -346h-240z" />
<glyph unicode="&#x13a;" horiz-adv-x="653" d="M170 0v1585h315v-1585h-315zM211 1722l170 346h315l-245 -346h-240z" />
<glyph unicode="&#x13b;" horiz-adv-x="1017" d="M164 0v1536h325v-1251h439v-285h-764zM373 -260q0 77 49 127.5t125 50.5q77 0 126.5 -55.5t49.5 -141.5q0 -201 -90 -328.5t-230 -117.5v104q61 0 103 48.5t44 90t-5 48.5q-75 0 -123.5 49t-48.5 125z" />
<glyph unicode="&#x13c;" horiz-adv-x="653" d="M154 -260q0 77 49 127.5t125 50.5q77 0 126.5 -55.5t49.5 -141.5q0 -201 -90 -328.5t-230 -117.5v104q61 0 103 48.5t44 90t-5 48.5q-75 0 -123.5 49t-48.5 125zM170 0v1585h315v-1585h-315z" />
<glyph unicode="&#x13d;" horiz-adv-x="1017" d="M164 0v1536h325v-1251h439v-285h-764zM692 1405q0 64 45 107.5t109 43.5q81 0 122.5 -62.5t41.5 -158.5q0 -101 -33 -188.5t-100.5 -144.5t-155.5 -58v121q64 0 97.5 49t35.5 113q0 24 -10 24q-63 0 -107.5 45t-44.5 109z" />
<glyph unicode="&#x13e;" horiz-adv-x="860" d="M170 0v1585h315v-1585h-315zM600 1456q0 63 44.5 106.5t107.5 43.5q79 0 119 -61.5t40 -155.5q0 -100 -32 -186t-98 -142t-152 -57v118q62 1 95.5 50t33.5 110q0 25 -8 25q-62 0 -106 43t-44 106z" />
<glyph unicode="&#x140;" horiz-adv-x="653" d="M170 0v1585h315v-1585h-315zM545 737q0 53 38.5 91t90.5 38q51 0 90 -38.5t39 -90.5q0 -54 -38.5 -91.5t-90.5 -37.5q-53 0 -91 37t-38 92z" />
<glyph unicode="&#x141;" horiz-adv-x="1017" d="M16 510l148 174v852h325v-520l144 10l-144 -170v-571h439v-285h-764v520z" />
<glyph unicode="&#x142;" horiz-adv-x="653" d="M18 508l152 178v899h315v-571l150 10l-150 -178v-846h-315v518z" />
<glyph unicode="&#x143;" horiz-adv-x="1630" d="M168 0v1536h340l631 -995v995h325v-1536h-340l-630 1001v-1001h-326zM707 1702l170 346h315l-246 -346h-239z" />
<glyph unicode="&#x144;" horiz-adv-x="1306" d="M170 0v1024h315v-102q116 122 291 122q174 0 274.5 -100t100.5 -280v-664h-317v623q0 67 -38.5 106t-115.5 39q-91 0 -143 -52.5t-52 -125.5v-590h-315zM543 1190l170 346h315l-246 -346h-239z" />
<glyph unicode="&#x145;" horiz-adv-x="1630" d="M168 0v1536h340l631 -995v995h325v-1536h-340l-630 1001v-1001h-326zM635 -260q0 77 49 127.5t125 50.5q77 0 126.5 -55.5t49.5 -141.5q0 -201 -89.5 -328.5t-229.5 -117.5v104q61 0 102.5 48.5t44 90t-5.5 48.5q-75 0 -123.5 49t-48.5 125z" />
<glyph unicode="&#x146;" horiz-adv-x="1306" d="M170 0v1024h315v-102q116 122 291 122q174 0 274.5 -100t100.5 -280v-664h-317v623q0 67 -38.5 106t-115.5 39q-91 0 -143 -52.5t-52 -125.5v-590h-315zM487 -260q0 77 49.5 127.5t125.5 50.5q77 0 126.5 -55.5t49.5 -141.5q0 -201 -90 -328.5t-230 -117.5v104 q61 0 102.5 48.5t44 90t-5.5 48.5q-75 0 -123.5 49t-48.5 125z" />
<glyph unicode="&#x147;" horiz-adv-x="1630" d="M168 0v1536h340l631 -995v995h325v-1536h-340l-630 1001v-1001h-326zM442 2066h230l153 -215l152 215h229l-219 -350h-328z" />
<glyph unicode="&#x148;" horiz-adv-x="1306" d="M170 0v1024h315v-102q116 122 291 122q174 0 274.5 -100t100.5 -280v-664h-317v623q0 67 -38.5 106t-115.5 39q-91 0 -143 -52.5t-52 -125.5v-590h-315zM279 1554h229l154 -215l151 215h229l-219 -350h-327z" />
<glyph unicode="&#x14a;" horiz-adv-x="1619" d="M168 0v1536h330l639 -1004v1004h315v-1634q0 -103 -36 -179t-101.5 -120.5t-148.5 -65.5t-187 -22v209q36 0 58.5 5t45 21.5t33 54t10.5 97.5v104l-643 1000v-1006h-315z" />
<glyph unicode="&#x14b;" horiz-adv-x="1366" d="M190 0v1024h316v-109q119 129 287 129q169 0 286 -121t117 -294v-748q0 -103 -37 -179t-105 -120.5t-153.5 -65.5t-191.5 -22v209q40 0 65 5t52 21.5t40 54t13 97.5v709q0 75 -51 126.5t-123 51.5q-85 0 -142 -51.5t-57 -126.5v-590h-316z" />
<glyph unicode="&#x14c;" horiz-adv-x="1767" d="M127 768q0 161 60 307t161 251t241 167.5t294 62.5q207 0 381 -105.5t275 -286.5t101 -396t-101 -396t-275 -286.5t-381 -105.5q-154 0 -294 62.5t-241 167.5t-161 251t-60 307zM444 768q0 -201 126.5 -336t312.5 -135q188 0 314 135t126 336t-126 336t-314 135 q-186 0 -312.5 -135t-126.5 -336zM565 1704v199h635v-199h-635z" />
<glyph unicode="&#x14d;" horiz-adv-x="1241" d="M102 512q0 149 64 270t183.5 191.5t271.5 70.5t271 -70.5t183 -191.5t64 -270t-64 -270t-183 -191.5t-271 -70.5t-271.5 70.5t-183.5 191.5t-64 270zM301 1192v199h635v-199h-635zM418 512q0 -112 53.5 -184t149.5 -72t149 72t53 184t-53 184t-149 72t-149.5 -72 t-53.5 -184z" />
<glyph unicode="&#x150;" horiz-adv-x="1767" d="M127 768q0 161 60 307t161 251t241 167.5t294 62.5q207 0 381 -105.5t275 -286.5t101 -396t-101 -396t-275 -286.5t-381 -105.5q-154 0 -294 62.5t-241 167.5t-161 251t-60 307zM444 768q0 -201 126.5 -336t312.5 -135q188 0 314 135t126 336t-126 336t-314 135 q-186 0 -312.5 -135t-126.5 -336zM555 1681l285 367h295l-363 -367h-217zM993 1681l283 367h297l-363 -367h-217z" />
<glyph unicode="&#x151;" horiz-adv-x="1241" d="M102 512q0 149 64 270t183.5 191.5t271.5 70.5t271 -70.5t183 -191.5t64 -270t-64 -270t-183 -191.5t-271 -70.5t-271.5 70.5t-183.5 191.5t-64 270zM291 1169l284 367h295l-362 -367h-217zM418 512q0 -112 53.5 -184t149.5 -72t149 72t53 184t-53 184t-149 72 t-149.5 -72t-53.5 -184zM729 1169l283 367h297l-363 -367h-217z" />
<glyph unicode="&#x152;" horiz-adv-x="2326" d="M127 768q0 214 101 395.5t274.5 287t378.5 105.5q139 0 265.5 -49.5t227.5 -140.5v170h834v-274h-570v-355h486v-278h-486v-353h570v-276h-834v170q-101 -91 -227.5 -140.5t-265.5 -49.5q-205 0 -378.5 105.5t-274.5 287t-101 395.5zM442 768q0 -198 127.5 -335.5 t313.5 -137.5q184 0 312 137.5t128 335.5t-128 335.5t-312 137.5q-186 0 -313.5 -137.5t-127.5 -335.5z" />
<glyph unicode="&#x153;" horiz-adv-x="1959" d="M102 512q0 110 42.5 209t115 169.5t173.5 112t214 41.5q221 0 379 -145q142 148 375 148q220 0 347.5 -143t127.5 -388q0 -61 -4 -94h-672q11 -101 59 -153t146 -52q72 0 124 31.5t97 103.5l227 -102q-51 -125 -167.5 -197.5t-272.5 -72.5q-254 0 -393 139 q-158 -139 -373 -139q-113 0 -214 41.5t-173.5 112t-115 169.5t-42.5 209zM418 512q0 -107 67 -181.5t162 -74.5q96 0 164 74.5t68 181.5t-68 181.5t-164 74.5q-95 0 -162 -74.5t-67 -181.5zM1204 618h369q-11 93 -53 139t-123 46q-160 0 -193 -185z" />
<glyph unicode="&#x154;" horiz-adv-x="1370" d="M172 0v1536h606q177 0 299.5 -134.5t122.5 -328.5q0 -149 -77 -258.5t-203 -146.5l380 -668h-366l-342 647h-94v-647h-326zM498 897h264q61 0 102 51.5t41 126.5t-41 125.5t-102 50.5h-264v-354zM561 1702l170 346h316l-246 -346h-240z" />
<glyph unicode="&#x155;" horiz-adv-x="886" d="M170 0v1024h301l8 -145q45 78 109.5 121.5t140.5 43.5q68 0 98 -20l-24 -268q-40 12 -86 12q-103 0 -167.5 -71t-64.5 -193v-504h-315zM383 1190l170 346h315l-245 -346h-240z" />
<glyph unicode="&#x156;" horiz-adv-x="1370" d="M172 0v1536h606q177 0 299.5 -134.5t122.5 -328.5q0 -149 -77 -258.5t-203 -146.5l380 -668h-366l-342 647h-94v-647h-326zM498 897h264q61 0 102 51.5t41 126.5t-41 125.5t-102 50.5h-264v-354zM506 -260q0 77 49 127.5t125 50.5q77 0 126.5 -55.5t49.5 -141.5 q0 -201 -89.5 -328.5t-229.5 -117.5v104q61 0 102.5 48.5t44 90t-5.5 48.5q-75 0 -123.5 49t-48.5 125z" />
<glyph unicode="&#x157;" horiz-adv-x="886" d="M154 -260q0 77 49 127.5t125 50.5q77 0 126.5 -55.5t49.5 -141.5q0 -201 -90 -328.5t-230 -117.5v104q61 0 103 48.5t44 90t-5 48.5q-75 0 -123.5 49t-48.5 125zM170 0v1024h301l8 -145q45 78 109.5 121.5t140.5 43.5q68 0 98 -20l-24 -268q-40 12 -86 12 q-103 0 -167.5 -71t-64.5 -193v-504h-315z" />
<glyph unicode="&#x158;" horiz-adv-x="1370" d="M172 0v1536h606q177 0 299.5 -134.5t122.5 -328.5q0 -149 -77 -258.5t-203 -146.5l380 -668h-366l-342 647h-94v-647h-326zM297 2066h229l154 -215l151 215h230l-219 -350h-328zM498 897h264q61 0 102 51.5t41 126.5t-41 125.5t-102 50.5h-264v-354z" />
<glyph unicode="&#x159;" horiz-adv-x="886" d="M117 1554h229l154 -215l151 215h230l-219 -350h-328zM170 0v1024h301l8 -145q45 78 109.5 121.5t140.5 43.5q68 0 98 -20l-24 -268q-40 12 -86 12q-103 0 -167.5 -71t-64.5 -193v-504h-315z" />
<glyph unicode="&#x15a;" horiz-adv-x="1175" d="M72 317l256 162q36 -91 106 -148t150 -57q75 0 124.5 46t49.5 122q0 58 -35 100t-90.5 68.5t-123 51.5t-134.5 58.5t-122.5 79t-90.5 124t-35 182.5q0 137 63 241t165.5 156.5t226.5 52.5q121 0 243.5 -60.5t196.5 -154.5l-227 -192q-35 60 -90.5 97.5t-110.5 37.5 q-62 0 -103.5 -42.5t-41.5 -115.5q0 -42 21.5 -74t58.5 -54.5t84.5 -42.5t100 -41t105 -46t100 -63t84.5 -85.5t58.5 -119t21.5 -160.5q0 -210 -140.5 -335t-348.5 -125q-174 0 -318 95.5t-204 241.5zM442 1702l170 346h316l-246 -346h-240z" />
<glyph unicode="&#x15b;" horiz-adv-x="944" d="M78 113l139 227q54 -45 121.5 -81t110.5 -40q45 -5 71.5 14.5t26.5 57.5q0 32 -23.5 55.5t-60.5 39.5t-82 31.5t-90 38t-82 53t-60.5 82t-23.5 118.5q0 157 101.5 246t281.5 89q77 0 166 -29t172 -81l-125 -203q-85 72 -191 88q-43 5 -69.5 -12t-26.5 -53q0 -29 23 -50.5 t59.5 -36.5t81 -31t89 -40t81 -57t59.5 -88.5t23 -128.5q0 -160 -101.5 -251t-283.5 -91q-101 0 -208.5 35.5t-178.5 97.5zM342 1190l170 346h315l-245 -346h-240z" />
<glyph unicode="&#x15e;" horiz-adv-x="1175" d="M72 317l256 162q36 -91 106 -148t150 -57q75 0 124.5 46t49.5 122q0 58 -35 100t-90.5 68.5t-123 51.5t-134.5 58.5t-122.5 79t-90.5 124t-35 182.5q0 137 63 241t165.5 156.5t226.5 52.5q121 0 243.5 -60.5t196.5 -154.5l-227 -192q-35 60 -90.5 97.5t-110.5 37.5 q-62 0 -103.5 -42.5t-41.5 -115.5q0 -42 21.5 -74t58.5 -54.5t84.5 -42.5t100 -41t105 -46t100 -63t84.5 -85.5t58.5 -119t21.5 -160.5q0 -201 -130.5 -325t-327.5 -135l-58 -99q100 17 169 -38t69 -150q0 -94 -65 -159.5t-160 -65.5q-77 0 -147 45.5t-93 109.5l135 45 q15 -25 45.5 -42t59.5 -17q35 0 59.5 24.5t24.5 59.5q0 56 -48 71.5t-116 -18.5l-111 66l96 178q-140 28 -251.5 117t-161.5 210z" />
<glyph unicode="&#x15f;" horiz-adv-x="944" d="M78 113l139 227q54 -45 121.5 -81t110.5 -40q45 -5 71.5 14.5t26.5 57.5q0 32 -23.5 55.5t-60.5 39.5t-82 31.5t-90 38t-82 53t-60.5 82t-23.5 118.5q0 157 101.5 246t281.5 89q77 0 166 -29t172 -81l-125 -203q-85 72 -191 88q-43 5 -69.5 -12t-26.5 -53q0 -29 23 -50.5 t59.5 -36.5t81 -31t89 -40t81 -57t59.5 -88.5t23 -128.5q0 -136 -75.5 -223.5t-213.5 -110.5l-61 -107q99 17 168 -37.5t69 -150.5q0 -94 -65 -159.5t-160 -65.5q-77 0 -147 45.5t-93 109.5l136 45q15 -25 45 -42t59 -17q35 0 59.5 24.5t24.5 59.5q0 56 -48 71.5t-116 -18.5 l-110 66l92 170q-92 8 -183.5 42.5t-152.5 88.5z" />
<glyph unicode="&#x160;" horiz-adv-x="1175" d="M72 317l256 162q36 -91 106 -148t150 -57q75 0 124.5 46t49.5 122q0 58 -35 100t-90.5 68.5t-123 51.5t-134.5 58.5t-122.5 79t-90.5 124t-35 182.5q0 137 63 241t165.5 156.5t226.5 52.5q121 0 243.5 -60.5t196.5 -154.5l-227 -192q-35 60 -90.5 97.5t-110.5 37.5 q-62 0 -103.5 -42.5t-41.5 -115.5q0 -42 21.5 -74t58.5 -54.5t84.5 -42.5t100 -41t105 -46t100 -63t84.5 -85.5t58.5 -119t21.5 -160.5q0 -210 -140.5 -335t-348.5 -125q-174 0 -318 95.5t-204 241.5zM178 2066h230l153 -215l152 215h229l-219 -350h-328z" />
<glyph unicode="&#x161;" horiz-adv-x="944" d="M76 1554h229l154 -215l151 215h230l-219 -350h-328zM78 113l139 227q54 -45 121.5 -81t110.5 -40q45 -5 71.5 14.5t26.5 57.5q0 32 -23.5 55.5t-60.5 39.5t-82 31.5t-90 38t-82 53t-60.5 82t-23.5 118.5q0 157 101.5 246t281.5 89q77 0 166 -29t172 -81l-125 -203 q-85 72 -191 88q-43 5 -69.5 -12t-26.5 -53q0 -29 23 -50.5t59.5 -36.5t81 -31t89 -40t81 -57t59.5 -88.5t23 -128.5q0 -160 -101.5 -251t-283.5 -91q-101 0 -208.5 35.5t-178.5 97.5z" />
<glyph unicode="&#x162;" horiz-adv-x="1144" d="M74 1251v285h995v-285h-334v-1251h-90l-70 -119q100 17 169 -38t69 -150q0 -94 -65 -159.5t-160 -65.5q-77 0 -147 45.5t-93 109.5l135 45q15 -25 45.5 -42t59.5 -17q35 0 59.5 24.5t24.5 59.5q0 56 -48 71.5t-116 -18.5l-111 66l103 188h-88v1251h-338z" />
<glyph unicode="&#x163;" horiz-adv-x="772" d="M66 786v238h161v328h316v-328h164v-238h-164v-786h-84l-70 -119q100 17 169 -38t69 -150q0 -94 -65.5 -159.5t-160.5 -65.5q-76 0 -146 45t-93 110l135 45q15 -25 45 -42t59 -17q35 0 59.5 24.5t24.5 59.5q0 56 -47.5 71.5t-115.5 -18.5l-111 66l102 188h-86v786h-161z " />
<glyph unicode="&#x164;" horiz-adv-x="1144" d="M74 1251v285h995v-285h-334v-1251h-323v1251h-338zM190 2066h230l153 -215l152 215h229l-219 -350h-327z" />
<glyph unicode="&#x165;" horiz-adv-x="796" d="M66 786v238h161v328h316v-328h164v-238h-164v-786h-316v786h-161zM608 1456q0 68 40 107t97 39q72 0 110 -57t38 -144q0 -119 -70 -197t-190 -78v99q62 2 90.5 23t28.5 65q0 20 -9 22q-29 4 -45.5 8.5t-41 16.5t-36.5 36t-12 60z" />
<glyph unicode="&#x166;" horiz-adv-x="1144" d="M74 1251v285h995v-285h-334v-405h191v-156h-191v-690h-323v690h-195v156h195v405h-338z" />
<glyph unicode="&#x167;" horiz-adv-x="772" d="M31 434v156h196v196h-161v238h161v328h316v-328h164v-238h-164v-196h196v-156h-196v-434h-316v434h-196z" />
<glyph unicode="&#x168;" horiz-adv-x="1456" d="M156 494v1042h325v-983q0 -120 71.5 -204.5t174.5 -84.5q104 0 176 84.5t72 204.5v983h325v-1042q0 -142 -75 -260t-207 -186t-291 -68q-118 0 -223.5 40t-182 108.5t-121 163.5t-44.5 202zM387 1683q-30 137 31 227.5t176 90.5q129 0 209 -121q21 -35 51 -35 q35 0 43.5 39.5t-14.5 100.5h184q32 -135 -27.5 -226.5t-179.5 -91.5q-125 0 -209 119q-13 20 -24 28.5t-27 8.5q-33 0 -42 -40t13 -100h-184z" />
<glyph unicode="&#x16a;" horiz-adv-x="1456" d="M156 494v1042h325v-983q0 -120 71.5 -204.5t174.5 -84.5q104 0 176 84.5t72 204.5v983h325v-1042q0 -142 -75 -260t-207 -186t-291 -68q-118 0 -223.5 40t-182 108.5t-121 163.5t-44.5 202zM410 1704v199h634v-199h-634z" />
<glyph unicode="&#x16b;" horiz-adv-x="1312" d="M162 381v643h317v-604q0 -75 41.5 -119.5t110.5 -44.5q79 0 138.5 52t59.5 126v590h316v-1024h-316v111q-121 -131 -290 -131q-163 0 -270 113.5t-107 287.5zM336 1192v199h635v-199h-635z" />
<glyph unicode="&#x16e;" horiz-adv-x="1456" d="M156 494v1042h325v-983q0 -120 71.5 -204.5t174.5 -84.5q104 0 176 84.5t72 204.5v983h325v-1042q0 -142 -75 -260t-207 -186t-291 -68q-118 0 -223.5 40t-182 108.5t-121 163.5t-44.5 202zM481 1866q0 100 72.5 171.5t173.5 71.5q100 0 171 -71.5t71 -171.5 q0 -101 -71 -173.5t-171 -72.5q-101 0 -173.5 72.5t-72.5 173.5zM612 1866q0 -52 32.5 -85.5t82.5 -33.5t83.5 33.5t33.5 85.5q0 47 -34.5 83t-82.5 36t-81.5 -36t-33.5 -83z" />
<glyph unicode="&#x16f;" horiz-adv-x="1312" d="M162 381v643h317v-604q0 -75 41.5 -119.5t110.5 -44.5q79 0 138.5 52t59.5 126v590h316v-1024h-316v111q-121 -131 -290 -131q-163 0 -270 113.5t-107 287.5zM408 1354q0 100 72 171.5t173 71.5q100 0 171 -71.5t71 -171.5q0 -101 -71 -173.5t-171 -72.5 q-101 0 -173 72.5t-72 173.5zM539 1354q0 -52 32 -85.5t82 -33.5t83.5 33.5t33.5 85.5q0 47 -34.5 83t-82.5 36t-81 -36t-33 -83z" />
<glyph unicode="&#x170;" horiz-adv-x="1456" d="M156 494v1042h325v-983q0 -120 71.5 -204.5t174.5 -84.5q104 0 176 84.5t72 204.5v983h325v-1042q0 -142 -75 -260t-207 -186t-291 -68q-118 0 -223.5 40t-182 108.5t-121 163.5t-44.5 202zM399 1681l285 367h295l-363 -367h-217zM838 1681l282 367h297l-362 -367h-217z " />
<glyph unicode="&#x171;" horiz-adv-x="1312" d="M162 381v643h317v-604q0 -75 41.5 -119.5t110.5 -44.5q79 0 138.5 52t59.5 126v590h316v-1024h-316v111q-121 -131 -290 -131q-163 0 -270 113.5t-107 287.5zM324 1169l284 367h295l-362 -367h-217zM762 1169l282 367h297l-362 -367h-217z" />
<glyph unicode="&#x172;" horiz-adv-x="1456" d="M156 494v1042h325v-983q0 -120 71.5 -204.5t174.5 -84.5q104 0 176 84.5t72 204.5v983h325v-1042q0 -150 -83.5 -271.5t-223.5 -185.5q-130 -68 -192 -128t-62 -134q0 -53 30 -80t85 -27q89 0 156 74l75 -152q-123 -91 -284 -82q-123 6 -198 66.5t-75 175.5 q0 138 119 234q-212 26 -351.5 169.5t-139.5 340.5z" />
<glyph unicode="&#x173;" horiz-adv-x="1312" d="M162 381v643h317v-604q0 -75 41.5 -119.5t110.5 -44.5q79 0 138.5 52t59.5 126v590h316v-1024q-131 -68 -193.5 -128t-62.5 -134q0 -53 30 -80t85 -27q88 0 155 74l76 -151q-123 -91 -285 -82q-123 6 -197.5 66.5t-74.5 174.5q0 185 205 287h-54v111q-121 -131 -290 -131 q-163 0 -270 113.5t-107 287.5z" />
<glyph unicode="&#x174;" horiz-adv-x="2134" d="M10 1536h344l285 -1133l270 1133h279h35l274 -1135l285 1135h342l-426 -1536h-371l-260 1047l-258 -1047h-371zM653 1698l217 350h328l219 -350h-239l-142 215l-143 -215h-240z" />
<glyph unicode="&#x175;" horiz-adv-x="1675" d="M41 1024h358l140 -655l178 655h241l183 -657l139 657h354l-309 -1024h-332l-155 541l-156 -541h-330zM457 1186l217 350h327l220 -350h-240l-141 215l-144 -215h-239z" />
<glyph unicode="&#x176;" horiz-adv-x="1345" d="M35 1536h364l275 -504l278 504h359l-471 -793v-743h-328v735zM295 1698l217 350h328l219 -350h-240l-141 215l-143 -215h-240z" />
<glyph unicode="&#x177;" horiz-adv-x="1144" d="M43 1024h334l198 -651l197 651h332l-541 -1536h-321l176 494zM190 1186l218 350h327l219 -350h-239l-142 215l-143 -215h-240z" />
<glyph unicode="&#x178;" horiz-adv-x="1345" d="M35 1536h364l275 -504l278 504h359l-471 -793v-743h-328v735zM272 1884q0 73 52.5 124.5t124.5 51.5t124 -51.5t52 -124.5q0 -71 -52 -122.5t-124 -51.5t-124.5 51.5t-52.5 122.5zM729 1884q0 73 52 124.5t124 51.5t123 -51.5t51 -124.5q0 -71 -51 -122.5t-123 -51.5 t-124 51.5t-52 122.5z" />
<glyph unicode="&#x179;" horiz-adv-x="1232" d="M94 0v176l629 1075h-610v285h1026v-176l-625 -1075h619v-285h-1039zM530 1702l170 346h316l-246 -346h-240z" />
<glyph unicode="&#x17a;" horiz-adv-x="983" d="M102 766v258h797v-229l-403 -537h401v-258h-793v233l402 533h-404zM412 1190l170 346h315l-246 -346h-239z" />
<glyph unicode="&#x17b;" horiz-adv-x="1232" d="M94 0v176l629 1075h-610v285h1026v-176l-625 -1075h619v-285h-1039zM471 1884q0 73 52 124.5t124 51.5t124 -51.5t52 -124.5q0 -71 -52 -122.5t-124 -51.5t-124 51.5t-52 122.5z" />
<glyph unicode="&#x17c;" horiz-adv-x="983" d="M102 766v258h797v-229l-403 -537h401v-258h-793v233l402 533h-404zM354 1372q0 73 52 124.5t124 51.5t124.5 -51.5t52.5 -124.5q0 -71 -52.5 -122.5t-124.5 -51.5t-124 51.5t-52 122.5z" />
<glyph unicode="&#x17d;" horiz-adv-x="1232" d="M94 0v176l629 1075h-610v285h1026v-176l-625 -1075h619v-285h-1039zM266 2066h230l153 -215l152 215h229l-219 -350h-328z" />
<glyph unicode="&#x17e;" horiz-adv-x="983" d="M102 766v258h797v-229l-403 -537h401v-258h-793v233l402 533h-404zM147 1554h230l153 -215l152 215h229l-219 -350h-327z" />
<glyph unicode="&#x192;" horiz-adv-x="1001" d="M123 -512l180 1298h-153l36 238h150l22 164q21 157 141 262.5t269 105.5q48 0 91 -11.5t59 -26.5l-27 -215q-30 30 -90 30q-68 0 -112 -49.5t-56 -138.5l-17 -121h242l-37 -238h-237l-181 -1298h-280z" />
<glyph unicode="&#x1cd;" horiz-adv-x="1486" d="M16 0l545 1536h367l542 -1536h-354l-88 287h-569l-88 -287h-355zM362 2066h230l153 -215l152 215h229l-219 -350h-327zM543 555h401l-201 645z" />
<glyph unicode="&#x1ce;" horiz-adv-x="1161" d="M123 295q0 96 38.5 172t115.5 116.5t178 24.5l245 -39v86q0 75 -34.5 118.5t-98.5 43.5q-56 0 -91.5 -33.5t-35.5 -91.5h-288q2 163 117.5 257.5t314.5 94.5q203 0 318.5 -100.5t115.5 -275.5v-668h-258l-27 102q-128 -122 -287 -122q-148 0 -235.5 84t-87.5 231z M209 1554h229l154 -215l151 215h230l-219 -350h-328zM434 311q0 -52 33 -82t86 -30q84 0 147 71v127l-133 31q-58 13 -95.5 -23.5t-37.5 -93.5z" />
<glyph unicode="&#x1cf;" horiz-adv-x="651" d="M-57 2066h229l154 -215l151 215h230l-220 -350h-327zM164 0v1536h325v-1536h-325z" />
<glyph unicode="&#x1d0;" horiz-adv-x="698" d="M-33 1554h230l153 -215l152 215h229l-219 -350h-328zM193 0v1024h315v-1024h-315z" />
<glyph unicode="&#x1d1;" horiz-adv-x="1767" d="M127 768q0 161 60 307t161 251t241 167.5t294 62.5q207 0 381 -105.5t275 -286.5t101 -396t-101 -396t-275 -286.5t-381 -105.5q-154 0 -294 62.5t-241 167.5t-161 251t-60 307zM444 768q0 -201 126.5 -336t312.5 -135q188 0 314 135t126 336t-126 336t-314 135 q-186 0 -312.5 -135t-126.5 -336zM502 2066h229l154 -215l151 215h230l-219 -350h-328z" />
<glyph unicode="&#x1d2;" horiz-adv-x="1241" d="M102 512q0 149 64 270t183.5 191.5t271.5 70.5t271 -70.5t183 -191.5t64 -270t-64 -270t-183 -191.5t-271 -70.5t-271.5 70.5t-183.5 191.5t-64 270zM238 1554h229l154 -215l151 215h229l-219 -350h-327zM418 512q0 -112 53.5 -184t149.5 -72t149 72t53 184t-53 184 t-149 72t-149.5 -72t-53.5 -184z" />
<glyph unicode="&#x1d3;" horiz-adv-x="1456" d="M156 494v1042h325v-983q0 -120 71.5 -204.5t174.5 -84.5q104 0 176 84.5t72 204.5v983h325v-1042q0 -142 -75 -260t-207 -186t-291 -68q-118 0 -223.5 40t-182 108.5t-121 163.5t-44.5 202zM346 2066h229l154 -215l152 215h229l-219 -350h-328z" />
<glyph unicode="&#x1d4;" horiz-adv-x="1312" d="M162 381v643h317v-604q0 -75 41.5 -119.5t110.5 -44.5q79 0 138.5 52t59.5 126v590h316v-1024h-316v111q-121 -131 -290 -131q-163 0 -270 113.5t-107 287.5zM270 1554h230l153 -215l152 215h229l-219 -350h-328z" />
<glyph unicode="&#x1e6;" horiz-adv-x="1687" d="M127 768q0 161 60 307t161 251t241 167.5t294 62.5q215 0 393.5 -113.5t275.5 -305.5l-284 -138q-55 111 -156.5 175.5t-228.5 64.5q-186 0 -312.5 -135t-126.5 -336t126.5 -336t312.5 -135q119 0 216.5 57.5t155.5 157.5v78h-292v276h589v-467q-97 -191 -275.5 -305 t-393.5 -114q-154 0 -294 62.5t-241 167.5t-161 251t-60 307zM516 2066h229l154 -215l152 215h229l-219 -350h-328z" />
<glyph unicode="&#x1e7;" horiz-adv-x="1087" d="M102 -145l99 139q-86 76 -86 205q0 124 90 217q-84 108 -84 241q0 169 125 278t305 109q71 0 135 -18l166 160l166 -187l-121 -108q82 -101 82 -234q0 -170 -124.5 -287.5t-303.5 -117.5q-86 0 -170 33q-19 -29 -19 -56q0 -39 33.5 -56t104.5 -17h196q158 0 246 -84 t88 -236q0 -169 -120 -257.5t-351 -88.5q-79 0 -142.5 9.5t-124 34.5t-101 65t-65 105t-24.5 151zM158 1554h229l154 -215l151 215h230l-220 -350h-327zM362 -154q-1 -64 45.5 -90t149.5 -26q87 0 133.5 24t46.5 70q0 40 -29.5 62t-82.5 22h-142q-45 0 -88 6zM418 653 q0 -64 36 -103.5t95 -39.5q60 0 96.5 39t36.5 104q0 66 -36.5 106t-96.5 40q-59 0 -95 -40t-36 -106z" />
<glyph unicode="&#x1fe;" horiz-adv-x="1767" d="M127 768q0 161 60 307t161 251t241 167.5t294 62.5q186 0 350 -90l92 142h209l-158 -242q124 -109 194 -265t70 -333q0 -215 -101 -396t-275 -286.5t-381 -105.5q-187 0 -351 90l-92 -142h-209l158 242q-124 111 -193 266t-69 332zM444 768q0 -195 119 -330l498 764 q-78 37 -178 37q-186 0 -312.5 -135t-126.5 -336zM705 334q78 -37 178 -37q188 0 314 135t126 336q0 196 -121 330zM766 1702l170 346h315l-245 -346h-240z" />
<glyph unicode="&#x1ff;" horiz-adv-x="1241" d="M102 512q0 149 64 270t183.5 191.5t271.5 70.5q133 0 239 -53l68 105h143l-110 -172q85 -72 131.5 -179t46.5 -233q0 -149 -64 -270t-183 -191.5t-271 -70.5q-134 0 -240 53l-68 -103h-145l111 170q-84 73 -130.5 180t-46.5 232zM418 512q0 -86 31 -150l253 390 q-40 16 -81 16q-96 0 -149.5 -72t-53.5 -184zM502 1190l170 346h315l-246 -346h-239zM537 272q40 -16 84 -16q96 0 149 72t53 184q0 83 -32 152z" />
<glyph unicode="&#x218;" horiz-adv-x="1175" d="M72 317l256 162q36 -91 106 -148t150 -57q75 0 124.5 46t49.5 122q0 58 -35 100t-90.5 68.5t-123 51.5t-134.5 58.5t-122.5 79t-90.5 124t-35 182.5q0 137 63 241t165.5 156.5t226.5 52.5q121 0 243.5 -60.5t196.5 -154.5l-227 -192q-35 60 -90.5 97.5t-110.5 37.5 q-62 0 -103.5 -42.5t-41.5 -115.5q0 -42 21.5 -74t58.5 -54.5t84.5 -42.5t100 -41t105 -46t100 -63t84.5 -85.5t58.5 -119t21.5 -160.5q0 -210 -140.5 -335t-348.5 -125q-174 0 -318 95.5t-204 241.5zM391 -260q0 77 49 127.5t125 50.5q77 0 126.5 -55.5t49.5 -141.5 q0 -201 -89.5 -328.5t-229.5 -117.5v104q61 0 102.5 48.5t44 90t-5.5 48.5q-75 0 -123.5 49t-48.5 125z" />
<glyph unicode="&#x219;" horiz-adv-x="944" d="M78 113l139 227q54 -45 121.5 -81t110.5 -40q45 -5 71.5 14.5t26.5 57.5q0 32 -23.5 55.5t-60.5 39.5t-82 31.5t-90 38t-82 53t-60.5 82t-23.5 118.5q0 157 101.5 246t281.5 89q77 0 166 -29t172 -81l-125 -203q-85 72 -191 88q-43 5 -69.5 -12t-26.5 -53q0 -29 23 -50.5 t59.5 -36.5t81 -31t89 -40t81 -57t59.5 -88.5t23 -128.5q0 -160 -101.5 -251t-283.5 -91q-101 0 -208.5 35.5t-178.5 97.5zM324 -260q0 77 49 127.5t125 50.5q77 0 126.5 -55.5t49.5 -141.5q0 -201 -90 -328.5t-230 -117.5v104q61 0 103 48.5t44 90t-5 48.5q-75 0 -123.5 49 t-48.5 125z" />
<glyph unicode="&#x21a;" horiz-adv-x="1144" d="M74 1251v285h995v-285h-334v-1251h-323v1251h-338zM399 -260q0 77 49 127.5t125 50.5q77 0 127 -55.5t50 -141.5q0 -201 -90 -328.5t-230 -117.5v104q61 0 102.5 48.5t44 90t-5.5 48.5q-75 0 -123.5 49t-48.5 125z" />
<glyph unicode="&#x21b;" horiz-adv-x="772" d="M66 786v238h161v328h316v-328h164v-238h-164v-786h-316v786h-161zM213 -260q0 77 49 127.5t125 50.5q77 0 126.5 -55.5t49.5 -141.5q0 -201 -89.5 -328.5t-229.5 -117.5v104q61 0 102.5 48.5t44 90t-5.5 48.5q-75 0 -123.5 49t-48.5 125z" />
<glyph unicode="&#x228;" horiz-adv-x="1169" d="M164 0v1536h889v-285h-564v-340h480v-286h-480v-340h564v-285h-373l-70 -119q100 17 169 -38t69 -150q0 -94 -65 -159.5t-160 -65.5q-77 0 -147 45.5t-93 109.5l135 45q15 -25 45.5 -42t59.5 -17q35 0 59.5 24.5t24.5 59.5q0 56 -48.5 71.5t-115.5 -18.5l-111 66l103 188 h-371z" />
<glyph unicode="&#x229;" horiz-adv-x="1181" d="M102 508q0 235 140.5 387t380.5 152q220 0 347.5 -143t127.5 -388q0 -61 -4 -94h-672q11 -101 59 -153t146 -52q72 0 124 31.5t97 103.5l227 -102q-46 -111 -145 -182t-230 -84l-61 -105q100 17 169 -38t69 -150q0 -94 -65.5 -160t-160.5 -66q-76 0 -146 45.5t-93 110.5 l135 45q15 -25 45 -42t59 -17q35 0 59.5 24.5t24.5 59.5q0 56 -48.5 71.5t-115.5 -18.5l-110 66l94 174q-116 11 -204 56t-142 115.5t-80.5 159t-26.5 193.5zM428 618h367q-11 93 -53 139t-124 46q-157 0 -190 -185z" />
<glyph unicode="&#x237;" horiz-adv-x="720" d="M-33 -236q21 -17 53.5 -27.5t59.5 -10.5q53 0 89 40.5t36 100.5v1157h315v-1178q0 -158 -117 -268t-284 -110q-43 0 -87.5 9.5t-64.5 22.5v264z" />
<glyph unicode="&#x2c6;" horiz-adv-x="137" d="M72 1186l217 350h327l220 -350h-240l-141 215l-144 -215h-239z" />
<glyph unicode="&#x2c7;" horiz-adv-x="137" d="M72 1554h229l154 -215l151 215h230l-220 -350h-327z" />
<glyph unicode="&#x2d8;" horiz-adv-x="137" d="M264 1495h176q0 -71 44 -124.5t116 -53.5q73 0 117.5 53t44.5 125h176q0 -175 -90.5 -265.5t-247.5 -90.5q-154 0 -245 90.5t-91 265.5z" />
<glyph unicode="&#x2d9;" horiz-adv-x="137" d="M195 1372q0 73 52 124.5t124 51.5t124 -51.5t52 -124.5q0 -71 -52 -122.5t-124 -51.5t-124 51.5t-52 122.5z" />
<glyph unicode="&#x2da;" horiz-adv-x="137" d="M-12 1354q0 100 72 171.5t173 71.5q100 0 171 -71.5t71 -171.5q0 -101 -71 -173.5t-171 -72.5q-101 0 -173 72.5t-72 173.5zM119 1354q0 -52 32 -85.5t82 -33.5t83.5 33.5t33.5 85.5q0 47 -34.5 83t-82.5 36t-81 -36t-33 -83z" />
<glyph unicode="&#x2db;" horiz-adv-x="137" d="M76 -287q0 109 79 197t244 135l144 -45q-131 -68 -193.5 -128t-62.5 -134q0 -107 114 -107q89 0 156 74l76 -151q-123 -91 -285 -82q-123 6 -197.5 66.5t-74.5 174.5z" />
<glyph unicode="&#x2dc;" horiz-adv-x="139" d="M78 1233q-30 137 31 227t176 90q130 0 209 -120q21 -35 51 -35q35 0 43 38.5t-15 100.5h185q32 -135 -27.5 -226t-179.5 -91q-126 0 -209 118q-13 20 -24 28.5t-27 8.5q-33 0 -42 -39.5t13 -99.5h-184z" />
<glyph unicode="&#x2dd;" horiz-adv-x="137" d="M72 1169l284 367h295l-362 -367h-217zM510 1169l283 367h297l-363 -367h-217z" />
<glyph unicode="&#x300;" d="M-559 1536h315l170 -346h-235z" />
<glyph unicode="&#x301;" d="M-559 1190l170 346h315l-245 -346h-240z" />
<glyph unicode="&#x302;" d="M-836 1186l218 350h327l219 -350h-239l-142 215l-143 -215h-240z" />
<glyph unicode="&#x303;" d="M-762 1233q-30 137 31 227t176 90q130 0 209 -120q21 -35 51 -35q35 0 43.5 38.5t-14.5 100.5h184q32 -135 -27.5 -226t-179.5 -91q-126 0 -209 118q-13 20 -24 28.5t-27 8.5q-33 0 -42 -39.5t13 -99.5h-184z" />
<glyph unicode="&#x304;" d="M-707 1192v199h635v-199h-635z" />
<glyph unicode="&#x306;" d="M-1036 1495h176q0 -71 44 -124.5t116 -53.5q73 0 117 53t44 125h177q0 -175 -90.5 -265.5t-247.5 -90.5q-154 0 -245 90.5t-91 265.5z" />
<glyph unicode="&#x307;" d="M-547 1372q0 73 52 124.5t124 51.5t124 -51.5t52 -124.5q0 -71 -52 -122.5t-124 -51.5t-124 51.5t-52 122.5z" />
<glyph unicode="&#x308;" d="M-944 1372q0 73 52 124.5t124 51.5t124 -51.5t52 -124.5q0 -71 -52 -122.5t-124 -51.5t-124 51.5t-52 122.5zM-487 1372q0 73 52 124.5t124 51.5t123 -51.5t51 -124.5q0 -71 -51 -122.5t-123 -51.5t-124 51.5t-52 122.5z" />
<glyph unicode="&#x30a;" d="M-475 1354q0 100 72.5 171.5t173.5 71.5q100 0 170.5 -71.5t70.5 -171.5q0 -101 -70.5 -173.5t-170.5 -72.5q-101 0 -173.5 72.5t-72.5 173.5zM-344 1354q0 -52 32.5 -85.5t82.5 -33.5t83 33.5t33 85.5q0 47 -34 83t-82 36t-81.5 -36t-33.5 -83z" />
<glyph unicode="&#x30b;" d="M-1090 1169l285 367h295l-362 -367h-218zM-651 1169l282 367h297l-362 -367h-217z" />
<glyph unicode="&#x30c;" d="M-836 1554h230l153 -215l152 215h229l-219 -350h-327z" />
<glyph unicode="&#x312;" d="M-424 1108q0 75 31.5 149.5t77 128t92 94.5t80.5 60t39 14v-102q-7 0 -48 -47t-74 -94t-22 -47q74 0 125 -50.5t51 -123.5q0 -74 -51.5 -125.5t-124.5 -51.5q-74 0 -125 56.5t-51 138.5z" />
<glyph unicode="&#x323;" d="M-424 -338q0 72 52 125t124 53t124 -53t52 -125q0 -71 -52 -122.5t-124 -51.5t-124 51.5t-52 122.5z" />
<glyph unicode="&#x326;" d="M-422 156q0 76 49 126t125 50q77 0 126.5 -55.5t49.5 -141.5q0 -201 -89.5 -328.5t-229.5 -117.5v104q61 0 102.5 48.5t44 90t-5.5 48.5q-75 0 -123.5 49.5t-48.5 126.5z" />
<glyph unicode="&#x327;" d="M-539 -377l136 45q15 -25 45 -42t59 -17q35 0 59.5 24.5t24.5 59.5q0 56 -48.5 71.5t-115.5 -18.5l-110 66l102 188h145l-69 -119q99 17 168 -37.5t69 -150.5q0 -94 -65 -159.5t-160 -65.5q-77 0 -147 45.5t-93 109.5z" />
<glyph unicode="&#x328;" d="M-629 -287q0 109 79.5 197t244.5 135l143 -45q-131 -68 -193.5 -128t-62.5 -134q0 -53 30 -80t85 -27q89 0 156 74l75 -151q-123 -91 -284 -82q-123 6 -198 66.5t-75 174.5z" />
<glyph unicode="&#x335;" d="M-1067 436v156h709v-156h-709z" />
<glyph unicode="&#x336;" d="M-1599 473v119h1527v-119h-1527z" />
<glyph unicode="&#x337;" d="M-981 264l424 502l192 14l-421 -501z" />
<glyph unicode="&#x338;" d="M-1350 -72l1094 1680h209l-1094 -1680h-209z" />
<glyph unicode="&#x394;" horiz-adv-x="1675" d="M100 0v162l568 1390h352l553 -1388v-164h-1473zM426 260h807l-262 639q-15 45 -67.5 187.5t-67.5 193.5h-13q-11 -36 -58.5 -165.5t-64.5 -180.5z" />
<glyph unicode="&#x3a9;" horiz-adv-x="1835" d="M135 0v225h271v11q-96 92 -166 250t-70 339q0 150 54.5 282t152 228t239 151.5t308.5 55.5q171 0 313.5 -59.5t234.5 -159t142.5 -228t50.5 -268.5q0 -173 -69.5 -334t-172.5 -257v-11h275v-225h-654v170q67 37 124 93.5t102 131.5t70.5 172.5t25.5 206.5 q0 150 -50.5 271t-152 194.5t-237.5 73.5q-204 0 -330.5 -150.5t-126.5 -390.5q0 -211 93.5 -373.5t228.5 -228.5v-170h-656z" />
<glyph unicode="&#x3bc;" horiz-adv-x="1363" d="M166 -512v1536h293v-594q0 -82 56 -137t138 -55q90 0 151.5 55.5t61.5 136.5v594h293v-1024h-293v117q-121 -137 -299 -137q-103 0 -186 47v-539h-215z" />
<glyph unicode="&#x3c0;" horiz-adv-x="1536" d="M49 1063q99 72 391 72h1020l-24 -232h-174v-561q0 -222 30 -342h-284q-41 60 -41 324v579h-349q-7 -208 -50.5 -484.5t-102.5 -418.5h-287q59 180 103 446.5t47 456.5q-164 0 -246 -24z" />
<glyph unicode="&#x1e04;" horiz-adv-x="1349" d="M172 0v1536h604q184 0 304 -115t120 -311q0 -241 -203 -322q118 -42 185 -133.5t67 -234.5q0 -195 -119.5 -307.5t-300.5 -112.5h-657zM498 285h282q59 0 100.5 52.5t41.5 123.5q0 70 -41.5 123t-100.5 53h-282v-352zM498 901h237q56 0 96.5 52t40.5 122q0 72 -40 124 t-97 52h-237v-350zM508 -270q0 72 52 125t124 53t124 -53t52 -125q0 -71 -52 -122.5t-124 -51.5t-124 51.5t-52 122.5z" />
<glyph unicode="&#x1e05;" horiz-adv-x="1271" d="M170 0v1585h315v-641q100 100 248 100q128 0 228.5 -70.5t154 -191.5t53.5 -270t-53.5 -270t-154 -191.5t-228.5 -70.5q-161 0 -266 118l-8 -100zM467 512q0 -109 53 -182.5t137 -73.5q90 0 143.5 73t53.5 183t-53.5 183t-143.5 73q-84 0 -137 -73.5t-53 -182.5z M494 -270q0 72 52 125t124 53t124 -53t52 -125q0 -71 -52 -122.5t-124 -51.5t-124 51.5t-52 122.5z" />
<glyph unicode="&#x1e24;" horiz-adv-x="1490" d="M164 0v1536h325v-625h512v625h326v-1536h-326v625h-512v-625h-325zM569 -270q0 72 52 125t124 53t124.5 -53t52.5 -125q0 -71 -52.5 -122.5t-124.5 -51.5t-124 51.5t-52 122.5z" />
<glyph unicode="&#x1e25;" horiz-adv-x="1306" d="M170 0v1585h315v-663q116 122 279 122q177 0 282 -107t105 -290v-647h-317v608q0 72 -44.5 116t-117.5 44q-78 0 -132.5 -51.5t-54.5 -126.5v-590h-315zM473 -270q0 72 52 125t124 53t124 -53t52 -125q0 -71 -52 -122.5t-124 -51.5t-124 51.5t-52 122.5z" />
<glyph unicode="&#x1e36;" horiz-adv-x="1017" d="M164 0v1536h325v-1251h439v-285h-764zM371 -270q0 72 52 125t124 53t124 -53t52 -125q0 -71 -52 -122.5t-124 -51.5t-124 51.5t-52 122.5z" />
<glyph unicode="&#x1e37;" horiz-adv-x="653" d="M152 -270q0 72 52 125t124 53t124 -53t52 -125q0 -71 -52 -122.5t-124 -51.5t-124 51.5t-52 122.5zM170 0v1585h315v-1585h-315z" />
<glyph unicode="&#x1e44;" horiz-adv-x="1630" d="M168 0v1536h340l631 -995v995h325v-1536h-340l-630 1001v-1001h-326zM647 1884q0 73 52 124.5t124 51.5t124 -51.5t52 -124.5q0 -71 -52 -122.5t-124 -51.5t-124 51.5t-52 122.5z" />
<glyph unicode="&#x1e45;" horiz-adv-x="1306" d="M170 0v1024h315v-102q116 122 291 122q174 0 274.5 -100t100.5 -280v-664h-317v623q0 67 -38.5 106t-115.5 39q-91 0 -143 -52.5t-52 -125.5v-590h-315zM485 1372q0 73 52.5 124.5t124.5 51.5t124 -51.5t52 -124.5q0 -71 -52 -122.5t-124 -51.5t-124.5 51.5t-52.5 122.5z " />
<glyph unicode="&#x1e46;" horiz-adv-x="1630" d="M168 0v1536h340l631 -995v995h325v-1536h-340l-630 1001v-1001h-326zM633 -270q0 72 52 125t124 53t124 -53t52 -125q0 -71 -52 -122.5t-124 -51.5t-124 51.5t-52 122.5z" />
<glyph unicode="&#x1e47;" horiz-adv-x="1306" d="M170 0v1024h315v-102q116 122 291 122q174 0 274.5 -100t100.5 -280v-664h-317v623q0 67 -38.5 106t-115.5 39q-91 0 -143 -52.5t-52 -125.5v-590h-315zM485 -270q0 72 52.5 125t124.5 53t124 -53t52 -125q0 -71 -52 -122.5t-124 -51.5t-124.5 51.5t-52.5 122.5z" />
<glyph unicode="&#x1e62;" horiz-adv-x="1175" d="M72 317l256 162q36 -91 106 -148t150 -57q75 0 124.5 46t49.5 122q0 58 -35 100t-90.5 68.5t-123 51.5t-134.5 58.5t-122.5 79t-90.5 124t-35 182.5q0 137 63 241t165.5 156.5t226.5 52.5q121 0 243.5 -60.5t196.5 -154.5l-227 -192q-35 60 -90.5 97.5t-110.5 37.5 q-62 0 -103.5 -42.5t-41.5 -115.5q0 -42 21.5 -74t58.5 -54.5t84.5 -42.5t100 -41t105 -46t100 -63t84.5 -85.5t58.5 -119t21.5 -160.5q0 -210 -140.5 -335t-348.5 -125q-174 0 -318 95.5t-204 241.5zM389 -270q0 72 52 125t124 53t124 -53t52 -125q0 -71 -52 -122.5 t-124 -51.5t-124 51.5t-52 122.5z" />
<glyph unicode="&#x1e63;" horiz-adv-x="944" d="M78 113l139 227q54 -45 121.5 -81t110.5 -40q45 -5 71.5 14.5t26.5 57.5q0 32 -23.5 55.5t-60.5 39.5t-82 31.5t-90 38t-82 53t-60.5 82t-23.5 118.5q0 157 101.5 246t281.5 89q77 0 166 -29t172 -81l-125 -203q-85 72 -191 88q-43 5 -69.5 -12t-26.5 -53q0 -29 23 -50.5 t59.5 -36.5t81 -31t89 -40t81 -57t59.5 -88.5t23 -128.5q0 -160 -101.5 -251t-283.5 -91q-101 0 -208.5 35.5t-178.5 97.5zM322 -270q0 72 52 125t124 53t124 -53t52 -125q0 -71 -52 -122.5t-124 -51.5t-124 51.5t-52 122.5z" />
<glyph unicode="&#x1e6c;" horiz-adv-x="1144" d="M74 1251v285h995v-285h-334v-1251h-323v1251h-338zM397 -270q0 72 52 125t124 53t124.5 -53t52.5 -125q0 -71 -52.5 -122.5t-124.5 -51.5t-124 51.5t-52 122.5z" />
<glyph unicode="&#x1e6d;" horiz-adv-x="772" d="M66 786v238h161v328h316v-328h164v-238h-164v-786h-316v786h-161zM211 -270q0 72 52 125t124 53t124 -53t52 -125q0 -71 -52 -122.5t-124 -51.5t-124 51.5t-52 122.5z" />
<glyph unicode="&#x1e80;" horiz-adv-x="2134" d="M10 1536h344l285 -1133l270 1133h279h35l274 -1135l285 1135h342l-426 -1536h-371l-260 1047l-258 -1047h-371zM653 2048h316l170 -346h-236z" />
<glyph unicode="&#x1e81;" horiz-adv-x="1675" d="M41 1024h358l140 -655l178 655h241l183 -657l139 657h354l-309 -1024h-332l-155 541l-156 -541h-330zM459 1536h315l170 -346h-235z" />
<glyph unicode="&#x1e82;" horiz-adv-x="2134" d="M10 1536h344l285 -1133l270 1133h279h35l274 -1135l285 1135h342l-426 -1536h-371l-260 1047l-258 -1047h-371zM918 1702l169 346h316l-246 -346h-239z" />
<glyph unicode="&#x1e83;" horiz-adv-x="1675" d="M41 1024h358l140 -655l178 655h241l183 -657l139 657h354l-309 -1024h-332l-155 541l-156 -541h-330zM723 1190l170 346h315l-245 -346h-240z" />
<glyph unicode="&#x1e84;" horiz-adv-x="2134" d="M10 1536h344l285 -1133l270 1133h279h35l274 -1135l285 1135h342l-426 -1536h-371l-260 1047l-258 -1047h-371zM631 1884q0 73 52 124.5t124 51.5t124 -51.5t52 -124.5q0 -71 -52 -122.5t-124 -51.5t-124 51.5t-52 122.5zM1087 1884q0 73 52.5 124.5t124.5 51.5 t123 -51.5t51 -124.5q0 -71 -51 -122.5t-123 -51.5t-124.5 51.5t-52.5 122.5z" />
<glyph unicode="&#x1e85;" horiz-adv-x="1675" d="M41 1024h358l140 -655l178 655h241l183 -657l139 657h354l-309 -1024h-332l-155 541l-156 -541h-330zM434 1372q0 73 52 124.5t124 51.5t124 -51.5t52 -124.5q0 -71 -52 -122.5t-124 -51.5t-124 51.5t-52 122.5zM891 1372q0 73 52 124.5t124 51.5t123 -51.5t51 -124.5 q0 -71 -51 -122.5t-123 -51.5t-124 51.5t-52 122.5z" />
<glyph unicode="&#x1e92;" horiz-adv-x="1232" d="M94 0v176l629 1075h-610v285h1026v-176l-625 -1075h619v-285h-1039zM440 -270q0 72 52 125t124 53t124.5 -53t52.5 -125q0 -71 -52.5 -122.5t-124.5 -51.5t-124 51.5t-52 122.5z" />
<glyph unicode="&#x1e93;" horiz-adv-x="983" d="M102 766v258h797v-229l-403 -537h401v-258h-793v233l402 533h-404zM324 -270q0 72 52 125t124 53t124 -53t52 -125q0 -71 -52 -122.5t-124 -51.5t-124 51.5t-52 122.5z" />
<glyph unicode="&#x1ea0;" horiz-adv-x="1486" d="M16 0l545 1536h367l542 -1536h-354l-88 287h-569l-88 -287h-355zM543 555h401l-201 645zM569 -270q0 72 52 125t124 53t124.5 -53t52.5 -125q0 -71 -52.5 -122.5t-124.5 -51.5t-124 51.5t-52 122.5z" />
<glyph unicode="&#x1ea1;" horiz-adv-x="1161" d="M123 295q0 96 38.5 172t115.5 116.5t178 24.5l245 -39v86q0 75 -34.5 118.5t-98.5 43.5q-56 0 -91.5 -33.5t-35.5 -91.5h-288q2 163 117.5 257.5t314.5 94.5q203 0 318.5 -100.5t115.5 -275.5v-668h-258l-27 102q-128 -122 -287 -122q-148 0 -235.5 84t-87.5 231z M434 311q0 -52 33 -82t86 -30q84 0 147 71v127l-133 31q-58 13 -95.5 -23.5t-37.5 -93.5zM436 -283q0 72 52 125.5t124 53.5t124 -53.5t52 -125.5q0 -71 -52 -122.5t-124 -51.5t-124 51.5t-52 122.5z" />
<glyph unicode="&#x1eb8;" horiz-adv-x="1169" d="M164 0v1536h889v-285h-564v-340h480v-286h-480v-340h564v-285h-889zM432 -270q0 72 52 125t124 53t124 -53t52 -125q0 -71 -52 -122.5t-124 -51.5t-124 51.5t-52 122.5z" />
<glyph unicode="&#x1eb9;" horiz-adv-x="1181" d="M102 508q0 235 140.5 387t380.5 152q220 0 347.5 -143t127.5 -388q0 -61 -4 -94h-672q11 -101 59 -153t146 -52q72 0 124 31.5t97 103.5l227 -102q-51 -125 -167.5 -197.5t-272.5 -72.5q-137 0 -241 40.5t-167 113t-94 166.5t-31 208zM428 618h367q-11 93 -53 139 t-124 46q-157 0 -190 -185zM461 -272q0 72 52 125t124 53t124 -53t52 -125q0 -71 -52 -122.5t-124 -51.5t-124 51.5t-52 122.5z" />
<glyph unicode="&#x1ebc;" horiz-adv-x="1169" d="M164 0v1536h889v-285h-564v-340h480v-286h-480v-340h564v-285h-889zM266 1683q-30 137 31 227.5t176 90.5q129 0 209 -121q21 -35 51 -35q35 0 43.5 39.5t-14.5 100.5h184q32 -135 -27.5 -226.5t-179.5 -91.5q-125 0 -209 119q-13 20 -24 28.5t-27 8.5q-33 0 -42 -40 t14 -100h-185z" />
<glyph unicode="&#x1ebd;" horiz-adv-x="1181" d="M102 508q0 235 140.5 387t380.5 152q220 0 347.5 -143t127.5 -388q0 -61 -4 -94h-672q11 -101 59 -153t146 -52q72 0 124 31.5t97 103.5l227 -102q-51 -125 -167.5 -197.5t-272.5 -72.5q-137 0 -241 40.5t-167 113t-94 166.5t-31 208zM281 1171q-30 137 30.5 227.5 t175.5 90.5q129 0 209 -121q21 -35 52 -35q35 0 43 39.5t-15 100.5h185q32 -135 -27.5 -226.5t-179.5 -91.5q-125 0 -209 119q-13 20 -24 28.5t-27 8.5q-33 0 -42 -40t13 -100h-184zM428 618h367q-11 93 -53 139t-124 46q-157 0 -190 -185z" />
<glyph unicode="&#x1eca;" horiz-adv-x="651" d="M150 -270q0 72 52 125t124 53t124 -53t52 -125q0 -71 -52 -122.5t-124 -51.5t-124 51.5t-52 122.5zM164 0v1536h325v-1536h-325z" />
<glyph unicode="&#x1ecb;" horiz-adv-x="636" d="M143 -270q0 72 52 125t124 53t124.5 -53t52.5 -125q0 -71 -52.5 -122.5t-124.5 -51.5t-124 51.5t-52 122.5zM147 1372q0 73 50.5 124.5t119.5 51.5q71 0 121.5 -51.5t50.5 -124.5q0 -71 -51 -122.5t-121 -51.5q-69 0 -119.5 51.5t-50.5 122.5zM160 0v1024h315v-1024h-315 z" />
<glyph unicode="&#x1ecc;" horiz-adv-x="1767" d="M127 768q0 161 60 307t161 251t241 167.5t294 62.5q207 0 381 -105.5t275 -286.5t101 -396t-101 -396t-275 -286.5t-381 -105.5q-154 0 -294 62.5t-241 167.5t-161 251t-60 307zM444 768q0 -201 126.5 -336t312.5 -135q188 0 314 135t126 336t-126 336t-314 135 q-186 0 -312.5 -135t-126.5 -336zM709 -270q0 72 52 125t124 53t124 -53t52 -125q0 -71 -52 -122.5t-124 -51.5t-124 51.5t-52 122.5z" />
<glyph unicode="&#x1ecd;" horiz-adv-x="1241" d="M102 512q0 149 64 270t183.5 191.5t271.5 70.5t271 -70.5t183 -191.5t64 -270t-64 -270t-183 -191.5t-271 -70.5t-271.5 70.5t-183.5 191.5t-64 270zM418 512q0 -112 53.5 -184t149.5 -72t149 72t53 184t-53 184t-149 72t-149.5 -72t-53.5 -184zM444 -270q0 72 52.5 125 t124.5 53t124 -53t52 -125q0 -71 -52 -122.5t-124 -51.5t-124.5 51.5t-52.5 122.5z" />
<glyph unicode="&#x1ee4;" horiz-adv-x="1456" d="M156 494v1042h325v-983q0 -120 71.5 -204.5t174.5 -84.5q104 0 176 84.5t72 204.5v983h325v-1042q0 -142 -75 -260t-207 -186t-291 -68q-118 0 -223.5 40t-182 108.5t-121 163.5t-44.5 202zM553 -270q0 72 52 125t124 53t124 -53t52 -125q0 -71 -52 -122.5t-124 -51.5 t-124 51.5t-52 122.5z" />
<glyph unicode="&#x1ef2;" horiz-adv-x="1345" d="M35 1536h364l275 -504l278 504h359l-471 -793v-743h-328v735zM295 2048h315l170 -346h-235z" />
<glyph unicode="&#x1ef3;" horiz-adv-x="1144" d="M43 1024h334l198 -651l197 651h332l-541 -1536h-321l176 494zM193 1536h315l170 -346h-236z" />
<glyph unicode="&#x1ef4;" horiz-adv-x="1345" d="M35 1536h364l275 -504l278 504h359l-471 -793v-743h-328v735zM500 -270q0 72 52 125t124 53t124 -53t52 -125q0 -71 -52 -122.5t-124 -51.5t-124 51.5t-52 122.5z" />
<glyph unicode="&#x1ef8;" horiz-adv-x="1345" d="M35 1536h364l275 -504l278 504h359l-471 -793v-743h-328v735zM334 1683q-30 137 31 227.5t176 90.5q129 0 209 -121q21 -35 51 -35q35 0 43 39.5t-15 100.5h185q32 -135 -27.5 -226.5t-179.5 -91.5q-125 0 -209 119q-13 20 -24 28.5t-27 8.5q-33 0 -42 -40t13 -100h-184z " />
<glyph unicode="&#x2000;" horiz-adv-x="1054" />
<glyph unicode="&#x2001;" horiz-adv-x="2109" />
<glyph unicode="&#x2002;" horiz-adv-x="1054" />
<glyph unicode="&#x2003;" horiz-adv-x="2109" />
<glyph unicode="&#x2004;" horiz-adv-x="703" />
<glyph unicode="&#x2005;" horiz-adv-x="527" />
<glyph unicode="&#x2006;" horiz-adv-x="351" />
<glyph unicode="&#x2007;" horiz-adv-x="351" />
<glyph unicode="&#x2008;" horiz-adv-x="263" />
<glyph unicode="&#x2009;" horiz-adv-x="421" />
<glyph unicode="&#x200a;" horiz-adv-x="117" />
<glyph unicode="&#x2010;" horiz-adv-x="1105" d="M195 428v209h716v-209h-716z" />
<glyph unicode="&#x2011;" horiz-adv-x="1105" d="M195 428v209h716v-209h-716z" />
<glyph unicode="&#x2012;" horiz-adv-x="1105" d="M195 428v209h716v-209h-716z" />
<glyph unicode="&#x2013;" horiz-adv-x="1413" d="M195 428v209h1024v-209h-1024z" />
<glyph unicode="&#x2014;" horiz-adv-x="2048" d="M0 428v209h2048v-209h-2048z" />
<glyph unicode="&#x2018;" horiz-adv-x="563" d="M124 1242q37 154 137 241q80 70 181 71v-139q-62 -1 -104.5 -52t-44 -94t7.5 -50q72 0 123 -51.5t51 -123.5q0 -73 -51.5 -123.5t-124.5 -50.5q-117 0 -164 115q-46 108 -11 257z" />
<glyph unicode="&#x2019;" horiz-adv-x="563" d="M90 1380q0 73 51 123.5t123 50.5q94 0 142.5 -71t48.5 -180q0 -101 -38 -198t-116.5 -165.5t-179.5 -69.5v140q49 0 85.5 32t51 69t14.5 67q0 28 -10 28q-72 0 -122 51t-50 123z" />
<glyph unicode="&#x201a;" horiz-adv-x="608" d="M201 156q0 74 51.5 125t124.5 51q93 0 141.5 -72t48.5 -182q0 -75 -23 -150t-64 -138t-105.5 -102.5t-141.5 -39.5v137q61 0 100 44.5t50 96.5q4 23 2 39.5t-10 16.5q-72 0 -123 51t-51 123z" />
<glyph unicode="&#x201c;" horiz-adv-x="1087" d="M203 1149q0 74 23 150t63.5 139t105 103t140.5 40v-137q-48 -1 -84.5 -33.5t-51.5 -68.5t-16 -66q0 -29 10 -29q72 0 123 -51t51 -123q0 -73 -51.5 -124.5t-124.5 -51.5q-92 0 -140 72t-48 180zM641 1149q0 74 23 150t63.5 139t105 103t140.5 40v-137q-48 -1 -84.5 -33.5 t-51.5 -68.5t-16 -66q0 -29 10 -29q72 0 123.5 -51t51.5 -123q0 -73 -51.5 -124.5t-125.5 -51.5q-92 0 -140 72t-48 180z" />
<glyph unicode="&#x201d;" horiz-adv-x="993" d="M94 1380q0 73 51 123.5t123 50.5q94 0 142.5 -71t48.5 -180q0 -101 -38 -198t-116.5 -165.5t-179.5 -69.5v140q49 0 85.5 32t51 69t14.5 67q0 28 -10 28q-72 0 -122 51t-50 123zM532 1380q0 73 51.5 123.5t123.5 50.5q92 0 140 -71t48 -180q0 -74 -22.5 -149.5 t-63.5 -139t-105.5 -103.5t-140.5 -41v140q37 0 67.5 18.5t48 46t26.5 54.5t10 49q0 28 -10 28q-72 0 -122.5 51t-50.5 123z" />
<glyph unicode="&#x201e;" horiz-adv-x="1048" d="M201 156q0 74 51.5 125t124.5 51q93 0 141.5 -72t48.5 -182q0 -75 -23 -150t-64 -138t-105.5 -102.5t-141.5 -39.5v137q61 0 100 44.5t50 96.5q4 23 2 39.5t-10 16.5q-72 0 -123 51t-51 123zM670 156q0 73 52 124.5t124 51.5q94 0 143 -72t49 -182q0 -74 -23 -149.5 t-64.5 -138.5t-106.5 -102.5t-142 -39.5v137q61 0 100 44.5t50 96.5q4 23 2 39.5t-10 16.5q-72 0 -123 51t-51 123z" />
<glyph unicode="&#x2020;" horiz-adv-x="1251" d="M240 823v197h286v352h197v-352h291v-197h-291v-1171h-197v1171h-286z" />
<glyph unicode="&#x2021;" horiz-adv-x="1251" d="M240 23v196h286v604h-286v197h286v352h197v-352h291v-197h-291v-604h291v-196h-291v-371h-197v371h-286z" />
<glyph unicode="&#x2022;" horiz-adv-x="1144" d="M236 674q0 137 100.5 237.5t236.5 100.5q135 0 235.5 -101t100.5 -237q0 -140 -100 -238t-236 -98q-138 0 -237.5 98t-99.5 238z" />
<glyph unicode="&#x2026;" horiz-adv-x="1886" d="M205 156q0 72 52 124t124 52t124 -52t52 -124t-52 -124t-124 -52t-124 52t-52 124zM760 156q0 72 52 124t124 52t124 -52t52 -124t-52 -124t-124 -52t-124 52t-52 124zM1331 156q0 72 51.5 124t122.5 52q72 0 124 -52t52 -124t-52 -124t-124 -52q-71 0 -122.5 52 t-51.5 124z" />
<glyph unicode="&#x202f;" horiz-adv-x="421" />
<glyph unicode="&#x2030;" horiz-adv-x="2490" d="M117 1182q0 155 95 264.5t230 109.5q136 0 232 -109.5t96 -264.5t-96 -265t-232 -110q-135 0 -230 110t-95 265zM205 0l1001 1536h328l-1004 -1536h-325zM354 1182q0 -57 26.5 -97.5t61.5 -40.5t62.5 40.5t27.5 97.5t-27.5 97t-62.5 40t-61.5 -40t-26.5 -97zM973 354 q0 156 94.5 265.5t230.5 109.5t231 -109.5t95 -265.5t-95 -265t-231 -109t-230.5 109t-94.5 265zM1208 354q0 -57 27 -97t63 -40q35 0 61.5 40t26.5 97t-26.5 97.5t-61.5 40.5q-36 0 -63 -40.5t-27 -97.5zM1724 354q0 156 95 265.5t231 109.5q135 0 230.5 -110t95.5 -265 t-95.5 -264.5t-230.5 -109.5q-136 0 -231 109t-95 265zM1960 354q0 -57 26.5 -97t61.5 -40q36 0 63 40t27 97t-27 97.5t-63 40.5q-35 0 -61.5 -40.5t-26.5 -97.5z" />
<glyph unicode="&#x2039;" horiz-adv-x="827" d="M115 571l311 377h248l-312 -377l312 -376h-248z" />
<glyph unicode="&#x203a;" horiz-adv-x="827" d="M154 195l311 376l-311 377h249l312 -377l-312 -376h-249z" />
<glyph unicode="&#x2044;" horiz-adv-x="1361" d="M-27 0l1071 1536h316l-1071 -1536h-316z" />
<glyph unicode="&#x205f;" horiz-adv-x="527" />
<glyph unicode="&#x20ac;" horiz-adv-x="1527" d="M23 522v160h131q-4 29 -4 86q0 55 4 82h-131v160h161q76 242 283 394t471 152q180 0 373 -102l-78 -254q-65 45 -143.5 70.5t-151.5 25.5q-154 0 -279.5 -78t-191.5 -208h707l-50 -160h-708q-6 -40 -6 -82t6 -86h657l-49 -160h-555q65 -128 190.5 -204t278.5 -76 q96 0 194.5 40t167.5 107v-311q-185 -98 -362 -98q-264 0 -469.5 150.5t-282.5 391.5h-163z" />
<glyph unicode="&#x2113;" horiz-adv-x="1161" d="M88 426q22 18 57 47t64 52.5t53 45.5v533q0 149 29.5 261t82.5 179t122.5 100t154.5 33q80 0 141.5 -31.5t99 -86t56.5 -123t19 -148.5q0 -192 -106.5 -376.5t-315.5 -391.5l2 -69q3 -109 52 -169.5t124 -60.5q78 0 150 60.5t124 148.5l121 -125q-86 -166 -207 -242.5 t-258 -76.5q-168 0 -262 96.5t-123 257.5v18q-19 -14 -54 -44t-50 -42zM545 776q227 289 227 514q0 189 -104 189q-24 0 -44.5 -17t-39 -54t-29 -105.5t-10.5 -161.5v-365z" />
<glyph unicode="&#x2122;" horiz-adv-x="1507" d="M78 1407v129h461v-129h-160v-588h-146v588h-155zM635 819v717h158l194 -338l197 338h155v-717h-145v473l-207 -348l-207 350v-475h-145z" />
<glyph unicode="&#x212e;" horiz-adv-x="1751" d="M102 766q0 215 103.5 397t281 287.5t387.5 105.5q158 0 301 -62.5t246.5 -168t164.5 -252t61 -307.5v-21h-1250q-12 0 -12 -8v-430q0 -21 16 -49q95 -109 217.5 -171t258.5 -62q146 0 274 69.5t223 192.5h111q-105 -141 -266 -223t-345 -82q-157 0 -300 62t-246.5 167.5 t-164.5 250.5t-61 304zM385 803q0 -15 12 -15h959q6 0 6 15v430q0 35 -16 51q-94 105 -215 165t-254 60q-134 0 -255.5 -61.5t-218.5 -169.5q-18 -25 -18 -53v-422z" />
<glyph unicode="&#x2190;" horiz-adv-x="1818" d="M-127 705l500 385l-62 -263h1100v-247h-1100l62 -261z" />
<glyph unicode="&#x2191;" horiz-adv-x="1105" d="M162 1038l385 498l385 -498l-260 62v-1100h-248v1100z" />
<glyph unicode="&#x2192;" horiz-adv-x="1818" d="M201 580v247h1099l-61 263l498 -385l-498 -386l61 261h-1099z" />
<glyph unicode="&#x2193;" horiz-adv-x="1093" d="M162 498l262 -62v1100h248v-1100l260 62l-385 -498z" />
<glyph unicode="&#x2194;" horiz-adv-x="1638" d="M-70 682l439 385l-56 -260l1012 -2l-53 260l438 -385l-436 -385l53 262l-1014 2l52 -264z" />
<glyph unicode="&#x2195;" horiz-adv-x="972" d="M147 350l230 -61v798l-230 -61l338 496l340 -498l-229 61v-794l229 61l-340 -497z" />
<glyph unicode="&#x2196;" horiz-adv-x="1193" d="M-74 1298l623 -79l-227 -144l776 -776l-174 -176l-779 778l-139 -227z" />
<glyph unicode="&#x2197;" horiz-adv-x="1193" d="M-39 299l778 776l-229 144l625 79l-80 -624l-142 227l-776 -778z" />
<glyph unicode="&#x2198;" horiz-adv-x="1196" d="M-37 1237l176 176l776 -778l142 227l80 -624l-625 79l229 144z" />
<glyph unicode="&#x2199;" horiz-adv-x="1196" d="M-74 238l80 624l139 -227l779 778l174 -176l-776 -776l227 -144z" />
<glyph unicode="&#x2202;" horiz-adv-x="1105" d="M100 380.5q-7 115.5 41 250.5q75 218 226.5 321t320.5 64q-55 165 -155.5 227.5t-223.5 -4.5v219q145 36 275.5 -8t224.5 -149.5t149 -269.5t54 -359q-1 -187 -67 -341t-181 -242.5t-254 -88.5q-123 0 -215 48t-140 132.5t-55 200zM376.5 385.5q4.5 -80.5 41 -132.5 t92.5 -52q57 0 108.5 63.5t83.5 173t33 234.5q0 86 -4 127q-105 56 -191.5 -5t-140.5 -231q-27 -97 -22.5 -177.5z" />
<glyph unicode="&#x2205;" horiz-adv-x="1736" d="M248 596q0 166 83 307t226 223t311 82q223 0 394 -139l92 88l82 -82l-90 -90q143 -168 143 -389q0 -166 -83.5 -307t-226.5 -223t-311 -82q-222 0 -393 139l-90 -88l-84 82l90 90q-143 168 -143 389zM498 596q0 -117 69 -215l518 512q-101 68 -217 68q-154 0 -262 -106.5 t-108 -258.5zM653 299q95 -66 215 -66q156 0 263.5 105t107.5 258q0 116 -70 215z" />
<glyph unicode="&#x220f;" horiz-adv-x="1439" d="M96 1223v217h1250v-217h-109v-1469h-215v1469h-602v-1469h-215v1469h-109z" />
<glyph unicode="&#x2211;" horiz-adv-x="1409" d="M168 -51l592 649l-592 649v193h1073v-238h-698l532 -604l-532 -604h698v-238l-1073 4v189z" />
<glyph unicode="&#x2212;" horiz-adv-x="1308" d="M113 535v202h1083v-202h-1083z" />
<glyph unicode="&#x221a;" horiz-adv-x="1413" d="M131 524v199h275l159 -573l590 1425l180 -76l-698 -1659h-180l-193 684h-133z" />
<glyph unicode="&#x221e;" horiz-adv-x="1480" d="M113 596q5 151 87.5 245.5t211.5 94.5q155 0 329 -193q171 193 330 193q135 0 212.5 -90t82.5 -250q-5 -160 -82.5 -249t-212.5 -89q-162 0 -330 193q-171 -193 -329 -193q-129 0 -211.5 93.5t-87.5 244.5zM309 596q0 -61 30 -100t73 -39q82 0 196 139q-55 68 -106 104.5 t-90 36.5q-43 0 -73 -40t-30 -101zM870 596q117 -139 201 -139q43 0 70.5 37.5t27.5 101.5t-28 102.5t-70 38.5q-82 0 -201 -141z" />
<glyph unicode="&#x222b;" horiz-adv-x="894" d="M174 -127h148q0 -78 1 -84q4 -16 25 -16t21 39v1507q0 85 52 142t130 57q92 0 144 -77t26 -184h-148q0 80 -1 84q-3 17 -21 17q-25 0 -25 -39v-1507q0 -85 -51 -142t-127 -57q-95 0 -147 76t-27 184z" />
<glyph unicode="&#x2248;" horiz-adv-x="1132" d="M129 242q-23 162 54.5 265t213.5 103q74 0 129 -35.5t105 -111.5q18 -28 29 -43t33 -29t48 -14q57 0 90.5 58t16.5 151h153q26 -155 -47.5 -260t-199.5 -105q-47 0 -88.5 15t-74 43t-51 48t-40.5 50q-31 39 -54.5 56.5t-50.5 17.5q-61 0 -92.5 -61t-17.5 -148h-156z M129 668q-23 163 54.5 266.5t213.5 103.5q73 0 128 -36t106 -113q18 -28 29 -41.5t33 -28t48 -14.5q57 0 90.5 58t16.5 149h153q26 -153 -47.5 -259t-199.5 -106q-47 0 -88 15t-74 44t-51 49t-41 50q-31 39 -54.5 56.5t-50.5 17.5q-61 0 -92.5 -62t-17.5 -149h-156z" />
<glyph unicode="&#x2260;" horiz-adv-x="1308" d="M113 240v196h385l159 213h-544v197h694l149 196h168l-149 -196h221v-197h-369l-159 -213h528v-196h-678l-166 -222h-170l168 222h-237z" />
<glyph unicode="&#x2264;" horiz-adv-x="1439" d="M221 0v178h998v-178h-998zM221 745v281l998 490v-259l-756 -370l756 -373v-260z" />
<glyph unicode="&#x2265;" horiz-adv-x="1439" d="M221 0v178h998v-178h-998zM221 254v260l754 373l-754 370v259l998 -490v-281z" />
<glyph unicode="&#x25ca;" horiz-adv-x="1423" d="M168 723l545 618l544 -616l-544 -619zM510 723l203 -272l200 274l-200 272z" />
<glyph unicode="&#x25fc;" horiz-adv-x="1024" d="M0 0v1024h1024v-1024h-1024z" />
<glyph unicode="&#xf8ff;" horiz-adv-x="1894" d="M190 778q0 127 38.5 245.5t108.5 214.5t163 168t209 111t239 39q155 0 295.5 -61.5t241.5 -165.5t161 -248.5t60 -302.5t-60 -302t-161 -248t-241.5 -166t-295.5 -62q-154 0 -294.5 62t-242 166t-161.5 248t-60 302zM262 778q0 -143 54.5 -273t146.5 -224.5t219 -150.5 t266 -56q140 0 267 56t218.5 150.5t146 224.5t54.5 273q0 191 -92 353.5t-250 257t-344 94.5q-139 0 -266 -56t-219 -150.5t-146.5 -225t-54.5 -273.5zM516 481v594q0 15 10 26t25 11t25 -11t10 -26v-594q0 -15 -10 -26t-25 -11t-25 11t-10 26zM623 778q0 15 10 26t24 11 h183q15 0 26 -11t11 -26t-11 -26t-26 -11h-183q-14 0 -24 11t-10 26zM913 481v594q0 15 10.5 26t24.5 11q15 0 25 -11t10 -26v-594q0 -15 -10 -26t-25 -11q-14 0 -24.5 11t-10.5 26zM1021 779.5q-1 15.5 7 25.5l293 297q11 10 24.5 10t22.5 -10q12 -10 12 -26t-12 -27 l-262 -271l262 -270q10 -10 10 -24.5t-10 -26.5q-10 -13 -22 -13q-15 0 -25 13l-289 295q-10 12 -11 27.5z" />
<glyph horiz-adv-x="698" d="M174 1372q0 73 52 124.5t124 51.5t124 -51.5t52 -124.5q0 -71 -52 -122.5t-124 -51.5t-124 51.5t-52 122.5zM193 0v1024h315v-1024h-315z" />
</font>
</defs>
</svg>
