<svg xmlns="http://www.w3.org/2000/svg" xmlns:xlink="http://www.w3.org/1999/xlink" viewBox="0 0 2390.44 2400"><defs><style>.cls-1{isolation:isolate;}.cls-2{fill:#11b0c1;}.cls-3{fill:#fbb22e;}.cls-4{fill:#ff7427;}.cls-5{fill:#f4d9e2;}.cls-6{fill:#ffd400;}.cls-7{fill:#ffa008;}.cls-8{fill:#08758b;}.cls-9{fill:#ff8a20;}.cls-10{fill:#f29d7e;}.cls-11,.cls-12,.cls-15,.cls-16,.cls-17,.cls-18,.cls-21,.cls-27,.cls-28,.cls-32{mix-blend-mode:multiply;}.cls-11{fill:url(#New_Gradient_Swatch_2);}.cls-12,.cls-16,.cls-27,.cls-32{fill:#cbc7ff;}.cls-12{opacity:0.61;}.cls-13{fill:#ed6d53;}.cls-14{fill:#fc1763;}.cls-15{fill:#e1deff;opacity:0.71;}.cls-16{opacity:0.58;}.cls-17{fill:#c3b9dd;}.cls-18{fill:#1a1a1a;}.cls-19{fill:#1b4e61;}.cls-20,.cls-21{fill:#25cec5;}.cls-22{fill:#faf8dc;}.cls-23{fill:#f6b7a0;}.cls-24{fill:#fcfbeb;}.cls-25{fill:#e6e5ce;}.cls-26{fill:#184657;}.cls-27{opacity:0.7;}.cls-28{fill:url(#New_Gradient_Swatch_2-2);}.cls-29{fill:#d6b88d;}.cls-30{fill:#bd422a;}.cls-31{opacity:0.16;}.cls-32{opacity:0.63;}.cls-33{fill:#e289a9;}</style><linearGradient id="New_Gradient_Swatch_2" x1="595.29" y1="759.87" x2="582.17" y2="907.48" gradientTransform="matrix(1, -0.03, 0.03, 1, -1.44, -222.59)" gradientUnits="userSpaceOnUse"><stop offset="0" stop-color="#f0c3a8"/><stop offset="1" stop-color="#fff"/></linearGradient><linearGradient id="New_Gradient_Swatch_2-2" x1="3993.59" y1="-857.85" x2="3980.88" y2="-714.86" gradientTransform="matrix(0.73, 0.68, -0.68, 0.73, -2135.32, -388.23)" xlink:href="#New_Gradient_Swatch_2"/></defs><title>main_alt3</title><g class="cls-1"><g id="Capa_2" data-name="Capa 2"><g id="Alternative_2" data-name="Alternative 2"><rect class="cls-2" x="788.89" y="399" width="400" height="400"/><rect class="cls-3" x="1188.89" y="399" width="400" height="400"/><rect class="cls-4" x="1988.89" y="399" width="400" height="400"/><rect class="cls-5" x="788.89" y="799" width="400" height="400"/><rect class="cls-4" x="1188.89" y="799" width="400" height="400"/><rect class="cls-2" x="1588.89" y="799" width="400" height="400"/><rect class="cls-6" x="1988.89" y="799" width="400" height="400"/><rect class="cls-2" x="388.89" y="1199" width="400" height="400"/><rect class="cls-5" x="1188.89" y="1199" width="400" height="400"/><rect class="cls-7" x="788.89" y="1599" width="400" height="400"/><rect class="cls-8" x="1188.89" y="1599" width="400" height="400"/><rect class="cls-4" x="788.89" y="1999" width="400" height="400"/><rect class="cls-7" x="1188.89" y="1999" width="400" height="400"/><rect class="cls-6" x="1588.89" y="1999" width="400" height="400"/><rect class="cls-8" x="1988.89" y="1999" width="400" height="400"/><rect class="cls-4" x="192.59" y="1599" width="200" height="200"/><rect class="cls-3" y="1406.41" width="100" height="100"/><polygon class="cls-5" points="1988.89 399 1588.89 399 1588.89 799 1988.89 799 2388.89 399 1988.89 399"/><path class="cls-9" d="M1988.89,1199h-400v400C1588.89,1378.09,1768,1199,1988.89,1199Z"/><path class="cls-6" d="M1988.89,1199c220.91,0,400,179.09,400,400V1199Z"/><path class="cls-5" d="M1588.89,1599v400h400C1768,1999,1588.89,1819.91,1588.89,1599Z"/><path class="cls-3" d="M1988.89,1999h400V1599C2388.89,1819.91,2209.8,1999,1988.89,1999Z"/><polygon class="cls-4" points="1188.89 1599 1588.89 1199 1188.89 1199 1188.89 1599"/><polygon class="cls-7" points="1588.89 799 1588.89 1199 1988.89 799 1588.89 799"/><path class="cls-10" d="M658.73,658.51c-6-22.3-2.83-146.89-2.83-146.89l-97.71,3.61s-1.15,123-3.73,142.67-36.18,27.54-75.69,47.65c-5.41,2.75-11.47,9.12-16.84,13.73,6.38,14.3,137.92,62.28,147.28,74.63,10.29,13.56,108-58.67,119.43-90C682.68,678.68,664.37,679.44,658.73,658.51Z"/><path class="cls-11" d="M660.6,663.88a34.29,34.29,0,0,1-1.87-5.37c-6-22.3-2.83-146.89-2.83-146.89l-97.71,3.61s-1.15,123-3.73,142.67a19.67,19.67,0,0,1-3.61,8.87Z"/><path class="cls-12" d="M650.92,509.44l-90.27,3.33s-.34,28.87-1.07,63.84c6.94,16.37,20.84,42.55,45.06,42.16,27.81-.45,36.56-24.67,45.3-39C649.66,542.91,650.92,509.44,650.92,509.44Z"/><circle class="cls-10" cx="551.33" cy="510.12" r="31.73" transform="translate(-158.48 264.43) rotate(-23.68)"/><path class="cls-13" d="M568,511.29a16.72,16.72,0,1,1-15.51-17.85A16.73,16.73,0,0,1,568,511.29Z"/><path class="cls-14" d="M531.89,502c-14.5-12.69-17.84-58.44,8.7-76.82,9.67-6.7,22.83-9,25.56-18.62,5.24-18.59,33.54-32.35,54.41-21.92,26.87,13.42,39.91,3.09,55.36-12.6,16.6-16.86,27-34.69,72.76-26.67S808,348,816.55,326.16s50.52-39.53,89.37-12.41,51.25,48.4,77.45,38.65,52.72-24.8,75.93-.43,4.14,71.8-26.23,71.26-15.19,35.56-7,57.3-14.38,54.81-52.67,41.54-46.79-2.23-59.24,17.69-45.14,19-61,7.23S818,525.9,795.24,539.83s-30.27,22.77-57,11.52-32-7.19-47.15.9-45.59-3.41-45.59-3.41Z"/><path class="cls-15" d="M608,516.13l-2-23.39,89.06,5.69c35.69-20.79,44.15-20.58,72.33-13.25s24.46-26,54.08-35.92S856.78,465.81,884,465s19.19-27.7,53.86-25.6c32.75,2,36.69,26.58,82.55,25.89,1.86,5.4,3.89,10.64,5.61,15.24,8.14,21.73-14.38,54.81-52.67,41.54s-46.79-2.23-59.24,17.69-45.14,19-61,7.23S818,525.9,795.24,539.83s-30.27,22.77-57,11.52-30.95-8.6-46.1-.51-44.76.92-44.76.92Z"/><circle class="cls-10" cx="663.12" cy="510.12" r="31.73" transform="translate(-70.41 912.48) rotate(-66.32)"/><path class="cls-13" d="M646.44,511.29A16.72,16.72,0,1,0,662,493.44,16.73,16.73,0,0,0,646.44,511.29Z"/><path class="cls-10" d="M547.28,523.67c3.13,44.61,18.62,76.83,63.91,76.13,28.37-.43,52.37-31.76,52.1-76.49-.29-46.89-10-84.5-63.07-84.54C548.83,438.72,544.15,479.05,547.28,523.67Z"/><path class="cls-12" d="M605.9,523.06,595,544.37a3.81,3.81,0,0,0,3.35,5.55l12.89.16Z"/><path class="cls-16" d="M693.88,518c-25.72,10.43-38.06,1.27-50-5.6s-10.41-39.45-28-44.91S594,476,575.17,471.14c-22-5.65-26.41,7.58-26.41,7.58s-.63-16.42,31.87-28,69.58-11.79,88.75,8.29c6.29,6.59,6.08,16.59,13.12,23A36.49,36.49,0,0,1,693.88,518Z"/><path class="cls-17" d="M651.68,507.82c-1.54-.23-3-.59-4.47-.89s-2.93-.56-4.39-.75a60.72,60.72,0,0,0-8.68-.66,46.06,46.06,0,0,0-8.53.88,38.47,38.47,0,0,0-8.17,2.66l-.16.07a1.18,1.18,0,0,1-1.36-1.87,20.87,20.87,0,0,1,8.45-5.23,30.83,30.83,0,0,1,9.74-1.65,36.12,36.12,0,0,1,9.68,1.39,44.67,44.67,0,0,1,4.55,1.62c1.44.69,2.86,1.43,4.23,2.25a1.19,1.19,0,0,1,.41,1.63,1.17,1.17,0,0,1-1.19.57Z"/><path class="cls-18" d="M626.06,523c1.93.37,3.79.75,5.65,1a36.75,36.75,0,0,0,5.52.37,28.15,28.15,0,0,0,5.41-.64,24.53,24.53,0,0,0,5.18-1.76l.11-.06a.78.78,0,0,1,1.05.36.77.77,0,0,1-.13.88c-3,3.23-7.36,4.52-11.56,4.65a22.6,22.6,0,0,1-6.21-.85,26.67,26.67,0,0,1-2.92-1c-.92-.47-1.83-.93-2.7-1.46A.8.8,0,0,1,626,523Z"/><path class="cls-18" d="M563.91,523c1.93.37,3.8.75,5.65,1a36.83,36.83,0,0,0,5.52.37,28.15,28.15,0,0,0,5.41-.64,24.53,24.53,0,0,0,5.18-1.76l.11-.06a.79.79,0,0,1,.93,1.24c-3,3.23-7.37,4.52-11.57,4.65a22.65,22.65,0,0,1-6.21-.85,26.67,26.67,0,0,1-2.92-1c-.91-.47-1.83-.93-2.7-1.46a.8.8,0,0,1,.57-1.46Z"/><path class="cls-17" d="M591.86,507c-1.36-.16-2.65-.45-3.94-.69s-2.58-.45-3.86-.62a61.29,61.29,0,0,0-7.59-.62,44.36,44.36,0,0,0-7.46.53,37.5,37.5,0,0,0-7.22,1.94l-.19.07a1.18,1.18,0,0,1-1.28-1.91,18.11,18.11,0,0,1,7.59-4.51,27.55,27.55,0,0,1,8.63-1.26,31.93,31.93,0,0,1,8.51,1.36c1.37.38,2.67,1,4,1.48s2.51,1.3,3.7,2a1.18,1.18,0,0,1,.37,1.64A1.16,1.16,0,0,1,592,507Z"/><path class="cls-13" d="M590.76,562.83c-.06,2.11,7.32,4,16.19,3.88s15.82-1.91,15.94-4.49c.13-3.09-7.21.52-16.08.68S590.87,559.63,590.76,562.83Z"/><path class="cls-19" d="M543.63,569.92a1.58,1.58,0,0,1-1.58-1.58V534.61a1.58,1.58,0,1,1,3.15,0v33.73A1.58,1.58,0,0,1,543.63,569.92Z"/><path class="cls-19" d="M667.15,571.35a1.57,1.57,0,0,1-1.57-1.58V536a1.57,1.57,0,0,1,3.14,0v33.74A1.58,1.58,0,0,1,667.15,571.35Z"/><path class="cls-14" d="M694.39,498.6c-25.71,10.42-35.8,13.43-47.73,6.56s-10.41-39.45-28-44.91-21.57,10.45-40.91,8.18c-20.68-2.43-30,6.66-30,6.66s-6.81-30.73,25.69-42.36,79.5-1.12,98.68,19S694.39,498.6,694.39,498.6Z"/><path class="cls-20" d="M498.62,1198.48c-59.39,0-74.74-62.71-61.93-127.2,15-75.6,90.44-111.66,160.62-111.66s143.39,43.25,163.29,117.49c15.46,57.69-5.21,121.37-64.6,121.37Z"/><rect class="cls-21" x="470.68" y="1087.79" width="238.98" height="106.81" rx="8.83"/><path class="cls-2" d="M534.12,678s-59.55,21.68-80.59,43.69c-17.76,18.58-24.92,30.42-24.92,30.42l60.85,197.76h216.2L781.4,751.83s-16.51-30.1-53.41-50.17-47.25-22-51.46-24.6c0,0-52.76,64.41-66.35,65.06S534.12,678,534.12,678Z"/><path class="cls-22" d="M610.18,748c16.4.3,63.25-59.51,70.54-69a28.86,28.86,0,0,1-4.19-1.94s-52.76,64.41-66.35,65.06S534.12,678,534.12,678s-1.67.6-4.5,1.7C536.46,687.07,593.46,747.64,610.18,748Z"/><path class="cls-10" d="M429.9,752.48c9.07,34.95,43.38,38.84,49.2,84.15-29.78,55-60.2,137.23-60.2,137.23s115.87,5.83,162.47,20.07l-1.29,55h-189c-41.43,0-61.26-28.2-47.9-91.92C360,876.76,405.3,786.79,429.9,752.48Z"/><path class="cls-10" d="M779.2,752.48c-3,35.6-58.82,60.36-49.19,84.15,22,54.37,56.57,138.53,56.57,138.53s-114.71-3.24-157.43,10.35V1049H818c41.43,0,61.79-31.14,46.86-94.51C850.26,892.3,820.88,810.74,779.2,752.48Z"/><path class="cls-10" d="M479.07,1096.94c46.46-7,64.91,37.87,82,108.47s61.5,259.65,83.71,324.56c20.44,59.76-3.42,41-13.67,73.45-9.51,30.11-25,52.6-47.83,53.81-16.23.85-.28-48.69,17.94-86.27-2.57-35-39.29-103.34-96.52-227.19-56.32-121.9-57.5-141.21-60.92-182.2S462,1099.5,479.07,1096.94Z"/><path class="cls-23" d="M642.2,1095.23c43.56,0,42.71,86.27,40.15,132.39s-29.9,191.31-64.06,289.54S579,1631.6,578.15,1659.79s-32.46,33.31-53.81,32.45-21.35-6,.85-66.61,50.39-231.46,55.52-332.25S563.63,1095.23,642.2,1095.23Z"/><path class="cls-20" d="M435.73,1130.51c18.12-30.42,221.06-31.07,282.23-3.88l-3.89-86.42-260.22,4.86Z"/><path class="cls-24" d="M437.77,834.69h304a6.57,6.57,0,0,1,6.57,6.57v199.17a6.57,6.57,0,0,1-6.57,6.57h-304a6.57,6.57,0,0,1-6.57-6.57V841.26a6.58,6.58,0,0,1,6.58-6.58Z"/><path class="cls-25" d="M437.77,838.57h304a6.57,6.57,0,0,1,6.57,6.57v205.75a0,0,0,0,1,0,0H431.19a0,0,0,0,1,0,0V845.15A6.57,6.57,0,0,1,437.77,838.57Z"/><path class="cls-26" d="M431.19,1050.89H748.38a0,0,0,0,1,0,0v8.6a1.43,1.43,0,0,1-1.43,1.43H432.62a1.43,1.43,0,0,1-1.43-1.43v-8.6A0,0,0,0,1,431.19,1050.89Z"/><circle class="cls-22" cx="588.49" cy="944.08" r="27.83"/><path class="cls-7" d="M1980.53,1119.84c210.36,0,382.7,162.74,398,369.18h-398Z"/><path class="cls-2" d="M1989.78,1580h398q1.11,14.83,1.12,29.94c0,220.42-178.69,399.11-399.11,399.11A398.1,398.1,0,0,1,1693,1876.73Z"/><path class="cls-14" d="M1929.72,1112v369.18l-372.14-114.5C1615.46,1217.63,1760.24,1112,1929.72,1112Z"/><path class="cls-6" d="M1520.59,1533a396.77,396.77,0,0,1,25.86-114.5L1918.58,1533l-296.77,296.78a397.66,397.66,0,0,1-102.34-266.84Q1519.47,1547.79,1520.59,1533Z"/><polygon points="1768.66 1263.05 1771.48 1260.23 1611.25 1100 1390.91 1100 1390.91 1103.99 1609.6 1103.99 1768.66 1263.05"/><rect class="cls-6" x="1390.44" y="710" width="20" height="360"/><rect class="cls-6" x="1430.44" y="580" width="20" height="490"/><rect class="cls-6" x="1470.44" y="890" width="20" height="180"/><path class="cls-22" d="M1333.44,1851.37c24.66,60.61,34.42,146.65,37.5,208.29L1237.39,2073Z"/><path class="cls-10" d="M1711.33,2045.44s-10.64-26.12-62-22.49c-44.63,3.15-218.4,31.35-263.22,38.7-17.54,27.23-35.42,54.23-54.55,80.33,79.63,29.88,245.94-53.91,272.17-61.34,29.6-8.4,44.34-14.59,58.42-15.47s22.89,5.25,25.14,1.78-10.71-12.26-10.71-12.26c5.6.48,20.58,12.44,22.09,7.81s-13.33-13.82-13.33-13.82c6.83.5,17.63,12.28,21.2,9.59s-8.85-15.07-8.85-15.07Z"/><path class="cls-27" d="M1711.33,2045.44s-10.64-26.12-62-22.49c-44.63,3.15-218.4,31.35-263.22,38.7-17.54,27.23-35.42,54.23-54.55,80.33,79.63,29.88,245.94-53.91,272.17-61.34,29.6-8.4,44.34-14.59,58.42-15.47s22.89,5.25,25.14,1.78-10.71-12.26-10.71-12.26c5.6.48,20.58,12.44,22.09,7.81s-13.33-13.82-13.33-13.82c6.83.5,17.63,12.28,21.2,9.59s-8.85-15.07-8.85-15.07Z"/><path class="cls-10" d="M1197.59,1842.07c13.1,47.63,73.06,68.48,88,67.72,26.77-1.36,14.72,7.26,32.84-9-3.48-51.23-9-63.3,1.17-81.57,11.27-20.18,96.84-103.62,96.84-103.62l-72.61-65.7s-83,83.7-98.59,96c-9.44,7.44-40.73,10.28-56.9,15.86C1182.5,1790.82,1189.74,1813.56,1197.59,1842.07Z"/><path class="cls-28" d="M1317.13,1824.35a34.54,34.54,0,0,1,2.42-5.16c11.27-20.18,96.84-103.62,96.84-103.62l-72.61-65.7s-83,83.7-98.59,96a19.8,19.8,0,0,1-8.79,3.83Z"/><path class="cls-16" d="M1347.15,1769.32a69.69,69.69,0,0,0,9.47,7c27.19-30.28,53.19-58.11,53.19-58.11l-53.39-45.35C1329.66,1708.05,1322.08,1747.75,1347.15,1769.32Z"/><path class="cls-29" d="M1365.58,1569.38c-21.6,14.28-51.92,25.43-40,98l34.44,8.38,17.56-71.82Z"/><path class="cls-10" d="M1461.9,1717.6c-15.18,24.12-36.81,52.78-57.81,58-13.9,3.48-25.3-3.85-46.18-25.19-20.26-20.71-27.93-59.92-2.69-100s55.75-66.25,99-39C1501.92,1641.44,1487.14,1677.52,1461.9,1717.6Z"/><path d="M1451,1693.87a4.74,4.74,0,1,1-1.49-6.54A4.75,4.75,0,0,1,1451,1693.87Z"/><path class="cls-13" d="M1363.33,1693.31a33.61,33.61,0,0,1,35.81-56.88Z"/><path class="cls-30" d="M1371.8,1679.85a17.71,17.71,0,0,1,18.87-30Z"/><path class="cls-10" d="M1466.15,1699.52l2.9,34.08a5.46,5.46,0,0,1-7.43,5.54l-17.17-6.74Z"/><path class="cls-29" d="M1395.18,1643.65l-14.46,22.12,7.59,5.39c2.94-5.85,12.94-18.4,16.3-22.49Z"/><path class="cls-29" d="M1494.39,1600.89c-12.12-22.68-32.41-19.05-71.74-38-45-21.65-75.3,17.24-81.81,37-11.89,36.2,43.34,50.32,57.29,52.39,18.61,2.77,36-10.62,55-29.18,0,0,16.08,2.55,32.78,33.07C1500.85,1654.1,1512.65,1635.07,1494.39,1600.89Z"/><path class="cls-13" d="M1441.94,1666.15a40.36,40.36,0,0,1,15.36,5,36.83,36.83,0,0,1,6.72,4.78,28.51,28.51,0,0,1,2.89,3c.43.56.86,1.11,1.24,1.71l.55.89.24.44a1.56,1.56,0,0,1,.07.17s0,0,0,0l-.16-.1a4.29,4.29,0,0,0-.43-.14,1.37,1.37,0,0,0-1.14.32,1.42,1.42,0,0,1,1.83,2.17,1.56,1.56,0,0,1-1.2.32c-.54-.14-.41-.15-.48-.17a2.46,2.46,0,0,1-.27-.17l-.46-.32-2.81-1.83c-1-.68-2.1-1.32-3.15-2-2.11-1.29-4.28-2.5-6.45-3.74l-6.6-3.7c-2.23-1.25-4.47-2.51-6.68-4a1.49,1.49,0,0,1-.4-2A1.46,1.46,0,0,1,1441.94,1666.15Z"/><path class="cls-13" d="M1435.67,1747.32c1,.94,2,1.8,2.92,2.61-.88,1.2-1.93,2.52-3.11,3.88a40.16,40.16,0,0,1-4.55-3.77c-5.47-5.26-8.08-10.61-5.81-12S1430.2,1742.07,1435.67,1747.32Z"/><path class="cls-10" d="M1563.06,2232.81c4.64,25.1,25.61,128.87,26,150.45.29,18.3,49.82,9.66,83.56,9.93,43.14.34,85,6.74,82.87-8.56-1.37-9.93-69.52-8.22-102.6-54.72l-17.72-90.75Z"/><path class="cls-27" d="M1563.06,2232.81c4.64,25.1,25.61,128.87,26,150.45.29,18.3,49.82,9.66,83.56,9.93,43.14.34,85,6.74,82.87-8.56-1.37-9.93-69.52-8.22-102.6-54.72l-17.72-90.75Z"/><path class="cls-26" d="M1236.05,2137.38c42-61.89,147-237.4,266.24-225.37,109,11,152.19,332.57,152.19,332.57l-101.7,32.36-71.51-226-198.51,275.58L1146.14,2274Z"/><path class="cls-21" d="M1236.05,2136.38c42-61.89,147-237.4,266.24-225.37,109,11,152.19,332.57,152.19,332.57l-101.7,32.36-71.51-226-198.51,275.58L1146.14,2273Z"/><path class="cls-31" d="M1488.63,1973.56c67.71,2.08,110.12,276.68,111.89,288.37l-4.06.62c-.11-.71-11-71.88-29.88-142.35-24.78-92.44-51.77-141.72-78.08-142.53h-.85c-65.1,0-195.29,223.75-196.61,226l-3.55-2.06C1292.92,2192.23,1421.44,1971.46,1488.63,1973.56Z"/><path class="cls-26" d="M916.86,2133.63c-26.71,93.49-32.7,239.38,60.62,259.91,51.36,11.3,118.14,4.11,290.73,5.14,170.54,1,281.49,9.25,280.46-84.24s-207.52-69.86-251.7-74-248.61-6.16-248.61-6.16Z"/><path class="cls-22" d="M1319.06,1820.81s-12.69,21.58-53.42.51c-41.15-21.28-58-67.8-58-67.8s-126.36,26.71-212.66,186C940,2040.83,896.32,2186,896.32,2186s58.9,71.57,297.24,50c0,0,71.57-136.29,108.55-202S1369.4,1913.27,1319.06,1820.81Z"/><path class="cls-32" d="M1263.41,1877.14c44.61,50.25,60.27,135.78,60.27,135.78l-24.39,30.82Z"/><path class="cls-32" d="M1122.33,1920c-19.86,57.87,35.61,249.29,83.55,292.44l49-90.4Z"/><path class="cls-8" d="M1820.91,1933.09l-1.59-.49-61.52,198H1544.9v2.06a9.83,9.83,0,0,0,9.83,9.83h203.14a11.88,11.88,0,0,0,11.65-9.53l58.12-187.11A10.24,10.24,0,0,0,1820.91,1933.09Z"/><path class="cls-10" d="M1259,1905.56c21.45,47.31,76.56,258.57,76.56,258.57s208.8-85.16,258.08-100.06,65.45,8.21,65.45,8.21l-13.8.83s14.84,9.33,12,12.74-16-5.69-22.8-4.66c0,0,16.51,5.68,16.06,10.53s-17.7-3.5-23.27-2.73c0,0,14.58,5.7,13.15,9.58s-11.38-.15-24.91,3.83-26.53,13.28-53.54,28-206.5,163.83-281,108.71S1118.22,1985.7,1122.33,1920C1127.57,1836.15,1218.17,1815.6,1259,1905.56Z"/><path class="cls-33" d="M1050.78,2238.56l2,.41c10.35-51.06,65.33-212.66,86.17-247.61l-1.76-1C1116.29,2025.38,1061.15,2187.39,1050.78,2238.56Z"/><path class="cls-27" d="M1317.34,2096.24c-.38-1.41-.77-2.84-1.16-4.27L1297,2071l-111.63,25.34,9.71,31.66q5.34,9.6,10.89,18.85C1267.06,2135.51,1309,2103.08,1317.34,2096.24Z"/><path class="cls-22" d="M1322.27,2091.76c-19.44-70.74-45.88-162.88-59.63-193.2-44.45-98-143.18-75.64-148.89,15.67-2.67,42.7,30.38,136.71,74.7,218.42C1226.31,2128.48,1298.77,2103.81,1322.27,2091.76Z"/><path class="cls-2" d="M1492.88,2393.54,1508.21,2208a48.87,48.87,0,0,1,48.42-44.58h338.59a48.87,48.87,0,0,1,48.41,44.5l15.64,185.62h20.62l-15.78-187.34a69.55,69.55,0,0,0-68.89-63.32H1556.63a69.52,69.52,0,0,0-68.89,63.43l-15.48,187.23Z"/><path class="cls-33" d="M1175.61,2109.67l.28,2c53.61-7.46,139.77-40.81,140.63-41.15l-.74-1.91C1314.92,2069,1229,2102.24,1175.61,2109.67Z"/><path class="cls-33" d="M1325.49,1834.93c-.07.16-8,15.62-51.65,9-42.11-6.38-72.23-47.58-83.41-85.57l-2,.58a149.26,149.26,0,0,0,22.73,45.78c-17.39,6.6-31.71,20.65-32.73,21.68a82.24,82.24,0,0,0-17.39,3.17c-28.8,8.57-40.58,35.5-45.39,56.58-6.43,28.15-3.18,56.8,1.55,72.77l2-.58c-11.15-37.66-6.51-112.24,42.46-126.8,21.6-6.42,45-3.49,65.94,8.26,20.18,11.33,32,27,34.82,37.59l2-.52c-3.49-13.18-17.88-28.8-35.81-38.86a89.36,89.36,0,0,0-47-11.78c4.43-4.1,16.66-14.58,30.86-19.81,15.29,20,36.1,35.76,61,39.54a137.11,137.11,0,0,0,20.41,1.68c27.6,0,33.15-11.28,33.42-11.86Z"/><rect class="cls-8" x="1990.44" width="400" height="400"/><polygon class="cls-14" points="1990.44 0 1588.44 399 1990.44 399 1990.44 0"/></g></g></g></svg>