<?xml version="1.0" encoding="UTF-8"?>
<svg width="1260px" height="1062px" viewBox="0 0 1260 1062" version="1.1" xmlns="http://www.w3.org/2000/svg" xmlns:xlink="http://www.w3.org/1999/xlink">
    <!-- Generator: Sketch 62 (91390) - https://sketch.com -->
    <title>Group 9</title>
    <desc>Created with Sketch.</desc>
    <defs>
        <rect id="path-1" x="0" y="0" width="1200" height="506" rx="5"></rect>
        <filter x="-3.8%" y="-8.9%" width="107.5%" height="117.8%" filterUnits="objectBoundingBox" id="filter-2">
            <feMorphology radius="5" operator="dilate" in="SourceAlpha" result="shadowSpreadOuter1"></feMorphology>
            <feOffset dx="0" dy="0" in="shadowSpreadOuter1" result="shadowOffsetOuter1"></feOffset>
            <feGaussianBlur stdDeviation="10" in="shadowOffsetOuter1" result="shadowBlurOuter1"></feGaussianBlur>
            <feColorMatrix values="0 0 0 0 0   0 0 0 0 0   0 0 0 0 0  0 0 0 0.1 0" type="matrix" in="shadowBlurOuter1"></feColorMatrix>
        </filter>
        <rect id="path-3" x="0" y="0" width="568" height="423" rx="5"></rect>
        <filter x="-7.9%" y="-10.6%" width="115.8%" height="121.3%" filterUnits="objectBoundingBox" id="filter-4">
            <feMorphology radius="5" operator="dilate" in="SourceAlpha" result="shadowSpreadOuter1"></feMorphology>
            <feOffset dx="0" dy="0" in="shadowSpreadOuter1" result="shadowOffsetOuter1"></feOffset>
            <feGaussianBlur stdDeviation="10" in="shadowOffsetOuter1" result="shadowBlurOuter1"></feGaussianBlur>
            <feColorMatrix values="0 0 0 0 0   0 0 0 0 0   0 0 0 0 0  0 0 0 0.1 0" type="matrix" in="shadowBlurOuter1"></feColorMatrix>
        </filter>
        <rect id="path-5" x="0" y="0" width="600" height="97.6271186" rx="5"></rect>
        <filter x="-7.5%" y="-46.1%" width="115.0%" height="192.2%" filterUnits="objectBoundingBox" id="filter-6">
            <feMorphology radius="5" operator="dilate" in="SourceAlpha" result="shadowSpreadOuter1"></feMorphology>
            <feOffset dx="0" dy="0" in="shadowSpreadOuter1" result="shadowOffsetOuter1"></feOffset>
            <feGaussianBlur stdDeviation="10" in="shadowOffsetOuter1" result="shadowBlurOuter1"></feGaussianBlur>
            <feColorMatrix values="0 0 0 0 0   0 0 0 0 0   0 0 0 0 0  0 0 0 0.1 0" type="matrix" in="shadowBlurOuter1"></feColorMatrix>
        </filter>
        <rect id="path-7" x="0" y="0" width="600" height="97.6271186" rx="5"></rect>
        <filter x="-7.5%" y="-46.1%" width="115.0%" height="192.2%" filterUnits="objectBoundingBox" id="filter-8">
            <feMorphology radius="5" operator="dilate" in="SourceAlpha" result="shadowSpreadOuter1"></feMorphology>
            <feOffset dx="0" dy="0" in="shadowSpreadOuter1" result="shadowOffsetOuter1"></feOffset>
            <feGaussianBlur stdDeviation="10" in="shadowOffsetOuter1" result="shadowBlurOuter1"></feGaussianBlur>
            <feColorMatrix values="0 0 0 0 0   0 0 0 0 0   0 0 0 0 0  0 0 0 0.1 0" type="matrix" in="shadowBlurOuter1"></feColorMatrix>
        </filter>
    </defs>
    <g id="Landing-Imgs" stroke="none" stroke-width="1" fill="none" fill-rule="evenodd">
        <g id="landing_03" transform="translate(-20.000000, -19.000000)">
            <g id="Group-9" transform="translate(50.000000, 49.000000)">
                <g id="Group-11" transform="translate(0.000000, 280.000000)">
                    <g id="Rectangle">
                        <use fill="black" fill-opacity="1" filter="url(#filter-2)" xlink:href="#path-1"></use>
                        <use fill="#FFFFFF" fill-rule="evenodd" xlink:href="#path-1"></use>
                    </g>
                    <path d="M68.6757812,423 L68.6757812,414.644531 L67.3984375,414.644531 L65.3652344,416.419922 L65.3652344,417.826172 L67.328125,416.0625 L67.328125,423 L68.6757812,423 Z M74.4472656,423.111328 C76.2753906,423.111328 77.3535156,421.6875 77.3535156,418.816406 C77.3535156,415.951172 76.2929688,414.527344 74.4472656,414.527344 C72.5898438,414.527344 71.5351562,415.951172 71.5351562,418.816406 C71.5351562,421.6875 72.6074219,423.111328 74.4472656,423.111328 Z M74.4472656,421.886719 C73.4628906,421.886719 72.8945312,420.925781 72.8945312,418.816406 C72.8945312,416.677734 73.4863281,415.757812 74.4472656,415.757812 C75.3964844,415.757812 76,416.677734 76,418.816406 C76,420.925781 75.4199219,421.886719 74.4472656,421.886719 Z" id="10" fill="#8889A1" fill-rule="nonzero"></path>
                    <path d="M69.6757812,369 L69.6757812,360.644531 L68.3984375,360.644531 L66.3652344,362.419922 L66.3652344,363.826172 L68.328125,362.0625 L68.328125,369 L69.6757812,369 Z M76.6367188,369 L76.6367188,360.644531 L75.359375,360.644531 L73.3261719,362.419922 L73.3261719,363.826172 L75.2890625,362.0625 L75.2890625,369 L76.6367188,369 Z" id="11" fill="#8889A1" fill-rule="nonzero"></path>
                    <line x1="65" y1="355.5" x2="1173" y2="355.5" id="Line-2" stroke="#E7E7EC" stroke-linecap="square"></line>
                    <path d="M69.6757812,313 L69.6757812,304.644531 L68.3984375,304.644531 L66.3652344,306.419922 L66.3652344,307.826172 L68.328125,306.0625 L68.328125,313 L69.6757812,313 Z M78.3125,313 L78.3125,311.78125 L74.4570312,311.78125 L76.9121094,309.238281 C77.6738281,308.447266 78.0546875,307.785156 78.0546875,306.90625 C78.0546875,305.388672 76.9179688,304.515625 75.3945312,304.515625 C73.7714844,304.515625 72.6816406,305.441406 72.6816406,307.210938 L72.6816406,307.679688 L74.0234375,307.808594 L74.0234375,307.193359 C74.0234375,306.050781 74.609375,305.634766 75.4003906,305.634766 C76.1972656,305.634766 76.7246094,306.091797 76.7246094,306.912109 C76.7246094,307.380859 76.5371094,307.884766 75.8867188,308.552734 L72.546875,311.980469 L72.546875,313 L78.3125,313 Z" id="12" fill="#8889A1" fill-rule="nonzero"></path>
                    <line x1="65" y1="300.75" x2="1173" y2="300.75" id="Line-2" stroke="#E7E7EC" stroke-linecap="square"></line>
                    <path d="M69.6757812,257 L69.6757812,248.644531 L68.3984375,248.644531 L66.3652344,250.419922 L66.3652344,251.826172 L68.328125,250.0625 L68.328125,257 L69.6757812,257 Z M75.40625,257.111328 C77.140625,257.111328 78.3417969,256.103516 78.3417969,254.556641 C78.3417969,253.337891 77.5917969,252.675781 76.7890625,252.447266 C77.3398438,252.212891 77.9023438,251.591797 77.9023438,250.707031 C77.9023438,249.476562 76.8300781,248.527344 75.3710938,248.527344 C73.7597656,248.527344 72.8046875,249.453125 72.8046875,251.175781 L74.1757812,251.234375 C74.1757812,250.414062 74.3925781,249.710938 75.3828125,249.710938 C76.1035156,249.710938 76.6367188,250.132812 76.6367188,250.8125 C76.6367188,251.498047 76.1386719,252.001953 75.5058594,252.001953 L75.1542969,252.001953 L75.1542969,253.085938 L75.5234375,253.085938 C76.34375,253.085938 76.9648438,253.578125 76.9648438,254.498047 C76.9648438,255.330078 76.3847656,255.921875 75.40625,255.921875 C74.1816406,255.921875 73.8945312,255.236328 73.8945312,254.011719 L72.5117188,254.076172 C72.5117188,256.068359 73.4023438,257.111328 75.40625,257.111328 Z" id="13" fill="#8889A1" fill-rule="nonzero"></path>
                    <polyline id="Line-2" stroke="#E7E7EC" stroke-linecap="square" points="65 246.5 72.674189 246.5 1173 246.5"></polyline>
                    <path d="M69.6757812,199.5 L69.6757812,191.144531 L68.3984375,191.144531 L66.3652344,192.919922 L66.3652344,194.326172 L68.328125,192.5625 L68.328125,199.5 L69.6757812,199.5 Z M77.4980469,199.5 L77.4980469,197.865234 L78.6464844,197.865234 L78.6464844,196.652344 L77.4980469,196.652344 L77.4980469,191.144531 L75.4414062,191.144531 L72.2246094,196.646484 L72.2246094,197.865234 L76.1503906,197.865234 L76.1503906,199.5 L77.4980469,199.5 Z M76.1503906,196.652344 L73.5371094,196.652344 L76.1503906,192.011719 L76.1503906,196.652344 Z" id="14" fill="#8889A1" fill-rule="nonzero"></path>
                    <line x1="65" y1="187.75" x2="1173" y2="187.75" id="Line-2" stroke="#E7E7EC" stroke-linecap="square"></line>
                    <path d="M69.6757812,142.818182 L69.6757812,134.462713 L68.3984375,134.462713 L66.3652344,136.238104 L66.3652344,137.644354 L68.328125,135.880682 L68.328125,142.818182 L69.6757812,142.818182 Z M75.5117188,142.92951 C77.2285156,142.92951 78.3886719,141.786932 78.3886719,140.070135 C78.3886719,138.400213 77.3984375,137.415838 75.2597656,137.415838 L74.3457031,137.415838 L74.5273438,135.687322 L78.0078125,135.687322 L78.0078125,134.468572 L73.3496094,134.468572 L72.9160156,138.564276 L75.0664062,138.564276 C76.5195312,138.564276 77.0292969,139.202947 77.0292969,140.11701 C77.0292969,141.036932 76.4609375,141.681463 75.4824219,141.681463 C74.7324219,141.681463 73.9707031,141.271307 73.9707031,140.228338 C73.9707031,140.099432 73.9882812,139.964666 74.0117188,139.806463 L72.6582031,139.888494 C72.640625,140.040838 72.6289062,140.175604 72.6289062,140.310369 C72.6289062,141.997869 73.9707031,142.92951 75.5117188,142.92951 Z" id="15" fill="#8889A1" fill-rule="nonzero"></path>
                    <line x1="65" y1="129.545455" x2="1173" y2="129.545455" id="Line-2" stroke="#E7E7EC" stroke-linecap="square"></line>
                    <path d="M69.6757812,82.375 L69.6757812,74.0195312 L68.3984375,74.0195312 L66.3652344,75.7949219 L66.3652344,77.2011719 L68.328125,75.4375 L68.328125,82.375 L69.6757812,82.375 Z M75.4355469,82.4746094 C77.0527344,82.4746094 78.4414062,81.296875 78.4238281,79.5800781 C78.40625,77.8808594 77.1289062,76.8320312 75.734375,76.8320312 C75.546875,76.8320312 75.3652344,76.8496094 75.1894531,76.8847656 L77.4277344,74.0195312 L75.875,74.0195312 L73.1738281,77.59375 C72.6757812,78.2734375 72.4414062,78.9296875 72.4414062,79.6152344 C72.4414062,81.2851562 73.7539062,82.4746094 75.4355469,82.4746094 Z M75.4003906,81.2441406 C74.3984375,81.2441406 73.7128906,80.6054688 73.7128906,79.5625 C73.7128906,78.6015625 74.4042969,77.8398438 75.4003906,77.8398438 C76.390625,77.8398438 77.0996094,78.5136719 77.1054688,79.5507812 C77.1113281,80.5761719 76.3847656,81.2441406 75.4003906,81.2441406 Z" id="16" fill="#8889A1" fill-rule="nonzero"></path>
                    <line x1="65" y1="67.7916667" x2="1173" y2="67.7916667" id="Line-2" stroke="#E7E7EC" stroke-linecap="square"></line>
                    <path d="M22.6674805,259 C25.7163086,259 27.2475586,257.010742 27.2475586,254.119141 C27.2475586,251.234375 25.7163086,249.251953 22.6674805,249.251953 L19.331543,249.251953 L19.331543,259 L22.6674805,259 Z M22.5991211,257.537109 L20.965332,257.537109 L20.965332,250.708008 L22.5991211,250.708008 C24.5952148,250.708008 25.5317383,252.006836 25.5317383,254.119141 C25.5317383,256.245117 24.5952148,257.537109 22.5991211,257.537109 Z M30.0024414,259 L30.7680664,256.833008 L35.0268555,256.833008 L35.7993164,259 L37.480957,259 L33.8920898,249.251953 L31.902832,249.251953 L28.3139648,259 L30.0024414,259 Z M34.534668,255.431641 L31.2670898,255.431641 L32.9008789,250.824219 L34.534668,255.431641 Z M42.8676758,259 L42.8676758,254.344727 L46.0737305,249.251953 L44.2485352,249.251953 L42.0405273,252.895508 L39.8393555,249.251953 L38.0073242,249.251953 L41.2270508,254.365234 L41.2270508,259 L42.8676758,259 Z M50.8110352,259.129883 C52.6704102,259.129883 54.3588867,258.289062 54.3588867,256.272461 C54.3588867,254.317383 52.5952148,253.797852 51.0708008,253.374023 C49.8881836,253.045898 48.855957,252.765625 48.855957,251.863281 C48.855957,250.87207 49.7172852,250.482422 50.6264648,250.482422 C51.6450195,250.482422 52.4516602,250.94043 52.6704102,251.979492 L54.2495117,251.583008 C53.8735352,249.833008 52.253418,249.115234 50.5444336,249.115234 C48.6918945,249.115234 47.2016602,250.072266 47.2016602,251.890625 C47.2016602,253.681641 48.7192383,254.173828 50.1958008,254.604492 C51.4741211,254.966797 52.6567383,255.274414 52.6704102,256.34082 C52.684082,257.366211 51.8227539,257.769531 50.8725586,257.769531 C49.6694336,257.769531 48.746582,257.154297 48.5688477,256.033203 L46.887207,256.422852 C47.2016602,258.145508 48.746582,259.129883 50.8110352,259.129883 Z" id="DAYS" fill="#8889A1" fill-rule="nonzero" transform="translate(36.845215, 254.122559) rotate(-90.000000) translate(-36.845215, -254.122559) "></path>
                    <path d="M88.5556641,441.518182 L89.1123047,434.932244 L91.4970703,441.518182 L92.3759766,441.518182 L94.7724609,434.920526 L95.3232422,441.518182 L96.7119141,441.518182 L96.0498047,433.162713 L94.0986328,433.162713 L91.9306641,439.068963 L89.7802734,433.162713 L87.8291016,433.162713 L87.1611328,441.518182 L88.5556641,441.518182 Z M99.2841797,441.518182 L99.9404297,439.66076 L103.59082,439.66076 L104.25293,441.518182 L105.694336,441.518182 L102.618164,433.162713 L100.913086,433.162713 L97.8369141,441.518182 L99.2841797,441.518182 Z M103.168945,438.459588 L100.368164,438.459588 L101.768555,434.510369 L103.168945,438.459588 Z M108.55957,441.518182 L108.55957,437.791619 L109.461914,437.791619 L111.629883,441.518182 L113.276367,441.518182 L110.868164,437.738885 C111.975586,437.539666 112.666992,436.75451 112.666992,435.588494 C112.666992,434.246697 111.870117,433.162713 110.05957,433.162713 L107.15918,433.162713 L107.15918,441.518182 L108.55957,441.518182 Z M109.854492,436.75451 L108.55957,436.75451 L108.55957,434.346307 L109.854492,434.346307 C110.879883,434.346307 111.319336,434.850213 111.319336,435.559197 C111.319336,436.274041 110.879883,436.75451 109.854492,436.75451 Z M122.276367,441.518182 L122.276367,439.883416 L123.424805,439.883416 L123.424805,438.670526 L122.276367,438.670526 L122.276367,433.162713 L120.219727,433.162713 L117.00293,438.664666 L117.00293,439.883416 L120.928711,439.883416 L120.928711,441.518182 L122.276367,441.518182 Z M120.928711,438.670526 L118.31543,438.670526 L120.928711,434.029901 L120.928711,438.670526 Z" id="MAR4" fill="#8889A1" fill-rule="nonzero"></path>
                    <line x1="105.39675" y1="51" x2="105.39675" y2="412.159481" id="Line-3-Copy" stroke="#E7E7EC" stroke-linecap="square"></line>
                    <path d="M261.055664,440.552905 L261.612305,433.966968 L263.99707,440.552905 L264.875977,440.552905 L267.272461,433.955249 L267.823242,440.552905 L269.211914,440.552905 L268.549805,432.197437 L266.598633,432.197437 L264.430664,438.103687 L262.280273,432.197437 L260.329102,432.197437 L259.661133,440.552905 L261.055664,440.552905 Z M271.78418,440.552905 L272.44043,438.695483 L276.09082,438.695483 L276.75293,440.552905 L278.194336,440.552905 L275.118164,432.197437 L273.413086,432.197437 L270.336914,440.552905 L271.78418,440.552905 Z M275.668945,437.494312 L272.868164,437.494312 L274.268555,433.545093 L275.668945,437.494312 Z M281.05957,440.552905 L281.05957,436.826343 L281.961914,436.826343 L284.129883,440.552905 L285.776367,440.552905 L283.368164,436.773608 C284.475586,436.57439 285.166992,435.789233 285.166992,434.623218 C285.166992,433.281421 284.370117,432.197437 282.55957,432.197437 L279.65918,432.197437 L279.65918,440.552905 L281.05957,440.552905 Z M282.354492,435.789233 L281.05957,435.789233 L281.05957,433.38103 L282.354492,433.38103 C283.379883,433.38103 283.819336,433.884937 283.819336,434.593921 C283.819336,435.308765 283.379883,435.789233 282.354492,435.789233 Z M292.790039,440.664233 C294.506836,440.664233 295.666992,439.521655 295.666992,437.804858 C295.666992,436.134937 294.676758,435.150562 292.538086,435.150562 L291.624023,435.150562 L291.805664,433.422046 L295.286133,433.422046 L295.286133,432.203296 L290.62793,432.203296 L290.194336,436.298999 L292.344727,436.298999 C293.797852,436.298999 294.307617,436.937671 294.307617,437.851733 C294.307617,438.771655 293.739258,439.416187 292.760742,439.416187 C292.010742,439.416187 291.249023,439.00603 291.249023,437.963062 C291.249023,437.834155 291.266602,437.69939 291.290039,437.541187 L289.936523,437.623218 C289.918945,437.775562 289.907227,437.910327 289.907227,438.045093 C289.907227,439.732593 291.249023,440.664233 292.790039,440.664233 Z" id="MAR5" fill="#8889A1" fill-rule="nonzero"></path>
                    <line x1="277.142241" y1="51" x2="277.142241" y2="412.200373" id="Line-3-Copy-2" stroke="#E7E7EC" stroke-linecap="square"></line>
                    <path d="M431.555664,439.353552 L432.112305,432.767614 L434.49707,439.353552 L435.375977,439.353552 L437.772461,432.755895 L438.323242,439.353552 L439.711914,439.353552 L439.049805,430.998083 L437.098633,430.998083 L434.930664,436.904333 L432.780273,430.998083 L430.829102,430.998083 L430.161133,439.353552 L431.555664,439.353552 Z M442.28418,439.353552 L442.94043,437.49613 L446.59082,437.49613 L447.25293,439.353552 L448.694336,439.353552 L445.618164,430.998083 L443.913086,430.998083 L440.836914,439.353552 L442.28418,439.353552 Z M446.168945,436.294958 L443.368164,436.294958 L444.768555,432.345739 L446.168945,436.294958 Z M451.55957,439.353552 L451.55957,435.626989 L452.461914,435.626989 L454.629883,439.353552 L456.276367,439.353552 L453.868164,435.574255 C454.975586,435.375036 455.666992,434.58988 455.666992,433.423864 C455.666992,432.082067 454.870117,430.998083 453.05957,430.998083 L450.15918,430.998083 L450.15918,439.353552 L451.55957,439.353552 Z M452.854492,434.58988 L451.55957,434.58988 L451.55957,432.181677 L452.854492,432.181677 C453.879883,432.181677 454.319336,432.685583 454.319336,433.394567 C454.319336,434.109411 453.879883,434.58988 452.854492,434.58988 Z M463.213867,439.453161 C464.831055,439.453161 466.219727,438.275427 466.202148,436.55863 C466.18457,434.859411 464.907227,433.810583 463.512695,433.810583 C463.325195,433.810583 463.143555,433.828161 462.967773,433.863317 L465.206055,430.998083 L463.65332,430.998083 L460.952148,434.572302 C460.454102,435.251989 460.219727,435.908239 460.219727,436.593786 C460.219727,438.263708 461.532227,439.453161 463.213867,439.453161 Z M463.178711,438.222692 C462.176758,438.222692 461.491211,437.58402 461.491211,436.541052 C461.491211,435.580114 462.182617,434.818395 463.178711,434.818395 C464.168945,434.818395 464.87793,435.492223 464.883789,436.529333 C464.889648,437.554723 464.163086,438.222692 463.178711,438.222692 Z" id="MAR6" fill="#8889A1" fill-rule="nonzero"></path>
                    <line x1="446.142241" y1="51" x2="446.142241" y2="411.790936" id="Line-3-Copy-3" stroke="#E7E7EC" stroke-linecap="square"></line>
                    <path d="M607.055664,439.353552 L607.612305,432.767614 L609.99707,439.353552 L610.875977,439.353552 L613.272461,432.755895 L613.823242,439.353552 L615.211914,439.353552 L614.549805,430.998083 L612.598633,430.998083 L610.430664,436.904333 L608.280273,430.998083 L606.329102,430.998083 L605.661133,439.353552 L607.055664,439.353552 Z M617.78418,439.353552 L618.44043,437.49613 L622.09082,437.49613 L622.75293,439.353552 L624.194336,439.353552 L621.118164,430.998083 L619.413086,430.998083 L616.336914,439.353552 L617.78418,439.353552 Z M621.668945,436.294958 L618.868164,436.294958 L620.268555,432.345739 L621.668945,436.294958 Z M627.05957,439.353552 L627.05957,435.626989 L627.961914,435.626989 L630.129883,439.353552 L631.776367,439.353552 L629.368164,435.574255 C630.475586,435.375036 631.166992,434.58988 631.166992,433.423864 C631.166992,432.082067 630.370117,430.998083 628.55957,430.998083 L625.65918,430.998083 L625.65918,439.353552 L627.05957,439.353552 Z M628.354492,434.58988 L627.05957,434.58988 L627.05957,432.181677 L628.354492,432.181677 C629.379883,432.181677 629.819336,432.685583 629.819336,433.394567 C629.819336,434.109411 629.379883,434.58988 628.354492,434.58988 Z M637.723633,439.353552 L641.655273,432.070348 L641.655273,430.998083 L635.848633,430.998083 L635.848633,432.210973 L640.137695,432.210973 L636.188477,439.353552 L637.723633,439.353552 Z" id="MAR7" fill="#8889A1" fill-rule="nonzero"></path>
                    <line x1="624.642241" y1="51" x2="624.642241" y2="411.790936" id="Line-3-Copy-4" stroke="#E7E7EC" stroke-linecap="square"></line>
                    <path d="M786.555664,438.137831 L787.112305,431.551893 L789.49707,438.137831 L790.375977,438.137831 L792.772461,431.540174 L793.323242,438.137831 L794.711914,438.137831 L794.049805,429.782362 L792.098633,429.782362 L789.930664,435.688612 L787.780273,429.782362 L785.829102,429.782362 L785.161133,438.137831 L786.555664,438.137831 Z M797.28418,438.137831 L797.94043,436.280409 L801.59082,436.280409 L802.25293,438.137831 L803.694336,438.137831 L800.618164,429.782362 L798.913086,429.782362 L795.836914,438.137831 L797.28418,438.137831 Z M801.168945,435.079237 L798.368164,435.079237 L799.768555,431.130018 L801.168945,435.079237 Z M806.55957,438.137831 L806.55957,434.411268 L807.461914,434.411268 L809.629883,438.137831 L811.276367,438.137831 L808.868164,434.358534 C809.975586,434.159315 810.666992,433.374159 810.666992,432.208143 C810.666992,430.866346 809.870117,429.782362 808.05957,429.782362 L805.15918,429.782362 L805.15918,438.137831 L806.55957,438.137831 Z M807.854492,433.374159 L806.55957,433.374159 L806.55957,430.965956 L807.854492,430.965956 C808.879883,430.965956 809.319336,431.469862 809.319336,432.178846 C809.319336,432.89369 808.879883,433.374159 807.854492,433.374159 Z M818.231445,438.249159 C819.889648,438.249159 821.166992,437.282362 821.166992,435.70619 C821.166992,434.669081 820.586914,433.907362 819.731445,433.532362 C820.334961,433.17494 820.739258,432.571424 820.739258,431.827284 C820.739258,430.54994 819.666992,429.665174 818.231445,429.665174 C816.766602,429.665174 815.700195,430.54994 815.700195,431.827284 C815.700195,432.571424 816.104492,433.17494 816.731445,433.532362 C815.858398,433.907362 815.290039,434.669081 815.290039,435.70619 C815.290039,437.282362 816.567383,438.249159 818.231445,438.249159 Z M818.231445,433.116346 C817.510742,433.116346 816.954102,432.589003 816.954102,431.903456 C816.954102,431.229628 817.510742,430.714003 818.231445,430.714003 C818.93457,430.714003 819.50293,431.229628 819.50293,431.903456 C819.50293,432.589003 818.93457,433.116346 818.231445,433.116346 Z M818.231445,437.030409 C817.334961,437.030409 816.643555,436.462049 816.643555,435.547987 C816.643555,434.645643 817.334961,434.089003 818.231445,434.089003 C819.110352,434.089003 819.807617,434.645643 819.807617,435.547987 C819.807617,436.462049 819.110352,437.030409 818.231445,437.030409 Z" id="MAR8" fill="#8889A1" fill-rule="nonzero"></path>
                    <line x1="803.39675" y1="51" x2="803.39675" y2="412.303637" id="Line-3-Copy-5" stroke="#E7E7EC" stroke-linecap="square"></line>
                    <path d="M960.055664,440.056538 L960.612305,433.470601 L962.99707,440.056538 L963.875977,440.056538 L966.272461,433.458882 L966.823242,440.056538 L968.211914,440.056538 L967.549805,431.701069 L965.598633,431.701069 L963.430664,437.607319 L961.280273,431.701069 L959.329102,431.701069 L958.661133,440.056538 L960.055664,440.056538 Z M970.78418,440.056538 L971.44043,438.199116 L975.09082,438.199116 L975.75293,440.056538 L977.194336,440.056538 L974.118164,431.701069 L972.413086,431.701069 L969.336914,440.056538 L970.78418,440.056538 Z M974.668945,436.997944 L971.868164,436.997944 L973.268555,433.048726 L974.668945,436.997944 Z M980.05957,440.056538 L980.05957,436.329976 L980.961914,436.329976 L983.129883,440.056538 L984.776367,440.056538 L982.368164,436.277241 C983.475586,436.078022 984.166992,435.292866 984.166992,434.126851 C984.166992,432.785054 983.370117,431.701069 981.55957,431.701069 L978.65918,431.701069 L978.65918,440.056538 L980.05957,440.056538 Z M981.354492,435.292866 L980.05957,435.292866 L980.05957,432.884663 L981.354492,432.884663 C982.379883,432.884663 982.819336,433.388569 982.819336,434.097554 C982.819336,434.812397 982.379883,435.292866 981.354492,435.292866 Z M991.274414,440.056538 L993.975586,436.482319 C994.479492,435.802632 994.713867,435.134663 994.713867,434.460835 C994.713867,432.790913 993.395508,431.595601 991.719727,431.595601 C990.09082,431.595601 988.713867,432.773335 988.731445,434.495991 C988.749023,436.189351 990.026367,437.244038 991.40918,437.244038 C991.59082,437.244038 991.766602,437.22646 991.936523,437.191304 L989.709961,440.056538 L991.274414,440.056538 Z M991.754883,436.236226 C990.764648,436.236226 990.049805,435.556538 990.043945,434.525288 C990.038086,433.499897 990.776367,432.826069 991.754883,432.826069 C992.750977,432.826069 993.436523,433.47646 993.436523,434.513569 C993.436523,435.474507 992.750977,436.236226 991.754883,436.236226 Z" id="MAR9" fill="#8889A1" fill-rule="nonzero"></path>
                    <line x1="976.897084" y1="51" x2="976.897084" y2="412.208359" id="Line-3-Copy-6" stroke="#E7E7EC" stroke-linecap="square"></line>
                    <path d="M1129.5752,439.353552 L1130.13184,432.767614 L1132.5166,439.353552 L1133.39551,439.353552 L1135.79199,432.755895 L1136.34277,439.353552 L1137.73145,439.353552 L1137.06934,430.998083 L1135.11816,430.998083 L1132.9502,436.904333 L1130.7998,430.998083 L1128.84863,430.998083 L1128.18066,439.353552 L1129.5752,439.353552 Z M1140.30371,439.353552 L1140.95996,437.49613 L1144.61035,437.49613 L1145.27246,439.353552 L1146.71387,439.353552 L1143.6377,430.998083 L1141.93262,430.998083 L1138.85645,439.353552 L1140.30371,439.353552 Z M1144.18848,436.294958 L1141.3877,436.294958 L1142.78809,432.345739 L1144.18848,436.294958 Z M1149.5791,439.353552 L1149.5791,435.626989 L1150.48145,435.626989 L1152.64941,439.353552 L1154.2959,439.353552 L1151.8877,435.574255 C1152.99512,435.375036 1153.68652,434.58988 1153.68652,433.423864 C1153.68652,432.082067 1152.88965,430.998083 1151.0791,430.998083 L1148.17871,430.998083 L1148.17871,439.353552 L1149.5791,439.353552 Z M1150.87402,434.58988 L1149.5791,434.58988 L1149.5791,432.181677 L1150.87402,432.181677 C1151.89941,432.181677 1152.33887,432.685583 1152.33887,433.394567 C1152.33887,434.109411 1151.89941,434.58988 1150.87402,434.58988 Z M1162.43457,439.353552 L1162.43457,430.998083 L1161.15723,430.998083 L1159.12402,432.773473 L1159.12402,434.179723 L1161.08691,432.416052 L1161.08691,439.353552 L1162.43457,439.353552 Z M1168.20605,439.46488 C1170.03418,439.46488 1171.1123,438.041052 1171.1123,435.169958 C1171.1123,432.304723 1170.05176,430.880895 1168.20605,430.880895 C1166.34863,430.880895 1165.29395,432.304723 1165.29395,435.169958 C1165.29395,438.041052 1166.36621,439.46488 1168.20605,439.46488 Z M1168.20605,438.24027 C1167.22168,438.24027 1166.65332,437.279333 1166.65332,435.169958 C1166.65332,433.031286 1167.24512,432.111364 1168.20605,432.111364 C1169.15527,432.111364 1169.75879,433.031286 1169.75879,435.169958 C1169.75879,437.279333 1169.17871,438.24027 1168.20605,438.24027 Z" id="MAR10" fill="#8889A1" fill-rule="nonzero"></path>
                    <line x1="1149.89646" y1="51" x2="1149.89646" y2="411.790936" id="Line-3-Copy-8" stroke="#E7E7EC" stroke-linecap="square"></line>
                    <ellipse id="Oval" stroke="#FFA008" stroke-width="2" fill="#FFFFFF" transform="translate(105.586198, 186.714286) rotate(-180.000000) translate(-105.586198, -186.714286) " cx="105.586198" cy="186.714286" rx="4.58619777" ry="4.71428571"></ellipse>
                    <line x1="113.612044" y1="187.5" x2="1156.77734" y2="187.5" id="Line-6" stroke="#FFA008" stroke-width="2" stroke-linecap="square" stroke-dasharray="1,4"></line>
                    <g id="Graphic-information" transform="translate(994.000000, 157.000000)">
                        <g id="Group-21">
                            <rect id="Rectangle" stroke="#E7E7EC" fill="#FFFFFF" x="0" y="0" width="94" height="24" rx="5"></rect>
                            <rect id="Rectangle" fill="#FFA008" x="4.83823529" y="9" width="6" height="6" rx="3"></rect>
                            <rect id="Rectangle" fill="#24C7CC" x="13.8382353" y="9" width="6" height="6" rx="3"></rect>
                        </g>
                    </g>
                    <ellipse id="Oval" stroke="#FFA008" stroke-width="2" fill="#FFFFFF" transform="translate(1149.932655, 187.500000) rotate(-180.000000) translate(-1149.932655, -187.500000) " cx="1149.93266" cy="187.5" rx="5.26980083" ry="5.5"></ellipse>
                    <polyline id="Path-3" stroke="#24C7CC" stroke-width="2" transform="translate(627.000000, 226.688406) scale(-1, 1) rotate(-360.000000) translate(-627.000000, -226.688406) " points="104 385.376812 278.162824 324.231884 450.9319 318.202899 630.511527 380 809.303658 188.57971 979.848703 227.768116 1150 68"></polyline>
                    <circle id="Oval" stroke="#24C7CC" stroke-width="2" fill="#FFFFFF" transform="translate(1149.500000, 385.500000) scale(-1, 1) rotate(-360.000000) translate(-1149.500000, -385.500000) " cx="1149.5" cy="385.5" r="5.5"></circle>
                    <circle id="Oval" stroke="#24C7CC" stroke-width="2" fill="#FFFFFF" transform="translate(978.500000, 325.500000) scale(-1, 1) rotate(-360.000000) translate(-978.500000, -325.500000) " cx="978.5" cy="325.5" r="5.5"></circle>
                    <circle id="Oval" stroke="#24C7CC" stroke-width="2" fill="#FFFFFF" transform="translate(803.500000, 319.500000) scale(-1, 1) rotate(-360.000000) translate(-803.500000, -319.500000) " cx="803.5" cy="319.5" r="5.5"></circle>
                    <circle id="Oval" stroke="#24C7CC" stroke-width="2" fill="#FFFFFF" transform="translate(625.500000, 379.500000) scale(-1, 1) rotate(-360.000000) translate(-625.500000, -379.500000) " cx="625.5" cy="379.5" r="5.5"></circle>
                    <circle id="Oval" stroke="#24C7CC" stroke-width="2" fill="#FFFFFF" transform="translate(444.500000, 188.500000) scale(-1, 1) rotate(-360.000000) translate(-444.500000, -188.500000) " cx="444.5" cy="188.5" r="5.5"></circle>
                    <circle id="Oval" stroke="#24C7CC" stroke-width="2" fill="#FFFFFF" transform="translate(276.500000, 229.500000) scale(-1, 1) rotate(-360.000000) translate(-276.500000, -229.500000) " cx="276.5" cy="229.5" r="5.5"></circle>
                    <circle id="Oval" stroke="#24C7CC" stroke-width="2" fill="#FFFFFF" transform="translate(104.500000, 69.500000) scale(-1, 1) rotate(-360.000000) translate(-104.500000, -69.500000) " cx="104.5" cy="69.5" r="5.5"></circle>
                    <polyline id="Path-3" stroke="#147EEC" stroke-width="2" transform="translate(627.500000, 317.188406) scale(-1, 1) rotate(-360.000000) translate(-627.500000, -317.188406) " points="105 405.376812 279.162824 394.231884 451.9319 378.202899 629.511527 339 810.303658 288.57971 977.848703 277.768116 1150 229"></polyline>
                    <circle id="Oval" stroke="#147EEC" stroke-width="2" fill="#FFFFFF" transform="translate(977.500000, 394.500000) scale(-1, 1) rotate(-360.000000) translate(-977.500000, -394.500000) " cx="977.5" cy="394.5" r="5.5"></circle>
                    <circle id="Oval" stroke="#147EEC" stroke-width="2" fill="#FFFFFF" transform="translate(803.500000, 378.500000) scale(-1, 1) rotate(-360.000000) translate(-803.500000, -378.500000) " cx="803.5" cy="378.5" r="5.5"></circle>
                    <circle id="Oval" stroke="#147EEC" stroke-width="2" fill="#FFFFFF" transform="translate(625.500000, 338.500000) scale(-1, 1) rotate(-360.000000) translate(-625.500000, -338.500000) " cx="625.5" cy="338.5" r="5.5"></circle>
                    <circle id="Oval" stroke="#147EEC" stroke-width="2" fill="#FFFFFF" transform="translate(444.500000, 288.500000) scale(-1, 1) rotate(-360.000000) translate(-444.500000, -288.500000) " cx="444.5" cy="288.5" r="5.5"></circle>
                    <circle id="Oval" stroke="#147EEC" stroke-width="2" fill="#FFFFFF" transform="translate(276.500000, 277.500000) scale(-1, 1) rotate(-360.000000) translate(-276.500000, -277.500000) " cx="276.5" cy="277.5" r="5.5"></circle>
                    <circle id="Oval" stroke="#147EEC" stroke-width="2" fill="#FFFFFF" transform="translate(104.500000, 229.500000) scale(-1, 1) rotate(-360.000000) translate(-104.500000, -229.500000) " cx="104.5" cy="229.5" r="5.5"></circle>
                    <ellipse id="Oval" stroke="#4DC7EE" stroke-width="2" fill="#FFFFFF" transform="translate(105.586198, 354.714286) rotate(-180.000000) translate(-105.586198, -354.714286) " cx="105.586198" cy="354.714286" rx="4.58619777" ry="4.71428571"></ellipse>
                    <line x1="113.612044" y1="355.5" x2="1156.77734" y2="355.5" id="Line-6" stroke="#4DC7EE" stroke-width="2" stroke-linecap="square" stroke-dasharray="1,4"></line>
                    <ellipse id="Oval" stroke="#4DC7EE" stroke-width="2" fill="#FFFFFF" transform="translate(1149.932655, 355.500000) rotate(-180.000000) translate(-1149.932655, -355.500000) " cx="1149.93266" cy="355.5" rx="5.26980083" ry="5.5"></ellipse>
                    <line x1="65" y1="411.5" x2="1173" y2="411.5" id="Line-2" stroke="#E7E7EC" stroke-linecap="square"></line>
                    <circle id="Oval" stroke="#147EEC" stroke-width="2" fill="#FFFFFF" transform="translate(1149.500000, 405.500000) scale(-1, 1) rotate(-360.000000) translate(-1149.500000, -405.500000) " cx="1149.5" cy="405.5" r="5.5"></circle>
                    <path d="M1026.3772,173 L1026.3772,171.641602 L1023.38745,171.641602 L1023.38745,163.948242 L1021.87036,163.948242 L1021.87036,173 L1026.3772,173 Z M1030.50952,173.120605 C1031.86157,173.120605 1032.96606,172.40332 1033.4104,171.171875 L1032.07739,170.943359 C1031.7854,171.584473 1031.20776,171.946289 1030.49683,171.946289 C1029.52563,171.946289 1028.70679,171.336914 1028.64966,170.067383 L1033.50562,170.067383 L1033.52466,169.699219 C1033.51831,167.515625 1032.22339,166.487305 1030.46509,166.487305 C1028.57983,166.487305 1027.21509,167.712402 1027.21509,169.807129 C1027.21509,171.901855 1028.5481,173.120605 1030.50952,173.120605 Z M1032.05835,168.975586 L1028.71313,168.975586 C1028.91626,168.004395 1029.57642,167.572754 1030.47144,167.572754 C1031.31567,167.572754 1031.94409,168.029785 1032.05835,168.975586 Z M1036.58423,173.120605 C1037.35229,173.120605 1038.17114,172.854004 1038.66626,172.155762 L1038.73608,172.155762 C1038.88208,172.746094 1039.31372,173 1040.03101,173 L1040.7229,173 L1040.7229,172.003418 L1040.62134,172.003418 C1040.177,172.003418 1040.01831,171.832031 1040.01831,171.229004 L1040.01831,168.753418 C1040.01831,166.957031 1038.72974,166.5 1037.45386,166.5 C1035.87329,166.5 1034.92114,167.109375 1034.69897,168.429688 L1036.01294,168.670898 C1036.10815,167.852051 1036.6731,167.547363 1037.36499,167.547363 C1037.99976,167.547363 1038.61548,167.807617 1038.61548,168.594727 C1038.61548,168.899414 1038.44409,169.089844 1038.02515,169.172363 L1037.0603,169.350098 C1035.72729,169.591309 1034.61646,170.016602 1034.61646,171.381348 C1034.61646,172.625488 1035.54956,173.120605 1036.58423,173.120605 Z M1036.927,171.97168 C1036.42554,171.97168 1036.03198,171.762207 1036.03198,171.260742 C1036.03198,170.77832 1036.40649,170.549805 1037.07935,170.422852 L1038.71069,170.061035 C1038.71069,171.229004 1037.92993,171.97168 1036.927,171.97168 Z M1044.6521,173.145996 C1045.58521,173.145996 1046.39771,172.708008 1046.77856,171.984375 L1046.81665,173 L1048.21313,173 L1048.21313,163.25 L1046.75317,163.25 L1046.75317,167.598145 C1046.35962,166.90625 1045.55981,166.493652 1044.6521,166.493652 C1043.00171,166.493652 1041.62427,167.769531 1041.62427,169.813477 C1041.62427,171.870117 1042.99536,173.145996 1044.6521,173.145996 Z M1044.97583,171.908203 C1043.92212,171.908203 1043.08423,171.095703 1043.08423,169.813477 C1043.08423,168.537598 1043.92212,167.725098 1044.97583,167.725098 C1046.02954,167.725098 1046.86108,168.588379 1046.86108,169.813477 C1046.86108,171.044922 1046.03589,171.908203 1044.97583,171.908203 Z M1056.90942,173 L1056.90942,171.870117 L1056.33179,171.870117 C1055.84302,171.870117 1055.51929,171.578125 1055.51929,170.981445 L1055.51929,167.756836 L1056.90942,167.756836 L1056.90942,166.614258 L1055.51929,166.614258 L1055.51929,164.525879 L1054.18628,164.525879 L1054.18628,165.516113 C1054.18628,166.347656 1053.87524,166.614258 1053.20239,166.614258 L1052.7644,166.614258 L1052.7644,167.756836 L1054.04028,167.756836 L1054.04028,171.133789 C1054.04028,172.327148 1054.72583,173 1055.86841,173 L1056.90942,173 Z M1059.16284,165.395508 C1059.64526,165.395508 1060.05786,164.989258 1060.05786,164.500488 C1060.05786,164.005371 1059.64526,163.605469 1059.16284,163.605469 C1058.66772,163.605469 1058.26147,164.005371 1058.26147,164.500488 C1058.26147,164.989258 1058.66772,165.395508 1059.16284,165.395508 Z M1059.88013,173 L1059.88013,166.614258 L1058.41382,166.614258 L1058.41382,173 L1059.88013,173 Z M1063.40308,173 L1063.40308,169.292969 C1063.40308,168.118652 1063.99341,167.687012 1064.67896,167.687012 C1065.30103,167.687012 1065.81519,168.080566 1065.81519,168.962891 L1065.81519,173 L1067.30054,173 L1067.30054,169.229492 C1067.30054,168.118652 1067.87183,167.687012 1068.57007,167.687012 C1069.16675,167.687012 1069.68726,168.067871 1069.68726,168.931152 L1069.68726,173 L1071.15356,173 L1071.15356,168.524902 C1071.15356,167.20459 1070.28394,166.493652 1069.00171,166.493652 C1068.17651,166.493652 1067.50366,166.830078 1067.08472,167.490234 C1066.75464,166.842773 1066.07544,166.493652 1065.20581,166.493652 C1064.4314,166.493652 1063.80298,166.82373 1063.40308,167.401367 L1063.40308,166.614258 L1061.94946,166.614258 L1061.94946,173 L1063.40308,173 Z M1075.88892,173.120605 C1077.24097,173.120605 1078.34546,172.40332 1078.78979,171.171875 L1077.45679,170.943359 C1077.16479,171.584473 1076.58716,171.946289 1075.87622,171.946289 C1074.90503,171.946289 1074.08618,171.336914 1074.02905,170.067383 L1078.88501,170.067383 L1078.90405,169.699219 C1078.89771,167.515625 1077.60278,166.487305 1075.84448,166.487305 C1073.95923,166.487305 1072.59448,167.712402 1072.59448,169.807129 C1072.59448,171.901855 1073.92749,173.120605 1075.88892,173.120605 Z M1077.43774,168.975586 L1074.09253,168.975586 C1074.29565,168.004395 1074.95581,167.572754 1075.85083,167.572754 C1076.69507,167.572754 1077.32349,168.029785 1077.43774,168.975586 Z" id="Leadtime" fill="#8889A1" fill-rule="nonzero"></path>
                    <g id="Graphic-information" transform="translate(139.000000, 321.000000)">
                        <g id="Group-21">
                            <rect id="Rectangle" stroke="#E7E7EC" fill="#FFFFFF" x="0" y="0" width="100" height="24" rx="5"></rect>
                            <rect id="Rectangle" fill="#4DC7EE" x="4.83823529" y="9" width="6" height="6" rx="3"></rect>
                            <rect id="Rectangle" fill="#147EEC" x="13.8382353" y="9" width="6" height="6" rx="3"></rect>
                        </g>
                    </g>
                    <path d="M170.736816,337.120605 C172.641113,337.120605 174.202637,336.162109 174.881836,334.543457 L173.466309,334.003906 C172.996582,335.089355 171.968262,335.705078 170.736816,335.705078 C169.022949,335.705078 167.683594,334.518066 167.683594,332.467773 C167.683594,330.430176 169.022949,329.236816 170.736816,329.236816 C171.968262,329.236816 172.996582,329.858887 173.466309,330.944336 L174.881836,330.404785 C174.202637,328.786133 172.641113,327.821289 170.736816,327.821289 C168.134277,327.821289 166.166504,329.60498 166.166504,332.467773 C166.166504,335.343262 168.134277,337.120605 170.736816,337.120605 Z M178.125488,340.002441 L181.946777,330.614258 L180.429688,330.614258 L178.709473,335.18457 L177.052734,330.614258 L175.446777,330.614258 L178.004883,336.790527 L176.633789,340.002441 L178.125488,340.002441 Z M185.863281,337.114258 C187.35498,337.114258 188.541992,336.301758 188.891113,334.879883 L187.532715,334.708496 C187.285156,335.520996 186.656738,335.933594 185.850586,335.933594 C184.78418,335.933594 184.016113,335.089355 184.016113,333.800781 C184.016113,332.512207 184.78418,331.667969 185.850586,331.667969 C186.656738,331.667969 187.285156,332.086914 187.532715,332.899414 L188.891113,332.72168 C188.541992,331.299805 187.380371,330.493652 185.863281,330.493652 C183.946289,330.493652 182.556152,331.813965 182.556152,333.800781 C182.556152,335.793945 183.946289,337.114258 185.863281,337.114258 Z M191.830078,337 L191.830078,327.25 L190.357422,327.25 L190.357422,337 L191.830078,337 Z M196.679688,337.120605 C198.031738,337.120605 199.13623,336.40332 199.580566,335.171875 L198.247559,334.943359 C197.955566,335.584473 197.37793,335.946289 196.666992,335.946289 C195.695801,335.946289 194.876953,335.336914 194.819824,334.067383 L199.675781,334.067383 L199.694824,333.699219 C199.688477,331.515625 198.393555,330.487305 196.635254,330.487305 C194.75,330.487305 193.385254,331.712402 193.385254,333.807129 C193.385254,335.901855 194.718262,337.120605 196.679688,337.120605 Z M198.228516,332.975586 L194.883301,332.975586 C195.086426,332.004395 195.746582,331.572754 196.641602,331.572754 C197.48584,331.572754 198.114258,332.029785 198.228516,332.975586 Z M207.876953,337 L207.876953,335.870117 L207.299316,335.870117 C206.810547,335.870117 206.486816,335.578125 206.486816,334.981445 L206.486816,331.756836 L207.876953,331.756836 L207.876953,330.614258 L206.486816,330.614258 L206.486816,328.525879 L205.153809,328.525879 L205.153809,329.516113 C205.153809,330.347656 204.842773,330.614258 204.169922,330.614258 L203.731934,330.614258 L203.731934,331.756836 L205.007812,331.756836 L205.007812,335.133789 C205.007812,336.327148 205.693359,337 206.835938,337 L207.876953,337 Z M210.130371,329.395508 C210.612793,329.395508 211.025391,328.989258 211.025391,328.500488 C211.025391,328.005371 210.612793,327.605469 210.130371,327.605469 C209.635254,327.605469 209.229004,328.005371 209.229004,328.500488 C209.229004,328.989258 209.635254,329.395508 210.130371,329.395508 Z M210.847656,337 L210.847656,330.614258 L209.381348,330.614258 L209.381348,337 L210.847656,337 Z M214.370605,337 L214.370605,333.292969 C214.370605,332.118652 214.960938,331.687012 215.646484,331.687012 C216.268555,331.687012 216.782715,332.080566 216.782715,332.962891 L216.782715,337 L218.268066,337 L218.268066,333.229492 C218.268066,332.118652 218.839355,331.687012 219.537598,331.687012 C220.134277,331.687012 220.654785,332.067871 220.654785,332.931152 L220.654785,337 L222.121094,337 L222.121094,332.524902 C222.121094,331.20459 221.251465,330.493652 219.969238,330.493652 C219.144043,330.493652 218.471191,330.830078 218.052246,331.490234 C217.722168,330.842773 217.042969,330.493652 216.17334,330.493652 C215.398926,330.493652 214.770508,330.82373 214.370605,331.401367 L214.370605,330.614258 L212.916992,330.614258 L212.916992,337 L214.370605,337 Z M226.856445,337.120605 C228.208496,337.120605 229.312988,336.40332 229.757324,335.171875 L228.424316,334.943359 C228.132324,335.584473 227.554688,335.946289 226.84375,335.946289 C225.872559,335.946289 225.053711,335.336914 224.996582,334.067383 L229.852539,334.067383 L229.871582,333.699219 C229.865234,331.515625 228.570312,330.487305 226.812012,330.487305 C224.926758,330.487305 223.562012,331.712402 223.562012,333.807129 C223.562012,335.901855 224.89502,337.120605 226.856445,337.120605 Z M228.405273,332.975586 L225.060059,332.975586 C225.263184,332.004395 225.92334,331.572754 226.818359,331.572754 C227.662598,331.572754 228.291016,332.029785 228.405273,332.975586 Z" id="Cycletime" fill="#8889A1" fill-rule="nonzero"></path>
                </g>
                <g id="Group-4" transform="translate(550.000000, 0.000000)">
                    <g id="Rectangle">
                        <use fill="black" fill-opacity="1" filter="url(#filter-4)" xlink:href="#path-3"></use>
                        <use fill="#FFFFFF" fill-rule="evenodd" xlink:href="#path-3"></use>
                    </g>
                    <g id="Group-3" transform="translate(35.000000, 45.000000)">
                        <g id="Group-2">
                            <path d="M25.9537804,106.400809 L25.9537804,79.0822004 L21.7526564,79.0822004 L15.0655462,84.8869259 L15.0655462,89.4847283 L21.5214019,83.7183178 L21.5214019,106.400809 L25.9537804,106.400809 Z M50.741146,106.400809 L50.741146,101.055864 L54.5183033,101.055864 L54.5183033,97.0902597 L50.741146,97.0902597 L50.741146,79.0822004 L43.976951,79.0822004 L33.3970562,97.0711022 L33.3970562,101.055864 L46.3087675,101.055864 L46.3087675,106.400809 L50.741146,106.400809 Z M46.3087675,97.0902597 L37.7138074,97.0902597 L46.3087675,81.9175119 L46.3087675,97.0902597 Z M74.5695394,106.841432 C77.4024074,106.841432 79.8691224,105.519564 81.0253951,103.335608 L81.1410224,106.400809 L85.3806888,106.400809 L85.3806888,76.9748744 L80.9483103,76.9748744 L80.9483103,90.0977686 C79.7534952,88.0096 77.3253226,86.7643619 74.5695394,86.7643619 C69.5590246,86.7643619 65.3771718,90.6150213 65.3771718,96.7837395 C65.3771718,102.990773 69.5397534,106.841432 74.5695394,106.841432 Z M75.5523712,103.105718 C72.3533502,103.105718 69.8095503,100.653556 69.8095503,96.7837395 C69.8095503,92.93308 72.3533502,90.4809188 75.5523712,90.4809188 C78.7513922,90.4809188 81.2759208,93.0863401 81.2759208,96.7837395 C81.2759208,100.500296 78.7706634,103.105718 75.5523712,103.105718 Z M95.2906796,106.764802 C97.6224961,106.764802 100.108482,105.960187 101.611637,103.852861 L101.82362,103.852861 C102.266858,105.634509 103.5773,106.400809 105.754947,106.400809 L107.855509,106.400809 L107.855509,103.39308 L107.54717,103.39308 C106.198185,103.39308 105.716405,102.875828 105.716405,101.055864 L105.716405,93.5844354 C105.716405,88.1628601 101.804349,86.7835194 97.9308354,86.7835194 C93.1323039,86.7835194 90.2416223,88.6226403 89.5671299,92.6074024 L93.5562706,93.3353877 C93.8453387,90.864069 95.5604765,89.9445085 97.6610385,89.9445085 C99.5881596,89.9445085 101.457467,90.7299664 101.457467,93.1054976 C101.457467,94.0250581 100.937144,94.5997834 99.6652444,94.848831 L96.7360204,95.3852413 C92.6890661,96.1132267 89.3166042,97.3967798 89.3166042,101.515644 C89.3166042,105.270516 92.1494722,106.764802 95.2906796,106.764802 Z M96.3313249,103.297293 C94.8088993,103.297293 93.6140842,102.665095 93.6140842,101.151652 C93.6140842,99.695681 94.7510856,99.0060106 96.793834,98.6228604 L101.746535,97.5308824 C101.746535,101.055864 99.3761763,103.297293 96.3313249,103.297293 Z M116.146718,115.462312 L127.747987,87.1283546 L123.142168,87.1283546 L117.91967,100.921762 L112.889883,87.1283546 L108.014267,87.1283546 L115.780565,105.768612 L111.617984,115.462312 L116.146718,115.462312 Z M136.386078,106.764802 C140.375219,106.764802 143.959664,105.193886 143.959664,100.921762 C143.959664,96.841212 140.645016,95.6917614 137.619435,94.9063035 C135.15272,94.2549482 132.878718,93.871798 132.878718,92.0326771 C132.878718,90.4426038 134.439686,89.8295634 136.039196,89.8295634 C137.831419,89.8295634 139.373116,90.6341789 139.893438,92.6648749 L143.400799,91.841102 C142.726306,88.2586476 139.681455,86.7835194 136.019925,86.7835194 C132.011513,86.7835194 128.793221,88.5268528 128.793221,92.3966698 C128.793221,95.749234 131.221393,96.8795271 133.726651,97.6841425 C136.829316,98.718648 139.642913,98.9868531 139.681455,101.170809 C139.719997,103.029088 137.985588,103.603813 136.386078,103.603813 C134.208431,103.603813 132.570378,102.55015 132.050056,100.366194 L128.292169,101.419857 C128.947391,104.983154 132.165683,106.764802 136.386078,106.764802 Z" id="14days" fill="#121343" fill-rule="nonzero"></path>
                            <path d="M9.58074904,20.6084947 L9.58074904,17.7372591 L3.22506904,17.7372591 L3.22506904,1.47586876 L0,1.47586876 L0,20.6084947 L9.58074904,20.6084947 Z M17.7896068,20.8634175 C20.6638315,20.8634175 23.0117897,19.3472977 23.9563706,16.7444019 L21.1226279,16.2613903 C20.5019033,17.6165062 19.2739482,18.3812746 17.7626188,18.3812746 C15.6980348,18.3812746 13.9573072,17.0932436 13.8358611,14.4098459 L24.1587808,14.4098459 L24.1992628,13.6316605 C24.1857688,9.01621643 21.4329902,6.84266425 17.6951487,6.84266425 C13.6874269,6.84266425 10.7862142,9.43214308 10.7862142,13.8597494 C10.7862142,18.2873556 13.6199569,20.8634175 17.7896068,20.8634175 Z M21.0821459,12.1021238 L13.9708012,12.1021238 C14.4026096,10.0493246 15.8059869,9.13696932 17.7086427,9.13696932 C19.5033464,9.13696932 20.8392537,10.1029925 21.0821459,12.1021238 Z M30.1276324,20.8634175 C31.760408,20.8634175 33.5011356,20.2999039 34.5536686,18.8240352 L34.7021028,18.8240352 C35.012465,20.0718151 35.9300579,20.6084947 37.4548813,20.6084947 L38.9257287,20.6084947 L38.9257287,18.5020275 L38.7098245,18.5020275 C37.7652436,18.5020275 37.4278933,18.1397688 37.4278933,16.8651548 L37.4278933,11.6325292 C37.4278933,7.83552142 34.6886087,6.86949823 31.9763122,6.86949823 C28.616303,6.86949823 26.5922011,8.15752915 26.1199107,10.9482628 L28.9131713,11.4581084 C29.1155815,9.72731683 30.3165486,9.08330137 31.787396,9.08330137 C33.1367973,9.08330137 34.4457165,9.63339791 34.4457165,11.2971045 C34.4457165,11.94112 34.0813782,12.3436296 33.1907733,12.5180505 L31.1396834,12.8937262 C28.3059407,13.4035717 25.9444885,14.30251 25.9444885,17.1871626 C25.9444885,19.8168924 27.9281084,20.8634175 30.1276324,20.8634175 Z M30.8563091,18.4349425 C29.7902821,18.4349425 28.9536533,17.9921819 28.9536533,16.9322398 C28.9536533,15.9125486 29.7498001,15.429537 31.1801654,15.1611973 L34.6481267,14.3964289 C34.6481267,16.8651548 32.9883631,18.4349425 30.8563091,18.4349425 Z M46.3924158,20.9170854 C48.3760357,20.9170854 50.1032693,19.9913132 50.9129101,18.4617765 L50.9938741,20.6084947 L53.9625569,20.6084947 L53.9625569,0 L50.858934,0 L50.858934,9.19063728 C50.0223052,7.72818551 48.3220596,6.85608124 46.3924158,6.85608124 C42.8839725,6.85608124 39.9557717,9.55289597 39.9557717,13.8731663 C39.9557717,18.2202707 42.8704785,20.9170854 46.3924158,20.9170854 Z M47.0806104,18.3007726 C44.8406043,18.3007726 43.0593946,16.5833981 43.0593946,13.8731663 C43.0593946,11.1763516 44.8406043,9.45897705 47.0806104,9.45897705 C49.3206165,9.45897705 51.0883322,11.2836875 51.0883322,13.8731663 C51.0883322,16.4760622 49.3341106,18.3007726 47.0806104,18.3007726 Z M70.2588263,20.6084947 L70.2588263,4.33368736 L75.0087188,4.33368736 L75.0087188,1.47586876 L62.2838648,1.47586876 L62.2838648,4.33368736 L67.0472513,4.33368736 L67.0472513,20.6084947 L70.2588263,20.6084947 Z M78.8725044,4.53494219 C79.8980494,4.53494219 80.7751602,3.67625491 80.7751602,2.64314678 C80.7751602,1.59662166 79.8980494,0.751351369 78.8725044,0.751351369 C77.8199714,0.751351369 76.9563546,1.59662166 76.9563546,2.64314678 C76.9563546,3.67625491 77.8199714,4.53494219 78.8725044,4.53494219 Z M80.3973279,20.6084947 L80.3973279,7.11100403 L77.2802109,7.11100403 L77.2802109,20.6084947 L80.3973279,20.6084947 Z M87.3107604,20.6084947 L87.3107604,12.7729733 C87.3107604,10.2908304 88.5657036,9.37847512 90.023057,9.37847512 C91.3454702,9.37847512 92.4384852,10.2103284 92.4384852,12.0752899 L92.4384852,20.6084947 L95.5960842,20.6084947 L95.5960842,12.6388034 C95.5960842,10.2908304 96.8105454,9.37847512 98.2948868,9.37847512 C99.563324,9.37847512 100.669833,10.1834944 100.669833,12.0082049 L100.669833,20.6084947 L103.78695,20.6084947 L103.78695,11.1495176 C103.78695,8.35878398 101.93827,6.85608124 99.2124796,6.85608124 C97.458258,6.85608124 96.0278926,7.56718164 95.1372878,8.96254847 C94.4355991,7.59401562 92.9917398,6.85608124 91.14306,6.85608124 C89.4967905,6.85608124 88.1608832,7.55376465 87.3107604,8.77471063 L87.3107604,7.11100403 L84.2206315,7.11100403 L84.2206315,20.6084947 L87.3107604,20.6084947 Z M113.277739,20.8634175 C116.151964,20.8634175 118.499922,19.3472977 119.444503,16.7444019 L116.61076,16.2613903 C115.990035,17.6165062 114.76208,18.3812746 113.250751,18.3812746 C111.186167,18.3812746 109.445439,17.0932436 109.323993,14.4098459 L119.646913,14.4098459 L119.687395,13.6316605 C119.673901,9.01621643 116.921122,6.84266425 113.183281,6.84266425 C109.175559,6.84266425 106.274346,9.43214308 106.274346,13.8597494 C106.274346,18.2873556 109.108089,20.8634175 113.277739,20.8634175 Z M116.570278,12.1021238 L109.458933,12.1021238 C109.890742,10.0493246 111.294119,9.13696932 113.196775,9.13696932 C114.991479,9.13696932 116.327386,10.1029925 116.570278,12.1021238 Z" id="LeadTime" fill="#8889A1" fill-rule="nonzero"></path>
                            <g id="Group-7" transform="translate(183.297479, 85.341709)">
                                <rect id="Rectangle" fill="#D5F5E3" x="0" y="0" width="57.7512605" height="25.1005025" rx="5"></rect>
                                <path d="M30.4522027,18.6299243 C32.4472719,18.6299243 33.9841097,17.4591437 33.9841097,15.5504167 C33.9841097,14.2944885 33.2861879,13.3720553 32.2569296,12.9179344 C32.9830502,12.4851004 33.4694805,11.7542495 33.4694805,10.8531033 C33.4694805,9.30625385 32.1793828,8.23481227 30.4522027,8.23481227 C28.6897741,8.23481227 27.4067261,9.30625385 27.4067261,10.8531033 C27.4067261,11.7542495 27.8931564,12.4851004 28.6474759,12.9179344 C27.5970684,13.3720553 26.9132461,14.2944885 26.9132461,15.5504167 C26.9132461,17.4591437 28.4500839,18.6299243 30.4522027,18.6299243 Z M30.4522027,12.414144 C29.5850879,12.414144 28.915365,11.7755364 28.915365,10.9453466 C28.915365,10.129348 29.5850879,9.50493176 30.4522027,9.50493176 C31.2981685,9.50493176 31.9819908,10.129348 31.9819908,10.9453466 C31.9819908,11.7755364 31.2981685,12.414144 30.4522027,12.414144 Z M30.4522027,17.1540312 C29.3735964,17.1540312 28.5417301,16.4657542 28.5417301,15.3588344 C28.5417301,14.2661059 29.3735964,13.5920202 30.4522027,13.5920202 C31.5096599,13.5920202 32.3485759,14.2661059 32.3485759,15.3588344 C32.3485759,16.4657542 31.5096599,17.1540312 30.4522027,17.1540312 Z M37.5653646,12.6837783 C38.7920149,12.6837783 39.7648755,11.6761975 39.7648755,10.4486518 C39.7648755,9.23529745 38.7920149,8.22771663 37.5653646,8.22771663 C36.3528137,8.22771663 35.358804,9.22820181 35.358804,10.4486518 C35.358804,11.6903887 36.345764,12.6837783 37.5653646,12.6837783 Z M38.3408332,18.5022028 L43.6563179,8.36253378 L42.246375,8.36253378 L36.9449897,18.5022028 L38.3408332,18.5022028 Z M37.5653646,11.5555716 C36.9661389,11.5555716 36.4656091,11.0730681 36.4656091,10.4486518 C36.4656091,9.83133118 36.9661389,9.35592333 37.5653646,9.35592333 C38.17164,9.35592333 38.6580703,9.83842682 38.6580703,10.4486518 C38.6580703,11.0588768 38.1927892,11.5555716 37.5653646,11.5555716 Z M43.1134898,18.615733 C44.3260407,18.615733 45.2989013,17.6152478 45.2989013,16.3947978 C45.2989013,15.1672521 44.318991,14.1738626 43.1134898,14.1738626 C41.8938892,14.1738626 40.8998795,15.1601565 40.8998795,16.3947978 C40.8998795,17.6223434 41.8797898,18.615733 43.1134898,18.615733 Z M43.1134898,17.4946219 C42.493115,17.4946219 42.0137344,16.9979272 42.0137344,16.3947978 C42.0137344,15.7703815 42.493115,15.287878 43.1134898,15.287878 C43.7056659,15.287878 44.2132453,15.7845728 44.2132453,16.3947978 C44.2132453,16.9979272 43.7127156,17.4946219 43.1134898,17.4946219 Z" id="8%" fill="#2FCC71" fill-rule="nonzero"></path>
                                <g id="caret-arrow-up" transform="translate(13.562872, 13.852949) rotate(-180.000000) translate(-13.562872, -13.852949) translate(10.062872, 11.852949)" fill="#2FCC71" fill-rule="nonzero">
                                    <path d="M6.80621218,3.2060918 L3.77220733,0.152345884 C3.68650554,0.0659902875 3.5849348,0.0228483014 3.46747139,0.0228483014 C3.35000798,0.0228483014 3.24846096,0.0659902875 3.16266429,0.152345884 L0.128659435,3.2060918 C0.0428627578,3.2924474 0,3.39467982 0,3.51281294 C0,3.63094606 0.0428627578,3.7332501 0.128659435,3.81953408 C0.214550993,3.90588967 0.316098014,3.94905553 0.433466539,3.94905553 L6.50145252,3.94905553 C6.61884477,3.94905553 6.72046295,3.90588967 6.80621218,3.81953408 C6.89191398,3.73327398 6.93494278,3.63096993 6.93494278,3.51281294 C6.93494278,3.39465594 6.89191398,3.2924474 6.80621218,3.2060918 Z" id="Path"></path>
                                </g>
                            </g>
                            <path d="M16.2940273,176.393711 L18.2708939,169.852931 L20.254846,176.393711 L22.9898656,176.393711 L25.668201,165.809807 L23.464597,165.809807 L21.4452172,173.822811 L19.1707578,165.809807 L17.3781154,165.809807 L15.0894849,173.822811 L13.0913618,165.809807 L10.8806723,165.809807 L13.5590076,176.393711 L16.2940273,176.393711 Z M31.8397091,176.540201 C34.8439795,176.540201 37.06884,174.416096 37.06884,171.098097 C37.06884,167.772773 34.8439795,165.663317 31.8397091,165.663317 C28.8283533,165.663317 26.6034927,167.772773 26.6034927,171.098097 C26.6034927,174.416096 28.8283533,176.540201 31.8397091,176.540201 Z M31.8397091,174.525963 C30.0754089,174.525963 28.7220701,173.244175 28.7220701,171.098097 C28.7220701,168.959342 30.0754089,167.684879 31.8397091,167.684879 C33.6040094,167.684879 34.9573482,168.959342 34.9573482,171.098097 C34.9573482,173.244175 33.6040094,174.525963 31.8397091,174.525963 Z M41.1501129,176.393711 L41.1501129,171.735328 L41.7665552,171.735328 L44.4307195,176.393711 L46.9460873,176.393711 L43.863876,171.625461 C45.2526425,171.317832 46.0320522,170.394944 46.0320522,168.973991 C46.0320522,167.223435 45.0542473,165.809807 42.7372746,165.809807 L39.02445,165.809807 L39.02445,176.393711 L41.1501129,176.393711 Z M42.4042541,170.16056 L41.1501129,170.16056 L41.1501129,167.633607 L42.4042541,167.633607 C43.537941,167.633607 43.9985013,168.146323 43.9985013,168.900746 C43.9985013,169.662494 43.537941,170.16056 42.4042541,170.16056 Z M50.6305698,176.393711 L50.6305698,171.896467 L51.3816374,171.896467 L54.5630463,176.393711 L57.2768093,176.393711 L53.1884509,170.871037 L57.1563551,165.809807 L54.5630463,165.809807 L51.3532952,169.970123 L50.6305698,169.970123 L50.6305698,165.809807 L48.5049068,165.809807 L48.5049068,176.393711 L50.6305698,176.393711 Z M64.6953731,176.393711 L64.6953731,165.809807 L62.5697101,165.809807 L62.5697101,176.393711 L64.6953731,176.393711 Z M69.4568581,176.393711 L69.4568581,168.827501 L73.9916058,176.393711 L76.4502893,176.393711 L76.4502893,165.809807 L74.3317119,165.809807 L74.3317119,173.332069 L69.768622,165.809807 L67.3382807,165.809807 L67.3382807,176.393711 L69.4568581,176.393711 Z M84.9954544,176.393711 L84.9954544,172.599619 L87.1282029,172.599619 C89.1334117,172.599619 90.3804673,171.156693 90.3804673,169.230349 C90.3804673,167.347952 89.1334117,165.809807 87.1282029,165.809807 L82.8697915,165.809807 L82.8697915,176.393711 L84.9954544,176.393711 Z M86.7739258,170.761169 L84.9954544,170.761169 L84.9954544,167.648256 L86.7739258,167.648256 C87.8367573,167.648256 88.3327453,168.285488 88.3327453,169.201051 C88.3327453,170.153236 87.8367573,170.761169 86.7739258,170.761169 Z M94.2916872,176.393711 L94.2916872,171.735328 L94.9081294,171.735328 L97.5722937,176.393711 L100.087662,176.393711 L97.0054502,171.625461 C98.3942167,171.317832 99.1736264,170.394944 99.1736264,168.973991 C99.1736264,167.223435 98.1958215,165.809807 95.8788488,165.809807 L92.1660242,165.809807 L92.1660242,176.393711 L94.2916872,176.393711 Z M95.5458283,170.16056 L94.2916872,170.16056 L94.2916872,167.633607 L95.5458283,167.633607 C96.6795152,167.633607 97.1400755,168.146323 97.1400755,168.900746 C97.1400755,169.662494 96.6795152,170.16056 95.5458283,170.16056 Z M106.181229,176.540201 C109.185499,176.540201 111.41036,174.416096 111.41036,171.098097 C111.41036,167.772773 109.185499,165.663317 106.181229,165.663317 C103.169873,165.663317 100.945012,167.772773 100.945012,171.098097 C100.945012,174.416096 103.169873,176.540201 106.181229,176.540201 Z M106.181229,174.525963 C104.416928,174.525963 103.06359,173.244175 103.06359,171.098097 C103.06359,168.959342 104.416928,167.684879 106.181229,167.684879 C107.945529,167.684879 109.298868,168.959342 109.298868,171.098097 C109.298868,173.244175 107.945529,174.525963 106.181229,174.525963 Z M117.794434,176.540201 C119.360339,176.540201 120.465684,175.932267 121.124639,174.928811 L121.124639,176.393711 L122.796828,176.393711 L122.796828,170.643977 L117.985744,170.643977 L117.985744,172.409182 L120.784533,172.409182 C120.494026,173.954652 119.289484,174.628506 117.978658,174.628506 C116.044305,174.628506 114.797249,173.236851 114.797249,171.076123 C114.797249,168.834826 116.129331,167.575011 117.900717,167.575011 C119.04149,167.575011 120.005124,168.095051 120.543625,169.179077 L122.407123,168.153647 C121.514344,166.56423 119.877584,165.663317 117.900717,165.663317 C114.889361,165.663317 112.664501,167.780097 112.664501,171.127395 C112.664501,174.430745 114.839763,176.540201 117.794434,176.540201 Z M127.126094,176.393711 L127.126094,171.735328 L127.742537,171.735328 L130.406701,176.393711 L132.922069,176.393711 L129.839858,171.625461 C131.228624,171.317832 132.008034,170.394944 132.008034,168.973991 C132.008034,167.223435 131.030229,165.809807 128.713256,165.809807 L125.000432,165.809807 L125.000432,176.393711 L127.126094,176.393711 Z M128.380236,170.16056 L127.126094,170.16056 L127.126094,167.633607 L128.380236,167.633607 C129.513923,167.633607 129.974483,168.146323 129.974483,168.900746 C129.974483,169.662494 129.513923,170.16056 128.380236,170.16056 Z M140.418574,176.393711 L140.418574,174.452718 L136.620722,174.452718 L136.620722,172.057606 L139.986355,172.057606 L139.986355,170.145911 L136.620722,170.145911 L136.620722,167.743475 L140.418574,167.743475 L140.418574,165.809807 L134.480888,165.809807 L134.480888,176.393711 L140.418574,176.393711 Z M146.009067,176.540201 C148.014276,176.540201 149.835261,175.59534 149.835261,173.346718 C149.835261,171.237262 148.00719,170.622004 146.462542,170.138587 C145.300513,169.779686 144.294366,169.50868 144.294366,168.69566 C144.294366,167.824044 145.024177,167.457819 145.881527,167.457819 C146.845161,167.457819 147.532459,167.919263 147.723769,168.973991 L149.778576,168.446627 C149.367615,166.41774 147.553716,165.663317 145.753988,165.663317 C143.69918,165.663317 142.140361,166.776641 142.140361,168.746932 C142.140361,170.695249 143.748779,171.26656 145.250914,171.749977 C146.49797,172.1455 147.631657,172.460454 147.638742,173.456586 C147.645828,174.350175 146.95853,174.745698 146.094094,174.745698 C144.967492,174.745698 144.124313,174.13044 143.982602,172.943871 L141.786083,173.46391 C142.097847,175.44885 143.812549,176.540201 146.009067,176.540201 Z M155.199017,176.540201 C157.204225,176.540201 159.02521,175.59534 159.02521,173.346718 C159.02521,171.237262 157.19714,170.622004 155.652492,170.138587 C154.490462,169.779686 153.484315,169.50868 153.484315,168.69566 C153.484315,167.824044 154.214126,167.457819 155.071477,167.457819 C156.035111,167.457819 156.722409,167.919263 156.913718,168.973991 L158.968526,168.446627 C158.557564,166.41774 156.743665,165.663317 154.943937,165.663317 C152.88913,165.663317 151.33031,166.776641 151.33031,168.746932 C151.33031,170.695249 152.938728,171.26656 154.440864,171.749977 C155.687919,172.1455 156.821606,172.460454 156.828692,173.456586 C156.835777,174.350175 156.14848,174.745698 155.284043,174.745698 C154.157442,174.745698 153.314262,174.13044 153.172551,172.943871 L150.976033,173.46391 C151.287797,175.44885 153.002498,176.540201 155.199017,176.540201 Z" id="WORKINPROGRESS" fill="#8889A1" fill-rule="nonzero"></path>
                            <rect id="Rectangle" fill="#FF7427" x="10.8806723" y="187.417085" width="55.2403361" height="6.69346734"></rect>
                            <rect id="Rectangle" fill="#9260E2" x="10.8806723" y="280.288945" width="30.1310924" height="6.69346734"></rect>
                            <rect id="Rectangle" fill="#FFC508" x="10.0436975" y="234.271357" width="263.647059" height="6.69346734"></rect>
                            <rect id="Rectangle" fill="#2FCC71" x="10.8806723" y="326.306533" width="452.803361" height="6.69346734"></rect>
                            <path d="M13.836158,221.721106 L13.836158,217.302027 L14.4505262,217.302027 L17.1057266,221.721106 L19.6126312,221.721106 L16.5407903,217.197804 C17.9248842,216.905978 18.7016715,216.0305 18.7016715,214.682542 C18.7016715,213.021914 17.7271565,211.680905 15.4179795,211.680905 L11.7176471,211.680905 L11.7176471,221.721106 L13.836158,221.721106 Z M15.0860795,215.808157 L13.836158,215.808157 L13.836158,213.411015 L15.0860795,213.411015 C16.215952,213.411015 16.6749627,213.897392 16.6749627,214.61306 C16.6749627,215.335677 16.215952,215.808157 15.0860795,215.808157 Z M27.0839132,221.721106 L27.0839132,219.879823 L23.2988403,219.879823 L23.2988403,217.60775 L26.6531493,217.60775 L26.6531493,215.79426 L23.2988403,215.79426 L23.2988403,213.515239 L27.0839132,213.515239 L27.0839132,211.680905 L21.1662059,211.680905 L21.1662059,221.721106 L27.0839132,221.721106 Z M34.2374185,221.721106 L38.008368,211.680905 L35.7556847,211.680905 L33.0792992,219.289223 L30.4029137,211.680905 L28.1572921,211.680905 L31.9070565,221.721106 L34.2374185,221.721106 Z M41.6592686,221.721106 L41.6592686,211.680905 L39.5407576,211.680905 L39.5407576,221.721106 L41.6592686,221.721106 Z M50.2109911,221.721106 L50.2109911,219.879823 L46.4259182,219.879823 L46.4259182,217.60775 L49.7802272,217.60775 L49.7802272,215.79426 L46.4259182,215.79426 L46.4259182,213.515239 L50.2109911,213.515239 L50.2109911,211.680905 L44.2932839,211.680905 L44.2932839,221.721106 L50.2109911,221.721106 Z M56.7783751,221.721106 L58.7485903,215.516331 L60.7258672,221.721106 L63.4516846,221.721106 L66.1210084,211.680905 L63.9248187,211.680905 L61.9122333,219.282275 L59.6454266,211.680905 L57.8588157,211.680905 L55.5778855,219.282275 L53.5864852,211.680905 L51.3832339,211.680905 L54.0525577,221.721106 L56.7783751,221.721106 Z" id="REVIEW" fill="#8889A1" fill-rule="nonzero"></path>
                            <path d="M13.8355104,268.428887 L14.5132266,260.452505 L17.0970198,268.428887 L18.4665714,268.428887 L21.0503647,260.452505 L21.7210214,268.428887 L23.8318251,268.428887 L22.9917394,257.844982 L19.9702544,257.844982 L17.7676766,264.488305 L15.5933369,257.844982 L12.5718519,257.844982 L11.7176471,268.428887 L13.8355104,268.428887 Z M31.9644202,268.428887 L31.9644202,266.487894 L28.1805044,266.487894 L28.1805044,264.092782 L31.533788,264.092782 L31.533788,262.181087 L28.1805044,262.181087 L28.1805044,259.778651 L31.9644202,259.778651 L31.9644202,257.844982 L26.0485221,257.844982 L26.0485221,268.428887 L31.9644202,268.428887 Z M36.2636827,268.428887 L36.2636827,263.770504 L36.8778631,263.770504 L39.5322517,268.428887 L42.03839,268.428887 L38.9674882,263.660637 C40.3511589,263.353007 41.1277087,262.43012 41.1277087,261.009167 C41.1277087,259.258611 40.1534916,257.844982 37.8450206,257.844982 L34.1458194,257.844982 L34.1458194,268.428887 L36.2636827,268.428887 Z M37.513222,262.195736 L36.2636827,262.195736 L36.2636827,259.668783 L37.513222,259.668783 C38.6427491,259.668783 39.1016195,260.181498 39.1016195,260.935922 C39.1016195,261.69767 38.6427491,262.195736 37.513222,262.195736 Z M48.0037049,268.575377 C49.5638642,268.575377 50.6651531,267.967443 51.3216908,266.963987 L51.3216908,268.428887 L52.9877432,268.428887 L52.9877432,262.679153 L48.1943126,262.679153 L48.1943126,264.444358 L50.9828326,264.444358 C50.6933913,265.989828 49.4932688,266.663682 48.1872531,266.663682 C46.2599975,266.663682 45.0175177,265.272027 45.0175177,263.111299 C45.0175177,260.870002 46.344712,259.610187 48.1095981,259.610187 C49.2461847,259.610187 50.2062828,260.130227 50.7428081,261.214253 L52.5994683,260.188823 C51.7099657,258.599406 50.079211,257.698492 48.1095981,257.698492 C45.1092918,257.698492 42.8925948,259.815273 42.8925948,263.16257 C42.8925948,266.465921 45.0598749,268.575377 48.0037049,268.575377 Z M61.0991597,268.428887 L61.0991597,266.487894 L57.3152439,266.487894 L57.3152439,264.092782 L60.6685275,264.092782 L60.6685275,262.181087 L57.3152439,262.181087 L57.3152439,259.778651 L61.0991597,259.778651 L61.0991597,257.844982 L55.1832615,257.844982 L55.1832615,268.428887 L61.0991597,268.428887 Z" id="MERGE" fill="#8889A1" fill-rule="nonzero"></path>
                            <path d="M13.8507139,314.446475 L13.8507139,309.788092 L14.4693033,309.788092 L17.142747,314.446475 L19.6668761,314.446475 L16.5739292,309.678224 C17.9675328,309.370595 18.7496573,308.447708 18.7496573,307.026755 C18.7496573,305.276199 17.7684466,303.86257 15.4434038,303.86257 L11.7176471,303.86257 L11.7176471,314.446475 L13.8507139,314.446475 Z M15.1092233,308.213324 L13.8507139,308.213324 L13.8507139,305.686371 L15.1092233,305.686371 C16.2468589,305.686371 16.7090234,306.199086 16.7090234,306.95351 C16.7090234,307.715258 16.2468589,308.213324 15.1092233,308.213324 Z M27.1894917,314.446475 L27.1894917,312.505482 L23.3784123,312.505482 L23.3784123,310.11037 L26.7557681,310.11037 L26.7557681,308.198675 L23.3784123,308.198675 L23.3784123,305.796239 L27.1894917,305.796239 L27.1894917,303.86257 L21.2311251,303.86257 L21.2311251,314.446475 L27.1894917,314.446475 Z M34.7405483,314.446475 L34.7405483,312.505482 L31.5196174,312.505482 L31.5196174,303.86257 L29.3865505,303.86257 L29.3865505,314.446475 L34.7405483,314.446475 Z M42.3271559,314.446475 L42.3271559,312.505482 L38.5160765,312.505482 L38.5160765,310.11037 L41.8934323,310.11037 L41.8934323,308.198675 L38.5160765,308.198675 L38.5160765,305.796239 L42.3271559,305.796239 L42.3271559,303.86257 L36.3687893,303.86257 L36.3687893,314.446475 L42.3271559,314.446475 Z M45.5907481,314.446475 L46.3373215,312.263773 L50.6532267,312.263773 L51.3998001,314.446475 L53.5826385,314.446475 L49.8,303.86257 L47.1905483,303.86257 L43.4079098,314.446475 L45.5907481,314.446475 Z M50.0275271,310.425324 L46.9630211,310.425324 L48.4988292,305.935404 L50.0275271,310.425324 Z M58.5384637,314.592965 C60.5506568,314.592965 62.377984,313.648104 62.377984,311.399482 C62.377984,309.290026 60.5435465,308.674768 58.993518,308.191351 C57.8274415,307.83245 56.8177898,307.561444 56.8177898,306.748424 C56.8177898,305.876808 57.5501428,305.510583 58.4104797,305.510583 C59.37747,305.510583 60.0671616,305.972027 60.2591376,307.026755 L62.3211022,306.499391 C61.9087093,304.470504 60.0884923,303.71608 58.2824957,303.71608 C56.2205311,303.71608 54.6562821,304.829405 54.6562821,306.799695 C54.6562821,308.748013 56.2703027,309.319324 57.7776699,309.802741 C59.0290691,310.198264 60.1667047,310.513218 60.173815,311.50935 C60.1809252,312.402939 59.4912336,312.798462 58.6237864,312.798462 C57.493261,312.798462 56.6471445,312.183204 56.50494,310.996635 L54.300771,311.516674 C54.6136208,313.501614 56.3342947,314.592965 58.5384637,314.592965 Z M70.3058824,314.446475 L70.3058824,312.505482 L66.494803,312.505482 L66.494803,310.11037 L69.8721588,310.11037 L69.8721588,308.198675 L66.494803,308.198675 L66.494803,305.796239 L70.3058824,305.796239 L70.3058824,303.86257 L64.3475157,303.86257 L64.3475157,314.446475 L70.3058824,314.446475 Z" id="RELEASE" fill="#8889A1" fill-rule="nonzero"></path>
                            <line x1="14.8876606" y1="134.70603" x2="497.340911" y2="134.70603" id="Line-4" stroke-opacity="0.2" stroke="#8889A1" stroke-linecap="square"></line>
                        </g>
                    </g>
                </g>
                <g id="Group-5" transform="translate(109.000000, 773.000000)">
                    <g id="Rectangle">
                        <use fill="black" fill-opacity="1" filter="url(#filter-6)" xlink:href="#path-5"></use>
                        <use fill="#FFFFFF" fill-rule="evenodd" xlink:href="#path-5"></use>
                    </g>
                    <path d="M290.870299,63.0508475 L290.870299,33.3110434 L286.323822,33.3110434 L279.086997,39.6302304 L279.086997,44.635527 L286.073557,38.3580508 L286.073557,63.0508475 L290.870299,63.0508475 Z M318.712262,63.0508475 L318.712262,57.2321901 L322.799921,57.2321901 L322.799921,52.9151218 L318.712262,52.9151218 L318.712262,33.3110434 L311.392015,33.3110434 L299.942399,52.8942664 L299.942399,57.2321901 L313.915519,57.2321901 L313.915519,63.0508475 L318.712262,63.0508475 Z M313.915519,52.9151218 L304.61401,52.9151218 L313.915519,36.397643 L313.915519,52.9151218 Z M346.533369,63.5305217 C349.599113,63.5305217 352.268604,62.0914989 353.519928,59.7139831 L353.645061,63.0508475 L358.233249,63.0508475 L358.233249,31.0169492 L353.436507,31.0169492 L353.436507,45.3028999 C352.143472,43.029661 349.515691,41.6740599 346.533369,41.6740599 C341.110964,41.6740599 336.585342,45.8659958 336.585342,52.5814354 C336.585342,59.3385858 341.090109,63.5305217 346.533369,63.5305217 Z M347.596994,59.4637182 C344.134997,59.4637182 341.382084,56.7942267 341.382084,52.5814354 C341.382084,48.3894995 344.134997,45.7200079 347.596994,45.7200079 C351.058991,45.7200079 353.791049,48.5563427 353.791049,52.5814354 C353.791049,56.6273835 351.079846,59.4637182 347.596994,59.4637182 Z M369.974841,63.4471001 C372.498345,63.4471001 375.188692,62.5711732 376.815413,60.2770789 L377.044823,60.2770789 C377.524497,62.2166314 378.942664,63.0508475 381.299325,63.0508475 L383.572564,63.0508475 L383.572564,59.7765493 L383.238877,59.7765493 C381.778999,59.7765493 381.257614,59.2134534 381.257614,57.2321901 L381.257614,49.0985832 C381.257614,43.1965042 377.023967,41.6949153 372.832031,41.6949153 C367.639036,41.6949153 364.510726,43.6970339 363.780787,48.0349576 L368.097855,48.8274629 C368.410686,46.137116 370.266817,45.1360567 372.540056,45.1360567 C374.625596,45.1360567 376.64857,45.9911282 376.64857,48.5771981 C376.64857,49.5782574 376.085474,50.2039195 374.709017,50.4750397 L371.538996,51.058991 C367.159362,51.8514963 363.509666,53.2488083 363.509666,57.7327198 C363.509666,61.8203787 366.57541,63.4471001 369.974841,63.4471001 Z M371.101033,59.6722722 C369.453456,59.6722722 368.160421,58.984044 368.160421,57.3364672 C368.160421,55.7514566 369.39089,55.0006621 371.601562,54.583554 L376.961401,53.3947961 C376.961401,57.2321901 374.396186,59.6722722 371.101033,59.6722722 Z M393.979409,72.9154529 L406.534362,42.0703125 L401.549921,42.0703125 L395.898106,57.0862023 L390.454846,42.0703125 L385.17843,42.0703125 L393.583157,62.3626192 L389.07839,72.9154529 L393.979409,72.9154529 Z M417.316605,63.4471001 C421.633673,63.4471001 425.512778,61.7369571 425.512778,57.0862023 C425.512778,52.6440016 421.925649,51.3926774 418.651351,50.5376059 C415.981859,49.8285222 413.520922,49.4114142 413.520922,47.4092956 C413.520922,45.6782971 415.210209,45.0109243 416.941208,45.0109243 C418.88076,45.0109243 420.549192,45.8868512 421.112288,48.0975238 L424.907971,47.2007415 C424.178032,43.3007813 420.882879,41.6949153 416.920352,41.6949153 C412.582428,41.6949153 409.099576,43.5927569 409.099576,47.8055482 C409.099576,51.4552436 411.727357,52.6857124 414.438559,53.5616393 C417.796279,54.687831 420.841168,54.9798067 420.882879,57.3573226 C420.92459,59.3802966 419.047603,60.0059587 417.316605,60.0059587 C414.959944,60.0059587 413.187235,58.8589115 412.624139,56.4813957 L408.557336,57.6284428 C409.266419,61.5075477 412.749272,63.4471001 417.316605,63.4471001 Z" id="14days" fill="#121343" fill-rule="nonzero"></path>
                    <g id="Group-7" transform="translate(467.796610, 30.508475)">
                        <rect id="Rectangle" fill="#D5F5E3" x="0" y="0" width="89.4915254" height="38.6440678" rx="5"></rect>
                        <path d="M47.1888242,28.6821372 C50.2803893,28.6821372 52.6618776,26.8796345 52.6618776,23.941009 C52.6618776,22.0074153 51.5803761,20.5872617 49.9854343,19.8881091 C51.1106329,19.2217293 51.8644068,18.0965307 51.8644068,16.7091499 C51.8644068,14.3276615 49.8652675,12.6780985 47.1888242,12.6780985 C44.4577595,12.6780985 42.4695445,14.3276615 42.4695445,16.7091499 C42.4695445,18.0965307 43.2233183,19.2217293 44.392214,19.8881091 C42.7644995,20.5872617 41.7048464,22.0074153 41.7048464,23.941009 C41.7048464,26.8796345 44.0863347,28.6821372 47.1888242,28.6821372 Z M47.1888242,19.1124868 C45.8451404,19.1124868 44.8073358,18.1293035 44.8073358,16.8511653 C44.8073358,15.5948755 45.8451404,14.6335408 47.1888242,14.6335408 C48.4997352,14.6335408 49.5593882,15.5948755 49.5593882,16.8511653 C49.5593882,18.1293035 48.4997352,19.1124868 47.1888242,19.1124868 Z M47.1888242,26.4098914 C45.5174126,26.4098914 44.2283501,25.3502383 44.2283501,23.646054 C44.2283501,21.9637182 45.5174126,20.9259137 47.1888242,20.9259137 C48.8274629,20.9259137 50.1274497,21.9637182 50.1274497,23.646054 C50.1274497,25.3502383 48.8274629,26.4098914 47.1888242,26.4098914 Z M58.211401,19.5276086 C60.1122219,19.5276086 61.6197696,17.9763639 61.6197696,16.0864672 C61.6197696,14.218419 60.1122219,12.6671743 58.211401,12.6671743 C56.3324285,12.6671743 54.7921081,14.2074947 54.7921081,16.0864672 C54.7921081,17.9982124 56.3215042,19.5276086 58.211401,19.5276086 Z M59.4130694,28.4855005 L67.6499603,12.8747352 L65.4651086,12.8747352 L57.2500662,28.4855005 L59.4130694,28.4855005 Z M58.211401,17.7906515 C57.282839,17.7906515 56.5072166,17.0478019 56.5072166,16.0864672 C56.5072166,15.1360567 57.282839,14.4041314 58.211401,14.4041314 C59.1508872,14.4041314 59.904661,15.1469809 59.904661,16.0864672 C59.904661,17.0259534 59.18366,17.7906515 58.211401,17.7906515 Z M66.8087924,28.6602887 C68.6877648,28.6602887 70.1953125,27.1199682 70.1953125,25.2409958 C70.1953125,23.351099 68.6768406,21.8217029 66.8087924,21.8217029 C64.9188957,21.8217029 63.3785752,23.3401748 63.3785752,25.2409958 C63.3785752,27.1308925 64.8970471,28.6602887 66.8087924,28.6602887 Z M66.8087924,26.9342558 C65.8474576,26.9342558 65.1046081,26.1695577 65.1046081,25.2409958 C65.1046081,24.279661 65.8474576,23.5368114 66.8087924,23.5368114 C67.7264301,23.5368114 68.5129767,24.3015095 68.5129767,25.2409958 C68.5129767,26.1695577 67.7373543,26.9342558 66.8087924,26.9342558 Z" id="8%" fill="#2FCC71" fill-rule="nonzero"></path>
                        <g id="caret-arrow-up" transform="translate(20.338983, 21.355932) rotate(-180.000000) translate(-20.338983, -21.355932) translate(14.237288, 18.305085)" fill="#2FCC71" fill-rule="nonzero">
                            <path d="M10.5469267,4.93601389 L5.84542373,0.234547682 C5.71261997,0.101596896 5.55522565,0.0351766388 5.373204,0.0351766388 C5.19118236,0.0351766388 5.03382479,0.101596896 4.900874,0.234547682 L0.199371043,4.93601389 C0.0664202573,5.06896467 0,5.226359 0,5.40823361 C0,5.59010823 0.0664202573,5.74761282 0.199371043,5.88045334 C0.332468858,6.01340412 0.489826424,6.07986114 0.671701041,6.07986114 L10.0746702,6.07986114 C10.2565816,6.07986114 10.4140494,6.01340412 10.5469267,5.88045334 C10.6797304,5.74764958 10.746408,5.59014499 10.746408,5.40823361 C10.746408,5.22632224 10.6797304,5.06896467 10.5469267,4.93601389 Z" id="Path"></path>
                        </g>
                    </g>
                    <path d="M52.9806674,56.9491525 L52.9806674,54.054224 L48.0319783,54.054224 L48.0319783,41.163599 L44.7547007,41.163599 L44.7547007,56.9491525 L52.9806674,56.9491525 Z M64.6368512,56.9491525 L64.6368512,54.054224 L58.7814486,54.054224 L58.7814486,50.4819915 L63.9704714,50.4819915 L63.9704714,47.6307601 L58.7814486,47.6307601 L58.7814486,44.0476033 L64.6368512,44.0476033 L64.6368512,41.163599 L55.4823226,41.163599 L55.4823226,56.9491525 L64.6368512,56.9491525 Z M69.6510858,56.9491525 L70.7981329,53.6937235 L77.4291578,53.6937235 L78.576205,56.9491525 L81.9299523,56.9491525 L76.1182468,41.163599 L72.109044,41.163599 L66.2973385,56.9491525 L69.6510858,56.9491525 Z M76.4678231,50.9517346 L71.7594677,50.9517346 L74.1191075,44.2551642 L76.4678231,50.9517346 Z M90.0139036,56.9491525 C95.0499868,56.9491525 97.5407177,53.7811176 97.5407177,49.0509137 C97.5407177,44.331634 95.0499868,41.163599 90.0139036,41.163599 L84.3005164,41.163599 L84.3005164,56.9491525 L90.0139036,56.9491525 Z M89.8500397,54.054224 L87.577794,54.054224 L87.577794,44.0476033 L89.8500397,44.0476033 C92.7558925,44.0476033 94.088652,45.8610302 94.088652,49.0509137 C94.088652,52.2407971 92.7558925,54.054224 89.8500397,54.054224 Z M111.829648,56.9491525 L111.829648,44.0476033 L115.576668,44.0476033 L115.576668,41.163599 L104.816274,41.163599 L104.816274,44.0476033 L108.585143,44.0476033 L108.585143,56.9491525 L111.829648,56.9491525 Z M121.333753,56.9491525 L121.333753,41.163599 L118.056475,41.163599 L118.056475,56.9491525 L121.333753,56.9491525 Z M128.030323,56.9491525 L129.079052,45.0526351 L133.077331,56.9491525 L135.196637,56.9491525 L139.194915,45.0526351 L140.23272,56.9491525 L143.499073,56.9491525 L142.199086,41.163599 L137.523504,41.163599 L134.115135,51.0719015 L130.750463,41.163599 L126.074881,41.163599 L124.753046,56.9491525 L128.030323,56.9491525 Z M156.083819,56.9491525 L156.083819,54.054224 L150.228416,54.054224 L150.228416,50.4819915 L155.417439,50.4819915 L155.417439,47.6307601 L150.228416,47.6307601 L150.228416,44.0476033 L156.083819,44.0476033 L156.083819,41.163599 L146.92929,41.163599 L146.92929,56.9491525 L156.083819,56.9491525 Z" id="LEADTIME" fill="#8889A1" fill-rule="nonzero" opacity="0.9"></path>
                </g>
                <g id="Group-6" transform="translate(491.000000, 905.000000)">
                    <g id="Rectangle">
                        <use fill="black" fill-opacity="1" filter="url(#filter-8)" xlink:href="#path-7"></use>
                        <use fill="#FFFFFF" fill-rule="evenodd" xlink:href="#path-7"></use>
                    </g>
                    <path d="M290.870299,63.0508475 L290.870299,33.3110434 L286.323822,33.3110434 L279.086997,39.6302304 L279.086997,44.635527 L286.073557,38.3580508 L286.073557,63.0508475 L290.870299,63.0508475 Z M315.646517,63.0508475 L315.646517,33.3110434 L311.10004,33.3110434 L303.863215,39.6302304 L303.863215,44.635527 L310.849775,38.3580508 L310.849775,63.0508475 L315.646517,63.0508475 Z M346.533369,63.5305217 C349.599113,63.5305217 352.268604,62.0914989 353.519928,59.7139831 L353.645061,63.0508475 L358.233249,63.0508475 L358.233249,31.0169492 L353.436507,31.0169492 L353.436507,45.3028999 C352.143472,43.029661 349.515691,41.6740599 346.533369,41.6740599 C341.110964,41.6740599 336.585342,45.8659958 336.585342,52.5814354 C336.585342,59.3385858 341.090109,63.5305217 346.533369,63.5305217 Z M347.596994,59.4637182 C344.134997,59.4637182 341.382084,56.7942267 341.382084,52.5814354 C341.382084,48.3894995 344.134997,45.7200079 347.596994,45.7200079 C351.058991,45.7200079 353.791049,48.5563427 353.791049,52.5814354 C353.791049,56.6273835 351.079846,59.4637182 347.596994,59.4637182 Z M369.974841,63.4471001 C372.498345,63.4471001 375.188692,62.5711732 376.815413,60.2770789 L377.044823,60.2770789 C377.524497,62.2166314 378.942664,63.0508475 381.299325,63.0508475 L383.572564,63.0508475 L383.572564,59.7765493 L383.238877,59.7765493 C381.778999,59.7765493 381.257614,59.2134534 381.257614,57.2321901 L381.257614,49.0985832 C381.257614,43.1965042 377.023967,41.6949153 372.832031,41.6949153 C367.639036,41.6949153 364.510726,43.6970339 363.780787,48.0349576 L368.097855,48.8274629 C368.410686,46.137116 370.266817,45.1360567 372.540056,45.1360567 C374.625596,45.1360567 376.64857,45.9911282 376.64857,48.5771981 C376.64857,49.5782574 376.085474,50.2039195 374.709017,50.4750397 L371.538996,51.058991 C367.159362,51.8514963 363.509666,53.2488083 363.509666,57.7327198 C363.509666,61.8203787 366.57541,63.4471001 369.974841,63.4471001 Z M371.101033,59.6722722 C369.453456,59.6722722 368.160421,58.984044 368.160421,57.3364672 C368.160421,55.7514566 369.39089,55.0006621 371.601562,54.583554 L376.961401,53.3947961 C376.961401,57.2321901 374.396186,59.6722722 371.101033,59.6722722 Z M393.979409,72.9154529 L406.534362,42.0703125 L401.549921,42.0703125 L395.898106,57.0862023 L390.454846,42.0703125 L385.17843,42.0703125 L393.583157,62.3626192 L389.07839,72.9154529 L393.979409,72.9154529 Z M417.316605,63.4471001 C421.633673,63.4471001 425.512778,61.7369571 425.512778,57.0862023 C425.512778,52.6440016 421.925649,51.3926774 418.651351,50.5376059 C415.981859,49.8285222 413.520922,49.4114142 413.520922,47.4092956 C413.520922,45.6782971 415.210209,45.0109243 416.941208,45.0109243 C418.88076,45.0109243 420.549192,45.8868512 421.112288,48.0975238 L424.907971,47.2007415 C424.178032,43.3007813 420.882879,41.6949153 416.920352,41.6949153 C412.582428,41.6949153 409.099576,43.5927569 409.099576,47.8055482 C409.099576,51.4552436 411.727357,52.6857124 414.438559,53.5616393 C417.796279,54.687831 420.841168,54.9798067 420.882879,57.3573226 C420.92459,59.3802966 419.047603,60.0059587 417.316605,60.0059587 C414.959944,60.0059587 413.187235,58.8589115 412.624139,56.4813957 L408.557336,57.6284428 C409.266419,61.5075477 412.749272,63.4471001 417.316605,63.4471001 Z" id="11days" fill="#121343" fill-rule="nonzero"></path>
                    <rect id="Rectangle" fill="#D5F5E3" x="467.79661" y="30.5084746" width="89.4915254" height="38.6440678" rx="5"></rect>
                    <path d="M515.094677,59.1906118 C518.295485,59.1906118 520.458488,57.0603814 520.458488,53.8595736 C520.458488,50.74616 518.612288,48.9108845 514.624934,48.9108845 L512.920749,48.9108845 L513.259401,45.6882283 L519.748411,45.6882283 L519.748411,43.4159825 L511.063626,43.4159825 L510.25523,51.0520392 L514.264433,51.0520392 C516.973649,51.0520392 517.92406,52.2427834 517.92406,53.9469677 C517.92406,55.6620763 516.864407,56.8637447 515.040056,56.8637447 C513.641751,56.8637447 512.221597,56.0990466 512.221597,54.1545286 C512.221597,53.9141949 512.25437,53.662937 512.298067,53.367982 L509.774563,53.5209216 C509.74179,53.8049523 509.719942,54.0562103 509.719942,54.3074682 C509.719942,57.4536547 512.221597,59.1906118 515.094677,59.1906118 Z M526.008011,50.0360832 C527.908832,50.0360832 529.41638,48.4848385 529.41638,46.5949417 C529.41638,44.7268935 527.908832,43.1756488 526.008011,43.1756488 C524.129039,43.1756488 522.588718,44.7159693 522.588718,46.5949417 C522.588718,48.506687 524.118114,50.0360832 526.008011,50.0360832 Z M527.20968,58.9939751 L535.44657,43.3832097 L533.261719,43.3832097 L525.046676,58.9939751 L527.20968,58.9939751 Z M526.008011,48.2991261 C525.079449,48.2991261 524.303827,47.5562765 524.303827,46.5949417 C524.303827,45.6445313 525.079449,44.9126059 526.008011,44.9126059 C526.947497,44.9126059 527.701271,45.6554555 527.701271,46.5949417 C527.701271,47.534428 526.98027,48.2991261 526.008011,48.2991261 Z M534.605403,59.1687632 C536.484375,59.1687632 537.991923,57.6284428 537.991923,55.7494703 C537.991923,53.8595736 536.473451,52.3301774 534.605403,52.3301774 C532.715506,52.3301774 531.175185,53.8486494 531.175185,55.7494703 C531.175185,57.6393671 532.693657,59.1687632 534.605403,59.1687632 Z M534.605403,57.4427304 C533.644068,57.4427304 532.901218,56.6780323 532.901218,55.7494703 C532.901218,54.7881356 533.644068,54.045286 534.605403,54.045286 C535.52304,54.045286 536.309587,54.8099841 536.309587,55.7494703 C536.309587,56.6780323 535.533965,57.4427304 534.605403,57.4427304 Z" id="5%" fill="#2FCC71" fill-rule="nonzero"></path>
                    <g id="caret-arrow-up" transform="translate(488.135593, 51.864407) rotate(-180.000000) translate(-488.135593, -51.864407) translate(482.033898, 48.813559)" fill="#2FCC71" fill-rule="nonzero">
                        <path d="M10.5469267,4.93601389 L5.84542373,0.234547682 C5.71261997,0.101596896 5.55522565,0.0351766388 5.373204,0.0351766388 C5.19118236,0.0351766388 5.03382479,0.101596896 4.900874,0.234547682 L0.199371043,4.93601389 C0.0664202573,5.06896467 0,5.226359 0,5.40823361 C0,5.59010823 0.0664202573,5.74761282 0.199371043,5.88045334 C0.332468858,6.01340412 0.489826424,6.07986114 0.671701041,6.07986114 L10.0746702,6.07986114 C10.2565816,6.07986114 10.4140494,6.01340412 10.5469267,5.88045334 C10.6797304,5.74764958 10.746408,5.59014499 10.746408,5.40823361 C10.746408,5.22632224 10.6797304,5.06896467 10.5469267,4.93601389 Z" id="Path"></path>
                    </g>
                    <path d="M51.7462262,57.1676377 C55.2638374,57.1676377 58.0822961,55.3542108 59.2074947,52.360964 L56.1487023,51.2466896 C55.4495498,53.081965 53.7781382,54.1525424 51.7462262,54.1525424 C49.0260858,54.1525424 46.9395524,52.2407971 46.9395524,49.0509137 C46.9395524,45.8610302 49.0260858,43.9602092 51.7462262,43.9602092 C53.7781382,43.9602092 55.4495498,45.0198623 56.1487023,46.8551377 L59.2074947,45.7408633 C58.0822961,42.7476165 55.2638374,40.9451139 51.7462262,40.9451139 C47.1034163,40.9451139 43.6731992,44.0913003 43.6731992,49.0509137 C43.6731992,54.010527 47.1034163,57.1676377 51.7462262,57.1676377 Z M68.5477357,56.9491525 L68.5477357,49.3895657 L73.7367585,41.163599 L70.1208289,41.163599 L66.8872484,46.5383342 L63.6645922,41.163599 L60.0377383,41.163599 L65.2595339,49.4660355 L65.2595339,56.9491525 L68.5477357,56.9491525 Z M82.9459084,57.1676377 C86.4635196,57.1676377 89.2819783,55.3542108 90.4071769,52.360964 L87.3483845,51.2466896 C86.649232,53.081965 84.9778204,54.1525424 82.9459084,54.1525424 C80.225768,54.1525424 78.1392346,52.2407971 78.1392346,49.0509137 C78.1392346,45.8610302 80.225768,43.9602092 82.9459084,43.9602092 C84.9778204,43.9602092 86.649232,45.0198623 87.3483845,46.8551377 L90.4071769,45.7408633 C89.2819783,42.7476165 86.4635196,40.9451139 82.9459084,40.9451139 C78.3030985,40.9451139 74.8728814,44.0913003 74.8728814,49.0509137 C74.8728814,54.010527 78.3030985,57.1676377 82.9459084,57.1676377 Z M101.320511,56.9491525 L101.320511,54.054224 L96.371822,54.054224 L96.371822,41.163599 L93.0945445,41.163599 L93.0945445,56.9491525 L101.320511,56.9491525 Z M112.976695,56.9491525 L112.976695,54.054224 L107.121292,54.054224 L107.121292,50.4819915 L112.310315,50.4819915 L112.310315,47.6307601 L107.121292,47.6307601 L107.121292,44.0476033 L112.976695,44.0476033 L112.976695,41.163599 L103.822166,41.163599 L103.822166,56.9491525 L112.976695,56.9491525 Z M127.571504,56.9491525 L127.571504,44.0476033 L131.318525,44.0476033 L131.318525,41.163599 L120.55813,41.163599 L120.55813,44.0476033 L124.326999,44.0476033 L124.326999,56.9491525 L127.571504,56.9491525 Z M137.075609,56.9491525 L137.075609,41.163599 L133.798332,41.163599 L133.798332,56.9491525 L137.075609,56.9491525 Z M143.77218,56.9491525 L144.820908,45.0526351 L148.819187,56.9491525 L150.938493,56.9491525 L154.936772,45.0526351 L155.974576,56.9491525 L159.24093,56.9491525 L157.940943,41.163599 L153.26536,41.163599 L149.856992,51.0719015 L146.49232,41.163599 L141.816737,41.163599 L140.494902,56.9491525 L143.77218,56.9491525 Z M171.825675,56.9491525 L171.825675,54.054224 L165.970273,54.054224 L165.970273,50.4819915 L171.159296,50.4819915 L171.159296,47.6307601 L165.970273,47.6307601 L165.970273,44.0476033 L171.825675,44.0476033 L171.825675,41.163599 L162.671147,41.163599 L162.671147,56.9491525 L171.825675,56.9491525 Z" id="CYCLETIME" fill="#8889A1" fill-rule="nonzero" opacity="0.9"></path>
                </g>
            </g>
        </g>
    </g>
</svg>